  0
SECTION
  2
HEADER
  9
$ANGBASE
  50
0.0
  9
$ANGDIR
  70
1
  9
$MEASUREMENT
  70
1
  0
ENDSEC
  0
SECTION
  2
TABLES
  0
TABLE
  2
LTYPE
  70
4
  0
LTYPE
  5
40F
  2
CONTINUOUS
  70
0
  3
Solid line
  72
65
  73
0
  40
0.0
  0
LTYPE
  5
410
  2
DASHDOT
 70
0
  3
Dash Dot ____ _ ____ _
 72
65
 73
4
 40
2.0
 49
1.25
 49
-0.25
 49
0.25
 49
-0.25
  0
LTYPE
  5
411
  2
DASHED
 70
0
  3
Dashed __ __ __ __ __
 72
65
 73
2
 40
0.75
 49
0.5
 49
-0.25
  0
LTYPE
  5
43B
  2
DOTTED
 70
0
  3
Dotted .  .  .  .
 72
65
 73
2
 40
0.2
 49
0.0
 49
-0.2
  0
ENDTAB
  0
TABLE
  2
STYLE
  70
4
  0
STYLE
  2
KICAD
  70
0
  40
0
  41
1
  42
1
  50
0
  71
0
  3
isocp.shx
  0
STYLE
  2
KICADB
  70
0
  40
0
  41
1
  42
1
  50
0
  71
0
  3
isocp.shx
  0
STYLE
  2
KICADI
  70
0
  40
0
  41
1
  42
1
  50
15
  71
0
  3
isocp.shx
  0
STYLE
  2
KICADBI
  70
0
  40
0
  41
1
  42
1
  50
15
  71
0
  3
isocp.shx
  0
ENDTAB
  0
TABLE
  2
LAYER
  70
1
  0
LAYER
  2
BLACK
  70
0
  62
7
  6
CONTINUOUS
  0
ENDTAB
  0
ENDSEC
  0
SECTION
  2
ENTITIES
0
LINE
8
BLACK
6
CONTINUOUS
10
141.386
20
-61.9042
11
141.404
21
-61.9524
0
LINE
8
BLACK
6
CONTINUOUS
10
141.404
20
-61.9524
11
141.404
21
-62.9524
0
LINE
8
BLACK
6
CONTINUOUS
10
141.404
20
-62.9524
11
141.402
21
-62.9621
0
LINE
8
BLACK
6
CONTINUOUS
10
141.402
20
-62.9621
11
141.402
21
-62.9654
0
LINE
8
BLACK
6
CONTINUOUS
10
141.402
20
-62.9654
11
141.401
21
-62.9683
0
LINE
8
BLACK
6
CONTINUOUS
10
141.401
20
-62.9683
11
141.399
21
-62.978
0
LINE
8
BLACK
6
CONTINUOUS
10
141.399
20
-62.978
11
141.387
21
-62.993
0
LINE
8
BLACK
6
CONTINUOUS
10
141.387
20
-62.993
11
141.377
21
-63.0098
0
LINE
8
BLACK
6
CONTINUOUS
10
141.377
20
-63.0098
11
141.37
21
-63.0121
0
LINE
8
BLACK
6
CONTINUOUS
10
141.37
20
-63.0121
11
141.366
21
-63.0173
0
LINE
8
BLACK
6
CONTINUOUS
10
141.366
20
-63.0173
11
141.347
21
-63.0207
0
LINE
8
BLACK
6
CONTINUOUS
10
141.347
20
-63.0207
11
141.329
21
-63.0274
0
LINE
8
BLACK
6
CONTINUOUS
10
141.329
20
-63.0274
11
140.852
21
-63.0274
0
LINE
8
BLACK
6
CONTINUOUS
10
140.852
20
-63.0274
11
140.827
21
-63.0229
0
LINE
8
BLACK
6
CONTINUOUS
10
140.827
20
-63.0229
11
140.787
21
-62.9899
0
LINE
8
BLACK
6
CONTINUOUS
10
140.787
20
-62.9899
11
140.779
21
-62.9394
0
LINE
8
BLACK
6
CONTINUOUS
10
140.779
20
-62.9394
11
140.804
21
-62.8949
0
LINE
8
BLACK
6
CONTINUOUS
10
140.804
20
-62.8949
11
140.852
21
-62.8774
0
LINE
8
BLACK
6
CONTINUOUS
10
140.852
20
-62.8774
11
141.254
21
-62.8774
0
LINE
8
BLACK
6
CONTINUOUS
10
141.254
20
-62.8774
11
141.254
21
-61.9524
0
LINE
8
BLACK
6
CONTINUOUS
10
141.254
20
-61.9524
11
141.258
21
-61.9267
0
LINE
8
BLACK
6
CONTINUOUS
10
141.258
20
-61.9267
11
141.291
21
-61.8874
0
LINE
8
BLACK
6
CONTINUOUS
10
141.291
20
-61.8874
11
141.342
21
-61.8785
0
LINE
8
BLACK
6
CONTINUOUS
10
141.342
20
-61.8785
11
141.386
21
-61.9042
0
LINE
8
BLACK
6
CONTINUOUS
10
141.862
20
-61.9042
11
141.88
21
-61.9524
0
LINE
8
BLACK
6
CONTINUOUS
10
141.88
20
-61.9524
11
141.88
21
-62.6545
0
LINE
8
BLACK
6
CONTINUOUS
10
141.88
20
-62.6545
11
141.918
21
-62.769
0
LINE
8
BLACK
6
CONTINUOUS
10
141.918
20
-62.769
11
141.988
21
-62.8392
0
LINE
8
BLACK
6
CONTINUOUS
10
141.988
20
-62.8392
11
142.103
21
-62.8774
0
LINE
8
BLACK
6
CONTINUOUS
10
142.103
20
-62.8774
11
142.186
21
-62.8774
0
LINE
8
BLACK
6
CONTINUOUS
10
142.186
20
-62.8774
11
142.211
21
-62.8819
0
LINE
8
BLACK
6
CONTINUOUS
10
142.211
20
-62.8819
11
142.251
21
-62.9149
0
LINE
8
BLACK
6
CONTINUOUS
10
142.251
20
-62.9149
11
142.26
21
-62.9654
0
LINE
8
BLACK
6
CONTINUOUS
10
142.26
20
-62.9654
11
142.234
21
-63.0098
0
LINE
8
BLACK
6
CONTINUOUS
10
142.234
20
-63.0098
11
142.186
21
-63.0274
0
LINE
8
BLACK
6
CONTINUOUS
10
142.186
20
-63.0274
11
142.09
21
-63.0274
0
LINE
8
BLACK
6
CONTINUOUS
10
142.09
20
-63.0274
11
142.068
21
-63.0235
0
LINE
8
BLACK
6
CONTINUOUS
10
142.068
20
-63.0235
11
142.067
21
-63.0235
0
LINE
8
BLACK
6
CONTINUOUS
10
142.067
20
-63.0235
11
141.924
21
-62.9759
0
LINE
8
BLACK
6
CONTINUOUS
10
141.924
20
-62.9759
11
141.901
21
-62.9635
0
LINE
8
BLACK
6
CONTINUOUS
10
141.901
20
-62.9635
11
141.899
21
-62.9597
0
LINE
8
BLACK
6
CONTINUOUS
10
141.899
20
-62.9597
11
141.895
21
-62.9578
0
LINE
8
BLACK
6
CONTINUOUS
10
141.895
20
-62.9578
11
141.799
21
-62.8626
0
LINE
8
BLACK
6
CONTINUOUS
10
141.799
20
-62.8626
11
141.784
21
-62.8412
0
LINE
8
BLACK
6
CONTINUOUS
10
141.784
20
-62.8412
11
141.784
21
-62.8368
0
LINE
8
BLACK
6
CONTINUOUS
10
141.784
20
-62.8368
11
141.781
21
-62.8332
0
LINE
8
BLACK
6
CONTINUOUS
10
141.781
20
-62.8332
11
141.734
21
-62.6904
0
LINE
8
BLACK
6
CONTINUOUS
10
141.734
20
-62.6904
11
141.73
21
-62.6682
0
LINE
8
BLACK
6
CONTINUOUS
10
141.73
20
-62.6682
11
141.73
21
-62.6667
0
LINE
8
BLACK
6
CONTINUOUS
10
141.73
20
-62.6667
11
141.73
21
-61.9524
0
LINE
8
BLACK
6
CONTINUOUS
10
141.73
20
-61.9524
11
141.734
21
-61.9267
0
LINE
8
BLACK
6
CONTINUOUS
10
141.734
20
-61.9267
11
141.767
21
-61.8874
0
LINE
8
BLACK
6
CONTINUOUS
10
141.767
20
-61.8874
11
141.818
21
-61.8785
0
LINE
8
BLACK
6
CONTINUOUS
10
141.818
20
-61.8785
11
141.862
21
-61.9042
0
LINE
8
BLACK
6
CONTINUOUS
10
144.434
20
-61.9042
11
144.451
21
-61.9524
0
LINE
8
BLACK
6
CONTINUOUS
10
144.451
20
-61.9524
11
144.451
21
-62.6545
0
LINE
8
BLACK
6
CONTINUOUS
10
144.451
20
-62.6545
11
144.489
21
-62.769
0
LINE
8
BLACK
6
CONTINUOUS
10
144.489
20
-62.769
11
144.56
21
-62.8392
0
LINE
8
BLACK
6
CONTINUOUS
10
144.56
20
-62.8392
11
144.674
21
-62.8774
0
LINE
8
BLACK
6
CONTINUOUS
10
144.674
20
-62.8774
11
144.757
21
-62.8774
0
LINE
8
BLACK
6
CONTINUOUS
10
144.757
20
-62.8774
11
144.783
21
-62.8819
0
LINE
8
BLACK
6
CONTINUOUS
10
144.783
20
-62.8819
11
144.822
21
-62.9149
0
LINE
8
BLACK
6
CONTINUOUS
10
144.822
20
-62.9149
11
144.831
21
-62.9654
0
LINE
8
BLACK
6
CONTINUOUS
10
144.831
20
-62.9654
11
144.805
21
-63.0098
0
LINE
8
BLACK
6
CONTINUOUS
10
144.805
20
-63.0098
11
144.757
21
-63.0274
0
LINE
8
BLACK
6
CONTINUOUS
10
144.757
20
-63.0274
11
144.662
21
-63.0274
0
LINE
8
BLACK
6
CONTINUOUS
10
144.662
20
-63.0274
11
144.64
21
-63.0235
0
LINE
8
BLACK
6
CONTINUOUS
10
144.64
20
-63.0235
11
144.638
21
-63.0235
0
LINE
8
BLACK
6
CONTINUOUS
10
144.638
20
-63.0235
11
144.495
21
-62.9759
0
LINE
8
BLACK
6
CONTINUOUS
10
144.495
20
-62.9759
11
144.472
21
-62.9635
0
LINE
8
BLACK
6
CONTINUOUS
10
144.472
20
-62.9635
11
144.47
21
-62.9597
0
LINE
8
BLACK
6
CONTINUOUS
10
144.47
20
-62.9597
11
144.466
21
-62.9578
0
LINE
8
BLACK
6
CONTINUOUS
10
144.466
20
-62.9578
11
144.371
21
-62.8626
0
LINE
8
BLACK
6
CONTINUOUS
10
144.371
20
-62.8626
11
144.356
21
-62.8412
0
LINE
8
BLACK
6
CONTINUOUS
10
144.356
20
-62.8412
11
144.355
21
-62.8368
0
LINE
8
BLACK
6
CONTINUOUS
10
144.355
20
-62.8368
11
144.353
21
-62.8332
0
LINE
8
BLACK
6
CONTINUOUS
10
144.353
20
-62.8332
11
144.305
21
-62.6904
0
LINE
8
BLACK
6
CONTINUOUS
10
144.305
20
-62.6904
11
144.302
21
-62.6682
0
LINE
8
BLACK
6
CONTINUOUS
10
144.302
20
-62.6682
11
144.301
21
-62.6667
0
LINE
8
BLACK
6
CONTINUOUS
10
144.301
20
-62.6667
11
144.301
21
-61.9524
0
LINE
8
BLACK
6
CONTINUOUS
10
144.301
20
-61.9524
11
144.306
21
-61.9267
0
LINE
8
BLACK
6
CONTINUOUS
10
144.306
20
-61.9267
11
144.339
21
-61.8874
0
LINE
8
BLACK
6
CONTINUOUS
10
144.339
20
-61.8874
11
144.389
21
-61.8785
0
LINE
8
BLACK
6
CONTINUOUS
10
144.389
20
-61.8785
11
144.434
21
-61.9042
0
LINE
8
BLACK
6
CONTINUOUS
10
149.576
20
-61.9042
11
149.594
21
-61.9524
0
LINE
8
BLACK
6
CONTINUOUS
10
149.594
20
-61.9524
11
149.594
21
-62.6545
0
LINE
8
BLACK
6
CONTINUOUS
10
149.594
20
-62.6545
11
149.632
21
-62.769
0
LINE
8
BLACK
6
CONTINUOUS
10
149.632
20
-62.769
11
149.702
21
-62.8392
0
LINE
8
BLACK
6
CONTINUOUS
10
149.702
20
-62.8392
11
149.817
21
-62.8774
0
LINE
8
BLACK
6
CONTINUOUS
10
149.817
20
-62.8774
11
149.9
21
-62.8774
0
LINE
8
BLACK
6
CONTINUOUS
10
149.9
20
-62.8774
11
149.926
21
-62.8819
0
LINE
8
BLACK
6
CONTINUOUS
10
149.926
20
-62.8819
11
149.965
21
-62.9149
0
LINE
8
BLACK
6
CONTINUOUS
10
149.965
20
-62.9149
11
149.974
21
-62.9654
0
LINE
8
BLACK
6
CONTINUOUS
10
149.974
20
-62.9654
11
149.948
21
-63.0098
0
LINE
8
BLACK
6
CONTINUOUS
10
149.948
20
-63.0098
11
149.9
21
-63.0274
0
LINE
8
BLACK
6
CONTINUOUS
10
149.9
20
-63.0274
11
149.805
21
-63.0274
0
LINE
8
BLACK
6
CONTINUOUS
10
149.805
20
-63.0274
11
149.783
21
-63.0235
0
LINE
8
BLACK
6
CONTINUOUS
10
149.783
20
-63.0235
11
149.781
21
-63.0235
0
LINE
8
BLACK
6
CONTINUOUS
10
149.781
20
-63.0235
11
149.638
21
-62.9759
0
LINE
8
BLACK
6
CONTINUOUS
10
149.638
20
-62.9759
11
149.615
21
-62.9635
0
LINE
8
BLACK
6
CONTINUOUS
10
149.615
20
-62.9635
11
149.613
21
-62.9597
0
LINE
8
BLACK
6
CONTINUOUS
10
149.613
20
-62.9597
11
149.609
21
-62.9578
0
LINE
8
BLACK
6
CONTINUOUS
10
149.609
20
-62.9578
11
149.514
21
-62.8626
0
LINE
8
BLACK
6
CONTINUOUS
10
149.514
20
-62.8626
11
149.499
21
-62.8412
0
LINE
8
BLACK
6
CONTINUOUS
10
149.499
20
-62.8412
11
149.498
21
-62.8368
0
LINE
8
BLACK
6
CONTINUOUS
10
149.498
20
-62.8368
11
149.496
21
-62.8332
0
LINE
8
BLACK
6
CONTINUOUS
10
149.496
20
-62.8332
11
149.448
21
-62.6904
0
LINE
8
BLACK
6
CONTINUOUS
10
149.448
20
-62.6904
11
149.445
21
-62.6682
0
LINE
8
BLACK
6
CONTINUOUS
10
149.445
20
-62.6682
11
149.444
21
-62.6667
0
LINE
8
BLACK
6
CONTINUOUS
10
149.444
20
-62.6667
11
149.444
21
-61.9524
0
LINE
8
BLACK
6
CONTINUOUS
10
149.444
20
-61.9524
11
149.449
21
-61.9267
0
LINE
8
BLACK
6
CONTINUOUS
10
149.449
20
-61.9267
11
149.482
21
-61.8874
0
LINE
8
BLACK
6
CONTINUOUS
10
149.482
20
-61.8874
11
149.532
21
-61.8785
0
LINE
8
BLACK
6
CONTINUOUS
10
149.532
20
-61.8785
11
149.576
21
-61.9042
0
LINE
8
BLACK
6
CONTINUOUS
10
149.1
20
-61.9042
11
149.118
21
-61.9524
0
LINE
8
BLACK
6
CONTINUOUS
10
149.118
20
-61.9524
11
149.118
21
-62.9524
0
LINE
8
BLACK
6
CONTINUOUS
10
149.118
20
-62.9524
11
149.116
21
-62.9621
0
LINE
8
BLACK
6
CONTINUOUS
10
149.116
20
-62.9621
11
149.117
21
-62.9654
0
LINE
8
BLACK
6
CONTINUOUS
10
149.117
20
-62.9654
11
149.115
21
-62.9683
0
LINE
8
BLACK
6
CONTINUOUS
10
149.115
20
-62.9683
11
149.113
21
-62.978
0
LINE
8
BLACK
6
CONTINUOUS
10
149.113
20
-62.978
11
149.101
21
-62.993
0
LINE
8
BLACK
6
CONTINUOUS
10
149.101
20
-62.993
11
149.091
21
-63.0098
0
LINE
8
BLACK
6
CONTINUOUS
10
149.091
20
-63.0098
11
149.085
21
-63.0121
0
LINE
8
BLACK
6
CONTINUOUS
10
149.085
20
-63.0121
11
149.08
21
-63.0173
0
LINE
8
BLACK
6
CONTINUOUS
10
149.08
20
-63.0173
11
149.061
21
-63.0207
0
LINE
8
BLACK
6
CONTINUOUS
10
149.061
20
-63.0207
11
149.043
21
-63.0274
0
LINE
8
BLACK
6
CONTINUOUS
10
149.043
20
-63.0274
11
148.567
21
-63.0274
0
LINE
8
BLACK
6
CONTINUOUS
10
148.567
20
-63.0274
11
148.541
21
-63.0229
0
LINE
8
BLACK
6
CONTINUOUS
10
148.541
20
-63.0229
11
148.502
21
-62.9899
0
LINE
8
BLACK
6
CONTINUOUS
10
148.502
20
-62.9899
11
148.493
21
-62.9394
0
LINE
8
BLACK
6
CONTINUOUS
10
148.493
20
-62.9394
11
148.518
21
-62.8949
0
LINE
8
BLACK
6
CONTINUOUS
10
148.518
20
-62.8949
11
148.567
21
-62.8774
0
LINE
8
BLACK
6
CONTINUOUS
10
148.567
20
-62.8774
11
148.968
21
-62.8774
0
LINE
8
BLACK
6
CONTINUOUS
10
148.968
20
-62.8774
11
148.968
21
-61.9524
0
LINE
8
BLACK
6
CONTINUOUS
10
148.968
20
-61.9524
11
148.972
21
-61.9267
0
LINE
8
BLACK
6
CONTINUOUS
10
148.972
20
-61.9267
11
149.005
21
-61.8874
0
LINE
8
BLACK
6
CONTINUOUS
10
149.005
20
-61.8874
11
149.056
21
-61.8785
0
LINE
8
BLACK
6
CONTINUOUS
10
149.056
20
-61.8785
11
149.1
21
-61.9042
0
LINE
8
BLACK
6
CONTINUOUS
10
147.005
20
-61.9042
11
147.023
21
-61.9524
0
LINE
8
BLACK
6
CONTINUOUS
10
147.023
20
-61.9524
11
147.023
21
-62.6545
0
LINE
8
BLACK
6
CONTINUOUS
10
147.023
20
-62.6545
11
147.061
21
-62.769
0
LINE
8
BLACK
6
CONTINUOUS
10
147.061
20
-62.769
11
147.131
21
-62.8392
0
LINE
8
BLACK
6
CONTINUOUS
10
147.131
20
-62.8392
11
147.246
21
-62.8774
0
LINE
8
BLACK
6
CONTINUOUS
10
147.246
20
-62.8774
11
147.329
21
-62.8774
0
LINE
8
BLACK
6
CONTINUOUS
10
147.329
20
-62.8774
11
147.354
21
-62.8819
0
LINE
8
BLACK
6
CONTINUOUS
10
147.354
20
-62.8819
11
147.394
21
-62.9149
0
LINE
8
BLACK
6
CONTINUOUS
10
147.394
20
-62.9149
11
147.402
21
-62.9654
0
LINE
8
BLACK
6
CONTINUOUS
10
147.402
20
-62.9654
11
147.377
21
-63.0098
0
LINE
8
BLACK
6
CONTINUOUS
10
147.377
20
-63.0098
11
147.329
21
-63.0274
0
LINE
8
BLACK
6
CONTINUOUS
10
147.329
20
-63.0274
11
147.233
21
-63.0274
0
LINE
8
BLACK
6
CONTINUOUS
10
147.233
20
-63.0274
11
147.211
21
-63.0235
0
LINE
8
BLACK
6
CONTINUOUS
10
147.211
20
-63.0235
11
147.21
21
-63.0235
0
LINE
8
BLACK
6
CONTINUOUS
10
147.21
20
-63.0235
11
147.067
21
-62.9759
0
LINE
8
BLACK
6
CONTINUOUS
10
147.067
20
-62.9759
11
147.044
21
-62.9635
0
LINE
8
BLACK
6
CONTINUOUS
10
147.044
20
-62.9635
11
147.042
21
-62.9597
0
LINE
8
BLACK
6
CONTINUOUS
10
147.042
20
-62.9597
11
147.037
21
-62.9578
0
LINE
8
BLACK
6
CONTINUOUS
10
147.037
20
-62.9578
11
146.942
21
-62.8626
0
LINE
8
BLACK
6
CONTINUOUS
10
146.942
20
-62.8626
11
146.927
21
-62.8412
0
LINE
8
BLACK
6
CONTINUOUS
10
146.927
20
-62.8412
11
146.927
21
-62.8368
0
LINE
8
BLACK
6
CONTINUOUS
10
146.927
20
-62.8368
11
146.924
21
-62.8332
0
LINE
8
BLACK
6
CONTINUOUS
10
146.924
20
-62.8332
11
146.876
21
-62.6904
0
LINE
8
BLACK
6
CONTINUOUS
10
146.876
20
-62.6904
11
146.873
21
-62.6682
0
LINE
8
BLACK
6
CONTINUOUS
10
146.873
20
-62.6682
11
146.873
21
-62.6667
0
LINE
8
BLACK
6
CONTINUOUS
10
146.873
20
-62.6667
11
146.873
21
-61.9524
0
LINE
8
BLACK
6
CONTINUOUS
10
146.873
20
-61.9524
11
146.877
21
-61.9267
0
LINE
8
BLACK
6
CONTINUOUS
10
146.877
20
-61.9267
11
146.91
21
-61.8874
0
LINE
8
BLACK
6
CONTINUOUS
10
146.91
20
-61.8874
11
146.961
21
-61.8785
0
LINE
8
BLACK
6
CONTINUOUS
10
146.961
20
-61.8785
11
147.005
21
-61.9042
0
LINE
8
BLACK
6
CONTINUOUS
10
142.827
20
-61.8813
11
142.828
21
-61.8812
0
LINE
8
BLACK
6
CONTINUOUS
10
142.828
20
-61.8812
11
142.971
21
-61.9288
0
LINE
8
BLACK
6
CONTINUOUS
10
142.971
20
-61.9288
11
142.994
21
-61.9413
0
LINE
8
BLACK
6
CONTINUOUS
10
142.994
20
-61.9413
11
142.997
21
-61.9451
0
LINE
8
BLACK
6
CONTINUOUS
10
142.997
20
-61.9451
11
143.001
21
-61.947
0
LINE
8
BLACK
6
CONTINUOUS
10
143.001
20
-61.947
11
143.096
21
-62.0422
0
LINE
8
BLACK
6
CONTINUOUS
10
143.096
20
-62.0422
11
143.109
21
-62.0606
0
LINE
8
BLACK
6
CONTINUOUS
10
143.109
20
-62.0606
11
143.11
21
-62.0617
0
LINE
8
BLACK
6
CONTINUOUS
10
143.11
20
-62.0617
11
143.158
21
-62.1569
0
LINE
8
BLACK
6
CONTINUOUS
10
143.158
20
-62.1569
11
143.161
21
-62.1693
0
LINE
8
BLACK
6
CONTINUOUS
10
143.161
20
-62.1693
11
143.163
21
-62.1723
0
LINE
8
BLACK
6
CONTINUOUS
10
143.163
20
-62.1723
11
143.211
21
-62.3628
0
LINE
8
BLACK
6
CONTINUOUS
10
143.211
20
-62.3628
11
143.212
21
-62.3777
0
LINE
8
BLACK
6
CONTINUOUS
10
143.212
20
-62.3777
11
143.213
21
-62.381
0
LINE
8
BLACK
6
CONTINUOUS
10
143.213
20
-62.381
11
143.213
21
-62.5238
0
LINE
8
BLACK
6
CONTINUOUS
10
143.213
20
-62.5238
11
143.21
21
-62.5386
0
LINE
8
BLACK
6
CONTINUOUS
10
143.21
20
-62.5386
11
143.211
21
-62.542
0
LINE
8
BLACK
6
CONTINUOUS
10
143.211
20
-62.542
11
143.163
21
-62.7325
0
LINE
8
BLACK
6
CONTINUOUS
10
143.163
20
-62.7325
11
143.158
21
-62.7443
0
LINE
8
BLACK
6
CONTINUOUS
10
143.158
20
-62.7443
11
143.158
21
-62.7478
0
LINE
8
BLACK
6
CONTINUOUS
10
143.158
20
-62.7478
11
143.11
21
-62.8431
0
LINE
8
BLACK
6
CONTINUOUS
10
143.11
20
-62.8431
11
143.097
21
-62.8611
0
LINE
8
BLACK
6
CONTINUOUS
10
143.097
20
-62.8611
11
143.096
21
-62.8626
0
LINE
8
BLACK
6
CONTINUOUS
10
143.096
20
-62.8626
11
143.001
21
-62.9578
0
LINE
8
BLACK
6
CONTINUOUS
10
143.001
20
-62.9578
11
142.979
21
-62.9727
0
LINE
8
BLACK
6
CONTINUOUS
10
142.979
20
-62.9727
11
142.975
21
-62.9731
0
LINE
8
BLACK
6
CONTINUOUS
10
142.975
20
-62.9731
11
142.971
21
-62.9759
0
LINE
8
BLACK
6
CONTINUOUS
10
142.971
20
-62.9759
11
142.828
21
-63.0235
0
LINE
8
BLACK
6
CONTINUOUS
10
142.828
20
-63.0235
11
142.806
21
-63.0268
0
LINE
8
BLACK
6
CONTINUOUS
10
142.806
20
-63.0268
11
142.805
21
-63.0274
0
LINE
8
BLACK
6
CONTINUOUS
10
142.805
20
-63.0274
11
142.71
21
-63.0274
0
LINE
8
BLACK
6
CONTINUOUS
10
142.71
20
-63.0274
11
142.687
21
-63.0235
0
LINE
8
BLACK
6
CONTINUOUS
10
142.687
20
-63.0235
11
142.686
21
-63.0235
0
LINE
8
BLACK
6
CONTINUOUS
10
142.686
20
-63.0235
11
142.543
21
-62.9759
0
LINE
8
BLACK
6
CONTINUOUS
10
142.543
20
-62.9759
11
142.52
21
-62.9635
0
LINE
8
BLACK
6
CONTINUOUS
10
142.52
20
-62.9635
11
142.518
21
-62.9597
0
LINE
8
BLACK
6
CONTINUOUS
10
142.518
20
-62.9597
11
142.514
21
-62.9578
0
LINE
8
BLACK
6
CONTINUOUS
10
142.514
20
-62.9578
11
142.466
21
-62.9102
0
LINE
8
BLACK
6
CONTINUOUS
10
142.466
20
-62.9102
11
142.451
21
-62.8888
0
LINE
8
BLACK
6
CONTINUOUS
10
142.451
20
-62.8888
11
142.447
21
-62.8377
0
LINE
8
BLACK
6
CONTINUOUS
10
142.447
20
-62.8377
11
142.476
21
-62.7957
0
LINE
8
BLACK
6
CONTINUOUS
10
142.476
20
-62.7957
11
142.526
21
-62.7824
0
LINE
8
BLACK
6
CONTINUOUS
10
142.526
20
-62.7824
11
142.572
21
-62.8041
0
LINE
8
BLACK
6
CONTINUOUS
10
142.572
20
-62.8041
11
142.607
21
-62.8392
0
LINE
8
BLACK
6
CONTINUOUS
10
142.607
20
-62.8392
11
142.722
21
-62.8774
0
LINE
8
BLACK
6
CONTINUOUS
10
142.722
20
-62.8774
11
142.793
21
-62.8774
0
LINE
8
BLACK
6
CONTINUOUS
10
142.793
20
-62.8774
11
142.907
21
-62.8392
0
LINE
8
BLACK
6
CONTINUOUS
10
142.907
20
-62.8392
11
142.981
21
-62.7651
0
LINE
8
BLACK
6
CONTINUOUS
10
142.981
20
-62.7651
11
143.02
21
-62.6881
0
LINE
8
BLACK
6
CONTINUOUS
10
143.02
20
-62.6881
11
143.063
21
-62.5146
0
LINE
8
BLACK
6
CONTINUOUS
10
143.063
20
-62.5146
11
143.063
21
-62.3902
0
LINE
8
BLACK
6
CONTINUOUS
10
143.063
20
-62.3902
11
143.02
21
-62.2167
0
LINE
8
BLACK
6
CONTINUOUS
10
143.02
20
-62.2167
11
142.981
21
-62.1397
0
LINE
8
BLACK
6
CONTINUOUS
10
142.981
20
-62.1397
11
142.907
21
-62.0656
0
LINE
8
BLACK
6
CONTINUOUS
10
142.907
20
-62.0656
11
142.793
21
-62.0274
0
LINE
8
BLACK
6
CONTINUOUS
10
142.793
20
-62.0274
11
142.722
21
-62.0274
0
LINE
8
BLACK
6
CONTINUOUS
10
142.722
20
-62.0274
11
142.607
21
-62.0656
0
LINE
8
BLACK
6
CONTINUOUS
10
142.607
20
-62.0656
11
142.572
21
-62.1007
0
LINE
8
BLACK
6
CONTINUOUS
10
142.572
20
-62.1007
11
142.551
21
-62.1156
0
LINE
8
BLACK
6
CONTINUOUS
10
142.551
20
-62.1156
11
142.5
21
-62.1201
0
LINE
8
BLACK
6
CONTINUOUS
10
142.5
20
-62.1201
11
142.458
21
-62.0906
0
LINE
8
BLACK
6
CONTINUOUS
10
142.458
20
-62.0906
11
142.444
21
-62.0411
0
LINE
8
BLACK
6
CONTINUOUS
10
142.444
20
-62.0411
11
142.466
21
-61.9946
0
LINE
8
BLACK
6
CONTINUOUS
10
142.466
20
-61.9946
11
142.514
21
-61.947
0
LINE
8
BLACK
6
CONTINUOUS
10
142.514
20
-61.947
11
142.535
21
-61.932
0
LINE
8
BLACK
6
CONTINUOUS
10
142.535
20
-61.932
11
142.539
21
-61.9316
0
LINE
8
BLACK
6
CONTINUOUS
10
142.539
20
-61.9316
11
142.543
21
-61.9288
0
LINE
8
BLACK
6
CONTINUOUS
10
142.543
20
-61.9288
11
142.686
21
-61.8812
0
LINE
8
BLACK
6
CONTINUOUS
10
142.686
20
-61.8812
11
142.708
21
-61.8779
0
LINE
8
BLACK
6
CONTINUOUS
10
142.708
20
-61.8779
11
142.71
21
-61.8774
0
LINE
8
BLACK
6
CONTINUOUS
10
142.71
20
-61.8774
11
142.805
21
-61.8774
0
LINE
8
BLACK
6
CONTINUOUS
10
142.805
20
-61.8774
11
142.827
21
-61.8813
0
LINE
8
BLACK
6
CONTINUOUS
10
147.97
20
-61.8813
11
147.971
21
-61.8812
0
LINE
8
BLACK
6
CONTINUOUS
10
147.971
20
-61.8812
11
148.114
21
-61.9288
0
LINE
8
BLACK
6
CONTINUOUS
10
148.114
20
-61.9288
11
148.137
21
-61.9413
0
LINE
8
BLACK
6
CONTINUOUS
10
148.137
20
-61.9413
11
148.139
21
-61.9451
0
LINE
8
BLACK
6
CONTINUOUS
10
148.139
20
-61.9451
11
148.144
21
-61.947
0
LINE
8
BLACK
6
CONTINUOUS
10
148.144
20
-61.947
11
148.239
21
-62.0422
0
LINE
8
BLACK
6
CONTINUOUS
10
148.239
20
-62.0422
11
148.252
21
-62.0606
0
LINE
8
BLACK
6
CONTINUOUS
10
148.252
20
-62.0606
11
148.253
21
-62.0617
0
LINE
8
BLACK
6
CONTINUOUS
10
148.253
20
-62.0617
11
148.3
21
-62.1569
0
LINE
8
BLACK
6
CONTINUOUS
10
148.3
20
-62.1569
11
148.304
21
-62.1693
0
LINE
8
BLACK
6
CONTINUOUS
10
148.304
20
-62.1693
11
148.306
21
-62.1723
0
LINE
8
BLACK
6
CONTINUOUS
10
148.306
20
-62.1723
11
148.354
21
-62.3628
0
LINE
8
BLACK
6
CONTINUOUS
10
148.354
20
-62.3628
11
148.355
21
-62.3777
0
LINE
8
BLACK
6
CONTINUOUS
10
148.355
20
-62.3777
11
148.356
21
-62.381
0
LINE
8
BLACK
6
CONTINUOUS
10
148.356
20
-62.381
11
148.356
21
-62.5238
0
LINE
8
BLACK
6
CONTINUOUS
10
148.356
20
-62.5238
11
148.353
21
-62.5386
0
LINE
8
BLACK
6
CONTINUOUS
10
148.353
20
-62.5386
11
148.354
21
-62.542
0
LINE
8
BLACK
6
CONTINUOUS
10
148.354
20
-62.542
11
148.306
21
-62.7325
0
LINE
8
BLACK
6
CONTINUOUS
10
148.306
20
-62.7325
11
148.301
21
-62.7443
0
LINE
8
BLACK
6
CONTINUOUS
10
148.301
20
-62.7443
11
148.3
21
-62.7478
0
LINE
8
BLACK
6
CONTINUOUS
10
148.3
20
-62.7478
11
148.253
21
-62.8431
0
LINE
8
BLACK
6
CONTINUOUS
10
148.253
20
-62.8431
11
148.239
21
-62.8611
0
LINE
8
BLACK
6
CONTINUOUS
10
148.239
20
-62.8611
11
148.239
21
-62.8626
0
LINE
8
BLACK
6
CONTINUOUS
10
148.239
20
-62.8626
11
148.144
21
-62.9578
0
LINE
8
BLACK
6
CONTINUOUS
10
148.144
20
-62.9578
11
148.122
21
-62.9727
0
LINE
8
BLACK
6
CONTINUOUS
10
148.122
20
-62.9727
11
148.118
21
-62.9731
0
LINE
8
BLACK
6
CONTINUOUS
10
148.118
20
-62.9731
11
148.114
21
-62.9759
0
LINE
8
BLACK
6
CONTINUOUS
10
148.114
20
-62.9759
11
147.971
21
-63.0235
0
LINE
8
BLACK
6
CONTINUOUS
10
147.971
20
-63.0235
11
147.949
21
-63.0268
0
LINE
8
BLACK
6
CONTINUOUS
10
147.949
20
-63.0268
11
147.948
21
-63.0274
0
LINE
8
BLACK
6
CONTINUOUS
10
147.948
20
-63.0274
11
147.852
21
-63.0274
0
LINE
8
BLACK
6
CONTINUOUS
10
147.852
20
-63.0274
11
147.83
21
-63.0235
0
LINE
8
BLACK
6
CONTINUOUS
10
147.83
20
-63.0235
11
147.829
21
-63.0235
0
LINE
8
BLACK
6
CONTINUOUS
10
147.829
20
-63.0235
11
147.686
21
-62.9759
0
LINE
8
BLACK
6
CONTINUOUS
10
147.686
20
-62.9759
11
147.663
21
-62.9635
0
LINE
8
BLACK
6
CONTINUOUS
10
147.663
20
-62.9635
11
147.661
21
-62.9597
0
LINE
8
BLACK
6
CONTINUOUS
10
147.661
20
-62.9597
11
147.656
21
-62.9578
0
LINE
8
BLACK
6
CONTINUOUS
10
147.656
20
-62.9578
11
147.609
21
-62.9102
0
LINE
8
BLACK
6
CONTINUOUS
10
147.609
20
-62.9102
11
147.594
21
-62.8888
0
LINE
8
BLACK
6
CONTINUOUS
10
147.594
20
-62.8888
11
147.589
21
-62.8377
0
LINE
8
BLACK
6
CONTINUOUS
10
147.589
20
-62.8377
11
147.619
21
-62.7957
0
LINE
8
BLACK
6
CONTINUOUS
10
147.619
20
-62.7957
11
147.668
21
-62.7824
0
LINE
8
BLACK
6
CONTINUOUS
10
147.668
20
-62.7824
11
147.715
21
-62.8041
0
LINE
8
BLACK
6
CONTINUOUS
10
147.715
20
-62.8041
11
147.75
21
-62.8392
0
LINE
8
BLACK
6
CONTINUOUS
10
147.75
20
-62.8392
11
147.865
21
-62.8774
0
LINE
8
BLACK
6
CONTINUOUS
10
147.865
20
-62.8774
11
147.935
21
-62.8774
0
LINE
8
BLACK
6
CONTINUOUS
10
147.935
20
-62.8774
11
148.05
21
-62.8392
0
LINE
8
BLACK
6
CONTINUOUS
10
148.05
20
-62.8392
11
148.124
21
-62.7651
0
LINE
8
BLACK
6
CONTINUOUS
10
148.124
20
-62.7651
11
148.163
21
-62.6881
0
LINE
8
BLACK
6
CONTINUOUS
10
148.163
20
-62.6881
11
148.206
21
-62.5146
0
LINE
8
BLACK
6
CONTINUOUS
10
148.206
20
-62.5146
11
148.206
21
-62.3902
0
LINE
8
BLACK
6
CONTINUOUS
10
148.206
20
-62.3902
11
148.163
21
-62.2167
0
LINE
8
BLACK
6
CONTINUOUS
10
148.163
20
-62.2167
11
148.124
21
-62.1397
0
LINE
8
BLACK
6
CONTINUOUS
10
148.124
20
-62.1397
11
148.05
21
-62.0656
0
LINE
8
BLACK
6
CONTINUOUS
10
148.05
20
-62.0656
11
147.935
21
-62.0274
0
LINE
8
BLACK
6
CONTINUOUS
10
147.935
20
-62.0274
11
147.865
21
-62.0274
0
LINE
8
BLACK
6
CONTINUOUS
10
147.865
20
-62.0274
11
147.75
21
-62.0656
0
LINE
8
BLACK
6
CONTINUOUS
10
147.75
20
-62.0656
11
147.715
21
-62.1007
0
LINE
8
BLACK
6
CONTINUOUS
10
147.715
20
-62.1007
11
147.694
21
-62.1156
0
LINE
8
BLACK
6
CONTINUOUS
10
147.694
20
-62.1156
11
147.642
21
-62.1201
0
LINE
8
BLACK
6
CONTINUOUS
10
147.642
20
-62.1201
11
147.6
21
-62.0906
0
LINE
8
BLACK
6
CONTINUOUS
10
147.6
20
-62.0906
11
147.587
21
-62.0411
0
LINE
8
BLACK
6
CONTINUOUS
10
147.587
20
-62.0411
11
147.609
21
-61.9946
0
LINE
8
BLACK
6
CONTINUOUS
10
147.609
20
-61.9946
11
147.656
21
-61.947
0
LINE
8
BLACK
6
CONTINUOUS
10
147.656
20
-61.947
11
147.678
21
-61.932
0
LINE
8
BLACK
6
CONTINUOUS
10
147.678
20
-61.932
11
147.682
21
-61.9316
0
LINE
8
BLACK
6
CONTINUOUS
10
147.682
20
-61.9316
11
147.686
21
-61.9288
0
LINE
8
BLACK
6
CONTINUOUS
10
147.686
20
-61.9288
11
147.829
21
-61.8812
0
LINE
8
BLACK
6
CONTINUOUS
10
147.829
20
-61.8812
11
147.851
21
-61.8779
0
LINE
8
BLACK
6
CONTINUOUS
10
147.851
20
-61.8779
11
147.852
21
-61.8774
0
LINE
8
BLACK
6
CONTINUOUS
10
147.852
20
-61.8774
11
147.948
21
-61.8774
0
LINE
8
BLACK
6
CONTINUOUS
10
147.948
20
-61.8774
11
147.97
21
-61.8813
0
LINE
8
BLACK
6
CONTINUOUS
10
143.957
20
-61.9042
11
143.975
21
-61.9524
0
LINE
8
BLACK
6
CONTINUOUS
10
143.975
20
-61.9524
11
143.975
21
-62.9524
0
LINE
8
BLACK
6
CONTINUOUS
10
143.975
20
-62.9524
11
143.973
21
-62.9621
0
LINE
8
BLACK
6
CONTINUOUS
10
143.973
20
-62.9621
11
143.974
21
-62.9654
0
LINE
8
BLACK
6
CONTINUOUS
10
143.974
20
-62.9654
11
143.972
21
-62.9683
0
LINE
8
BLACK
6
CONTINUOUS
10
143.972
20
-62.9683
11
143.97
21
-62.978
0
LINE
8
BLACK
6
CONTINUOUS
10
143.97
20
-62.978
11
143.958
21
-62.993
0
LINE
8
BLACK
6
CONTINUOUS
10
143.958
20
-62.993
11
143.948
21
-63.0098
0
LINE
8
BLACK
6
CONTINUOUS
10
143.948
20
-63.0098
11
143.942
21
-63.0121
0
LINE
8
BLACK
6
CONTINUOUS
10
143.942
20
-63.0121
11
143.938
21
-63.0173
0
LINE
8
BLACK
6
CONTINUOUS
10
143.938
20
-63.0173
11
143.918
21
-63.0207
0
LINE
8
BLACK
6
CONTINUOUS
10
143.918
20
-63.0207
11
143.9
21
-63.0274
0
LINE
8
BLACK
6
CONTINUOUS
10
143.9
20
-63.0274
11
143.424
21
-63.0274
0
LINE
8
BLACK
6
CONTINUOUS
10
143.424
20
-63.0274
11
143.398
21
-63.0229
0
LINE
8
BLACK
6
CONTINUOUS
10
143.398
20
-63.0229
11
143.359
21
-62.9899
0
LINE
8
BLACK
6
CONTINUOUS
10
143.359
20
-62.9899
11
143.35
21
-62.9394
0
LINE
8
BLACK
6
CONTINUOUS
10
143.35
20
-62.9394
11
143.376
21
-62.8949
0
LINE
8
BLACK
6
CONTINUOUS
10
143.376
20
-62.8949
11
143.424
21
-62.8774
0
LINE
8
BLACK
6
CONTINUOUS
10
143.424
20
-62.8774
11
143.825
21
-62.8774
0
LINE
8
BLACK
6
CONTINUOUS
10
143.825
20
-62.8774
11
143.825
21
-61.9524
0
LINE
8
BLACK
6
CONTINUOUS
10
143.825
20
-61.9524
11
143.83
21
-61.9267
0
LINE
8
BLACK
6
CONTINUOUS
10
143.83
20
-61.9267
11
143.862
21
-61.8874
0
LINE
8
BLACK
6
CONTINUOUS
10
143.862
20
-61.8874
11
143.913
21
-61.8785
0
LINE
8
BLACK
6
CONTINUOUS
10
143.913
20
-61.8785
11
143.957
21
-61.9042
0
LINE
8
BLACK
6
CONTINUOUS
10
145.398
20
-61.8813
11
145.4
21
-61.8812
0
LINE
8
BLACK
6
CONTINUOUS
10
145.4
20
-61.8812
11
145.543
21
-61.9288
0
LINE
8
BLACK
6
CONTINUOUS
10
145.543
20
-61.9288
11
145.566
21
-61.9413
0
LINE
8
BLACK
6
CONTINUOUS
10
145.566
20
-61.9413
11
145.568
21
-61.9451
0
LINE
8
BLACK
6
CONTINUOUS
10
145.568
20
-61.9451
11
145.572
21
-61.947
0
LINE
8
BLACK
6
CONTINUOUS
10
145.572
20
-61.947
11
145.667
21
-62.0422
0
LINE
8
BLACK
6
CONTINUOUS
10
145.667
20
-62.0422
11
145.68
21
-62.0606
0
LINE
8
BLACK
6
CONTINUOUS
10
145.68
20
-62.0606
11
145.681
21
-62.0617
0
LINE
8
BLACK
6
CONTINUOUS
10
145.681
20
-62.0617
11
145.729
21
-62.1569
0
LINE
8
BLACK
6
CONTINUOUS
10
145.729
20
-62.1569
11
145.733
21
-62.1693
0
LINE
8
BLACK
6
CONTINUOUS
10
145.733
20
-62.1693
11
145.735
21
-62.1723
0
LINE
8
BLACK
6
CONTINUOUS
10
145.735
20
-62.1723
11
145.782
21
-62.3628
0
LINE
8
BLACK
6
CONTINUOUS
10
145.782
20
-62.3628
11
145.783
21
-62.3777
0
LINE
8
BLACK
6
CONTINUOUS
10
145.783
20
-62.3777
11
145.785
21
-62.381
0
LINE
8
BLACK
6
CONTINUOUS
10
145.785
20
-62.381
11
145.785
21
-62.5238
0
LINE
8
BLACK
6
CONTINUOUS
10
145.785
20
-62.5238
11
145.782
21
-62.5386
0
LINE
8
BLACK
6
CONTINUOUS
10
145.782
20
-62.5386
11
145.782
21
-62.542
0
LINE
8
BLACK
6
CONTINUOUS
10
145.782
20
-62.542
11
145.735
21
-62.7325
0
LINE
8
BLACK
6
CONTINUOUS
10
145.735
20
-62.7325
11
145.729
21
-62.7443
0
LINE
8
BLACK
6
CONTINUOUS
10
145.729
20
-62.7443
11
145.729
21
-62.7478
0
LINE
8
BLACK
6
CONTINUOUS
10
145.729
20
-62.7478
11
145.681
21
-62.8431
0
LINE
8
BLACK
6
CONTINUOUS
10
145.681
20
-62.8431
11
145.668
21
-62.8611
0
LINE
8
BLACK
6
CONTINUOUS
10
145.668
20
-62.8611
11
145.667
21
-62.8626
0
LINE
8
BLACK
6
CONTINUOUS
10
145.667
20
-62.8626
11
145.572
21
-62.9578
0
LINE
8
BLACK
6
CONTINUOUS
10
145.572
20
-62.9578
11
145.551
21
-62.9727
0
LINE
8
BLACK
6
CONTINUOUS
10
145.551
20
-62.9727
11
145.546
21
-62.9731
0
LINE
8
BLACK
6
CONTINUOUS
10
145.546
20
-62.9731
11
145.543
21
-62.9759
0
LINE
8
BLACK
6
CONTINUOUS
10
145.543
20
-62.9759
11
145.4
21
-63.0235
0
LINE
8
BLACK
6
CONTINUOUS
10
145.4
20
-63.0235
11
145.378
21
-63.0268
0
LINE
8
BLACK
6
CONTINUOUS
10
145.378
20
-63.0268
11
145.376
21
-63.0274
0
LINE
8
BLACK
6
CONTINUOUS
10
145.376
20
-63.0274
11
145.281
21
-63.0274
0
LINE
8
BLACK
6
CONTINUOUS
10
145.281
20
-63.0274
11
145.259
21
-63.0235
0
LINE
8
BLACK
6
CONTINUOUS
10
145.259
20
-63.0235
11
145.257
21
-63.0235
0
LINE
8
BLACK
6
CONTINUOUS
10
145.257
20
-63.0235
11
145.114
21
-62.9759
0
LINE
8
BLACK
6
CONTINUOUS
10
145.114
20
-62.9759
11
145.091
21
-62.9635
0
LINE
8
BLACK
6
CONTINUOUS
10
145.091
20
-62.9635
11
145.089
21
-62.9597
0
LINE
8
BLACK
6
CONTINUOUS
10
145.089
20
-62.9597
11
145.085
21
-62.9578
0
LINE
8
BLACK
6
CONTINUOUS
10
145.085
20
-62.9578
11
145.037
21
-62.9102
0
LINE
8
BLACK
6
CONTINUOUS
10
145.037
20
-62.9102
11
145.023
21
-62.8888
0
LINE
8
BLACK
6
CONTINUOUS
10
145.023
20
-62.8888
11
145.018
21
-62.8377
0
LINE
8
BLACK
6
CONTINUOUS
10
145.018
20
-62.8377
11
145.047
21
-62.7957
0
LINE
8
BLACK
6
CONTINUOUS
10
145.047
20
-62.7957
11
145.097
21
-62.7824
0
LINE
8
BLACK
6
CONTINUOUS
10
145.097
20
-62.7824
11
145.144
21
-62.8041
0
LINE
8
BLACK
6
CONTINUOUS
10
145.144
20
-62.8041
11
145.179
21
-62.8392
0
LINE
8
BLACK
6
CONTINUOUS
10
145.179
20
-62.8392
11
145.293
21
-62.8774
0
LINE
8
BLACK
6
CONTINUOUS
10
145.293
20
-62.8774
11
145.364
21
-62.8774
0
LINE
8
BLACK
6
CONTINUOUS
10
145.364
20
-62.8774
11
145.479
21
-62.8392
0
LINE
8
BLACK
6
CONTINUOUS
10
145.479
20
-62.8392
11
145.553
21
-62.7651
0
LINE
8
BLACK
6
CONTINUOUS
10
145.553
20
-62.7651
11
145.591
21
-62.6881
0
LINE
8
BLACK
6
CONTINUOUS
10
145.591
20
-62.6881
11
145.635
21
-62.5146
0
LINE
8
BLACK
6
CONTINUOUS
10
145.635
20
-62.5146
11
145.635
21
-62.3902
0
LINE
8
BLACK
6
CONTINUOUS
10
145.635
20
-62.3902
11
145.591
21
-62.2167
0
LINE
8
BLACK
6
CONTINUOUS
10
145.591
20
-62.2167
11
145.553
21
-62.1397
0
LINE
8
BLACK
6
CONTINUOUS
10
145.553
20
-62.1397
11
145.479
21
-62.0656
0
LINE
8
BLACK
6
CONTINUOUS
10
145.479
20
-62.0656
11
145.364
21
-62.0274
0
LINE
8
BLACK
6
CONTINUOUS
10
145.364
20
-62.0274
11
145.293
21
-62.0274
0
LINE
8
BLACK
6
CONTINUOUS
10
145.293
20
-62.0274
11
145.179
21
-62.0656
0
LINE
8
BLACK
6
CONTINUOUS
10
145.179
20
-62.0656
11
145.144
21
-62.1007
0
LINE
8
BLACK
6
CONTINUOUS
10
145.144
20
-62.1007
11
145.122
21
-62.1156
0
LINE
8
BLACK
6
CONTINUOUS
10
145.122
20
-62.1156
11
145.071
21
-62.1201
0
LINE
8
BLACK
6
CONTINUOUS
10
145.071
20
-62.1201
11
145.029
21
-62.0906
0
LINE
8
BLACK
6
CONTINUOUS
10
145.029
20
-62.0906
11
145.016
21
-62.0411
0
LINE
8
BLACK
6
CONTINUOUS
10
145.016
20
-62.0411
11
145.037
21
-61.9946
0
LINE
8
BLACK
6
CONTINUOUS
10
145.037
20
-61.9946
11
145.085
21
-61.947
0
LINE
8
BLACK
6
CONTINUOUS
10
145.085
20
-61.947
11
145.106
21
-61.932
0
LINE
8
BLACK
6
CONTINUOUS
10
145.106
20
-61.932
11
145.111
21
-61.9316
0
LINE
8
BLACK
6
CONTINUOUS
10
145.111
20
-61.9316
11
145.114
21
-61.9288
0
LINE
8
BLACK
6
CONTINUOUS
10
145.114
20
-61.9288
11
145.257
21
-61.8812
0
LINE
8
BLACK
6
CONTINUOUS
10
145.257
20
-61.8812
11
145.279
21
-61.8779
0
LINE
8
BLACK
6
CONTINUOUS
10
145.279
20
-61.8779
11
145.281
21
-61.8774
0
LINE
8
BLACK
6
CONTINUOUS
10
145.281
20
-61.8774
11
145.376
21
-61.8774
0
LINE
8
BLACK
6
CONTINUOUS
10
145.376
20
-61.8774
11
145.398
21
-61.8813
0
LINE
8
BLACK
6
CONTINUOUS
10
146.529
20
-61.9042
11
146.546
21
-61.9524
0
LINE
8
BLACK
6
CONTINUOUS
10
146.546
20
-61.9524
11
146.546
21
-62.9524
0
LINE
8
BLACK
6
CONTINUOUS
10
146.546
20
-62.9524
11
146.545
21
-62.9621
0
LINE
8
BLACK
6
CONTINUOUS
10
146.545
20
-62.9621
11
146.545
21
-62.9654
0
LINE
8
BLACK
6
CONTINUOUS
10
146.545
20
-62.9654
11
146.544
21
-62.9683
0
LINE
8
BLACK
6
CONTINUOUS
10
146.544
20
-62.9683
11
146.542
21
-62.978
0
LINE
8
BLACK
6
CONTINUOUS
10
146.542
20
-62.978
11
146.529
21
-62.993
0
LINE
8
BLACK
6
CONTINUOUS
10
146.529
20
-62.993
11
146.52
21
-63.0098
0
LINE
8
BLACK
6
CONTINUOUS
10
146.52
20
-63.0098
11
146.513
21
-63.0121
0
LINE
8
BLACK
6
CONTINUOUS
10
146.513
20
-63.0121
11
146.509
21
-63.0173
0
LINE
8
BLACK
6
CONTINUOUS
10
146.509
20
-63.0173
11
146.49
21
-63.0207
0
LINE
8
BLACK
6
CONTINUOUS
10
146.49
20
-63.0207
11
146.471
21
-63.0274
0
LINE
8
BLACK
6
CONTINUOUS
10
146.471
20
-63.0274
11
145.995
21
-63.0274
0
LINE
8
BLACK
6
CONTINUOUS
10
145.995
20
-63.0274
11
145.97
21
-63.0229
0
LINE
8
BLACK
6
CONTINUOUS
10
145.97
20
-63.0229
11
145.93
21
-62.9899
0
LINE
8
BLACK
6
CONTINUOUS
10
145.93
20
-62.9899
11
145.921
21
-62.9394
0
LINE
8
BLACK
6
CONTINUOUS
10
145.921
20
-62.9394
11
145.947
21
-62.8949
0
LINE
8
BLACK
6
CONTINUOUS
10
145.947
20
-62.8949
11
145.995
21
-62.8774
0
LINE
8
BLACK
6
CONTINUOUS
10
145.995
20
-62.8774
11
146.396
21
-62.8774
0
LINE
8
BLACK
6
CONTINUOUS
10
146.396
20
-62.8774
11
146.396
21
-61.9524
0
LINE
8
BLACK
6
CONTINUOUS
10
146.396
20
-61.9524
11
146.401
21
-61.9267
0
LINE
8
BLACK
6
CONTINUOUS
10
146.401
20
-61.9267
11
146.434
21
-61.8874
0
LINE
8
BLACK
6
CONTINUOUS
10
146.434
20
-61.8874
11
146.484
21
-61.8785
0
LINE
8
BLACK
6
CONTINUOUS
10
146.484
20
-61.8785
11
146.529
21
-61.9042
0
LINE
8
BLACK
6
CONTINUOUS
10
140.255
20
-61.8813
11
140.257
21
-61.8812
0
LINE
8
BLACK
6
CONTINUOUS
10
140.257
20
-61.8812
11
140.4
21
-61.9288
0
LINE
8
BLACK
6
CONTINUOUS
10
140.4
20
-61.9288
11
140.423
21
-61.9413
0
LINE
8
BLACK
6
CONTINUOUS
10
140.423
20
-61.9413
11
140.425
21
-61.9451
0
LINE
8
BLACK
6
CONTINUOUS
10
140.425
20
-61.9451
11
140.429
21
-61.947
0
LINE
8
BLACK
6
CONTINUOUS
10
140.429
20
-61.947
11
140.524
21
-62.0422
0
LINE
8
BLACK
6
CONTINUOUS
10
140.524
20
-62.0422
11
140.537
21
-62.0606
0
LINE
8
BLACK
6
CONTINUOUS
10
140.537
20
-62.0606
11
140.539
21
-62.0617
0
LINE
8
BLACK
6
CONTINUOUS
10
140.539
20
-62.0617
11
140.586
21
-62.1569
0
LINE
8
BLACK
6
CONTINUOUS
10
140.586
20
-62.1569
11
140.59
21
-62.1693
0
LINE
8
BLACK
6
CONTINUOUS
10
140.59
20
-62.1693
11
140.592
21
-62.1723
0
LINE
8
BLACK
6
CONTINUOUS
10
140.592
20
-62.1723
11
140.639
21
-62.3628
0
LINE
8
BLACK
6
CONTINUOUS
10
140.639
20
-62.3628
11
140.64
21
-62.3777
0
LINE
8
BLACK
6
CONTINUOUS
10
140.64
20
-62.3777
11
140.642
21
-62.381
0
LINE
8
BLACK
6
CONTINUOUS
10
140.642
20
-62.381
11
140.642
21
-62.5238
0
LINE
8
BLACK
6
CONTINUOUS
10
140.642
20
-62.5238
11
140.639
21
-62.5386
0
LINE
8
BLACK
6
CONTINUOUS
10
140.639
20
-62.5386
11
140.639
21
-62.542
0
LINE
8
BLACK
6
CONTINUOUS
10
140.639
20
-62.542
11
140.592
21
-62.7325
0
LINE
8
BLACK
6
CONTINUOUS
10
140.592
20
-62.7325
11
140.587
21
-62.7443
0
LINE
8
BLACK
6
CONTINUOUS
10
140.587
20
-62.7443
11
140.586
21
-62.7478
0
LINE
8
BLACK
6
CONTINUOUS
10
140.586
20
-62.7478
11
140.539
21
-62.8431
0
LINE
8
BLACK
6
CONTINUOUS
10
140.539
20
-62.8431
11
140.525
21
-62.8611
0
LINE
8
BLACK
6
CONTINUOUS
10
140.525
20
-62.8611
11
140.524
21
-62.8626
0
LINE
8
BLACK
6
CONTINUOUS
10
140.524
20
-62.8626
11
140.429
21
-62.9578
0
LINE
8
BLACK
6
CONTINUOUS
10
140.429
20
-62.9578
11
140.408
21
-62.9727
0
LINE
8
BLACK
6
CONTINUOUS
10
140.408
20
-62.9727
11
140.403
21
-62.9731
0
LINE
8
BLACK
6
CONTINUOUS
10
140.403
20
-62.9731
11
140.4
21
-62.9759
0
LINE
8
BLACK
6
CONTINUOUS
10
140.4
20
-62.9759
11
140.257
21
-63.0235
0
LINE
8
BLACK
6
CONTINUOUS
10
140.257
20
-63.0235
11
140.235
21
-63.0268
0
LINE
8
BLACK
6
CONTINUOUS
10
140.235
20
-63.0268
11
140.233
21
-63.0274
0
LINE
8
BLACK
6
CONTINUOUS
10
140.233
20
-63.0274
11
140.138
21
-63.0274
0
LINE
8
BLACK
6
CONTINUOUS
10
140.138
20
-63.0274
11
140.116
21
-63.0235
0
LINE
8
BLACK
6
CONTINUOUS
10
140.116
20
-63.0235
11
140.114
21
-63.0235
0
LINE
8
BLACK
6
CONTINUOUS
10
140.114
20
-63.0235
11
139.972
21
-62.9759
0
LINE
8
BLACK
6
CONTINUOUS
10
139.972
20
-62.9759
11
139.949
21
-62.9635
0
LINE
8
BLACK
6
CONTINUOUS
10
139.949
20
-62.9635
11
139.946
21
-62.9597
0
LINE
8
BLACK
6
CONTINUOUS
10
139.946
20
-62.9597
11
139.942
21
-62.9578
0
LINE
8
BLACK
6
CONTINUOUS
10
139.942
20
-62.9578
11
139.895
21
-62.9102
0
LINE
8
BLACK
6
CONTINUOUS
10
139.895
20
-62.9102
11
139.88
21
-62.8888
0
LINE
8
BLACK
6
CONTINUOUS
10
139.88
20
-62.8888
11
139.875
21
-62.8377
0
LINE
8
BLACK
6
CONTINUOUS
10
139.875
20
-62.8377
11
139.905
21
-62.7957
0
LINE
8
BLACK
6
CONTINUOUS
10
139.905
20
-62.7957
11
139.954
21
-62.7824
0
LINE
8
BLACK
6
CONTINUOUS
10
139.954
20
-62.7824
11
140.001
21
-62.8041
0
LINE
8
BLACK
6
CONTINUOUS
10
140.001
20
-62.8041
11
140.036
21
-62.8392
0
LINE
8
BLACK
6
CONTINUOUS
10
140.036
20
-62.8392
11
140.15
21
-62.8774
0
LINE
8
BLACK
6
CONTINUOUS
10
140.15
20
-62.8774
11
140.221
21
-62.8774
0
LINE
8
BLACK
6
CONTINUOUS
10
140.221
20
-62.8774
11
140.336
21
-62.8392
0
LINE
8
BLACK
6
CONTINUOUS
10
140.336
20
-62.8392
11
140.41
21
-62.7651
0
LINE
8
BLACK
6
CONTINUOUS
10
140.41
20
-62.7651
11
140.448
21
-62.6881
0
LINE
8
BLACK
6
CONTINUOUS
10
140.448
20
-62.6881
11
140.492
21
-62.5146
0
LINE
8
BLACK
6
CONTINUOUS
10
140.492
20
-62.5146
11
140.492
21
-62.3902
0
LINE
8
BLACK
6
CONTINUOUS
10
140.492
20
-62.3902
11
140.448
21
-62.2167
0
LINE
8
BLACK
6
CONTINUOUS
10
140.448
20
-62.2167
11
140.41
21
-62.1397
0
LINE
8
BLACK
6
CONTINUOUS
10
140.41
20
-62.1397
11
140.336
21
-62.0656
0
LINE
8
BLACK
6
CONTINUOUS
10
140.336
20
-62.0656
11
140.221
21
-62.0274
0
LINE
8
BLACK
6
CONTINUOUS
10
140.221
20
-62.0274
11
140.15
21
-62.0274
0
LINE
8
BLACK
6
CONTINUOUS
10
140.15
20
-62.0274
11
140.036
21
-62.0656
0
LINE
8
BLACK
6
CONTINUOUS
10
140.036
20
-62.0656
11
140.001
21
-62.1007
0
LINE
8
BLACK
6
CONTINUOUS
10
140.001
20
-62.1007
11
139.979
21
-62.1156
0
LINE
8
BLACK
6
CONTINUOUS
10
139.979
20
-62.1156
11
139.928
21
-62.1201
0
LINE
8
BLACK
6
CONTINUOUS
10
139.928
20
-62.1201
11
139.886
21
-62.0906
0
LINE
8
BLACK
6
CONTINUOUS
10
139.886
20
-62.0906
11
139.873
21
-62.0411
0
LINE
8
BLACK
6
CONTINUOUS
10
139.873
20
-62.0411
11
139.895
21
-61.9946
0
LINE
8
BLACK
6
CONTINUOUS
10
139.895
20
-61.9946
11
139.942
21
-61.947
0
LINE
8
BLACK
6
CONTINUOUS
10
139.942
20
-61.947
11
139.964
21
-61.932
0
LINE
8
BLACK
6
CONTINUOUS
10
139.964
20
-61.932
11
139.968
21
-61.9316
0
LINE
8
BLACK
6
CONTINUOUS
10
139.968
20
-61.9316
11
139.972
21
-61.9288
0
LINE
8
BLACK
6
CONTINUOUS
10
139.972
20
-61.9288
11
140.114
21
-61.8812
0
LINE
8
BLACK
6
CONTINUOUS
10
140.114
20
-61.8812
11
140.137
21
-61.8779
0
LINE
8
BLACK
6
CONTINUOUS
10
140.137
20
-61.8779
11
140.138
21
-61.8774
0
LINE
8
BLACK
6
CONTINUOUS
10
140.138
20
-61.8774
11
140.233
21
-61.8774
0
LINE
8
BLACK
6
CONTINUOUS
10
140.233
20
-61.8774
11
140.255
21
-61.8813
  0
ENDSEC
  0
EOF
