%TF.GenerationSoftware,KiCad,Pcbnew,(6.0.5)*%
%TF.CreationDate,2022-10-19T12:43:17-05:00*%
%TF.ProjectId,powerPCB,706f7765-7250-4434-922e-6b696361645f,rev?*%
%TF.SameCoordinates,Original*%
%TF.FileFunction,Paste,Top*%
%TF.FilePolarity,Positive*%
%FSLAX46Y46*%
G04 Gerber Fmt 4.6, Leading zero omitted, Abs format (unit mm)*
G04 Created by KiCad (PCBNEW (6.0.5)) date 2022-10-19 12:43:17*
%MOMM*%
%LPD*%
G01*
G04 APERTURE LIST*
G04 Aperture macros list*
%AMRoundRect*
0 Rectangle with rounded corners*
0 $1 Rounding radius*
0 $2 $3 $4 $5 $6 $7 $8 $9 X,Y pos of 4 corners*
0 Add a 4 corners polygon primitive as box body*
4,1,4,$2,$3,$4,$5,$6,$7,$8,$9,$2,$3,0*
0 Add four circle primitives for the rounded corners*
1,1,$1+$1,$2,$3*
1,1,$1+$1,$4,$5*
1,1,$1+$1,$6,$7*
1,1,$1+$1,$8,$9*
0 Add four rect primitives between the rounded corners*
20,1,$1+$1,$2,$3,$4,$5,0*
20,1,$1+$1,$4,$5,$6,$7,0*
20,1,$1+$1,$6,$7,$8,$9,0*
20,1,$1+$1,$8,$9,$2,$3,0*%
G04 Aperture macros list end*
%ADD10RoundRect,0.150000X-0.150000X0.587500X-0.150000X-0.587500X0.150000X-0.587500X0.150000X0.587500X0*%
%ADD11RoundRect,0.200000X-0.200000X-0.275000X0.200000X-0.275000X0.200000X0.275000X-0.200000X0.275000X0*%
%ADD12RoundRect,0.250000X-0.262500X-0.450000X0.262500X-0.450000X0.262500X0.450000X-0.262500X0.450000X0*%
%ADD13RoundRect,0.250000X1.100000X-0.325000X1.100000X0.325000X-1.100000X0.325000X-1.100000X-0.325000X0*%
%ADD14R,2.500000X2.300000*%
%ADD15RoundRect,0.200000X-0.275000X0.200000X-0.275000X-0.200000X0.275000X-0.200000X0.275000X0.200000X0*%
%ADD16RoundRect,0.200000X0.275000X-0.200000X0.275000X0.200000X-0.275000X0.200000X-0.275000X-0.200000X0*%
%ADD17RoundRect,0.250000X-0.650000X0.325000X-0.650000X-0.325000X0.650000X-0.325000X0.650000X0.325000X0*%
%ADD18RoundRect,0.250000X-0.450000X0.262500X-0.450000X-0.262500X0.450000X-0.262500X0.450000X0.262500X0*%
%ADD19RoundRect,0.225000X-0.250000X0.225000X-0.250000X-0.225000X0.250000X-0.225000X0.250000X0.225000X0*%
%ADD20R,0.700000X0.340000*%
%ADD21RoundRect,0.250000X-0.325000X-1.100000X0.325000X-1.100000X0.325000X1.100000X-0.325000X1.100000X0*%
%ADD22RoundRect,0.250000X-0.312500X-0.625000X0.312500X-0.625000X0.312500X0.625000X-0.312500X0.625000X0*%
%ADD23R,3.175000X4.950000*%
G04 APERTURE END LIST*
D10*
%TO.C,Q2*%
X105950000Y-86562500D03*
X104050000Y-86562500D03*
X105000000Y-88437500D03*
%TD*%
D11*
%TO.C,R1*%
X151055000Y-55750000D03*
X149405000Y-55750000D03*
%TD*%
D12*
%TO.C,R13*%
X111387500Y-83900000D03*
X113212500Y-83900000D03*
%TD*%
D13*
%TO.C,C5*%
X165460000Y-58715000D03*
X165460000Y-61665000D03*
%TD*%
D14*
%TO.C,D4*%
X127250000Y-93100000D03*
X122950000Y-93100000D03*
%TD*%
D10*
%TO.C,Q8*%
X145950000Y-86662500D03*
X144050000Y-86662500D03*
X145000000Y-88537500D03*
%TD*%
%TO.C,Q6*%
X126150000Y-86662500D03*
X124250000Y-86662500D03*
X125200000Y-88537500D03*
%TD*%
D15*
%TO.C,R3*%
X153430000Y-55775000D03*
X153430000Y-54125000D03*
%TD*%
D16*
%TO.C,R2*%
X156230000Y-58525000D03*
X156230000Y-60175000D03*
%TD*%
D12*
%TO.C,R9*%
X101287500Y-83900000D03*
X103112500Y-83900000D03*
%TD*%
D17*
%TO.C,C2*%
X147130000Y-62925000D03*
X147130000Y-59975000D03*
%TD*%
D18*
%TO.C,R20*%
X146400000Y-82387500D03*
X146400000Y-84212500D03*
%TD*%
D12*
%TO.C,R15*%
X161887500Y-90200000D03*
X163712500Y-90200000D03*
%TD*%
D18*
%TO.C,R12*%
X115900000Y-82187500D03*
X115900000Y-84012500D03*
%TD*%
%TO.C,R8*%
X105900000Y-82187500D03*
X105900000Y-84012500D03*
%TD*%
D14*
%TO.C,D1*%
X97250000Y-93100000D03*
X92950000Y-93100000D03*
%TD*%
D13*
%TO.C,C4*%
X160670000Y-58715000D03*
X160670000Y-61665000D03*
%TD*%
D14*
%TO.C,D2*%
X107250000Y-93100000D03*
X102950000Y-93100000D03*
%TD*%
D10*
%TO.C,Q5*%
X167150000Y-93062500D03*
X165250000Y-93062500D03*
X166200000Y-94937500D03*
%TD*%
D14*
%TO.C,D3*%
X117250000Y-93100000D03*
X112950000Y-93100000D03*
%TD*%
D12*
%TO.C,R19*%
X132387500Y-83900000D03*
X134212500Y-83900000D03*
%TD*%
D19*
%TO.C,C3*%
X149330000Y-61425000D03*
X149330000Y-59875000D03*
%TD*%
D12*
%TO.C,R21*%
X141887500Y-84000000D03*
X143712500Y-84000000D03*
%TD*%
D18*
%TO.C,R16*%
X126100000Y-82187500D03*
X126100000Y-84012500D03*
%TD*%
%TO.C,R18*%
X136800000Y-82187500D03*
X136800000Y-84012500D03*
%TD*%
%TO.C,R10*%
X156700000Y-88287500D03*
X156700000Y-90112500D03*
%TD*%
D10*
%TO.C,Q4*%
X115950000Y-86662500D03*
X114050000Y-86662500D03*
X115000000Y-88537500D03*
%TD*%
D12*
%TO.C,R11*%
X152387500Y-90100000D03*
X154212500Y-90100000D03*
%TD*%
D10*
%TO.C,Q3*%
X157750000Y-93062500D03*
X155850000Y-93062500D03*
X156800000Y-94937500D03*
%TD*%
D14*
%TO.C,D5*%
X137250000Y-93100000D03*
X132950000Y-93100000D03*
%TD*%
D12*
%TO.C,R17*%
X121587500Y-83900000D03*
X123412500Y-83900000D03*
%TD*%
%TO.C,R7*%
X91487500Y-83900000D03*
X93312500Y-83900000D03*
%TD*%
D17*
%TO.C,C1*%
X144330000Y-62925000D03*
X144330000Y-59975000D03*
%TD*%
D18*
%TO.C,R14*%
X166200000Y-88387500D03*
X166200000Y-90212500D03*
%TD*%
D20*
%TO.C,U1*%
X153480000Y-58550000D03*
X153480000Y-59050000D03*
X153480000Y-59550000D03*
X151980000Y-59550000D03*
X151980000Y-59050000D03*
X151980000Y-58550000D03*
%TD*%
D21*
%TO.C,C6*%
X167805000Y-65730000D03*
X164855000Y-65730000D03*
%TD*%
D22*
%TO.C,R5*%
X158492500Y-56050000D03*
X155567500Y-56050000D03*
%TD*%
D10*
%TO.C,Q1*%
X96050000Y-86562500D03*
X94150000Y-86562500D03*
X95100000Y-88437500D03*
%TD*%
D14*
%TO.C,D6*%
X147250000Y-93100000D03*
X142950000Y-93100000D03*
%TD*%
D18*
%TO.C,R6*%
X96000000Y-82187500D03*
X96000000Y-84012500D03*
%TD*%
D23*
%TO.C,LIHLP4040DZER2R2M1*%
X160095000Y-69107500D03*
X151080000Y-69107500D03*
%TD*%
D21*
%TO.C,C7*%
X167805000Y-70250000D03*
X164855000Y-70250000D03*
%TD*%
D10*
%TO.C,Q7*%
X135950000Y-86662500D03*
X134050000Y-86662500D03*
X135000000Y-88537500D03*
%TD*%
D11*
%TO.C,R4*%
X156255000Y-62050000D03*
X154605000Y-62050000D03*
%TD*%
M02*
