%TF.GenerationSoftware,KiCad,Pcbnew,(6.0.5)*%
%TF.CreationDate,2022-10-19T12:43:17-05:00*%
%TF.ProjectId,powerPCB,706f7765-7250-4434-922e-6b696361645f,rev?*%
%TF.SameCoordinates,Original*%
%TF.FileFunction,Copper,L4,Bot*%
%TF.FilePolarity,Positive*%
%FSLAX46Y46*%
G04 Gerber Fmt 4.6, Leading zero omitted, Abs format (unit mm)*
G04 Created by KiCad (PCBNEW (6.0.5)) date 2022-10-19 12:43:17*
%MOMM*%
%LPD*%
G01*
G04 APERTURE LIST*
%TA.AperFunction,ComponentPad*%
%ADD10C,5.600000*%
%TD*%
%TA.AperFunction,ComponentPad*%
%ADD11C,3.800000*%
%TD*%
%TA.AperFunction,ComponentPad*%
%ADD12R,1.800000X1.800000*%
%TD*%
%TA.AperFunction,ComponentPad*%
%ADD13O,1.800000X1.800000*%
%TD*%
%TA.AperFunction,ComponentPad*%
%ADD14R,1.700000X1.700000*%
%TD*%
%TA.AperFunction,ComponentPad*%
%ADD15O,1.700000X1.700000*%
%TD*%
%TA.AperFunction,ViaPad*%
%ADD16C,0.800000*%
%TD*%
%TA.AperFunction,Conductor*%
%ADD17C,0.500000*%
%TD*%
%TA.AperFunction,Conductor*%
%ADD18C,0.250000*%
%TD*%
G04 APERTURE END LIST*
D10*
%TO.P,H9,1,1*%
%TO.N,unconnected-(H9-Pad1)*%
X84900000Y-49000000D03*
%TD*%
D11*
%TO.P,H5,1,1*%
%TO.N,GND*%
X110100000Y-57900000D03*
%TD*%
D12*
%TO.P,J10,1,Pin_1*%
%TO.N,Net-(Q6-Pad3)*%
X122500000Y-99400000D03*
D13*
%TO.P,J10,2,Pin_2*%
%TO.N,+12V*%
X127500000Y-99400000D03*
%TD*%
%TO.P,J3,2,Pin_2*%
%TO.N,GND*%
X149500000Y-49500000D03*
D12*
%TO.P,J3,1,Pin_1*%
%TO.N,+5V*%
X154500000Y-49500000D03*
%TD*%
%TO.P,J7,1,Pin_1*%
%TO.N,Net-(J7-Pad1)*%
X153900000Y-99400000D03*
D13*
%TO.P,J7,2,Pin_2*%
%TO.N,+12V*%
X158900000Y-99400000D03*
%TD*%
D12*
%TO.P,J1,1,Pin_1*%
%TO.N,Net-(D1-Pad2)*%
X92500000Y-99400000D03*
D13*
%TO.P,J1,2,Pin_2*%
%TO.N,+12V*%
X97500000Y-99400000D03*
%TD*%
D11*
%TO.P,H6,1,1*%
%TO.N,GND*%
X104400000Y-57900000D03*
%TD*%
D10*
%TO.P,H10,1,1*%
%TO.N,unconnected-(H10-Pad1)*%
X175900000Y-100000000D03*
%TD*%
D13*
%TO.P,J4,2,Pin_2*%
%TO.N,GND*%
X159700000Y-49500000D03*
D12*
%TO.P,J4,1,Pin_1*%
%TO.N,+5V*%
X164700000Y-49500000D03*
%TD*%
D11*
%TO.P,H2,1,1*%
%TO.N,/12IN*%
X98600000Y-65200000D03*
%TD*%
D12*
%TO.P,J6,1,Pin_1*%
%TO.N,Net-(D2-Pad2)*%
X102500000Y-99400000D03*
D13*
%TO.P,J6,2,Pin_2*%
%TO.N,+12V*%
X107500000Y-99400000D03*
%TD*%
D12*
%TO.P,J9,1,Pin_1*%
%TO.N,Net-(J9-Pad1)*%
X163900000Y-99400000D03*
D13*
%TO.P,J9,2,Pin_2*%
%TO.N,+12V*%
X168900000Y-99400000D03*
%TD*%
D12*
%TO.P,J13,1,Pin_1*%
%TO.N,Net-(D6-Pad2)*%
X142500000Y-99390000D03*
D13*
%TO.P,J13,2,Pin_2*%
%TO.N,+12V*%
X147500000Y-99390000D03*
%TD*%
D12*
%TO.P,J11,1,Pin_1*%
%TO.N,Net-(D5-Pad2)*%
X132500000Y-99400000D03*
D13*
%TO.P,J11,2,Pin_2*%
%TO.N,+12V*%
X137500000Y-99400000D03*
%TD*%
D11*
%TO.P,H3,1,1*%
%TO.N,/12IN*%
X110000000Y-65200000D03*
%TD*%
D14*
%TO.P,J5,1,Pin_1*%
%TO.N,GND*%
X87450000Y-65250000D03*
D15*
%TO.P,J5,2,Pin_2*%
%TO.N,GPIO19*%
X87450000Y-67790000D03*
%TO.P,J5,3,Pin_3*%
%TO.N,GPIO13*%
X87450000Y-70330000D03*
%TO.P,J5,4,Pin_4*%
%TO.N,GPIO6*%
X87450000Y-72870000D03*
%TO.P,J5,5,Pin_5*%
%TO.N,GPIO5*%
X87450000Y-75410000D03*
%TO.P,J5,6,Pin_6*%
%TO.N,GPIO22*%
X87450000Y-77950000D03*
%TO.P,J5,7,Pin_7*%
%TO.N,GPIO27*%
X87450000Y-80490000D03*
%TO.P,J5,8,Pin_8*%
%TO.N,GPIO17*%
X87450000Y-83030000D03*
%TO.P,J5,9,Pin_9*%
%TO.N,GPIO4*%
X87450000Y-85570000D03*
%TD*%
D10*
%TO.P,H8,1,1*%
%TO.N,unconnected-(H8-Pad1)*%
X84900000Y-100000000D03*
%TD*%
D11*
%TO.P,H1,1,1*%
%TO.N,/12IN*%
X104400000Y-65200000D03*
%TD*%
D13*
%TO.P,SW1,1,A*%
%TO.N,unconnected-(SW1-Pad1)*%
X120500000Y-65440000D03*
%TO.P,SW1,2,B*%
%TO.N,/12IN*%
X120500000Y-62900000D03*
%TO.P,SW1,3,C*%
%TO.N,+12V*%
X120500000Y-60360000D03*
%TD*%
D10*
%TO.P,H7,1,1*%
%TO.N,unconnected-(H7-Pad1)*%
X175900000Y-49000000D03*
%TD*%
D11*
%TO.P,H4,1,1*%
%TO.N,GND*%
X98500000Y-57900000D03*
%TD*%
D12*
%TO.P,J8,1,Pin_1*%
%TO.N,Net-(D3-Pad2)*%
X112500000Y-99400000D03*
D13*
%TO.P,J8,2,Pin_2*%
%TO.N,+12V*%
X117500000Y-99400000D03*
%TD*%
%TO.P,J2,2,Pin_2*%
%TO.N,GND*%
X139472500Y-49487500D03*
D12*
%TO.P,J2,1,Pin_1*%
%TO.N,+5V*%
X144472500Y-49487500D03*
%TD*%
D13*
%TO.P,J12,2,Pin_2*%
%TO.N,GND*%
X129482500Y-49497500D03*
D12*
%TO.P,J12,1,Pin_1*%
%TO.N,+5V*%
X134482500Y-49497500D03*
%TD*%
D16*
%TO.N,GND*%
X151880000Y-54360000D03*
X121912500Y-86700000D03*
X101600000Y-86500000D03*
X153220000Y-61940000D03*
X152830000Y-60850000D03*
X91900000Y-86500000D03*
X111712500Y-86700000D03*
X142000000Y-86500000D03*
X132712500Y-86600000D03*
X147130000Y-65450000D03*
X152712500Y-92800000D03*
X162212500Y-92900000D03*
X162930000Y-57150000D03*
X169330000Y-67850000D03*
%TO.N,+5V*%
X166230000Y-73850000D03*
X170230000Y-73850000D03*
X171230000Y-73850000D03*
X168230000Y-73850000D03*
X169230000Y-73850000D03*
X173230000Y-73850000D03*
X172230000Y-73850000D03*
X167230000Y-73850000D03*
X165230000Y-73850000D03*
X164230000Y-73850000D03*
%TO.N,/EN*%
X154828999Y-59075263D03*
X154100000Y-57210000D03*
%TO.N,GPIO4*%
X94100000Y-81400000D03*
%TO.N,GPIO17*%
X104100000Y-81400000D03*
%TO.N,GPIO27*%
X113900000Y-81200000D03*
%TO.N,GPIO22*%
X124300000Y-81100000D03*
%TO.N,GPIO5*%
X131900000Y-81000000D03*
%TO.N,GPIO6*%
X155200000Y-86600000D03*
%TO.N,GPIO13*%
X164100000Y-87000000D03*
%TO.N,GPIO19*%
X143400000Y-80500000D03*
%TD*%
D17*
%TO.N,GPIO17*%
X103250489Y-80550489D02*
X104100000Y-81400000D01*
X89920000Y-83030000D02*
X92399511Y-80550489D01*
X92399511Y-80550489D02*
X103250489Y-80550489D01*
X87450000Y-83030000D02*
X89920000Y-83030000D01*
%TO.N,GPIO27*%
X112200000Y-79500000D02*
X113900000Y-81200000D01*
X88520000Y-79500000D02*
X112200000Y-79500000D01*
X87525000Y-80495000D02*
X88520000Y-79500000D01*
%TO.N,GPIO4*%
X87450000Y-85570000D02*
X89930000Y-85570000D01*
X89930000Y-85570000D02*
X94100000Y-81400000D01*
%TO.N,GPIO22*%
X121150000Y-77950000D02*
X124300000Y-81100000D01*
X87450000Y-77950000D02*
X121150000Y-77950000D01*
%TO.N,GPIO5*%
X128250000Y-76900000D02*
X131900000Y-80550000D01*
X88940000Y-76900000D02*
X128250000Y-76900000D01*
X131900000Y-80550000D02*
X131900000Y-81000000D01*
X87450000Y-75410000D02*
X88940000Y-76900000D01*
%TO.N,GPIO19*%
X140150000Y-83750000D02*
X143400000Y-80500000D01*
X140150000Y-88400000D02*
X140150000Y-83750000D01*
X84250000Y-86300000D02*
X87050000Y-89100000D01*
X86060000Y-67790000D02*
X84250000Y-69600000D01*
X84250000Y-69600000D02*
X84250000Y-86300000D01*
X87050000Y-89100000D02*
X139450000Y-89100000D01*
X139450000Y-89100000D02*
X140150000Y-88400000D01*
X87450000Y-67790000D02*
X86060000Y-67790000D01*
%TO.N,GPIO6*%
X155200000Y-85550000D02*
X145650000Y-76000000D01*
X155200000Y-86600000D02*
X155200000Y-85550000D01*
%TO.N,GPIO13*%
X163050000Y-87000000D02*
X164100000Y-87000000D01*
X91890000Y-74700000D02*
X150750000Y-74700000D01*
X150750000Y-74700000D02*
X163050000Y-87000000D01*
X87525000Y-70335000D02*
X91890000Y-74700000D01*
D18*
%TO.N,/EN*%
X154828999Y-58496905D02*
X154828999Y-59075263D01*
X154434499Y-57544499D02*
X154040000Y-57150000D01*
X154828996Y-58496905D02*
G75*
G03*
X154434498Y-57544500I-1346896J5D01*
G01*
D17*
%TO.N,GPIO6*%
X87525000Y-72875000D02*
X90650000Y-76000000D01*
X90650000Y-76000000D02*
X145650000Y-76000000D01*
%TD*%
%TA.AperFunction,Conductor*%
%TO.N,+5V*%
G36*
X172995208Y-47170002D02*
G01*
X173041701Y-47223658D01*
X173051805Y-47293932D01*
X173038235Y-47335347D01*
X172898684Y-47596703D01*
X172898679Y-47596714D01*
X172897077Y-47599714D01*
X172763411Y-47932218D01*
X172762491Y-47935492D01*
X172762489Y-47935497D01*
X172684382Y-48213373D01*
X172666437Y-48277213D01*
X172665875Y-48280570D01*
X172665875Y-48280571D01*
X172613371Y-48594327D01*
X172607290Y-48630663D01*
X172586661Y-48988434D01*
X172586833Y-48991829D01*
X172586833Y-48991830D01*
X172589136Y-49037297D01*
X172604792Y-49346340D01*
X172605329Y-49349695D01*
X172605330Y-49349701D01*
X172638992Y-49559859D01*
X172661470Y-49700195D01*
X172756033Y-50045859D01*
X172887374Y-50379288D01*
X172888957Y-50382303D01*
X173034930Y-50660340D01*
X173053957Y-50696582D01*
X173055858Y-50699411D01*
X173055864Y-50699421D01*
X173239569Y-50972800D01*
X173253834Y-50994029D01*
X173484665Y-51268150D01*
X173743751Y-51515738D01*
X174028061Y-51733897D01*
X174169460Y-51819869D01*
X174217274Y-51872349D01*
X174230000Y-51927530D01*
X174230000Y-77424000D01*
X174209998Y-77492121D01*
X174156342Y-77538614D01*
X174104000Y-77550000D01*
X156556000Y-77550000D01*
X156487879Y-77529998D01*
X156441386Y-77476342D01*
X156430000Y-77424000D01*
X156430000Y-67850000D01*
X168416496Y-67850000D01*
X168436458Y-68039928D01*
X168495473Y-68221556D01*
X168590960Y-68386944D01*
X168718747Y-68528866D01*
X168873248Y-68641118D01*
X168879276Y-68643802D01*
X168879278Y-68643803D01*
X169041681Y-68716109D01*
X169047712Y-68718794D01*
X169141113Y-68738647D01*
X169228056Y-68757128D01*
X169228061Y-68757128D01*
X169234513Y-68758500D01*
X169425487Y-68758500D01*
X169431939Y-68757128D01*
X169431944Y-68757128D01*
X169518887Y-68738647D01*
X169612288Y-68718794D01*
X169618319Y-68716109D01*
X169780722Y-68643803D01*
X169780724Y-68643802D01*
X169786752Y-68641118D01*
X169941253Y-68528866D01*
X170069040Y-68386944D01*
X170164527Y-68221556D01*
X170223542Y-68039928D01*
X170243504Y-67850000D01*
X170223542Y-67660072D01*
X170164527Y-67478444D01*
X170069040Y-67313056D01*
X169941253Y-67171134D01*
X169786752Y-67058882D01*
X169780724Y-67056198D01*
X169780722Y-67056197D01*
X169618319Y-66983891D01*
X169618318Y-66983891D01*
X169612288Y-66981206D01*
X169518888Y-66961353D01*
X169431944Y-66942872D01*
X169431939Y-66942872D01*
X169425487Y-66941500D01*
X169234513Y-66941500D01*
X169228061Y-66942872D01*
X169228056Y-66942872D01*
X169141112Y-66961353D01*
X169047712Y-66981206D01*
X169041682Y-66983891D01*
X169041681Y-66983891D01*
X168879278Y-67056197D01*
X168879276Y-67056198D01*
X168873248Y-67058882D01*
X168718747Y-67171134D01*
X168590960Y-67313056D01*
X168495473Y-67478444D01*
X168436458Y-67660072D01*
X168416496Y-67850000D01*
X156430000Y-67850000D01*
X156430000Y-66250000D01*
X147915183Y-66250000D01*
X147847062Y-66229998D01*
X147800569Y-66176342D01*
X147790465Y-66106068D01*
X147821546Y-66039692D01*
X147869040Y-65986944D01*
X147964527Y-65821556D01*
X148023542Y-65639928D01*
X148043504Y-65450000D01*
X148023542Y-65260072D01*
X147964527Y-65078444D01*
X147869040Y-64913056D01*
X147741253Y-64771134D01*
X147586752Y-64658882D01*
X147580724Y-64656198D01*
X147580722Y-64656197D01*
X147418319Y-64583891D01*
X147418318Y-64583891D01*
X147412288Y-64581206D01*
X147318888Y-64561353D01*
X147231944Y-64542872D01*
X147231939Y-64542872D01*
X147225487Y-64541500D01*
X147034513Y-64541500D01*
X147028061Y-64542872D01*
X147028056Y-64542872D01*
X146941112Y-64561353D01*
X146847712Y-64581206D01*
X146841682Y-64583891D01*
X146841681Y-64583891D01*
X146679278Y-64656197D01*
X146679276Y-64656198D01*
X146673248Y-64658882D01*
X146518747Y-64771134D01*
X146390960Y-64913056D01*
X146295473Y-65078444D01*
X146236458Y-65260072D01*
X146216496Y-65450000D01*
X146236458Y-65639928D01*
X146295473Y-65821556D01*
X146390960Y-65986944D01*
X146438454Y-66039692D01*
X146469170Y-66103697D01*
X146460407Y-66174150D01*
X146414944Y-66228682D01*
X146344817Y-66250000D01*
X121873711Y-66250000D01*
X121805590Y-66229998D01*
X121759097Y-66176342D01*
X121748993Y-66106068D01*
X121760754Y-66068173D01*
X121811784Y-65964922D01*
X121811785Y-65964920D01*
X121814078Y-65960280D01*
X121881408Y-65738671D01*
X121911640Y-65509041D01*
X121913327Y-65440000D01*
X121899074Y-65266635D01*
X121894773Y-65214318D01*
X121894772Y-65214312D01*
X121894349Y-65209167D01*
X121837925Y-64984533D01*
X121835866Y-64979797D01*
X121747630Y-64776868D01*
X121747628Y-64776865D01*
X121745570Y-64772131D01*
X121619764Y-64577665D01*
X121586857Y-64541500D01*
X121570134Y-64523122D01*
X121463887Y-64406358D01*
X121459836Y-64403159D01*
X121459832Y-64403155D01*
X121287077Y-64266722D01*
X121246014Y-64208805D01*
X121242782Y-64137882D01*
X121278407Y-64076470D01*
X121292001Y-64065261D01*
X121295872Y-64062500D01*
X121412243Y-63979494D01*
X121576303Y-63816005D01*
X121711458Y-63627917D01*
X121758641Y-63532450D01*
X121811784Y-63424922D01*
X121811785Y-63424920D01*
X121814078Y-63420280D01*
X121881408Y-63198671D01*
X121911640Y-62969041D01*
X121913327Y-62900000D01*
X121905941Y-62810166D01*
X121894773Y-62674318D01*
X121894772Y-62674312D01*
X121894349Y-62669167D01*
X121837925Y-62444533D01*
X121835866Y-62439797D01*
X121747630Y-62236868D01*
X121747628Y-62236865D01*
X121745570Y-62232131D01*
X121619764Y-62037665D01*
X121463887Y-61866358D01*
X121459836Y-61863159D01*
X121459832Y-61863155D01*
X121287077Y-61726722D01*
X121246014Y-61668805D01*
X121242782Y-61597882D01*
X121278407Y-61536470D01*
X121292001Y-61525261D01*
X121295872Y-61522500D01*
X121412243Y-61439494D01*
X121576303Y-61276005D01*
X121711458Y-61087917D01*
X121714172Y-61082427D01*
X121811784Y-60884922D01*
X121811785Y-60884920D01*
X121814078Y-60880280D01*
X121823278Y-60850000D01*
X151916496Y-60850000D01*
X151917186Y-60856565D01*
X151919679Y-60880280D01*
X151936458Y-61039928D01*
X151995473Y-61221556D01*
X151998776Y-61227278D01*
X151998777Y-61227279D01*
X152018323Y-61261134D01*
X152090960Y-61386944D01*
X152095378Y-61391851D01*
X152095379Y-61391852D01*
X152205744Y-61514425D01*
X152218747Y-61528866D01*
X152289975Y-61580616D01*
X152333328Y-61636837D01*
X152339404Y-61707573D01*
X152335749Y-61721479D01*
X152326458Y-61750072D01*
X152325768Y-61756635D01*
X152325767Y-61756642D01*
X152314236Y-61866358D01*
X152306496Y-61940000D01*
X152326458Y-62129928D01*
X152385473Y-62311556D01*
X152480960Y-62476944D01*
X152608747Y-62618866D01*
X152763248Y-62731118D01*
X152769276Y-62733802D01*
X152769278Y-62733803D01*
X152931681Y-62806109D01*
X152937712Y-62808794D01*
X153031112Y-62828647D01*
X153118056Y-62847128D01*
X153118061Y-62847128D01*
X153124513Y-62848500D01*
X153315487Y-62848500D01*
X153321939Y-62847128D01*
X153321944Y-62847128D01*
X153408888Y-62828647D01*
X153502288Y-62808794D01*
X153508319Y-62806109D01*
X153670722Y-62733803D01*
X153670724Y-62733802D01*
X153676752Y-62731118D01*
X153831253Y-62618866D01*
X153959040Y-62476944D01*
X154054527Y-62311556D01*
X154113542Y-62129928D01*
X154133504Y-61940000D01*
X154113542Y-61750072D01*
X154054527Y-61568444D01*
X154033919Y-61532749D01*
X153981808Y-61442492D01*
X153959040Y-61403056D01*
X153831253Y-61261134D01*
X153760025Y-61209384D01*
X153716672Y-61153163D01*
X153710596Y-61082427D01*
X153714251Y-61068521D01*
X153723542Y-61039928D01*
X153740322Y-60880280D01*
X153742814Y-60856565D01*
X153743504Y-60850000D01*
X153742814Y-60843435D01*
X153724232Y-60666635D01*
X153724232Y-60666633D01*
X153723542Y-60660072D01*
X153664527Y-60478444D01*
X153569040Y-60313056D01*
X153441253Y-60171134D01*
X153286752Y-60058882D01*
X153280724Y-60056198D01*
X153280722Y-60056197D01*
X153118319Y-59983891D01*
X153118318Y-59983891D01*
X153112288Y-59981206D01*
X153018887Y-59961353D01*
X152931944Y-59942872D01*
X152931939Y-59942872D01*
X152925487Y-59941500D01*
X152734513Y-59941500D01*
X152728061Y-59942872D01*
X152728056Y-59942872D01*
X152641113Y-59961353D01*
X152547712Y-59981206D01*
X152541682Y-59983891D01*
X152541681Y-59983891D01*
X152379278Y-60056197D01*
X152379276Y-60056198D01*
X152373248Y-60058882D01*
X152218747Y-60171134D01*
X152090960Y-60313056D01*
X151995473Y-60478444D01*
X151936458Y-60660072D01*
X151935768Y-60666633D01*
X151935768Y-60666635D01*
X151917186Y-60843435D01*
X151916496Y-60850000D01*
X121823278Y-60850000D01*
X121881408Y-60658671D01*
X121911640Y-60429041D01*
X121913327Y-60360000D01*
X121898203Y-60176045D01*
X121894773Y-60134318D01*
X121894772Y-60134312D01*
X121894349Y-60129167D01*
X121856839Y-59979834D01*
X121839184Y-59909544D01*
X121839183Y-59909540D01*
X121837925Y-59904533D01*
X121835866Y-59899797D01*
X121747630Y-59696868D01*
X121747628Y-59696865D01*
X121745570Y-59692131D01*
X121619764Y-59497665D01*
X121463887Y-59326358D01*
X121459836Y-59323159D01*
X121459832Y-59323155D01*
X121286177Y-59186011D01*
X121286172Y-59186008D01*
X121282123Y-59182810D01*
X121277607Y-59180317D01*
X121277604Y-59180315D01*
X121083879Y-59073373D01*
X121083875Y-59073371D01*
X121079355Y-59070876D01*
X121074486Y-59069152D01*
X121074482Y-59069150D01*
X120865903Y-58995288D01*
X120865899Y-58995287D01*
X120861028Y-58993562D01*
X120855935Y-58992655D01*
X120855932Y-58992654D01*
X120638095Y-58953851D01*
X120638089Y-58953850D01*
X120633006Y-58952945D01*
X120560096Y-58952054D01*
X120406581Y-58950179D01*
X120406579Y-58950179D01*
X120401411Y-58950116D01*
X120172464Y-58985150D01*
X119952314Y-59057106D01*
X119947726Y-59059494D01*
X119947722Y-59059496D01*
X119904823Y-59081828D01*
X119746872Y-59164052D01*
X119742739Y-59167155D01*
X119742736Y-59167157D01*
X119603806Y-59271469D01*
X119561655Y-59303117D01*
X119401639Y-59470564D01*
X119398725Y-59474836D01*
X119398724Y-59474837D01*
X119383152Y-59497665D01*
X119271119Y-59661899D01*
X119173602Y-59871981D01*
X119111707Y-60095169D01*
X119087095Y-60325469D01*
X119087392Y-60330622D01*
X119087392Y-60330625D01*
X119100129Y-60551529D01*
X119100427Y-60556697D01*
X119101564Y-60561743D01*
X119101565Y-60561749D01*
X119125203Y-60666635D01*
X119151346Y-60782642D01*
X119153288Y-60787424D01*
X119153289Y-60787428D01*
X119236540Y-60992450D01*
X119238484Y-60997237D01*
X119359501Y-61194719D01*
X119511147Y-61369784D01*
X119689349Y-61517730D01*
X119693819Y-61520342D01*
X119697511Y-61522500D01*
X119746232Y-61574140D01*
X119759301Y-61643924D01*
X119732566Y-61709694D01*
X119709589Y-61732045D01*
X119561655Y-61843117D01*
X119401639Y-62010564D01*
X119398725Y-62014836D01*
X119398724Y-62014837D01*
X119383152Y-62037665D01*
X119271119Y-62201899D01*
X119173602Y-62411981D01*
X119111707Y-62635169D01*
X119087095Y-62865469D01*
X119087392Y-62870622D01*
X119087392Y-62870625D01*
X119093067Y-62969041D01*
X119100427Y-63096697D01*
X119101564Y-63101743D01*
X119101565Y-63101749D01*
X119133741Y-63244523D01*
X119151346Y-63322642D01*
X119153288Y-63327424D01*
X119153289Y-63327428D01*
X119236540Y-63532450D01*
X119238484Y-63537237D01*
X119359501Y-63734719D01*
X119511147Y-63909784D01*
X119689349Y-64057730D01*
X119693819Y-64060342D01*
X119697511Y-64062500D01*
X119746232Y-64114140D01*
X119759301Y-64183924D01*
X119732566Y-64249694D01*
X119709589Y-64272045D01*
X119561655Y-64383117D01*
X119558083Y-64386855D01*
X119408990Y-64542872D01*
X119401639Y-64550564D01*
X119398725Y-64554836D01*
X119398724Y-64554837D01*
X119383152Y-64577665D01*
X119271119Y-64741899D01*
X119173602Y-64951981D01*
X119111707Y-65175169D01*
X119087095Y-65405469D01*
X119087392Y-65410622D01*
X119087392Y-65410625D01*
X119093067Y-65509041D01*
X119100427Y-65636697D01*
X119101564Y-65641743D01*
X119101565Y-65641749D01*
X119133741Y-65784523D01*
X119151346Y-65862642D01*
X119234804Y-66068173D01*
X119238224Y-66076596D01*
X119245320Y-66147237D01*
X119213098Y-66210500D01*
X119151789Y-66246301D01*
X119121481Y-66250000D01*
X117956000Y-66250000D01*
X117887879Y-66229998D01*
X117841386Y-66176342D01*
X117830000Y-66124000D01*
X117830000Y-57210000D01*
X153186496Y-57210000D01*
X153206458Y-57399928D01*
X153265473Y-57581556D01*
X153360960Y-57746944D01*
X153488747Y-57888866D01*
X153643248Y-58001118D01*
X153649276Y-58003802D01*
X153649278Y-58003803D01*
X153773276Y-58059010D01*
X153817712Y-58078794D01*
X153911112Y-58098647D01*
X153998056Y-58117128D01*
X153998061Y-58117128D01*
X154004513Y-58118500D01*
X154011115Y-58118500D01*
X154017682Y-58119190D01*
X154017502Y-58120898D01*
X154077456Y-58138502D01*
X154120456Y-58185103D01*
X154135342Y-58212952D01*
X154144792Y-58235763D01*
X154178188Y-58345855D01*
X154183005Y-58370076D01*
X154183317Y-58373244D01*
X154170088Y-58442997D01*
X154151560Y-58469903D01*
X154094382Y-58533406D01*
X154094379Y-58533410D01*
X154089959Y-58538319D01*
X153994472Y-58703707D01*
X153935457Y-58885335D01*
X153934767Y-58891896D01*
X153934767Y-58891898D01*
X153928351Y-58952945D01*
X153915495Y-59075263D01*
X153916185Y-59081828D01*
X153926799Y-59182810D01*
X153935457Y-59265191D01*
X153994472Y-59446819D01*
X154089959Y-59612207D01*
X154217746Y-59754129D01*
X154372247Y-59866381D01*
X154378275Y-59869065D01*
X154378277Y-59869066D01*
X154457938Y-59904533D01*
X154546711Y-59944057D01*
X154640111Y-59963910D01*
X154727055Y-59982391D01*
X154727060Y-59982391D01*
X154733512Y-59983763D01*
X154924486Y-59983763D01*
X154930938Y-59982391D01*
X154930943Y-59982391D01*
X155017887Y-59963910D01*
X155111287Y-59944057D01*
X155200060Y-59904533D01*
X155279721Y-59869066D01*
X155279723Y-59869065D01*
X155285751Y-59866381D01*
X155440252Y-59754129D01*
X155568039Y-59612207D01*
X155663526Y-59446819D01*
X155722541Y-59265191D01*
X155731200Y-59182810D01*
X155741813Y-59081828D01*
X155742503Y-59075263D01*
X155729647Y-58952945D01*
X155723231Y-58891898D01*
X155723231Y-58891896D01*
X155722541Y-58885335D01*
X155663526Y-58703707D01*
X155568039Y-58538319D01*
X155490963Y-58452717D01*
X155460245Y-58388710D01*
X155458797Y-58375471D01*
X155458494Y-58370076D01*
X155453145Y-58274823D01*
X155415886Y-58055531D01*
X155354309Y-57841789D01*
X155269187Y-57636286D01*
X155161591Y-57441606D01*
X155136474Y-57406206D01*
X155035428Y-57263795D01*
X155012879Y-57204053D01*
X155007198Y-57150000D01*
X162016496Y-57150000D01*
X162036458Y-57339928D01*
X162095473Y-57521556D01*
X162190960Y-57686944D01*
X162318747Y-57828866D01*
X162473248Y-57941118D01*
X162479276Y-57943802D01*
X162479278Y-57943803D01*
X162614041Y-58003803D01*
X162647712Y-58018794D01*
X162741112Y-58038647D01*
X162828056Y-58057128D01*
X162828061Y-58057128D01*
X162834513Y-58058500D01*
X163025487Y-58058500D01*
X163031939Y-58057128D01*
X163031944Y-58057128D01*
X163118888Y-58038647D01*
X163212288Y-58018794D01*
X163245959Y-58003803D01*
X163380722Y-57943803D01*
X163380724Y-57943802D01*
X163386752Y-57941118D01*
X163541253Y-57828866D01*
X163669040Y-57686944D01*
X163764527Y-57521556D01*
X163823542Y-57339928D01*
X163843504Y-57150000D01*
X163823542Y-56960072D01*
X163764527Y-56778444D01*
X163669040Y-56613056D01*
X163541253Y-56471134D01*
X163386752Y-56358882D01*
X163380724Y-56356198D01*
X163380722Y-56356197D01*
X163218319Y-56283891D01*
X163218318Y-56283891D01*
X163212288Y-56281206D01*
X163118887Y-56261353D01*
X163031944Y-56242872D01*
X163031939Y-56242872D01*
X163025487Y-56241500D01*
X162834513Y-56241500D01*
X162828061Y-56242872D01*
X162828056Y-56242872D01*
X162741113Y-56261353D01*
X162647712Y-56281206D01*
X162641682Y-56283891D01*
X162641681Y-56283891D01*
X162479278Y-56356197D01*
X162479276Y-56356198D01*
X162473248Y-56358882D01*
X162318747Y-56471134D01*
X162190960Y-56613056D01*
X162095473Y-56778444D01*
X162036458Y-56960072D01*
X162016496Y-57150000D01*
X155007198Y-57150000D01*
X154994232Y-57026635D01*
X154994232Y-57026633D01*
X154993542Y-57020072D01*
X154934527Y-56838444D01*
X154839040Y-56673056D01*
X154711253Y-56531134D01*
X154556752Y-56418882D01*
X154550724Y-56416198D01*
X154550722Y-56416197D01*
X154388319Y-56343891D01*
X154388318Y-56343891D01*
X154382288Y-56341206D01*
X154288888Y-56321353D01*
X154201944Y-56302872D01*
X154201939Y-56302872D01*
X154195487Y-56301500D01*
X154004513Y-56301500D01*
X153998061Y-56302872D01*
X153998056Y-56302872D01*
X153911113Y-56321353D01*
X153817712Y-56341206D01*
X153811682Y-56343891D01*
X153811681Y-56343891D01*
X153649278Y-56416197D01*
X153649276Y-56416198D01*
X153643248Y-56418882D01*
X153488747Y-56531134D01*
X153360960Y-56673056D01*
X153265473Y-56838444D01*
X153206458Y-57020072D01*
X153186496Y-57210000D01*
X117830000Y-57210000D01*
X117830000Y-54360000D01*
X150966496Y-54360000D01*
X150986458Y-54549928D01*
X151045473Y-54731556D01*
X151140960Y-54896944D01*
X151268747Y-55038866D01*
X151423248Y-55151118D01*
X151429276Y-55153802D01*
X151429278Y-55153803D01*
X151591681Y-55226109D01*
X151597712Y-55228794D01*
X151691112Y-55248647D01*
X151778056Y-55267128D01*
X151778061Y-55267128D01*
X151784513Y-55268500D01*
X151975487Y-55268500D01*
X151981939Y-55267128D01*
X151981944Y-55267128D01*
X152068887Y-55248647D01*
X152162288Y-55228794D01*
X152168319Y-55226109D01*
X152330722Y-55153803D01*
X152330724Y-55153802D01*
X152336752Y-55151118D01*
X152491253Y-55038866D01*
X152619040Y-54896944D01*
X152714527Y-54731556D01*
X152773542Y-54549928D01*
X152793504Y-54360000D01*
X152773542Y-54170072D01*
X152714527Y-53988444D01*
X152619040Y-53823056D01*
X152491253Y-53681134D01*
X152336752Y-53568882D01*
X152330724Y-53566198D01*
X152330722Y-53566197D01*
X152168319Y-53493891D01*
X152168318Y-53493891D01*
X152162288Y-53491206D01*
X152068887Y-53471353D01*
X151981944Y-53452872D01*
X151981939Y-53452872D01*
X151975487Y-53451500D01*
X151784513Y-53451500D01*
X151778061Y-53452872D01*
X151778056Y-53452872D01*
X151691113Y-53471353D01*
X151597712Y-53491206D01*
X151591682Y-53493891D01*
X151591681Y-53493891D01*
X151429278Y-53566197D01*
X151429276Y-53566198D01*
X151423248Y-53568882D01*
X151268747Y-53681134D01*
X151140960Y-53823056D01*
X151045473Y-53988444D01*
X150986458Y-54170072D01*
X150966496Y-54360000D01*
X117830000Y-54360000D01*
X117830000Y-49462969D01*
X128069595Y-49462969D01*
X128069892Y-49468122D01*
X128069892Y-49468125D01*
X128075518Y-49565691D01*
X128082927Y-49694197D01*
X128084064Y-49699243D01*
X128084065Y-49699249D01*
X128107586Y-49803617D01*
X128133846Y-49920142D01*
X128135788Y-49924924D01*
X128135789Y-49924928D01*
X128219040Y-50129950D01*
X128220984Y-50134737D01*
X128342001Y-50332219D01*
X128493647Y-50507284D01*
X128671849Y-50655230D01*
X128871822Y-50772084D01*
X129088194Y-50854709D01*
X129093260Y-50855740D01*
X129093261Y-50855740D01*
X129105549Y-50858240D01*
X129315156Y-50900885D01*
X129445824Y-50905676D01*
X129541449Y-50909183D01*
X129541453Y-50909183D01*
X129546613Y-50909372D01*
X129551733Y-50908716D01*
X129551735Y-50908716D01*
X129624770Y-50899360D01*
X129776347Y-50879942D01*
X129781295Y-50878457D01*
X129781302Y-50878456D01*
X129993247Y-50814869D01*
X129998190Y-50813386D01*
X130002824Y-50811116D01*
X130201549Y-50713762D01*
X130201552Y-50713760D01*
X130206184Y-50711491D01*
X130394743Y-50576994D01*
X130558803Y-50413505D01*
X130563368Y-50407153D01*
X130614408Y-50336122D01*
X130693958Y-50225417D01*
X130698901Y-50215417D01*
X130794284Y-50022422D01*
X130794285Y-50022420D01*
X130796578Y-50017780D01*
X130863908Y-49796171D01*
X130894140Y-49566541D01*
X130895827Y-49497500D01*
X130892166Y-49452969D01*
X138059595Y-49452969D01*
X138059892Y-49458122D01*
X138059892Y-49458125D01*
X138066479Y-49572359D01*
X138072927Y-49684197D01*
X138074064Y-49689243D01*
X138074065Y-49689249D01*
X138106241Y-49832023D01*
X138123846Y-49910142D01*
X138125788Y-49914924D01*
X138125789Y-49914928D01*
X138178955Y-50045859D01*
X138210984Y-50124737D01*
X138332001Y-50322219D01*
X138483647Y-50497284D01*
X138661849Y-50645230D01*
X138861822Y-50762084D01*
X138866647Y-50763926D01*
X138866648Y-50763927D01*
X138894556Y-50774584D01*
X139078194Y-50844709D01*
X139083260Y-50845740D01*
X139083261Y-50845740D01*
X139130565Y-50855364D01*
X139305156Y-50890885D01*
X139435824Y-50895676D01*
X139531449Y-50899183D01*
X139531453Y-50899183D01*
X139536613Y-50899372D01*
X139541733Y-50898716D01*
X139541735Y-50898716D01*
X139614770Y-50889360D01*
X139766347Y-50869942D01*
X139771295Y-50868457D01*
X139771302Y-50868456D01*
X139983247Y-50804869D01*
X139988190Y-50803386D01*
X139992824Y-50801116D01*
X140191549Y-50703762D01*
X140191552Y-50703760D01*
X140196184Y-50701491D01*
X140384743Y-50566994D01*
X140548803Y-50403505D01*
X140683958Y-50215417D01*
X140723833Y-50134737D01*
X140784284Y-50012422D01*
X140784285Y-50012420D01*
X140786578Y-50007780D01*
X140853908Y-49786171D01*
X140884140Y-49556541D01*
X140884222Y-49553191D01*
X140885745Y-49490865D01*
X140885745Y-49490861D01*
X140885827Y-49487500D01*
X140884016Y-49465469D01*
X148087095Y-49465469D01*
X148087392Y-49470622D01*
X148087392Y-49470625D01*
X148093067Y-49569041D01*
X148100427Y-49696697D01*
X148101564Y-49701743D01*
X148101565Y-49701749D01*
X148133741Y-49844523D01*
X148151346Y-49922642D01*
X148153288Y-49927424D01*
X148153289Y-49927428D01*
X148235525Y-50129950D01*
X148238484Y-50137237D01*
X148359501Y-50334719D01*
X148511147Y-50509784D01*
X148689349Y-50657730D01*
X148889322Y-50774584D01*
X149105694Y-50857209D01*
X149110760Y-50858240D01*
X149110761Y-50858240D01*
X149160975Y-50868456D01*
X149332656Y-50903385D01*
X149463324Y-50908176D01*
X149558949Y-50911683D01*
X149558953Y-50911683D01*
X149564113Y-50911872D01*
X149569233Y-50911216D01*
X149569235Y-50911216D01*
X149661689Y-50899372D01*
X149793847Y-50882442D01*
X149798795Y-50880957D01*
X149798802Y-50880956D01*
X150010747Y-50817369D01*
X150015690Y-50815886D01*
X150041206Y-50803386D01*
X150219049Y-50716262D01*
X150219052Y-50716260D01*
X150223684Y-50713991D01*
X150412243Y-50579494D01*
X150576303Y-50416005D01*
X150711458Y-50227917D01*
X150714987Y-50220778D01*
X150811784Y-50024922D01*
X150811785Y-50024920D01*
X150814078Y-50020280D01*
X150881408Y-49798671D01*
X150911640Y-49569041D01*
X150911783Y-49563191D01*
X150913245Y-49503365D01*
X150913245Y-49503361D01*
X150913327Y-49500000D01*
X150910488Y-49465469D01*
X158287095Y-49465469D01*
X158287392Y-49470622D01*
X158287392Y-49470625D01*
X158293067Y-49569041D01*
X158300427Y-49696697D01*
X158301564Y-49701743D01*
X158301565Y-49701749D01*
X158333741Y-49844523D01*
X158351346Y-49922642D01*
X158353288Y-49927424D01*
X158353289Y-49927428D01*
X158435525Y-50129950D01*
X158438484Y-50137237D01*
X158559501Y-50334719D01*
X158711147Y-50509784D01*
X158889349Y-50657730D01*
X159089322Y-50774584D01*
X159305694Y-50857209D01*
X159310760Y-50858240D01*
X159310761Y-50858240D01*
X159360975Y-50868456D01*
X159532656Y-50903385D01*
X159663324Y-50908176D01*
X159758949Y-50911683D01*
X159758953Y-50911683D01*
X159764113Y-50911872D01*
X159769233Y-50911216D01*
X159769235Y-50911216D01*
X159861689Y-50899372D01*
X159993847Y-50882442D01*
X159998795Y-50880957D01*
X159998802Y-50880956D01*
X160210747Y-50817369D01*
X160215690Y-50815886D01*
X160241206Y-50803386D01*
X160419049Y-50716262D01*
X160419052Y-50716260D01*
X160423684Y-50713991D01*
X160612243Y-50579494D01*
X160776303Y-50416005D01*
X160911458Y-50227917D01*
X160914987Y-50220778D01*
X161011784Y-50024922D01*
X161011785Y-50024920D01*
X161014078Y-50020280D01*
X161081408Y-49798671D01*
X161111640Y-49569041D01*
X161111783Y-49563191D01*
X161113245Y-49503365D01*
X161113245Y-49503361D01*
X161113327Y-49500000D01*
X161100415Y-49342945D01*
X161094773Y-49274318D01*
X161094772Y-49274312D01*
X161094349Y-49269167D01*
X161037925Y-49044533D01*
X161028619Y-49023131D01*
X160947630Y-48836868D01*
X160947628Y-48836865D01*
X160945570Y-48832131D01*
X160819764Y-48637665D01*
X160796718Y-48612337D01*
X160770134Y-48583122D01*
X160663887Y-48466358D01*
X160659836Y-48463159D01*
X160659832Y-48463155D01*
X160486177Y-48326011D01*
X160486172Y-48326008D01*
X160482123Y-48322810D01*
X160477607Y-48320317D01*
X160477604Y-48320315D01*
X160283879Y-48213373D01*
X160283875Y-48213371D01*
X160279355Y-48210876D01*
X160274486Y-48209152D01*
X160274482Y-48209150D01*
X160065903Y-48135288D01*
X160065899Y-48135287D01*
X160061028Y-48133562D01*
X160055935Y-48132655D01*
X160055932Y-48132654D01*
X159838095Y-48093851D01*
X159838089Y-48093850D01*
X159833006Y-48092945D01*
X159760096Y-48092054D01*
X159606581Y-48090179D01*
X159606579Y-48090179D01*
X159601411Y-48090116D01*
X159372464Y-48125150D01*
X159152314Y-48197106D01*
X159147726Y-48199494D01*
X159147722Y-48199496D01*
X158951674Y-48301552D01*
X158946872Y-48304052D01*
X158942739Y-48307155D01*
X158942736Y-48307157D01*
X158769120Y-48437512D01*
X158761655Y-48443117D01*
X158601639Y-48610564D01*
X158598725Y-48614836D01*
X158598724Y-48614837D01*
X158585604Y-48634070D01*
X158471119Y-48801899D01*
X158373602Y-49011981D01*
X158311707Y-49235169D01*
X158287095Y-49465469D01*
X150910488Y-49465469D01*
X150900415Y-49342945D01*
X150894773Y-49274318D01*
X150894772Y-49274312D01*
X150894349Y-49269167D01*
X150837925Y-49044533D01*
X150828619Y-49023131D01*
X150747630Y-48836868D01*
X150747628Y-48836865D01*
X150745570Y-48832131D01*
X150619764Y-48637665D01*
X150596718Y-48612337D01*
X150570134Y-48583122D01*
X150463887Y-48466358D01*
X150459836Y-48463159D01*
X150459832Y-48463155D01*
X150286177Y-48326011D01*
X150286172Y-48326008D01*
X150282123Y-48322810D01*
X150277607Y-48320317D01*
X150277604Y-48320315D01*
X150083879Y-48213373D01*
X150083875Y-48213371D01*
X150079355Y-48210876D01*
X150074486Y-48209152D01*
X150074482Y-48209150D01*
X149865903Y-48135288D01*
X149865899Y-48135287D01*
X149861028Y-48133562D01*
X149855935Y-48132655D01*
X149855932Y-48132654D01*
X149638095Y-48093851D01*
X149638089Y-48093850D01*
X149633006Y-48092945D01*
X149560096Y-48092054D01*
X149406581Y-48090179D01*
X149406579Y-48090179D01*
X149401411Y-48090116D01*
X149172464Y-48125150D01*
X148952314Y-48197106D01*
X148947726Y-48199494D01*
X148947722Y-48199496D01*
X148751674Y-48301552D01*
X148746872Y-48304052D01*
X148742739Y-48307155D01*
X148742736Y-48307157D01*
X148569120Y-48437512D01*
X148561655Y-48443117D01*
X148401639Y-48610564D01*
X148398725Y-48614836D01*
X148398724Y-48614837D01*
X148385604Y-48634070D01*
X148271119Y-48801899D01*
X148173602Y-49011981D01*
X148111707Y-49235169D01*
X148087095Y-49465469D01*
X140884016Y-49465469D01*
X140874498Y-49349701D01*
X140867273Y-49261818D01*
X140867272Y-49261812D01*
X140866849Y-49256667D01*
X140838637Y-49144350D01*
X140811684Y-49037044D01*
X140811683Y-49037040D01*
X140810425Y-49032033D01*
X140808366Y-49027297D01*
X140720130Y-48824368D01*
X140720128Y-48824365D01*
X140718070Y-48819631D01*
X140592264Y-48625165D01*
X140582867Y-48614837D01*
X140542634Y-48570622D01*
X140436387Y-48453858D01*
X140432336Y-48450659D01*
X140432332Y-48450655D01*
X140258677Y-48313511D01*
X140258672Y-48313508D01*
X140254623Y-48310310D01*
X140250107Y-48307817D01*
X140250104Y-48307815D01*
X140056379Y-48200873D01*
X140056375Y-48200871D01*
X140051855Y-48198376D01*
X140046986Y-48196652D01*
X140046982Y-48196650D01*
X139838403Y-48122788D01*
X139838399Y-48122787D01*
X139833528Y-48121062D01*
X139828435Y-48120155D01*
X139828432Y-48120154D01*
X139610595Y-48081351D01*
X139610589Y-48081350D01*
X139605506Y-48080445D01*
X139532596Y-48079554D01*
X139379081Y-48077679D01*
X139379079Y-48077679D01*
X139373911Y-48077616D01*
X139144964Y-48112650D01*
X138924814Y-48184606D01*
X138920226Y-48186994D01*
X138920222Y-48186996D01*
X138753214Y-48273935D01*
X138719372Y-48291552D01*
X138715239Y-48294655D01*
X138715236Y-48294657D01*
X138538290Y-48427512D01*
X138534155Y-48430617D01*
X138374139Y-48598064D01*
X138371225Y-48602336D01*
X138371224Y-48602337D01*
X138355652Y-48625165D01*
X138243619Y-48789399D01*
X138146102Y-48999481D01*
X138084207Y-49222669D01*
X138059595Y-49452969D01*
X130892166Y-49452969D01*
X130883676Y-49349701D01*
X130877273Y-49271818D01*
X130877272Y-49271812D01*
X130876849Y-49266667D01*
X130820425Y-49042033D01*
X130812206Y-49023131D01*
X130730130Y-48834368D01*
X130730128Y-48834365D01*
X130728070Y-48829631D01*
X130602264Y-48635165D01*
X130597118Y-48629509D01*
X130452140Y-48470181D01*
X130446387Y-48463858D01*
X130442336Y-48460659D01*
X130442332Y-48460655D01*
X130268677Y-48323511D01*
X130268672Y-48323508D01*
X130264623Y-48320310D01*
X130260107Y-48317817D01*
X130260104Y-48317815D01*
X130066379Y-48210873D01*
X130066375Y-48210871D01*
X130061855Y-48208376D01*
X130056986Y-48206652D01*
X130056982Y-48206650D01*
X129848403Y-48132788D01*
X129848399Y-48132787D01*
X129843528Y-48131062D01*
X129838435Y-48130155D01*
X129838432Y-48130154D01*
X129620595Y-48091351D01*
X129620589Y-48091350D01*
X129615506Y-48090445D01*
X129542596Y-48089554D01*
X129389081Y-48087679D01*
X129389079Y-48087679D01*
X129383911Y-48087616D01*
X129154964Y-48122650D01*
X128934814Y-48194606D01*
X128930226Y-48196994D01*
X128930222Y-48196996D01*
X128782424Y-48273935D01*
X128729372Y-48301552D01*
X128725239Y-48304655D01*
X128725236Y-48304657D01*
X128552495Y-48434355D01*
X128544155Y-48440617D01*
X128384139Y-48608064D01*
X128381225Y-48612336D01*
X128381224Y-48612337D01*
X128362689Y-48639509D01*
X128253619Y-48799399D01*
X128156102Y-49009481D01*
X128094207Y-49232669D01*
X128069595Y-49462969D01*
X117830000Y-49462969D01*
X117830000Y-47276000D01*
X117850002Y-47207879D01*
X117903658Y-47161386D01*
X117956000Y-47150000D01*
X172927087Y-47150000D01*
X172995208Y-47170002D01*
G37*
%TD.AperFunction*%
%TD*%
M02*
