%TF.GenerationSoftware,KiCad,Pcbnew,(6.0.5)*%
%TF.CreationDate,2022-10-19T12:43:17-05:00*%
%TF.ProjectId,powerPCB,706f7765-7250-4434-922e-6b696361645f,rev?*%
%TF.SameCoordinates,Original*%
%TF.FileFunction,Legend,Top*%
%TF.FilePolarity,Positive*%
%FSLAX46Y46*%
G04 Gerber Fmt 4.6, Leading zero omitted, Abs format (unit mm)*
G04 Created by KiCad (PCBNEW (6.0.5)) date 2022-10-19 12:43:17*
%MOMM*%
%LPD*%
G01*
G04 APERTURE LIST*
G04 Aperture macros list*
%AMRoundRect*
0 Rectangle with rounded corners*
0 $1 Rounding radius*
0 $2 $3 $4 $5 $6 $7 $8 $9 X,Y pos of 4 corners*
0 Add a 4 corners polygon primitive as box body*
4,1,4,$2,$3,$4,$5,$6,$7,$8,$9,$2,$3,0*
0 Add four circle primitives for the rounded corners*
1,1,$1+$1,$2,$3*
1,1,$1+$1,$4,$5*
1,1,$1+$1,$6,$7*
1,1,$1+$1,$8,$9*
0 Add four rect primitives between the rounded corners*
20,1,$1+$1,$2,$3,$4,$5,0*
20,1,$1+$1,$4,$5,$6,$7,0*
20,1,$1+$1,$6,$7,$8,$9,0*
20,1,$1+$1,$8,$9,$2,$3,0*%
G04 Aperture macros list end*
%ADD10C,0.150000*%
%ADD11C,0.300000*%
%ADD12C,0.120000*%
%ADD13RoundRect,0.150000X-0.150000X0.587500X-0.150000X-0.587500X0.150000X-0.587500X0.150000X0.587500X0*%
%ADD14RoundRect,0.200000X-0.200000X-0.275000X0.200000X-0.275000X0.200000X0.275000X-0.200000X0.275000X0*%
%ADD15C,5.600000*%
%ADD16RoundRect,0.250000X-0.262500X-0.450000X0.262500X-0.450000X0.262500X0.450000X-0.262500X0.450000X0*%
%ADD17C,3.800000*%
%ADD18RoundRect,0.250000X1.100000X-0.325000X1.100000X0.325000X-1.100000X0.325000X-1.100000X-0.325000X0*%
%ADD19R,2.500000X2.300000*%
%ADD20R,1.800000X1.800000*%
%ADD21O,1.800000X1.800000*%
%ADD22RoundRect,0.200000X-0.275000X0.200000X-0.275000X-0.200000X0.275000X-0.200000X0.275000X0.200000X0*%
%ADD23RoundRect,0.200000X0.275000X-0.200000X0.275000X0.200000X-0.275000X0.200000X-0.275000X-0.200000X0*%
%ADD24RoundRect,0.250000X-0.650000X0.325000X-0.650000X-0.325000X0.650000X-0.325000X0.650000X0.325000X0*%
%ADD25RoundRect,0.250000X-0.450000X0.262500X-0.450000X-0.262500X0.450000X-0.262500X0.450000X0.262500X0*%
%ADD26RoundRect,0.225000X-0.250000X0.225000X-0.250000X-0.225000X0.250000X-0.225000X0.250000X0.225000X0*%
%ADD27R,1.700000X1.700000*%
%ADD28O,1.700000X1.700000*%
%ADD29R,0.700000X0.340000*%
%ADD30RoundRect,0.250000X-0.325000X-1.100000X0.325000X-1.100000X0.325000X1.100000X-0.325000X1.100000X0*%
%ADD31RoundRect,0.250000X-0.312500X-0.625000X0.312500X-0.625000X0.312500X0.625000X-0.312500X0.625000X0*%
%ADD32R,3.175000X4.950000*%
%ADD33C,0.800000*%
G04 APERTURE END LIST*
D10*
X83809523Y-68352380D02*
X83238095Y-68352380D01*
X83523809Y-68352380D02*
X83523809Y-67352380D01*
X83428571Y-67495238D01*
X83333333Y-67590476D01*
X83238095Y-67638095D01*
X84285714Y-68352380D02*
X84476190Y-68352380D01*
X84571428Y-68304761D01*
X84619047Y-68257142D01*
X84714285Y-68114285D01*
X84761904Y-67923809D01*
X84761904Y-67542857D01*
X84714285Y-67447619D01*
X84666666Y-67400000D01*
X84571428Y-67352380D01*
X84380952Y-67352380D01*
X84285714Y-67400000D01*
X84238095Y-67447619D01*
X84190476Y-67542857D01*
X84190476Y-67780952D01*
X84238095Y-67876190D01*
X84285714Y-67923809D01*
X84380952Y-67971428D01*
X84571428Y-67971428D01*
X84666666Y-67923809D01*
X84714285Y-67876190D01*
X84761904Y-67780952D01*
X140409523Y-79804761D02*
X140552380Y-79852380D01*
X140790476Y-79852380D01*
X140885714Y-79804761D01*
X140933333Y-79757142D01*
X140980952Y-79661904D01*
X140980952Y-79566666D01*
X140933333Y-79471428D01*
X140885714Y-79423809D01*
X140790476Y-79376190D01*
X140600000Y-79328571D01*
X140504761Y-79280952D01*
X140457142Y-79233333D01*
X140409523Y-79138095D01*
X140409523Y-79042857D01*
X140457142Y-78947619D01*
X140504761Y-78900000D01*
X140600000Y-78852380D01*
X140838095Y-78852380D01*
X140980952Y-78900000D01*
X141600000Y-78852380D02*
X141790476Y-78852380D01*
X141885714Y-78900000D01*
X141980952Y-78995238D01*
X142028571Y-79185714D01*
X142028571Y-79519047D01*
X141980952Y-79709523D01*
X141885714Y-79804761D01*
X141790476Y-79852380D01*
X141600000Y-79852380D01*
X141504761Y-79804761D01*
X141409523Y-79709523D01*
X141361904Y-79519047D01*
X141361904Y-79185714D01*
X141409523Y-78995238D01*
X141504761Y-78900000D01*
X141600000Y-78852380D01*
X142933333Y-79852380D02*
X142457142Y-79852380D01*
X142457142Y-78852380D01*
X143695238Y-78852380D02*
X143504761Y-78852380D01*
X143409523Y-78900000D01*
X143361904Y-78947619D01*
X143266666Y-79090476D01*
X143219047Y-79280952D01*
X143219047Y-79661904D01*
X143266666Y-79757142D01*
X143314285Y-79804761D01*
X143409523Y-79852380D01*
X143600000Y-79852380D01*
X143695238Y-79804761D01*
X143742857Y-79757142D01*
X143790476Y-79661904D01*
X143790476Y-79423809D01*
X143742857Y-79328571D01*
X143695238Y-79280952D01*
X143600000Y-79233333D01*
X143409523Y-79233333D01*
X143314285Y-79280952D01*
X143266666Y-79328571D01*
X143219047Y-79423809D01*
X112500000Y-55500000D02*
X95900000Y-55500000D01*
X95900000Y-55500000D02*
X95900000Y-60300000D01*
X95900000Y-60300000D02*
X112500000Y-60300000D01*
X112500000Y-60300000D02*
X112500000Y-55500000D01*
X112500000Y-62300000D02*
X95900000Y-62300000D01*
X95900000Y-62300000D02*
X95900000Y-67700000D01*
X95900000Y-67700000D02*
X112500000Y-67700000D01*
X112500000Y-67700000D02*
X112500000Y-62300000D01*
X90257142Y-48242380D02*
X90257142Y-47242380D01*
X90638095Y-47242380D01*
X90733333Y-47290000D01*
X90780952Y-47337619D01*
X90828571Y-47432857D01*
X90828571Y-47575714D01*
X90780952Y-47670952D01*
X90733333Y-47718571D01*
X90638095Y-47766190D01*
X90257142Y-47766190D01*
X91257142Y-48242380D02*
X91257142Y-47575714D01*
X91257142Y-47766190D02*
X91304761Y-47670952D01*
X91352380Y-47623333D01*
X91447619Y-47575714D01*
X91542857Y-47575714D01*
X92019047Y-48242380D02*
X91923809Y-48194761D01*
X91876190Y-48147142D01*
X91828571Y-48051904D01*
X91828571Y-47766190D01*
X91876190Y-47670952D01*
X91923809Y-47623333D01*
X92019047Y-47575714D01*
X92161904Y-47575714D01*
X92257142Y-47623333D01*
X92304761Y-47670952D01*
X92352380Y-47766190D01*
X92352380Y-48051904D01*
X92304761Y-48147142D01*
X92257142Y-48194761D01*
X92161904Y-48242380D01*
X92019047Y-48242380D01*
X92780952Y-47575714D02*
X92780952Y-48432857D01*
X92733333Y-48528095D01*
X92638095Y-48575714D01*
X92590476Y-48575714D01*
X92780952Y-47242380D02*
X92733333Y-47290000D01*
X92780952Y-47337619D01*
X92828571Y-47290000D01*
X92780952Y-47242380D01*
X92780952Y-47337619D01*
X93638095Y-48194761D02*
X93542857Y-48242380D01*
X93352380Y-48242380D01*
X93257142Y-48194761D01*
X93209523Y-48099523D01*
X93209523Y-47718571D01*
X93257142Y-47623333D01*
X93352380Y-47575714D01*
X93542857Y-47575714D01*
X93638095Y-47623333D01*
X93685714Y-47718571D01*
X93685714Y-47813809D01*
X93209523Y-47909047D01*
X94542857Y-48194761D02*
X94447619Y-48242380D01*
X94257142Y-48242380D01*
X94161904Y-48194761D01*
X94114285Y-48147142D01*
X94066666Y-48051904D01*
X94066666Y-47766190D01*
X94114285Y-47670952D01*
X94161904Y-47623333D01*
X94257142Y-47575714D01*
X94447619Y-47575714D01*
X94542857Y-47623333D01*
X94828571Y-47575714D02*
X95209523Y-47575714D01*
X94971428Y-47242380D02*
X94971428Y-48099523D01*
X95019047Y-48194761D01*
X95114285Y-48242380D01*
X95209523Y-48242380D01*
X96780952Y-48242380D02*
X96304761Y-48242380D01*
X96304761Y-47242380D01*
X97542857Y-48242380D02*
X97542857Y-47718571D01*
X97495238Y-47623333D01*
X97400000Y-47575714D01*
X97209523Y-47575714D01*
X97114285Y-47623333D01*
X97542857Y-48194761D02*
X97447619Y-48242380D01*
X97209523Y-48242380D01*
X97114285Y-48194761D01*
X97066666Y-48099523D01*
X97066666Y-48004285D01*
X97114285Y-47909047D01*
X97209523Y-47861428D01*
X97447619Y-47861428D01*
X97542857Y-47813809D01*
X98019047Y-48242380D02*
X98019047Y-47242380D01*
X98019047Y-47623333D02*
X98114285Y-47575714D01*
X98304761Y-47575714D01*
X98400000Y-47623333D01*
X98447619Y-47670952D01*
X98495238Y-47766190D01*
X98495238Y-48051904D01*
X98447619Y-48147142D01*
X98400000Y-48194761D01*
X98304761Y-48242380D01*
X98114285Y-48242380D01*
X98019047Y-48194761D01*
X99638095Y-47337619D02*
X99685714Y-47290000D01*
X99780952Y-47242380D01*
X100019047Y-47242380D01*
X100114285Y-47290000D01*
X100161904Y-47337619D01*
X100209523Y-47432857D01*
X100209523Y-47528095D01*
X100161904Y-47670952D01*
X99590476Y-48242380D01*
X100209523Y-48242380D01*
X101399999Y-47861428D02*
X102161904Y-47861428D01*
X103352380Y-47956666D02*
X103828571Y-47956666D01*
X103257142Y-48242380D02*
X103590476Y-47242380D01*
X103923809Y-48242380D01*
X104685714Y-47575714D02*
X104685714Y-48242380D01*
X104257142Y-47575714D02*
X104257142Y-48099523D01*
X104304761Y-48194761D01*
X104399999Y-48242380D01*
X104542857Y-48242380D01*
X104638095Y-48194761D01*
X104685714Y-48147142D01*
X105019047Y-47575714D02*
X105399999Y-47575714D01*
X105161904Y-47242380D02*
X105161904Y-48099523D01*
X105209523Y-48194761D01*
X105304761Y-48242380D01*
X105399999Y-48242380D01*
X105876190Y-48242380D02*
X105780952Y-48194761D01*
X105733333Y-48147142D01*
X105685714Y-48051904D01*
X105685714Y-47766190D01*
X105733333Y-47670952D01*
X105780952Y-47623333D01*
X105876190Y-47575714D01*
X106019047Y-47575714D01*
X106114285Y-47623333D01*
X106161904Y-47670952D01*
X106209523Y-47766190D01*
X106209523Y-48051904D01*
X106161904Y-48147142D01*
X106114285Y-48194761D01*
X106019047Y-48242380D01*
X105876190Y-48242380D01*
X107971428Y-48242380D02*
X107638095Y-47766190D01*
X107399999Y-48242380D02*
X107399999Y-47242380D01*
X107780952Y-47242380D01*
X107876190Y-47290000D01*
X107923809Y-47337619D01*
X107971428Y-47432857D01*
X107971428Y-47575714D01*
X107923809Y-47670952D01*
X107876190Y-47718571D01*
X107780952Y-47766190D01*
X107399999Y-47766190D01*
X108780952Y-48194761D02*
X108685714Y-48242380D01*
X108495238Y-48242380D01*
X108399999Y-48194761D01*
X108352380Y-48099523D01*
X108352380Y-47718571D01*
X108399999Y-47623333D01*
X108495238Y-47575714D01*
X108685714Y-47575714D01*
X108780952Y-47623333D01*
X108828571Y-47718571D01*
X108828571Y-47813809D01*
X108352380Y-47909047D01*
X109685714Y-48194761D02*
X109590476Y-48242380D01*
X109399999Y-48242380D01*
X109304761Y-48194761D01*
X109257142Y-48147142D01*
X109209523Y-48051904D01*
X109209523Y-47766190D01*
X109257142Y-47670952D01*
X109304761Y-47623333D01*
X109399999Y-47575714D01*
X109590476Y-47575714D01*
X109685714Y-47623333D01*
X110257142Y-48242380D02*
X110161904Y-48194761D01*
X110114285Y-48147142D01*
X110066666Y-48051904D01*
X110066666Y-47766190D01*
X110114285Y-47670952D01*
X110161904Y-47623333D01*
X110257142Y-47575714D01*
X110399999Y-47575714D01*
X110495238Y-47623333D01*
X110542857Y-47670952D01*
X110590476Y-47766190D01*
X110590476Y-48051904D01*
X110542857Y-48147142D01*
X110495238Y-48194761D01*
X110399999Y-48242380D01*
X110257142Y-48242380D01*
X111019047Y-48242380D02*
X111019047Y-47575714D01*
X111019047Y-47766190D02*
X111066666Y-47670952D01*
X111114285Y-47623333D01*
X111209523Y-47575714D01*
X111304761Y-47575714D01*
X112066666Y-48242380D02*
X112066666Y-47242380D01*
X112066666Y-48194761D02*
X111971428Y-48242380D01*
X111780952Y-48242380D01*
X111685714Y-48194761D01*
X111638095Y-48147142D01*
X111590476Y-48051904D01*
X111590476Y-47766190D01*
X111638095Y-47670952D01*
X111685714Y-47623333D01*
X111780952Y-47575714D01*
X111971428Y-47575714D01*
X112066666Y-47623333D01*
X112923809Y-48194761D02*
X112828571Y-48242380D01*
X112638095Y-48242380D01*
X112542857Y-48194761D01*
X112495238Y-48099523D01*
X112495238Y-47718571D01*
X112542857Y-47623333D01*
X112638095Y-47575714D01*
X112828571Y-47575714D01*
X112923809Y-47623333D01*
X112971428Y-47718571D01*
X112971428Y-47813809D01*
X112495238Y-47909047D01*
X113399999Y-48242380D02*
X113399999Y-47575714D01*
X113399999Y-47766190D02*
X113447619Y-47670952D01*
X113495238Y-47623333D01*
X113590476Y-47575714D01*
X113685714Y-47575714D01*
X92376190Y-49852380D02*
X92376190Y-48852380D01*
X92757142Y-48852380D01*
X92852380Y-48900000D01*
X92900000Y-48947619D01*
X92947619Y-49042857D01*
X92947619Y-49185714D01*
X92900000Y-49280952D01*
X92852380Y-49328571D01*
X92757142Y-49376190D01*
X92376190Y-49376190D01*
X93519047Y-49852380D02*
X93423809Y-49804761D01*
X93376190Y-49757142D01*
X93328571Y-49661904D01*
X93328571Y-49376190D01*
X93376190Y-49280952D01*
X93423809Y-49233333D01*
X93519047Y-49185714D01*
X93661904Y-49185714D01*
X93757142Y-49233333D01*
X93804761Y-49280952D01*
X93852380Y-49376190D01*
X93852380Y-49661904D01*
X93804761Y-49757142D01*
X93757142Y-49804761D01*
X93661904Y-49852380D01*
X93519047Y-49852380D01*
X94185714Y-49185714D02*
X94376190Y-49852380D01*
X94566666Y-49376190D01*
X94757142Y-49852380D01*
X94947619Y-49185714D01*
X95709523Y-49804761D02*
X95614285Y-49852380D01*
X95423809Y-49852380D01*
X95328571Y-49804761D01*
X95280952Y-49709523D01*
X95280952Y-49328571D01*
X95328571Y-49233333D01*
X95423809Y-49185714D01*
X95614285Y-49185714D01*
X95709523Y-49233333D01*
X95757142Y-49328571D01*
X95757142Y-49423809D01*
X95280952Y-49519047D01*
X96185714Y-49852380D02*
X96185714Y-49185714D01*
X96185714Y-49376190D02*
X96233333Y-49280952D01*
X96280952Y-49233333D01*
X96376190Y-49185714D01*
X96471428Y-49185714D01*
X97519047Y-49804761D02*
X97661904Y-49852380D01*
X97900000Y-49852380D01*
X97995238Y-49804761D01*
X98042857Y-49757142D01*
X98090476Y-49661904D01*
X98090476Y-49566666D01*
X98042857Y-49471428D01*
X97995238Y-49423809D01*
X97900000Y-49376190D01*
X97709523Y-49328571D01*
X97614285Y-49280952D01*
X97566666Y-49233333D01*
X97519047Y-49138095D01*
X97519047Y-49042857D01*
X97566666Y-48947619D01*
X97614285Y-48900000D01*
X97709523Y-48852380D01*
X97947619Y-48852380D01*
X98090476Y-48900000D01*
X98947619Y-49185714D02*
X98947619Y-49852380D01*
X98519047Y-49185714D02*
X98519047Y-49709523D01*
X98566666Y-49804761D01*
X98661904Y-49852380D01*
X98804761Y-49852380D01*
X98900000Y-49804761D01*
X98947619Y-49757142D01*
X99423809Y-49185714D02*
X99423809Y-50185714D01*
X99423809Y-49233333D02*
X99519047Y-49185714D01*
X99709523Y-49185714D01*
X99804761Y-49233333D01*
X99852380Y-49280952D01*
X99900000Y-49376190D01*
X99900000Y-49661904D01*
X99852380Y-49757142D01*
X99804761Y-49804761D01*
X99709523Y-49852380D01*
X99519047Y-49852380D01*
X99423809Y-49804761D01*
X100328571Y-49185714D02*
X100328571Y-50185714D01*
X100328571Y-49233333D02*
X100423809Y-49185714D01*
X100614285Y-49185714D01*
X100709523Y-49233333D01*
X100757142Y-49280952D01*
X100804761Y-49376190D01*
X100804761Y-49661904D01*
X100757142Y-49757142D01*
X100709523Y-49804761D01*
X100614285Y-49852380D01*
X100423809Y-49852380D01*
X100328571Y-49804761D01*
X101376190Y-49852380D02*
X101280952Y-49804761D01*
X101233333Y-49709523D01*
X101233333Y-48852380D01*
X101661904Y-49185714D02*
X101900000Y-49852380D01*
X102138095Y-49185714D02*
X101900000Y-49852380D01*
X101804761Y-50090476D01*
X101757142Y-50138095D01*
X101661904Y-50185714D01*
X103709523Y-49852380D02*
X103709523Y-49328571D01*
X103661904Y-49233333D01*
X103566666Y-49185714D01*
X103376190Y-49185714D01*
X103280952Y-49233333D01*
X103709523Y-49804761D02*
X103614285Y-49852380D01*
X103376190Y-49852380D01*
X103280952Y-49804761D01*
X103233333Y-49709523D01*
X103233333Y-49614285D01*
X103280952Y-49519047D01*
X103376190Y-49471428D01*
X103614285Y-49471428D01*
X103709523Y-49423809D01*
X104185714Y-49185714D02*
X104185714Y-49852380D01*
X104185714Y-49280952D02*
X104233333Y-49233333D01*
X104328571Y-49185714D01*
X104471428Y-49185714D01*
X104566666Y-49233333D01*
X104614285Y-49328571D01*
X104614285Y-49852380D01*
X105519047Y-49852380D02*
X105519047Y-48852380D01*
X105519047Y-49804761D02*
X105423809Y-49852380D01*
X105233333Y-49852380D01*
X105138095Y-49804761D01*
X105090476Y-49757142D01*
X105042857Y-49661904D01*
X105042857Y-49376190D01*
X105090476Y-49280952D01*
X105138095Y-49233333D01*
X105233333Y-49185714D01*
X105423809Y-49185714D01*
X105519047Y-49233333D01*
X106757142Y-49852380D02*
X106757142Y-48852380D01*
X106995238Y-48852380D01*
X107138095Y-48900000D01*
X107233333Y-48995238D01*
X107280952Y-49090476D01*
X107328571Y-49280952D01*
X107328571Y-49423809D01*
X107280952Y-49614285D01*
X107233333Y-49709523D01*
X107138095Y-49804761D01*
X106995238Y-49852380D01*
X106757142Y-49852380D01*
X107757142Y-49852380D02*
X107757142Y-49185714D01*
X107757142Y-49376190D02*
X107804761Y-49280952D01*
X107852380Y-49233333D01*
X107947619Y-49185714D01*
X108042857Y-49185714D01*
X108376190Y-49852380D02*
X108376190Y-49185714D01*
X108376190Y-48852380D02*
X108328571Y-48900000D01*
X108376190Y-48947619D01*
X108423809Y-48900000D01*
X108376190Y-48852380D01*
X108376190Y-48947619D01*
X108757142Y-49185714D02*
X108995238Y-49852380D01*
X109233333Y-49185714D01*
X109995238Y-49804761D02*
X109900000Y-49852380D01*
X109709523Y-49852380D01*
X109614285Y-49804761D01*
X109566666Y-49709523D01*
X109566666Y-49328571D01*
X109614285Y-49233333D01*
X109709523Y-49185714D01*
X109900000Y-49185714D01*
X109995238Y-49233333D01*
X110042857Y-49328571D01*
X110042857Y-49423809D01*
X109566666Y-49519047D01*
X110471428Y-49852380D02*
X110471428Y-49185714D01*
X110471428Y-49376190D02*
X110519047Y-49280952D01*
X110566666Y-49233333D01*
X110661904Y-49185714D01*
X110757142Y-49185714D01*
X111042857Y-49804761D02*
X111138095Y-49852380D01*
X111328571Y-49852380D01*
X111423809Y-49804761D01*
X111471428Y-49709523D01*
X111471428Y-49661904D01*
X111423809Y-49566666D01*
X111328571Y-49519047D01*
X111185714Y-49519047D01*
X111090476Y-49471428D01*
X111042857Y-49376190D01*
X111042857Y-49328571D01*
X111090476Y-49233333D01*
X111185714Y-49185714D01*
X111328571Y-49185714D01*
X111423809Y-49233333D01*
X91161904Y-51462380D02*
X90590476Y-51462380D01*
X90876190Y-51462380D02*
X90876190Y-50462380D01*
X90780952Y-50605238D01*
X90685714Y-50700476D01*
X90590476Y-50748095D01*
X91780952Y-50462380D02*
X91876190Y-50462380D01*
X91971428Y-50510000D01*
X92019047Y-50557619D01*
X92066666Y-50652857D01*
X92114285Y-50843333D01*
X92114285Y-51081428D01*
X92066666Y-51271904D01*
X92019047Y-51367142D01*
X91971428Y-51414761D01*
X91876190Y-51462380D01*
X91780952Y-51462380D01*
X91685714Y-51414761D01*
X91638095Y-51367142D01*
X91590476Y-51271904D01*
X91542857Y-51081428D01*
X91542857Y-50843333D01*
X91590476Y-50652857D01*
X91638095Y-50557619D01*
X91685714Y-50510000D01*
X91780952Y-50462380D01*
X93257142Y-50414761D02*
X92400000Y-51700476D01*
X94114285Y-51462380D02*
X93542857Y-51462380D01*
X93828571Y-51462380D02*
X93828571Y-50462380D01*
X93733333Y-50605238D01*
X93638095Y-50700476D01*
X93542857Y-50748095D01*
X95066666Y-51462380D02*
X94495238Y-51462380D01*
X94780952Y-51462380D02*
X94780952Y-50462380D01*
X94685714Y-50605238D01*
X94590476Y-50700476D01*
X94495238Y-50748095D01*
X96209523Y-50414761D02*
X95352380Y-51700476D01*
X96495238Y-50557619D02*
X96542857Y-50510000D01*
X96638095Y-50462380D01*
X96876190Y-50462380D01*
X96971428Y-50510000D01*
X97019047Y-50557619D01*
X97066666Y-50652857D01*
X97066666Y-50748095D01*
X97019047Y-50890952D01*
X96447619Y-51462380D01*
X97066666Y-51462380D01*
X97685714Y-50462380D02*
X97780952Y-50462380D01*
X97876190Y-50510000D01*
X97923809Y-50557619D01*
X97971428Y-50652857D01*
X98019047Y-50843333D01*
X98019047Y-51081428D01*
X97971428Y-51271904D01*
X97923809Y-51367142D01*
X97876190Y-51414761D01*
X97780952Y-51462380D01*
X97685714Y-51462380D01*
X97590476Y-51414761D01*
X97542857Y-51367142D01*
X97495238Y-51271904D01*
X97447619Y-51081428D01*
X97447619Y-50843333D01*
X97495238Y-50652857D01*
X97542857Y-50557619D01*
X97590476Y-50510000D01*
X97685714Y-50462380D01*
X98400000Y-50557619D02*
X98447619Y-50510000D01*
X98542857Y-50462380D01*
X98780952Y-50462380D01*
X98876190Y-50510000D01*
X98923809Y-50557619D01*
X98971428Y-50652857D01*
X98971428Y-50748095D01*
X98923809Y-50890952D01*
X98352380Y-51462380D01*
X98971428Y-51462380D01*
X99352380Y-50557619D02*
X99400000Y-50510000D01*
X99495238Y-50462380D01*
X99733333Y-50462380D01*
X99828571Y-50510000D01*
X99876190Y-50557619D01*
X99923809Y-50652857D01*
X99923809Y-50748095D01*
X99876190Y-50890952D01*
X99304761Y-51462380D01*
X99923809Y-51462380D01*
X101114285Y-51081428D02*
X101876190Y-51081428D01*
X103019047Y-50795714D02*
X103257142Y-51462380D01*
X103495238Y-50795714D01*
X104019047Y-50890952D02*
X103923809Y-50843333D01*
X103876190Y-50795714D01*
X103828571Y-50700476D01*
X103828571Y-50652857D01*
X103876190Y-50557619D01*
X103923809Y-50510000D01*
X104019047Y-50462380D01*
X104209523Y-50462380D01*
X104304761Y-50510000D01*
X104352380Y-50557619D01*
X104400000Y-50652857D01*
X104400000Y-50700476D01*
X104352380Y-50795714D01*
X104304761Y-50843333D01*
X104209523Y-50890952D01*
X104019047Y-50890952D01*
X103923809Y-50938571D01*
X103876190Y-50986190D01*
X103828571Y-51081428D01*
X103828571Y-51271904D01*
X103876190Y-51367142D01*
X103923809Y-51414761D01*
X104019047Y-51462380D01*
X104209523Y-51462380D01*
X104304761Y-51414761D01*
X104352380Y-51367142D01*
X104400000Y-51271904D01*
X104400000Y-51081428D01*
X104352380Y-50986190D01*
X104304761Y-50938571D01*
X104209523Y-50890952D01*
X105590476Y-51081428D02*
X106352380Y-51081428D01*
X108114285Y-50510000D02*
X108019047Y-50462380D01*
X107876190Y-50462380D01*
X107733333Y-50510000D01*
X107638095Y-50605238D01*
X107590476Y-50700476D01*
X107542857Y-50890952D01*
X107542857Y-51033809D01*
X107590476Y-51224285D01*
X107638095Y-51319523D01*
X107733333Y-51414761D01*
X107876190Y-51462380D01*
X107971428Y-51462380D01*
X108114285Y-51414761D01*
X108161904Y-51367142D01*
X108161904Y-51033809D01*
X107971428Y-51033809D01*
X108590476Y-51462380D02*
X108590476Y-50795714D01*
X108590476Y-50986190D02*
X108638095Y-50890952D01*
X108685714Y-50843333D01*
X108780952Y-50795714D01*
X108876190Y-50795714D01*
X109352380Y-51462380D02*
X109257142Y-51414761D01*
X109209523Y-51367142D01*
X109161904Y-51271904D01*
X109161904Y-50986190D01*
X109209523Y-50890952D01*
X109257142Y-50843333D01*
X109352380Y-50795714D01*
X109495238Y-50795714D01*
X109590476Y-50843333D01*
X109638095Y-50890952D01*
X109685714Y-50986190D01*
X109685714Y-51271904D01*
X109638095Y-51367142D01*
X109590476Y-51414761D01*
X109495238Y-51462380D01*
X109352380Y-51462380D01*
X110542857Y-50795714D02*
X110542857Y-51462380D01*
X110114285Y-50795714D02*
X110114285Y-51319523D01*
X110161904Y-51414761D01*
X110257142Y-51462380D01*
X110400000Y-51462380D01*
X110495238Y-51414761D01*
X110542857Y-51367142D01*
X111019047Y-50795714D02*
X111019047Y-51795714D01*
X111019047Y-50843333D02*
X111114285Y-50795714D01*
X111304761Y-50795714D01*
X111400000Y-50843333D01*
X111447619Y-50890952D01*
X111495238Y-50986190D01*
X111495238Y-51271904D01*
X111447619Y-51367142D01*
X111400000Y-51414761D01*
X111304761Y-51462380D01*
X111114285Y-51462380D01*
X111019047Y-51414761D01*
X113161904Y-50462380D02*
X112685714Y-50462380D01*
X112638095Y-50938571D01*
X112685714Y-50890952D01*
X112780952Y-50843333D01*
X113019047Y-50843333D01*
X113114285Y-50890952D01*
X113161904Y-50938571D01*
X113209523Y-51033809D01*
X113209523Y-51271904D01*
X113161904Y-51367142D01*
X113114285Y-51414761D01*
X113019047Y-51462380D01*
X112780952Y-51462380D01*
X112685714Y-51414761D01*
X112638095Y-51367142D01*
X84238095Y-75052380D02*
X83761904Y-75052380D01*
X83714285Y-75528571D01*
X83761904Y-75480952D01*
X83857142Y-75433333D01*
X84095238Y-75433333D01*
X84190476Y-75480952D01*
X84238095Y-75528571D01*
X84285714Y-75623809D01*
X84285714Y-75861904D01*
X84238095Y-75957142D01*
X84190476Y-76004761D01*
X84095238Y-76052380D01*
X83857142Y-76052380D01*
X83761904Y-76004761D01*
X83714285Y-75957142D01*
X84190476Y-72452380D02*
X84000000Y-72452380D01*
X83904761Y-72500000D01*
X83857142Y-72547619D01*
X83761904Y-72690476D01*
X83714285Y-72880952D01*
X83714285Y-73261904D01*
X83761904Y-73357142D01*
X83809523Y-73404761D01*
X83904761Y-73452380D01*
X84095238Y-73452380D01*
X84190476Y-73404761D01*
X84238095Y-73357142D01*
X84285714Y-73261904D01*
X84285714Y-73023809D01*
X84238095Y-72928571D01*
X84190476Y-72880952D01*
X84095238Y-72833333D01*
X83904761Y-72833333D01*
X83809523Y-72880952D01*
X83761904Y-72928571D01*
X83714285Y-73023809D01*
D11*
X119571428Y-56178571D02*
X119857142Y-56178571D01*
X120000000Y-56250000D01*
X120142857Y-56392857D01*
X120214285Y-56678571D01*
X120214285Y-57178571D01*
X120142857Y-57464285D01*
X120000000Y-57607142D01*
X119857142Y-57678571D01*
X119571428Y-57678571D01*
X119428571Y-57607142D01*
X119285714Y-57464285D01*
X119214285Y-57178571D01*
X119214285Y-56678571D01*
X119285714Y-56392857D01*
X119428571Y-56250000D01*
X119571428Y-56178571D01*
X120857142Y-57678571D02*
X120857142Y-56178571D01*
X121714285Y-57678571D01*
X121714285Y-56178571D01*
X114550000Y-56857142D02*
X114621428Y-56714285D01*
X114621428Y-56500000D01*
X114550000Y-56285714D01*
X114407142Y-56142857D01*
X114264285Y-56071428D01*
X113978571Y-56000000D01*
X113764285Y-56000000D01*
X113478571Y-56071428D01*
X113335714Y-56142857D01*
X113192857Y-56285714D01*
X113121428Y-56500000D01*
X113121428Y-56642857D01*
X113192857Y-56857142D01*
X113264285Y-56928571D01*
X113764285Y-56928571D01*
X113764285Y-56642857D01*
X113121428Y-57571428D02*
X114621428Y-57571428D01*
X113121428Y-58428571D01*
X114621428Y-58428571D01*
X113121428Y-59142857D02*
X114621428Y-59142857D01*
X114621428Y-59500000D01*
X114550000Y-59714285D01*
X114407142Y-59857142D01*
X114264285Y-59928571D01*
X113978571Y-60000000D01*
X113764285Y-60000000D01*
X113478571Y-59928571D01*
X113335714Y-59857142D01*
X113192857Y-59714285D01*
X113121428Y-59500000D01*
X113121428Y-59142857D01*
D10*
X83138095Y-77647619D02*
X83185714Y-77600000D01*
X83280952Y-77552380D01*
X83519047Y-77552380D01*
X83614285Y-77600000D01*
X83661904Y-77647619D01*
X83709523Y-77742857D01*
X83709523Y-77838095D01*
X83661904Y-77980952D01*
X83090476Y-78552380D01*
X83709523Y-78552380D01*
X84090476Y-77647619D02*
X84138095Y-77600000D01*
X84233333Y-77552380D01*
X84471428Y-77552380D01*
X84566666Y-77600000D01*
X84614285Y-77647619D01*
X84661904Y-77742857D01*
X84661904Y-77838095D01*
X84614285Y-77980952D01*
X84042857Y-78552380D01*
X84661904Y-78552380D01*
X83138095Y-80147619D02*
X83185714Y-80100000D01*
X83280952Y-80052380D01*
X83519047Y-80052380D01*
X83614285Y-80100000D01*
X83661904Y-80147619D01*
X83709523Y-80242857D01*
X83709523Y-80338095D01*
X83661904Y-80480952D01*
X83090476Y-81052380D01*
X83709523Y-81052380D01*
X84042857Y-80052380D02*
X84709523Y-80052380D01*
X84280952Y-81052380D01*
D11*
X171792857Y-95428571D02*
X171792857Y-96571428D01*
X171221428Y-96000000D02*
X172364285Y-96000000D01*
X119171428Y-67578571D02*
X119457142Y-67578571D01*
X119600000Y-67650000D01*
X119742857Y-67792857D01*
X119814285Y-68078571D01*
X119814285Y-68578571D01*
X119742857Y-68864285D01*
X119600000Y-69007142D01*
X119457142Y-69078571D01*
X119171428Y-69078571D01*
X119028571Y-69007142D01*
X118885714Y-68864285D01*
X118814285Y-68578571D01*
X118814285Y-68078571D01*
X118885714Y-67792857D01*
X119028571Y-67650000D01*
X119171428Y-67578571D01*
X120957142Y-68292857D02*
X120457142Y-68292857D01*
X120457142Y-69078571D02*
X120457142Y-67578571D01*
X121171428Y-67578571D01*
X122242857Y-68292857D02*
X121742857Y-68292857D01*
X121742857Y-69078571D02*
X121742857Y-67578571D01*
X122457142Y-67578571D01*
X167458571Y-47857142D02*
X168601428Y-47857142D01*
X168030000Y-48428571D02*
X168030000Y-47285714D01*
D10*
X84928571Y-61800000D02*
X84833333Y-61752380D01*
X84690476Y-61752380D01*
X84547619Y-61800000D01*
X84452380Y-61895238D01*
X84404761Y-61990476D01*
X84357142Y-62180952D01*
X84357142Y-62323809D01*
X84404761Y-62514285D01*
X84452380Y-62609523D01*
X84547619Y-62704761D01*
X84690476Y-62752380D01*
X84785714Y-62752380D01*
X84928571Y-62704761D01*
X84976190Y-62657142D01*
X84976190Y-62323809D01*
X84785714Y-62323809D01*
X85404761Y-62752380D02*
X85404761Y-61752380D01*
X85785714Y-61752380D01*
X85880952Y-61800000D01*
X85928571Y-61847619D01*
X85976190Y-61942857D01*
X85976190Y-62085714D01*
X85928571Y-62180952D01*
X85880952Y-62228571D01*
X85785714Y-62276190D01*
X85404761Y-62276190D01*
X86404761Y-62752380D02*
X86404761Y-61752380D01*
X87071428Y-61752380D02*
X87261904Y-61752380D01*
X87357142Y-61800000D01*
X87452380Y-61895238D01*
X87500000Y-62085714D01*
X87500000Y-62419047D01*
X87452380Y-62609523D01*
X87357142Y-62704761D01*
X87261904Y-62752380D01*
X87071428Y-62752380D01*
X86976190Y-62704761D01*
X86880952Y-62609523D01*
X86833333Y-62419047D01*
X86833333Y-62085714D01*
X86880952Y-61895238D01*
X86976190Y-61800000D01*
X87071428Y-61752380D01*
X88690476Y-62752380D02*
X88690476Y-61752380D01*
X89166666Y-62085714D02*
X89166666Y-62752380D01*
X89166666Y-62180952D02*
X89214285Y-62133333D01*
X89309523Y-62085714D01*
X89452380Y-62085714D01*
X89547619Y-62133333D01*
X89595238Y-62228571D01*
X89595238Y-62752380D01*
X151514285Y-84628571D02*
X151180952Y-84628571D01*
X151180952Y-85152380D02*
X151180952Y-84152380D01*
X151657142Y-84152380D01*
X151990476Y-84866666D02*
X152466666Y-84866666D01*
X151895238Y-85152380D02*
X152228571Y-84152380D01*
X152561904Y-85152380D01*
X152895238Y-85152380D02*
X152895238Y-84152380D01*
X153466666Y-85152380D01*
X153466666Y-84152380D01*
X154466666Y-85152380D02*
X153895238Y-85152380D01*
X154180952Y-85152380D02*
X154180952Y-84152380D01*
X154085714Y-84295238D01*
X153990476Y-84390476D01*
X153895238Y-84438095D01*
D11*
X89228571Y-96307142D02*
X90371428Y-96307142D01*
D10*
X170263333Y-53697619D02*
X170739523Y-53697619D01*
X170787142Y-53221428D01*
X170739523Y-53269047D01*
X170644285Y-53316666D01*
X170406190Y-53316666D01*
X170310952Y-53269047D01*
X170263333Y-53221428D01*
X170215714Y-53126190D01*
X170215714Y-52888095D01*
X170263333Y-52792857D01*
X170310952Y-52745238D01*
X170406190Y-52697619D01*
X170644285Y-52697619D01*
X170739523Y-52745238D01*
X170787142Y-52792857D01*
X169930000Y-53697619D02*
X169596666Y-52697619D01*
X169263333Y-53697619D01*
X167977619Y-53697619D02*
X167787142Y-53697619D01*
X167691904Y-53650000D01*
X167596666Y-53554761D01*
X167549047Y-53364285D01*
X167549047Y-53030952D01*
X167596666Y-52840476D01*
X167691904Y-52745238D01*
X167787142Y-52697619D01*
X167977619Y-52697619D01*
X168072857Y-52745238D01*
X168168095Y-52840476D01*
X168215714Y-53030952D01*
X168215714Y-53364285D01*
X168168095Y-53554761D01*
X168072857Y-53650000D01*
X167977619Y-53697619D01*
X166691904Y-53364285D02*
X166691904Y-52697619D01*
X167120476Y-53364285D02*
X167120476Y-52840476D01*
X167072857Y-52745238D01*
X166977619Y-52697619D01*
X166834761Y-52697619D01*
X166739523Y-52745238D01*
X166691904Y-52792857D01*
X166358571Y-53364285D02*
X165977619Y-53364285D01*
X166215714Y-53697619D02*
X166215714Y-52840476D01*
X166168095Y-52745238D01*
X166072857Y-52697619D01*
X165977619Y-52697619D01*
X160514285Y-84728571D02*
X160180952Y-84728571D01*
X160180952Y-85252380D02*
X160180952Y-84252380D01*
X160657142Y-84252380D01*
X160990476Y-84966666D02*
X161466666Y-84966666D01*
X160895238Y-85252380D02*
X161228571Y-84252380D01*
X161561904Y-85252380D01*
X161895238Y-85252380D02*
X161895238Y-84252380D01*
X162466666Y-85252380D01*
X162466666Y-84252380D01*
X162895238Y-84347619D02*
X162942857Y-84300000D01*
X163038095Y-84252380D01*
X163276190Y-84252380D01*
X163371428Y-84300000D01*
X163419047Y-84347619D01*
X163466666Y-84442857D01*
X163466666Y-84538095D01*
X163419047Y-84680952D01*
X162847619Y-85252380D01*
X163466666Y-85252380D01*
X121009523Y-80104761D02*
X121152380Y-80152380D01*
X121390476Y-80152380D01*
X121485714Y-80104761D01*
X121533333Y-80057142D01*
X121580952Y-79961904D01*
X121580952Y-79866666D01*
X121533333Y-79771428D01*
X121485714Y-79723809D01*
X121390476Y-79676190D01*
X121200000Y-79628571D01*
X121104761Y-79580952D01*
X121057142Y-79533333D01*
X121009523Y-79438095D01*
X121009523Y-79342857D01*
X121057142Y-79247619D01*
X121104761Y-79200000D01*
X121200000Y-79152380D01*
X121438095Y-79152380D01*
X121580952Y-79200000D01*
X122200000Y-79152380D02*
X122390476Y-79152380D01*
X122485714Y-79200000D01*
X122580952Y-79295238D01*
X122628571Y-79485714D01*
X122628571Y-79819047D01*
X122580952Y-80009523D01*
X122485714Y-80104761D01*
X122390476Y-80152380D01*
X122200000Y-80152380D01*
X122104761Y-80104761D01*
X122009523Y-80009523D01*
X121961904Y-79819047D01*
X121961904Y-79485714D01*
X122009523Y-79295238D01*
X122104761Y-79200000D01*
X122200000Y-79152380D01*
X123533333Y-80152380D02*
X123057142Y-80152380D01*
X123057142Y-79152380D01*
X124295238Y-79485714D02*
X124295238Y-80152380D01*
X124057142Y-79104761D02*
X123819047Y-79819047D01*
X124438095Y-79819047D01*
X83709523Y-83652380D02*
X83138095Y-83652380D01*
X83423809Y-83652380D02*
X83423809Y-82652380D01*
X83328571Y-82795238D01*
X83233333Y-82890476D01*
X83138095Y-82938095D01*
X84042857Y-82652380D02*
X84709523Y-82652380D01*
X84280952Y-83652380D01*
X91109523Y-80104761D02*
X91252380Y-80152380D01*
X91490476Y-80152380D01*
X91585714Y-80104761D01*
X91633333Y-80057142D01*
X91680952Y-79961904D01*
X91680952Y-79866666D01*
X91633333Y-79771428D01*
X91585714Y-79723809D01*
X91490476Y-79676190D01*
X91300000Y-79628571D01*
X91204761Y-79580952D01*
X91157142Y-79533333D01*
X91109523Y-79438095D01*
X91109523Y-79342857D01*
X91157142Y-79247619D01*
X91204761Y-79200000D01*
X91300000Y-79152380D01*
X91538095Y-79152380D01*
X91680952Y-79200000D01*
X92300000Y-79152380D02*
X92490476Y-79152380D01*
X92585714Y-79200000D01*
X92680952Y-79295238D01*
X92728571Y-79485714D01*
X92728571Y-79819047D01*
X92680952Y-80009523D01*
X92585714Y-80104761D01*
X92490476Y-80152380D01*
X92300000Y-80152380D01*
X92204761Y-80104761D01*
X92109523Y-80009523D01*
X92061904Y-79819047D01*
X92061904Y-79485714D01*
X92109523Y-79295238D01*
X92204761Y-79200000D01*
X92300000Y-79152380D01*
X93633333Y-80152380D02*
X93157142Y-80152380D01*
X93157142Y-79152380D01*
X94490476Y-80152380D02*
X93919047Y-80152380D01*
X94204761Y-80152380D02*
X94204761Y-79152380D01*
X94109523Y-79295238D01*
X94014285Y-79390476D01*
X93919047Y-79438095D01*
X110509523Y-80104761D02*
X110652380Y-80152380D01*
X110890476Y-80152380D01*
X110985714Y-80104761D01*
X111033333Y-80057142D01*
X111080952Y-79961904D01*
X111080952Y-79866666D01*
X111033333Y-79771428D01*
X110985714Y-79723809D01*
X110890476Y-79676190D01*
X110700000Y-79628571D01*
X110604761Y-79580952D01*
X110557142Y-79533333D01*
X110509523Y-79438095D01*
X110509523Y-79342857D01*
X110557142Y-79247619D01*
X110604761Y-79200000D01*
X110700000Y-79152380D01*
X110938095Y-79152380D01*
X111080952Y-79200000D01*
X111700000Y-79152380D02*
X111890476Y-79152380D01*
X111985714Y-79200000D01*
X112080952Y-79295238D01*
X112128571Y-79485714D01*
X112128571Y-79819047D01*
X112080952Y-80009523D01*
X111985714Y-80104761D01*
X111890476Y-80152380D01*
X111700000Y-80152380D01*
X111604761Y-80104761D01*
X111509523Y-80009523D01*
X111461904Y-79819047D01*
X111461904Y-79485714D01*
X111509523Y-79295238D01*
X111604761Y-79200000D01*
X111700000Y-79152380D01*
X113033333Y-80152380D02*
X112557142Y-80152380D01*
X112557142Y-79152380D01*
X113271428Y-79152380D02*
X113890476Y-79152380D01*
X113557142Y-79533333D01*
X113700000Y-79533333D01*
X113795238Y-79580952D01*
X113842857Y-79628571D01*
X113890476Y-79723809D01*
X113890476Y-79961904D01*
X113842857Y-80057142D01*
X113795238Y-80104761D01*
X113700000Y-80152380D01*
X113414285Y-80152380D01*
X113319047Y-80104761D01*
X113271428Y-80057142D01*
D11*
X127201428Y-47642857D02*
X126058571Y-47642857D01*
D10*
X101009523Y-80104761D02*
X101152380Y-80152380D01*
X101390476Y-80152380D01*
X101485714Y-80104761D01*
X101533333Y-80057142D01*
X101580952Y-79961904D01*
X101580952Y-79866666D01*
X101533333Y-79771428D01*
X101485714Y-79723809D01*
X101390476Y-79676190D01*
X101200000Y-79628571D01*
X101104761Y-79580952D01*
X101057142Y-79533333D01*
X101009523Y-79438095D01*
X101009523Y-79342857D01*
X101057142Y-79247619D01*
X101104761Y-79200000D01*
X101200000Y-79152380D01*
X101438095Y-79152380D01*
X101580952Y-79200000D01*
X102200000Y-79152380D02*
X102390476Y-79152380D01*
X102485714Y-79200000D01*
X102580952Y-79295238D01*
X102628571Y-79485714D01*
X102628571Y-79819047D01*
X102580952Y-80009523D01*
X102485714Y-80104761D01*
X102390476Y-80152380D01*
X102200000Y-80152380D01*
X102104761Y-80104761D01*
X102009523Y-80009523D01*
X101961904Y-79819047D01*
X101961904Y-79485714D01*
X102009523Y-79295238D01*
X102104761Y-79200000D01*
X102200000Y-79152380D01*
X103533333Y-80152380D02*
X103057142Y-80152380D01*
X103057142Y-79152380D01*
X103819047Y-79247619D02*
X103866666Y-79200000D01*
X103961904Y-79152380D01*
X104200000Y-79152380D01*
X104295238Y-79200000D01*
X104342857Y-79247619D01*
X104390476Y-79342857D01*
X104390476Y-79438095D01*
X104342857Y-79580952D01*
X103771428Y-80152380D01*
X104390476Y-80152380D01*
X83638095Y-93852380D02*
X83066666Y-93852380D01*
X83352380Y-93852380D02*
X83352380Y-92852380D01*
X83257142Y-92995238D01*
X83161904Y-93090476D01*
X83066666Y-93138095D01*
X84019047Y-92947619D02*
X84066666Y-92900000D01*
X84161904Y-92852380D01*
X84400000Y-92852380D01*
X84495238Y-92900000D01*
X84542857Y-92947619D01*
X84590476Y-93042857D01*
X84590476Y-93138095D01*
X84542857Y-93280952D01*
X83971428Y-93852380D01*
X84590476Y-93852380D01*
X84876190Y-92852380D02*
X85209523Y-93852380D01*
X85542857Y-92852380D01*
X86828571Y-92852380D02*
X87019047Y-92852380D01*
X87114285Y-92900000D01*
X87209523Y-92995238D01*
X87257142Y-93185714D01*
X87257142Y-93519047D01*
X87209523Y-93709523D01*
X87114285Y-93804761D01*
X87019047Y-93852380D01*
X86828571Y-93852380D01*
X86733333Y-93804761D01*
X86638095Y-93709523D01*
X86590476Y-93519047D01*
X86590476Y-93185714D01*
X86638095Y-92995238D01*
X86733333Y-92900000D01*
X86828571Y-92852380D01*
X88114285Y-93185714D02*
X88114285Y-93852380D01*
X87685714Y-93185714D02*
X87685714Y-93709523D01*
X87733333Y-93804761D01*
X87828571Y-93852380D01*
X87971428Y-93852380D01*
X88066666Y-93804761D01*
X88114285Y-93757142D01*
X88447619Y-93185714D02*
X88828571Y-93185714D01*
X88590476Y-92852380D02*
X88590476Y-93709523D01*
X88638095Y-93804761D01*
X88733333Y-93852380D01*
X88828571Y-93852380D01*
X83238095Y-64600000D02*
X83142857Y-64552380D01*
X83000000Y-64552380D01*
X82857142Y-64600000D01*
X82761904Y-64695238D01*
X82714285Y-64790476D01*
X82666666Y-64980952D01*
X82666666Y-65123809D01*
X82714285Y-65314285D01*
X82761904Y-65409523D01*
X82857142Y-65504761D01*
X83000000Y-65552380D01*
X83095238Y-65552380D01*
X83238095Y-65504761D01*
X83285714Y-65457142D01*
X83285714Y-65123809D01*
X83095238Y-65123809D01*
X83714285Y-65552380D02*
X83714285Y-64552380D01*
X84285714Y-65552380D01*
X84285714Y-64552380D01*
X84761904Y-65552380D02*
X84761904Y-64552380D01*
X85000000Y-64552380D01*
X85142857Y-64600000D01*
X85238095Y-64695238D01*
X85285714Y-64790476D01*
X85333333Y-64980952D01*
X85333333Y-65123809D01*
X85285714Y-65314285D01*
X85238095Y-65409523D01*
X85142857Y-65504761D01*
X85000000Y-65552380D01*
X84761904Y-65552380D01*
X83990476Y-85585714D02*
X83990476Y-86252380D01*
X83752380Y-85204761D02*
X83514285Y-85919047D01*
X84133333Y-85919047D01*
X129409523Y-80004761D02*
X129552380Y-80052380D01*
X129790476Y-80052380D01*
X129885714Y-80004761D01*
X129933333Y-79957142D01*
X129980952Y-79861904D01*
X129980952Y-79766666D01*
X129933333Y-79671428D01*
X129885714Y-79623809D01*
X129790476Y-79576190D01*
X129600000Y-79528571D01*
X129504761Y-79480952D01*
X129457142Y-79433333D01*
X129409523Y-79338095D01*
X129409523Y-79242857D01*
X129457142Y-79147619D01*
X129504761Y-79100000D01*
X129600000Y-79052380D01*
X129838095Y-79052380D01*
X129980952Y-79100000D01*
X130600000Y-79052380D02*
X130790476Y-79052380D01*
X130885714Y-79100000D01*
X130980952Y-79195238D01*
X131028571Y-79385714D01*
X131028571Y-79719047D01*
X130980952Y-79909523D01*
X130885714Y-80004761D01*
X130790476Y-80052380D01*
X130600000Y-80052380D01*
X130504761Y-80004761D01*
X130409523Y-79909523D01*
X130361904Y-79719047D01*
X130361904Y-79385714D01*
X130409523Y-79195238D01*
X130504761Y-79100000D01*
X130600000Y-79052380D01*
X131933333Y-80052380D02*
X131457142Y-80052380D01*
X131457142Y-79052380D01*
X132742857Y-79052380D02*
X132266666Y-79052380D01*
X132219047Y-79528571D01*
X132266666Y-79480952D01*
X132361904Y-79433333D01*
X132600000Y-79433333D01*
X132695238Y-79480952D01*
X132742857Y-79528571D01*
X132790476Y-79623809D01*
X132790476Y-79861904D01*
X132742857Y-79957142D01*
X132695238Y-80004761D01*
X132600000Y-80052380D01*
X132361904Y-80052380D01*
X132266666Y-80004761D01*
X132219047Y-79957142D01*
D11*
X113121428Y-64171428D02*
X113121428Y-63314285D01*
X113121428Y-63742857D02*
X114621428Y-63742857D01*
X114407142Y-63600000D01*
X114264285Y-63457142D01*
X114192857Y-63314285D01*
X114478571Y-64742857D02*
X114550000Y-64814285D01*
X114621428Y-64957142D01*
X114621428Y-65314285D01*
X114550000Y-65457142D01*
X114478571Y-65528571D01*
X114335714Y-65600000D01*
X114192857Y-65600000D01*
X113978571Y-65528571D01*
X113121428Y-64671428D01*
X113121428Y-65600000D01*
X114621428Y-66028571D02*
X113121428Y-66528571D01*
X114621428Y-67028571D01*
D10*
X83809523Y-70852380D02*
X83238095Y-70852380D01*
X83523809Y-70852380D02*
X83523809Y-69852380D01*
X83428571Y-69995238D01*
X83333333Y-70090476D01*
X83238095Y-70138095D01*
X84142857Y-69852380D02*
X84761904Y-69852380D01*
X84428571Y-70233333D01*
X84571428Y-70233333D01*
X84666666Y-70280952D01*
X84714285Y-70328571D01*
X84761904Y-70423809D01*
X84761904Y-70661904D01*
X84714285Y-70757142D01*
X84666666Y-70804761D01*
X84571428Y-70852380D01*
X84285714Y-70852380D01*
X84190476Y-70804761D01*
X84142857Y-70757142D01*
%TO.C,Q2*%
X107947619Y-87595238D02*
X107900000Y-87690476D01*
X107804761Y-87785714D01*
X107661904Y-87928571D01*
X107614285Y-88023809D01*
X107614285Y-88119047D01*
X107852380Y-88071428D02*
X107804761Y-88166666D01*
X107709523Y-88261904D01*
X107519047Y-88309523D01*
X107185714Y-88309523D01*
X106995238Y-88261904D01*
X106900000Y-88166666D01*
X106852380Y-88071428D01*
X106852380Y-87880952D01*
X106900000Y-87785714D01*
X106995238Y-87690476D01*
X107185714Y-87642857D01*
X107519047Y-87642857D01*
X107709523Y-87690476D01*
X107804761Y-87785714D01*
X107852380Y-87880952D01*
X107852380Y-88071428D01*
X106947619Y-87261904D02*
X106900000Y-87214285D01*
X106852380Y-87119047D01*
X106852380Y-86880952D01*
X106900000Y-86785714D01*
X106947619Y-86738095D01*
X107042857Y-86690476D01*
X107138095Y-86690476D01*
X107280952Y-86738095D01*
X107852380Y-87309523D01*
X107852380Y-86690476D01*
%TO.C,R1*%
X150063333Y-54772380D02*
X149730000Y-54296190D01*
X149491904Y-54772380D02*
X149491904Y-53772380D01*
X149872857Y-53772380D01*
X149968095Y-53820000D01*
X150015714Y-53867619D01*
X150063333Y-53962857D01*
X150063333Y-54105714D01*
X150015714Y-54200952D01*
X149968095Y-54248571D01*
X149872857Y-54296190D01*
X149491904Y-54296190D01*
X151015714Y-54772380D02*
X150444285Y-54772380D01*
X150730000Y-54772380D02*
X150730000Y-53772380D01*
X150634761Y-53915238D01*
X150539523Y-54010476D01*
X150444285Y-54058095D01*
%TO.C,R13*%
X111657142Y-82702380D02*
X111323809Y-82226190D01*
X111085714Y-82702380D02*
X111085714Y-81702380D01*
X111466666Y-81702380D01*
X111561904Y-81750000D01*
X111609523Y-81797619D01*
X111657142Y-81892857D01*
X111657142Y-82035714D01*
X111609523Y-82130952D01*
X111561904Y-82178571D01*
X111466666Y-82226190D01*
X111085714Y-82226190D01*
X112609523Y-82702380D02*
X112038095Y-82702380D01*
X112323809Y-82702380D02*
X112323809Y-81702380D01*
X112228571Y-81845238D01*
X112133333Y-81940476D01*
X112038095Y-81988095D01*
X112942857Y-81702380D02*
X113561904Y-81702380D01*
X113228571Y-82083333D01*
X113371428Y-82083333D01*
X113466666Y-82130952D01*
X113514285Y-82178571D01*
X113561904Y-82273809D01*
X113561904Y-82511904D01*
X113514285Y-82607142D01*
X113466666Y-82654761D01*
X113371428Y-82702380D01*
X113085714Y-82702380D01*
X112990476Y-82654761D01*
X112942857Y-82607142D01*
%TO.C,C5*%
X165263333Y-57507142D02*
X165215714Y-57554761D01*
X165072857Y-57602380D01*
X164977619Y-57602380D01*
X164834761Y-57554761D01*
X164739523Y-57459523D01*
X164691904Y-57364285D01*
X164644285Y-57173809D01*
X164644285Y-57030952D01*
X164691904Y-56840476D01*
X164739523Y-56745238D01*
X164834761Y-56650000D01*
X164977619Y-56602380D01*
X165072857Y-56602380D01*
X165215714Y-56650000D01*
X165263333Y-56697619D01*
X166168095Y-56602380D02*
X165691904Y-56602380D01*
X165644285Y-57078571D01*
X165691904Y-57030952D01*
X165787142Y-56983333D01*
X166025238Y-56983333D01*
X166120476Y-57030952D01*
X166168095Y-57078571D01*
X166215714Y-57173809D01*
X166215714Y-57411904D01*
X166168095Y-57507142D01*
X166120476Y-57554761D01*
X166025238Y-57602380D01*
X165787142Y-57602380D01*
X165691904Y-57554761D01*
X165644285Y-57507142D01*
%TO.C,D4*%
X124361904Y-96552380D02*
X124361904Y-95552380D01*
X124600000Y-95552380D01*
X124742857Y-95600000D01*
X124838095Y-95695238D01*
X124885714Y-95790476D01*
X124933333Y-95980952D01*
X124933333Y-96123809D01*
X124885714Y-96314285D01*
X124838095Y-96409523D01*
X124742857Y-96504761D01*
X124600000Y-96552380D01*
X124361904Y-96552380D01*
X125790476Y-95885714D02*
X125790476Y-96552380D01*
X125552380Y-95504761D02*
X125314285Y-96219047D01*
X125933333Y-96219047D01*
%TO.C,Q8*%
X147947619Y-87695238D02*
X147900000Y-87790476D01*
X147804761Y-87885714D01*
X147661904Y-88028571D01*
X147614285Y-88123809D01*
X147614285Y-88219047D01*
X147852380Y-88171428D02*
X147804761Y-88266666D01*
X147709523Y-88361904D01*
X147519047Y-88409523D01*
X147185714Y-88409523D01*
X146995238Y-88361904D01*
X146900000Y-88266666D01*
X146852380Y-88171428D01*
X146852380Y-87980952D01*
X146900000Y-87885714D01*
X146995238Y-87790476D01*
X147185714Y-87742857D01*
X147519047Y-87742857D01*
X147709523Y-87790476D01*
X147804761Y-87885714D01*
X147852380Y-87980952D01*
X147852380Y-88171428D01*
X147280952Y-87171428D02*
X147233333Y-87266666D01*
X147185714Y-87314285D01*
X147090476Y-87361904D01*
X147042857Y-87361904D01*
X146947619Y-87314285D01*
X146900000Y-87266666D01*
X146852380Y-87171428D01*
X146852380Y-86980952D01*
X146900000Y-86885714D01*
X146947619Y-86838095D01*
X147042857Y-86790476D01*
X147090476Y-86790476D01*
X147185714Y-86838095D01*
X147233333Y-86885714D01*
X147280952Y-86980952D01*
X147280952Y-87171428D01*
X147328571Y-87266666D01*
X147376190Y-87314285D01*
X147471428Y-87361904D01*
X147661904Y-87361904D01*
X147757142Y-87314285D01*
X147804761Y-87266666D01*
X147852380Y-87171428D01*
X147852380Y-86980952D01*
X147804761Y-86885714D01*
X147757142Y-86838095D01*
X147661904Y-86790476D01*
X147471428Y-86790476D01*
X147376190Y-86838095D01*
X147328571Y-86885714D01*
X147280952Y-86980952D01*
%TO.C,Q6*%
X128147619Y-87695238D02*
X128100000Y-87790476D01*
X128004761Y-87885714D01*
X127861904Y-88028571D01*
X127814285Y-88123809D01*
X127814285Y-88219047D01*
X128052380Y-88171428D02*
X128004761Y-88266666D01*
X127909523Y-88361904D01*
X127719047Y-88409523D01*
X127385714Y-88409523D01*
X127195238Y-88361904D01*
X127100000Y-88266666D01*
X127052380Y-88171428D01*
X127052380Y-87980952D01*
X127100000Y-87885714D01*
X127195238Y-87790476D01*
X127385714Y-87742857D01*
X127719047Y-87742857D01*
X127909523Y-87790476D01*
X128004761Y-87885714D01*
X128052380Y-87980952D01*
X128052380Y-88171428D01*
X127052380Y-86885714D02*
X127052380Y-87076190D01*
X127100000Y-87171428D01*
X127147619Y-87219047D01*
X127290476Y-87314285D01*
X127480952Y-87361904D01*
X127861904Y-87361904D01*
X127957142Y-87314285D01*
X128004761Y-87266666D01*
X128052380Y-87171428D01*
X128052380Y-86980952D01*
X128004761Y-86885714D01*
X127957142Y-86838095D01*
X127861904Y-86790476D01*
X127623809Y-86790476D01*
X127528571Y-86838095D01*
X127480952Y-86885714D01*
X127433333Y-86980952D01*
X127433333Y-87171428D01*
X127480952Y-87266666D01*
X127528571Y-87314285D01*
X127623809Y-87361904D01*
%TO.C,R3*%
X153263333Y-53102380D02*
X152930000Y-52626190D01*
X152691904Y-53102380D02*
X152691904Y-52102380D01*
X153072857Y-52102380D01*
X153168095Y-52150000D01*
X153215714Y-52197619D01*
X153263333Y-52292857D01*
X153263333Y-52435714D01*
X153215714Y-52530952D01*
X153168095Y-52578571D01*
X153072857Y-52626190D01*
X152691904Y-52626190D01*
X153596666Y-52102380D02*
X154215714Y-52102380D01*
X153882380Y-52483333D01*
X154025238Y-52483333D01*
X154120476Y-52530952D01*
X154168095Y-52578571D01*
X154215714Y-52673809D01*
X154215714Y-52911904D01*
X154168095Y-53007142D01*
X154120476Y-53054761D01*
X154025238Y-53102380D01*
X153739523Y-53102380D01*
X153644285Y-53054761D01*
X153596666Y-53007142D01*
%TO.C,R2*%
X157763333Y-58802380D02*
X157430000Y-58326190D01*
X157191904Y-58802380D02*
X157191904Y-57802380D01*
X157572857Y-57802380D01*
X157668095Y-57850000D01*
X157715714Y-57897619D01*
X157763333Y-57992857D01*
X157763333Y-58135714D01*
X157715714Y-58230952D01*
X157668095Y-58278571D01*
X157572857Y-58326190D01*
X157191904Y-58326190D01*
X158144285Y-57897619D02*
X158191904Y-57850000D01*
X158287142Y-57802380D01*
X158525238Y-57802380D01*
X158620476Y-57850000D01*
X158668095Y-57897619D01*
X158715714Y-57992857D01*
X158715714Y-58088095D01*
X158668095Y-58230952D01*
X158096666Y-58802380D01*
X158715714Y-58802380D01*
%TO.C,R9*%
X102033333Y-82702380D02*
X101700000Y-82226190D01*
X101461904Y-82702380D02*
X101461904Y-81702380D01*
X101842857Y-81702380D01*
X101938095Y-81750000D01*
X101985714Y-81797619D01*
X102033333Y-81892857D01*
X102033333Y-82035714D01*
X101985714Y-82130952D01*
X101938095Y-82178571D01*
X101842857Y-82226190D01*
X101461904Y-82226190D01*
X102509523Y-82702380D02*
X102700000Y-82702380D01*
X102795238Y-82654761D01*
X102842857Y-82607142D01*
X102938095Y-82464285D01*
X102985714Y-82273809D01*
X102985714Y-81892857D01*
X102938095Y-81797619D01*
X102890476Y-81750000D01*
X102795238Y-81702380D01*
X102604761Y-81702380D01*
X102509523Y-81750000D01*
X102461904Y-81797619D01*
X102414285Y-81892857D01*
X102414285Y-82130952D01*
X102461904Y-82226190D01*
X102509523Y-82273809D01*
X102604761Y-82321428D01*
X102795238Y-82321428D01*
X102890476Y-82273809D01*
X102938095Y-82226190D01*
X102985714Y-82130952D01*
%TO.C,C2*%
X146963333Y-64907142D02*
X146915714Y-64954761D01*
X146772857Y-65002380D01*
X146677619Y-65002380D01*
X146534761Y-64954761D01*
X146439523Y-64859523D01*
X146391904Y-64764285D01*
X146344285Y-64573809D01*
X146344285Y-64430952D01*
X146391904Y-64240476D01*
X146439523Y-64145238D01*
X146534761Y-64050000D01*
X146677619Y-64002380D01*
X146772857Y-64002380D01*
X146915714Y-64050000D01*
X146963333Y-64097619D01*
X147344285Y-64097619D02*
X147391904Y-64050000D01*
X147487142Y-64002380D01*
X147725238Y-64002380D01*
X147820476Y-64050000D01*
X147868095Y-64097619D01*
X147915714Y-64192857D01*
X147915714Y-64288095D01*
X147868095Y-64430952D01*
X147296666Y-65002380D01*
X147915714Y-65002380D01*
%TO.C,R20*%
X148502380Y-83942857D02*
X148026190Y-84276190D01*
X148502380Y-84514285D02*
X147502380Y-84514285D01*
X147502380Y-84133333D01*
X147550000Y-84038095D01*
X147597619Y-83990476D01*
X147692857Y-83942857D01*
X147835714Y-83942857D01*
X147930952Y-83990476D01*
X147978571Y-84038095D01*
X148026190Y-84133333D01*
X148026190Y-84514285D01*
X147597619Y-83561904D02*
X147550000Y-83514285D01*
X147502380Y-83419047D01*
X147502380Y-83180952D01*
X147550000Y-83085714D01*
X147597619Y-83038095D01*
X147692857Y-82990476D01*
X147788095Y-82990476D01*
X147930952Y-83038095D01*
X148502380Y-83609523D01*
X148502380Y-82990476D01*
X147502380Y-82371428D02*
X147502380Y-82276190D01*
X147550000Y-82180952D01*
X147597619Y-82133333D01*
X147692857Y-82085714D01*
X147883333Y-82038095D01*
X148121428Y-82038095D01*
X148311904Y-82085714D01*
X148407142Y-82133333D01*
X148454761Y-82180952D01*
X148502380Y-82276190D01*
X148502380Y-82371428D01*
X148454761Y-82466666D01*
X148407142Y-82514285D01*
X148311904Y-82561904D01*
X148121428Y-82609523D01*
X147883333Y-82609523D01*
X147692857Y-82561904D01*
X147597619Y-82514285D01*
X147550000Y-82466666D01*
X147502380Y-82371428D01*
%TO.C,R15*%
X162157142Y-89002380D02*
X161823809Y-88526190D01*
X161585714Y-89002380D02*
X161585714Y-88002380D01*
X161966666Y-88002380D01*
X162061904Y-88050000D01*
X162109523Y-88097619D01*
X162157142Y-88192857D01*
X162157142Y-88335714D01*
X162109523Y-88430952D01*
X162061904Y-88478571D01*
X161966666Y-88526190D01*
X161585714Y-88526190D01*
X163109523Y-89002380D02*
X162538095Y-89002380D01*
X162823809Y-89002380D02*
X162823809Y-88002380D01*
X162728571Y-88145238D01*
X162633333Y-88240476D01*
X162538095Y-88288095D01*
X164014285Y-88002380D02*
X163538095Y-88002380D01*
X163490476Y-88478571D01*
X163538095Y-88430952D01*
X163633333Y-88383333D01*
X163871428Y-88383333D01*
X163966666Y-88430952D01*
X164014285Y-88478571D01*
X164061904Y-88573809D01*
X164061904Y-88811904D01*
X164014285Y-88907142D01*
X163966666Y-88954761D01*
X163871428Y-89002380D01*
X163633333Y-89002380D01*
X163538095Y-88954761D01*
X163490476Y-88907142D01*
%TO.C,R12*%
X118002380Y-83742857D02*
X117526190Y-84076190D01*
X118002380Y-84314285D02*
X117002380Y-84314285D01*
X117002380Y-83933333D01*
X117050000Y-83838095D01*
X117097619Y-83790476D01*
X117192857Y-83742857D01*
X117335714Y-83742857D01*
X117430952Y-83790476D01*
X117478571Y-83838095D01*
X117526190Y-83933333D01*
X117526190Y-84314285D01*
X118002380Y-82790476D02*
X118002380Y-83361904D01*
X118002380Y-83076190D02*
X117002380Y-83076190D01*
X117145238Y-83171428D01*
X117240476Y-83266666D01*
X117288095Y-83361904D01*
X117097619Y-82409523D02*
X117050000Y-82361904D01*
X117002380Y-82266666D01*
X117002380Y-82028571D01*
X117050000Y-81933333D01*
X117097619Y-81885714D01*
X117192857Y-81838095D01*
X117288095Y-81838095D01*
X117430952Y-81885714D01*
X118002380Y-82457142D01*
X118002380Y-81838095D01*
%TO.C,R8*%
X108002380Y-83266666D02*
X107526190Y-83600000D01*
X108002380Y-83838095D02*
X107002380Y-83838095D01*
X107002380Y-83457142D01*
X107050000Y-83361904D01*
X107097619Y-83314285D01*
X107192857Y-83266666D01*
X107335714Y-83266666D01*
X107430952Y-83314285D01*
X107478571Y-83361904D01*
X107526190Y-83457142D01*
X107526190Y-83838095D01*
X107430952Y-82695238D02*
X107383333Y-82790476D01*
X107335714Y-82838095D01*
X107240476Y-82885714D01*
X107192857Y-82885714D01*
X107097619Y-82838095D01*
X107050000Y-82790476D01*
X107002380Y-82695238D01*
X107002380Y-82504761D01*
X107050000Y-82409523D01*
X107097619Y-82361904D01*
X107192857Y-82314285D01*
X107240476Y-82314285D01*
X107335714Y-82361904D01*
X107383333Y-82409523D01*
X107430952Y-82504761D01*
X107430952Y-82695238D01*
X107478571Y-82790476D01*
X107526190Y-82838095D01*
X107621428Y-82885714D01*
X107811904Y-82885714D01*
X107907142Y-82838095D01*
X107954761Y-82790476D01*
X108002380Y-82695238D01*
X108002380Y-82504761D01*
X107954761Y-82409523D01*
X107907142Y-82361904D01*
X107811904Y-82314285D01*
X107621428Y-82314285D01*
X107526190Y-82361904D01*
X107478571Y-82409523D01*
X107430952Y-82504761D01*
%TO.C,D1*%
X94361904Y-96552380D02*
X94361904Y-95552380D01*
X94600000Y-95552380D01*
X94742857Y-95600000D01*
X94838095Y-95695238D01*
X94885714Y-95790476D01*
X94933333Y-95980952D01*
X94933333Y-96123809D01*
X94885714Y-96314285D01*
X94838095Y-96409523D01*
X94742857Y-96504761D01*
X94600000Y-96552380D01*
X94361904Y-96552380D01*
X95885714Y-96552380D02*
X95314285Y-96552380D01*
X95600000Y-96552380D02*
X95600000Y-95552380D01*
X95504761Y-95695238D01*
X95409523Y-95790476D01*
X95314285Y-95838095D01*
%TO.C,C4*%
X160463333Y-57507142D02*
X160415714Y-57554761D01*
X160272857Y-57602380D01*
X160177619Y-57602380D01*
X160034761Y-57554761D01*
X159939523Y-57459523D01*
X159891904Y-57364285D01*
X159844285Y-57173809D01*
X159844285Y-57030952D01*
X159891904Y-56840476D01*
X159939523Y-56745238D01*
X160034761Y-56650000D01*
X160177619Y-56602380D01*
X160272857Y-56602380D01*
X160415714Y-56650000D01*
X160463333Y-56697619D01*
X161320476Y-56935714D02*
X161320476Y-57602380D01*
X161082380Y-56554761D02*
X160844285Y-57269047D01*
X161463333Y-57269047D01*
%TO.C,D2*%
X104361904Y-96552380D02*
X104361904Y-95552380D01*
X104600000Y-95552380D01*
X104742857Y-95600000D01*
X104838095Y-95695238D01*
X104885714Y-95790476D01*
X104933333Y-95980952D01*
X104933333Y-96123809D01*
X104885714Y-96314285D01*
X104838095Y-96409523D01*
X104742857Y-96504761D01*
X104600000Y-96552380D01*
X104361904Y-96552380D01*
X105314285Y-95647619D02*
X105361904Y-95600000D01*
X105457142Y-95552380D01*
X105695238Y-95552380D01*
X105790476Y-95600000D01*
X105838095Y-95647619D01*
X105885714Y-95742857D01*
X105885714Y-95838095D01*
X105838095Y-95980952D01*
X105266666Y-96552380D01*
X105885714Y-96552380D01*
%TO.C,Q5*%
X169147619Y-94095238D02*
X169100000Y-94190476D01*
X169004761Y-94285714D01*
X168861904Y-94428571D01*
X168814285Y-94523809D01*
X168814285Y-94619047D01*
X169052380Y-94571428D02*
X169004761Y-94666666D01*
X168909523Y-94761904D01*
X168719047Y-94809523D01*
X168385714Y-94809523D01*
X168195238Y-94761904D01*
X168100000Y-94666666D01*
X168052380Y-94571428D01*
X168052380Y-94380952D01*
X168100000Y-94285714D01*
X168195238Y-94190476D01*
X168385714Y-94142857D01*
X168719047Y-94142857D01*
X168909523Y-94190476D01*
X169004761Y-94285714D01*
X169052380Y-94380952D01*
X169052380Y-94571428D01*
X168052380Y-93238095D02*
X168052380Y-93714285D01*
X168528571Y-93761904D01*
X168480952Y-93714285D01*
X168433333Y-93619047D01*
X168433333Y-93380952D01*
X168480952Y-93285714D01*
X168528571Y-93238095D01*
X168623809Y-93190476D01*
X168861904Y-93190476D01*
X168957142Y-93238095D01*
X169004761Y-93285714D01*
X169052380Y-93380952D01*
X169052380Y-93619047D01*
X169004761Y-93714285D01*
X168957142Y-93761904D01*
%TO.C,D3*%
X114361904Y-96552380D02*
X114361904Y-95552380D01*
X114600000Y-95552380D01*
X114742857Y-95600000D01*
X114838095Y-95695238D01*
X114885714Y-95790476D01*
X114933333Y-95980952D01*
X114933333Y-96123809D01*
X114885714Y-96314285D01*
X114838095Y-96409523D01*
X114742857Y-96504761D01*
X114600000Y-96552380D01*
X114361904Y-96552380D01*
X115266666Y-95552380D02*
X115885714Y-95552380D01*
X115552380Y-95933333D01*
X115695238Y-95933333D01*
X115790476Y-95980952D01*
X115838095Y-96028571D01*
X115885714Y-96123809D01*
X115885714Y-96361904D01*
X115838095Y-96457142D01*
X115790476Y-96504761D01*
X115695238Y-96552380D01*
X115409523Y-96552380D01*
X115314285Y-96504761D01*
X115266666Y-96457142D01*
%TO.C,R19*%
X132657142Y-82702380D02*
X132323809Y-82226190D01*
X132085714Y-82702380D02*
X132085714Y-81702380D01*
X132466666Y-81702380D01*
X132561904Y-81750000D01*
X132609523Y-81797619D01*
X132657142Y-81892857D01*
X132657142Y-82035714D01*
X132609523Y-82130952D01*
X132561904Y-82178571D01*
X132466666Y-82226190D01*
X132085714Y-82226190D01*
X133609523Y-82702380D02*
X133038095Y-82702380D01*
X133323809Y-82702380D02*
X133323809Y-81702380D01*
X133228571Y-81845238D01*
X133133333Y-81940476D01*
X133038095Y-81988095D01*
X134085714Y-82702380D02*
X134276190Y-82702380D01*
X134371428Y-82654761D01*
X134419047Y-82607142D01*
X134514285Y-82464285D01*
X134561904Y-82273809D01*
X134561904Y-81892857D01*
X134514285Y-81797619D01*
X134466666Y-81750000D01*
X134371428Y-81702380D01*
X134180952Y-81702380D01*
X134085714Y-81750000D01*
X134038095Y-81797619D01*
X133990476Y-81892857D01*
X133990476Y-82130952D01*
X134038095Y-82226190D01*
X134085714Y-82273809D01*
X134180952Y-82321428D01*
X134371428Y-82321428D01*
X134466666Y-82273809D01*
X134514285Y-82226190D01*
X134561904Y-82130952D01*
%TO.C,C3*%
X149163333Y-63307142D02*
X149115714Y-63354761D01*
X148972857Y-63402380D01*
X148877619Y-63402380D01*
X148734761Y-63354761D01*
X148639523Y-63259523D01*
X148591904Y-63164285D01*
X148544285Y-62973809D01*
X148544285Y-62830952D01*
X148591904Y-62640476D01*
X148639523Y-62545238D01*
X148734761Y-62450000D01*
X148877619Y-62402380D01*
X148972857Y-62402380D01*
X149115714Y-62450000D01*
X149163333Y-62497619D01*
X149496666Y-62402380D02*
X150115714Y-62402380D01*
X149782380Y-62783333D01*
X149925238Y-62783333D01*
X150020476Y-62830952D01*
X150068095Y-62878571D01*
X150115714Y-62973809D01*
X150115714Y-63211904D01*
X150068095Y-63307142D01*
X150020476Y-63354761D01*
X149925238Y-63402380D01*
X149639523Y-63402380D01*
X149544285Y-63354761D01*
X149496666Y-63307142D01*
%TO.C,R21*%
X142157142Y-82802380D02*
X141823809Y-82326190D01*
X141585714Y-82802380D02*
X141585714Y-81802380D01*
X141966666Y-81802380D01*
X142061904Y-81850000D01*
X142109523Y-81897619D01*
X142157142Y-81992857D01*
X142157142Y-82135714D01*
X142109523Y-82230952D01*
X142061904Y-82278571D01*
X141966666Y-82326190D01*
X141585714Y-82326190D01*
X142538095Y-81897619D02*
X142585714Y-81850000D01*
X142680952Y-81802380D01*
X142919047Y-81802380D01*
X143014285Y-81850000D01*
X143061904Y-81897619D01*
X143109523Y-81992857D01*
X143109523Y-82088095D01*
X143061904Y-82230952D01*
X142490476Y-82802380D01*
X143109523Y-82802380D01*
X144061904Y-82802380D02*
X143490476Y-82802380D01*
X143776190Y-82802380D02*
X143776190Y-81802380D01*
X143680952Y-81945238D01*
X143585714Y-82040476D01*
X143490476Y-82088095D01*
%TO.C,R16*%
X128202380Y-83742857D02*
X127726190Y-84076190D01*
X128202380Y-84314285D02*
X127202380Y-84314285D01*
X127202380Y-83933333D01*
X127250000Y-83838095D01*
X127297619Y-83790476D01*
X127392857Y-83742857D01*
X127535714Y-83742857D01*
X127630952Y-83790476D01*
X127678571Y-83838095D01*
X127726190Y-83933333D01*
X127726190Y-84314285D01*
X128202380Y-82790476D02*
X128202380Y-83361904D01*
X128202380Y-83076190D02*
X127202380Y-83076190D01*
X127345238Y-83171428D01*
X127440476Y-83266666D01*
X127488095Y-83361904D01*
X127202380Y-81933333D02*
X127202380Y-82123809D01*
X127250000Y-82219047D01*
X127297619Y-82266666D01*
X127440476Y-82361904D01*
X127630952Y-82409523D01*
X128011904Y-82409523D01*
X128107142Y-82361904D01*
X128154761Y-82314285D01*
X128202380Y-82219047D01*
X128202380Y-82028571D01*
X128154761Y-81933333D01*
X128107142Y-81885714D01*
X128011904Y-81838095D01*
X127773809Y-81838095D01*
X127678571Y-81885714D01*
X127630952Y-81933333D01*
X127583333Y-82028571D01*
X127583333Y-82219047D01*
X127630952Y-82314285D01*
X127678571Y-82361904D01*
X127773809Y-82409523D01*
%TO.C,R18*%
X138902380Y-83742857D02*
X138426190Y-84076190D01*
X138902380Y-84314285D02*
X137902380Y-84314285D01*
X137902380Y-83933333D01*
X137950000Y-83838095D01*
X137997619Y-83790476D01*
X138092857Y-83742857D01*
X138235714Y-83742857D01*
X138330952Y-83790476D01*
X138378571Y-83838095D01*
X138426190Y-83933333D01*
X138426190Y-84314285D01*
X138902380Y-82790476D02*
X138902380Y-83361904D01*
X138902380Y-83076190D02*
X137902380Y-83076190D01*
X138045238Y-83171428D01*
X138140476Y-83266666D01*
X138188095Y-83361904D01*
X138330952Y-82219047D02*
X138283333Y-82314285D01*
X138235714Y-82361904D01*
X138140476Y-82409523D01*
X138092857Y-82409523D01*
X137997619Y-82361904D01*
X137950000Y-82314285D01*
X137902380Y-82219047D01*
X137902380Y-82028571D01*
X137950000Y-81933333D01*
X137997619Y-81885714D01*
X138092857Y-81838095D01*
X138140476Y-81838095D01*
X138235714Y-81885714D01*
X138283333Y-81933333D01*
X138330952Y-82028571D01*
X138330952Y-82219047D01*
X138378571Y-82314285D01*
X138426190Y-82361904D01*
X138521428Y-82409523D01*
X138711904Y-82409523D01*
X138807142Y-82361904D01*
X138854761Y-82314285D01*
X138902380Y-82219047D01*
X138902380Y-82028571D01*
X138854761Y-81933333D01*
X138807142Y-81885714D01*
X138711904Y-81838095D01*
X138521428Y-81838095D01*
X138426190Y-81885714D01*
X138378571Y-81933333D01*
X138330952Y-82028571D01*
%TO.C,R10*%
X158802380Y-89842857D02*
X158326190Y-90176190D01*
X158802380Y-90414285D02*
X157802380Y-90414285D01*
X157802380Y-90033333D01*
X157850000Y-89938095D01*
X157897619Y-89890476D01*
X157992857Y-89842857D01*
X158135714Y-89842857D01*
X158230952Y-89890476D01*
X158278571Y-89938095D01*
X158326190Y-90033333D01*
X158326190Y-90414285D01*
X158802380Y-88890476D02*
X158802380Y-89461904D01*
X158802380Y-89176190D02*
X157802380Y-89176190D01*
X157945238Y-89271428D01*
X158040476Y-89366666D01*
X158088095Y-89461904D01*
X157802380Y-88271428D02*
X157802380Y-88176190D01*
X157850000Y-88080952D01*
X157897619Y-88033333D01*
X157992857Y-87985714D01*
X158183333Y-87938095D01*
X158421428Y-87938095D01*
X158611904Y-87985714D01*
X158707142Y-88033333D01*
X158754761Y-88080952D01*
X158802380Y-88176190D01*
X158802380Y-88271428D01*
X158754761Y-88366666D01*
X158707142Y-88414285D01*
X158611904Y-88461904D01*
X158421428Y-88509523D01*
X158183333Y-88509523D01*
X157992857Y-88461904D01*
X157897619Y-88414285D01*
X157850000Y-88366666D01*
X157802380Y-88271428D01*
%TO.C,Q4*%
X117947619Y-87695238D02*
X117900000Y-87790476D01*
X117804761Y-87885714D01*
X117661904Y-88028571D01*
X117614285Y-88123809D01*
X117614285Y-88219047D01*
X117852380Y-88171428D02*
X117804761Y-88266666D01*
X117709523Y-88361904D01*
X117519047Y-88409523D01*
X117185714Y-88409523D01*
X116995238Y-88361904D01*
X116900000Y-88266666D01*
X116852380Y-88171428D01*
X116852380Y-87980952D01*
X116900000Y-87885714D01*
X116995238Y-87790476D01*
X117185714Y-87742857D01*
X117519047Y-87742857D01*
X117709523Y-87790476D01*
X117804761Y-87885714D01*
X117852380Y-87980952D01*
X117852380Y-88171428D01*
X117185714Y-86885714D02*
X117852380Y-86885714D01*
X116804761Y-87123809D02*
X117519047Y-87361904D01*
X117519047Y-86742857D01*
%TO.C,R11*%
X152657142Y-88902380D02*
X152323809Y-88426190D01*
X152085714Y-88902380D02*
X152085714Y-87902380D01*
X152466666Y-87902380D01*
X152561904Y-87950000D01*
X152609523Y-87997619D01*
X152657142Y-88092857D01*
X152657142Y-88235714D01*
X152609523Y-88330952D01*
X152561904Y-88378571D01*
X152466666Y-88426190D01*
X152085714Y-88426190D01*
X153609523Y-88902380D02*
X153038095Y-88902380D01*
X153323809Y-88902380D02*
X153323809Y-87902380D01*
X153228571Y-88045238D01*
X153133333Y-88140476D01*
X153038095Y-88188095D01*
X154561904Y-88902380D02*
X153990476Y-88902380D01*
X154276190Y-88902380D02*
X154276190Y-87902380D01*
X154180952Y-88045238D01*
X154085714Y-88140476D01*
X153990476Y-88188095D01*
%TO.C,Q3*%
X159747619Y-94095238D02*
X159700000Y-94190476D01*
X159604761Y-94285714D01*
X159461904Y-94428571D01*
X159414285Y-94523809D01*
X159414285Y-94619047D01*
X159652380Y-94571428D02*
X159604761Y-94666666D01*
X159509523Y-94761904D01*
X159319047Y-94809523D01*
X158985714Y-94809523D01*
X158795238Y-94761904D01*
X158700000Y-94666666D01*
X158652380Y-94571428D01*
X158652380Y-94380952D01*
X158700000Y-94285714D01*
X158795238Y-94190476D01*
X158985714Y-94142857D01*
X159319047Y-94142857D01*
X159509523Y-94190476D01*
X159604761Y-94285714D01*
X159652380Y-94380952D01*
X159652380Y-94571428D01*
X158652380Y-93809523D02*
X158652380Y-93190476D01*
X159033333Y-93523809D01*
X159033333Y-93380952D01*
X159080952Y-93285714D01*
X159128571Y-93238095D01*
X159223809Y-93190476D01*
X159461904Y-93190476D01*
X159557142Y-93238095D01*
X159604761Y-93285714D01*
X159652380Y-93380952D01*
X159652380Y-93666666D01*
X159604761Y-93761904D01*
X159557142Y-93809523D01*
%TO.C,D5*%
X134361904Y-96552380D02*
X134361904Y-95552380D01*
X134600000Y-95552380D01*
X134742857Y-95600000D01*
X134838095Y-95695238D01*
X134885714Y-95790476D01*
X134933333Y-95980952D01*
X134933333Y-96123809D01*
X134885714Y-96314285D01*
X134838095Y-96409523D01*
X134742857Y-96504761D01*
X134600000Y-96552380D01*
X134361904Y-96552380D01*
X135838095Y-95552380D02*
X135361904Y-95552380D01*
X135314285Y-96028571D01*
X135361904Y-95980952D01*
X135457142Y-95933333D01*
X135695238Y-95933333D01*
X135790476Y-95980952D01*
X135838095Y-96028571D01*
X135885714Y-96123809D01*
X135885714Y-96361904D01*
X135838095Y-96457142D01*
X135790476Y-96504761D01*
X135695238Y-96552380D01*
X135457142Y-96552380D01*
X135361904Y-96504761D01*
X135314285Y-96457142D01*
%TO.C,R17*%
X121857142Y-82702380D02*
X121523809Y-82226190D01*
X121285714Y-82702380D02*
X121285714Y-81702380D01*
X121666666Y-81702380D01*
X121761904Y-81750000D01*
X121809523Y-81797619D01*
X121857142Y-81892857D01*
X121857142Y-82035714D01*
X121809523Y-82130952D01*
X121761904Y-82178571D01*
X121666666Y-82226190D01*
X121285714Y-82226190D01*
X122809523Y-82702380D02*
X122238095Y-82702380D01*
X122523809Y-82702380D02*
X122523809Y-81702380D01*
X122428571Y-81845238D01*
X122333333Y-81940476D01*
X122238095Y-81988095D01*
X123142857Y-81702380D02*
X123809523Y-81702380D01*
X123380952Y-82702380D01*
%TO.C,R7*%
X92233333Y-82702380D02*
X91900000Y-82226190D01*
X91661904Y-82702380D02*
X91661904Y-81702380D01*
X92042857Y-81702380D01*
X92138095Y-81750000D01*
X92185714Y-81797619D01*
X92233333Y-81892857D01*
X92233333Y-82035714D01*
X92185714Y-82130952D01*
X92138095Y-82178571D01*
X92042857Y-82226190D01*
X91661904Y-82226190D01*
X92566666Y-81702380D02*
X93233333Y-81702380D01*
X92804761Y-82702380D01*
%TO.C,C1*%
X144163333Y-64907142D02*
X144115714Y-64954761D01*
X143972857Y-65002380D01*
X143877619Y-65002380D01*
X143734761Y-64954761D01*
X143639523Y-64859523D01*
X143591904Y-64764285D01*
X143544285Y-64573809D01*
X143544285Y-64430952D01*
X143591904Y-64240476D01*
X143639523Y-64145238D01*
X143734761Y-64050000D01*
X143877619Y-64002380D01*
X143972857Y-64002380D01*
X144115714Y-64050000D01*
X144163333Y-64097619D01*
X145115714Y-65002380D02*
X144544285Y-65002380D01*
X144830000Y-65002380D02*
X144830000Y-64002380D01*
X144734761Y-64145238D01*
X144639523Y-64240476D01*
X144544285Y-64288095D01*
%TO.C,R14*%
X168302380Y-89942857D02*
X167826190Y-90276190D01*
X168302380Y-90514285D02*
X167302380Y-90514285D01*
X167302380Y-90133333D01*
X167350000Y-90038095D01*
X167397619Y-89990476D01*
X167492857Y-89942857D01*
X167635714Y-89942857D01*
X167730952Y-89990476D01*
X167778571Y-90038095D01*
X167826190Y-90133333D01*
X167826190Y-90514285D01*
X168302380Y-88990476D02*
X168302380Y-89561904D01*
X168302380Y-89276190D02*
X167302380Y-89276190D01*
X167445238Y-89371428D01*
X167540476Y-89466666D01*
X167588095Y-89561904D01*
X167635714Y-88133333D02*
X168302380Y-88133333D01*
X167254761Y-88371428D02*
X167969047Y-88609523D01*
X167969047Y-87990476D01*
%TO.C,U1*%
X151968095Y-56802380D02*
X151968095Y-57611904D01*
X152015714Y-57707142D01*
X152063333Y-57754761D01*
X152158571Y-57802380D01*
X152349047Y-57802380D01*
X152444285Y-57754761D01*
X152491904Y-57707142D01*
X152539523Y-57611904D01*
X152539523Y-56802380D01*
X153539523Y-57802380D02*
X152968095Y-57802380D01*
X153253809Y-57802380D02*
X153253809Y-56802380D01*
X153158571Y-56945238D01*
X153063333Y-57040476D01*
X152968095Y-57088095D01*
%TO.C,C6*%
X166163333Y-63787142D02*
X166115714Y-63834761D01*
X165972857Y-63882380D01*
X165877619Y-63882380D01*
X165734761Y-63834761D01*
X165639523Y-63739523D01*
X165591904Y-63644285D01*
X165544285Y-63453809D01*
X165544285Y-63310952D01*
X165591904Y-63120476D01*
X165639523Y-63025238D01*
X165734761Y-62930000D01*
X165877619Y-62882380D01*
X165972857Y-62882380D01*
X166115714Y-62930000D01*
X166163333Y-62977619D01*
X167020476Y-62882380D02*
X166830000Y-62882380D01*
X166734761Y-62930000D01*
X166687142Y-62977619D01*
X166591904Y-63120476D01*
X166544285Y-63310952D01*
X166544285Y-63691904D01*
X166591904Y-63787142D01*
X166639523Y-63834761D01*
X166734761Y-63882380D01*
X166925238Y-63882380D01*
X167020476Y-63834761D01*
X167068095Y-63787142D01*
X167115714Y-63691904D01*
X167115714Y-63453809D01*
X167068095Y-63358571D01*
X167020476Y-63310952D01*
X166925238Y-63263333D01*
X166734761Y-63263333D01*
X166639523Y-63310952D01*
X166591904Y-63358571D01*
X166544285Y-63453809D01*
%TO.C,R5*%
X156863333Y-54682380D02*
X156530000Y-54206190D01*
X156291904Y-54682380D02*
X156291904Y-53682380D01*
X156672857Y-53682380D01*
X156768095Y-53730000D01*
X156815714Y-53777619D01*
X156863333Y-53872857D01*
X156863333Y-54015714D01*
X156815714Y-54110952D01*
X156768095Y-54158571D01*
X156672857Y-54206190D01*
X156291904Y-54206190D01*
X157768095Y-53682380D02*
X157291904Y-53682380D01*
X157244285Y-54158571D01*
X157291904Y-54110952D01*
X157387142Y-54063333D01*
X157625238Y-54063333D01*
X157720476Y-54110952D01*
X157768095Y-54158571D01*
X157815714Y-54253809D01*
X157815714Y-54491904D01*
X157768095Y-54587142D01*
X157720476Y-54634761D01*
X157625238Y-54682380D01*
X157387142Y-54682380D01*
X157291904Y-54634761D01*
X157244285Y-54587142D01*
%TO.C,Q1*%
X98047619Y-87595238D02*
X98000000Y-87690476D01*
X97904761Y-87785714D01*
X97761904Y-87928571D01*
X97714285Y-88023809D01*
X97714285Y-88119047D01*
X97952380Y-88071428D02*
X97904761Y-88166666D01*
X97809523Y-88261904D01*
X97619047Y-88309523D01*
X97285714Y-88309523D01*
X97095238Y-88261904D01*
X97000000Y-88166666D01*
X96952380Y-88071428D01*
X96952380Y-87880952D01*
X97000000Y-87785714D01*
X97095238Y-87690476D01*
X97285714Y-87642857D01*
X97619047Y-87642857D01*
X97809523Y-87690476D01*
X97904761Y-87785714D01*
X97952380Y-87880952D01*
X97952380Y-88071428D01*
X97952380Y-86690476D02*
X97952380Y-87261904D01*
X97952380Y-86976190D02*
X96952380Y-86976190D01*
X97095238Y-87071428D01*
X97190476Y-87166666D01*
X97238095Y-87261904D01*
%TO.C,D6*%
X144361904Y-96552380D02*
X144361904Y-95552380D01*
X144600000Y-95552380D01*
X144742857Y-95600000D01*
X144838095Y-95695238D01*
X144885714Y-95790476D01*
X144933333Y-95980952D01*
X144933333Y-96123809D01*
X144885714Y-96314285D01*
X144838095Y-96409523D01*
X144742857Y-96504761D01*
X144600000Y-96552380D01*
X144361904Y-96552380D01*
X145790476Y-95552380D02*
X145600000Y-95552380D01*
X145504761Y-95600000D01*
X145457142Y-95647619D01*
X145361904Y-95790476D01*
X145314285Y-95980952D01*
X145314285Y-96361904D01*
X145361904Y-96457142D01*
X145409523Y-96504761D01*
X145504761Y-96552380D01*
X145695238Y-96552380D01*
X145790476Y-96504761D01*
X145838095Y-96457142D01*
X145885714Y-96361904D01*
X145885714Y-96123809D01*
X145838095Y-96028571D01*
X145790476Y-95980952D01*
X145695238Y-95933333D01*
X145504761Y-95933333D01*
X145409523Y-95980952D01*
X145361904Y-96028571D01*
X145314285Y-96123809D01*
%TO.C,R6*%
X98102380Y-83266666D02*
X97626190Y-83600000D01*
X98102380Y-83838095D02*
X97102380Y-83838095D01*
X97102380Y-83457142D01*
X97150000Y-83361904D01*
X97197619Y-83314285D01*
X97292857Y-83266666D01*
X97435714Y-83266666D01*
X97530952Y-83314285D01*
X97578571Y-83361904D01*
X97626190Y-83457142D01*
X97626190Y-83838095D01*
X97102380Y-82409523D02*
X97102380Y-82600000D01*
X97150000Y-82695238D01*
X97197619Y-82742857D01*
X97340476Y-82838095D01*
X97530952Y-82885714D01*
X97911904Y-82885714D01*
X98007142Y-82838095D01*
X98054761Y-82790476D01*
X98102380Y-82695238D01*
X98102380Y-82504761D01*
X98054761Y-82409523D01*
X98007142Y-82361904D01*
X97911904Y-82314285D01*
X97673809Y-82314285D01*
X97578571Y-82361904D01*
X97530952Y-82409523D01*
X97483333Y-82504761D01*
X97483333Y-82695238D01*
X97530952Y-82790476D01*
X97578571Y-82838095D01*
X97673809Y-82885714D01*
%TO.C,C7*%
X166163333Y-68307142D02*
X166115714Y-68354761D01*
X165972857Y-68402380D01*
X165877619Y-68402380D01*
X165734761Y-68354761D01*
X165639523Y-68259523D01*
X165591904Y-68164285D01*
X165544285Y-67973809D01*
X165544285Y-67830952D01*
X165591904Y-67640476D01*
X165639523Y-67545238D01*
X165734761Y-67450000D01*
X165877619Y-67402380D01*
X165972857Y-67402380D01*
X166115714Y-67450000D01*
X166163333Y-67497619D01*
X166496666Y-67402380D02*
X167163333Y-67402380D01*
X166734761Y-68402380D01*
%TO.C,Q7*%
X137947619Y-87695238D02*
X137900000Y-87790476D01*
X137804761Y-87885714D01*
X137661904Y-88028571D01*
X137614285Y-88123809D01*
X137614285Y-88219047D01*
X137852380Y-88171428D02*
X137804761Y-88266666D01*
X137709523Y-88361904D01*
X137519047Y-88409523D01*
X137185714Y-88409523D01*
X136995238Y-88361904D01*
X136900000Y-88266666D01*
X136852380Y-88171428D01*
X136852380Y-87980952D01*
X136900000Y-87885714D01*
X136995238Y-87790476D01*
X137185714Y-87742857D01*
X137519047Y-87742857D01*
X137709523Y-87790476D01*
X137804761Y-87885714D01*
X137852380Y-87980952D01*
X137852380Y-88171428D01*
X136852380Y-87409523D02*
X136852380Y-86742857D01*
X137852380Y-87171428D01*
%TO.C,R4*%
X157763333Y-61802380D02*
X157430000Y-61326190D01*
X157191904Y-61802380D02*
X157191904Y-60802380D01*
X157572857Y-60802380D01*
X157668095Y-60850000D01*
X157715714Y-60897619D01*
X157763333Y-60992857D01*
X157763333Y-61135714D01*
X157715714Y-61230952D01*
X157668095Y-61278571D01*
X157572857Y-61326190D01*
X157191904Y-61326190D01*
X158620476Y-61135714D02*
X158620476Y-61802380D01*
X158382380Y-60754761D02*
X158144285Y-61469047D01*
X158763333Y-61469047D01*
D12*
%TO.C,Q2*%
X106560000Y-87500000D02*
X106560000Y-88150000D01*
X106560000Y-87500000D02*
X106560000Y-85825000D01*
X103440000Y-87500000D02*
X103440000Y-86850000D01*
X103440000Y-87500000D02*
X103440000Y-88150000D01*
%TO.C,R1*%
X149992742Y-56272500D02*
X150467258Y-56272500D01*
X149992742Y-55227500D02*
X150467258Y-55227500D01*
%TO.C,R13*%
X112072936Y-83165000D02*
X112527064Y-83165000D01*
X112072936Y-84635000D02*
X112527064Y-84635000D01*
%TO.C,C5*%
X164100000Y-60901252D02*
X164100000Y-59478748D01*
X166820000Y-60901252D02*
X166820000Y-59478748D01*
%TO.C,D4*%
X128650000Y-90950000D02*
X122950000Y-90950000D01*
X128650000Y-95250000D02*
X128650000Y-90950000D01*
X128650000Y-95250000D02*
X122950000Y-95250000D01*
%TO.C,J10*%
X126500000Y-100460000D02*
X126500000Y-98340000D01*
X122500000Y-100460000D02*
X121440000Y-100460000D01*
X121440000Y-100460000D02*
X121440000Y-99400000D01*
X126500000Y-100460000D02*
X128560000Y-100460000D01*
X126500000Y-98340000D02*
X128560000Y-98340000D01*
X128560000Y-100460000D02*
X128560000Y-98340000D01*
%TO.C,Q8*%
X143440000Y-87600000D02*
X143440000Y-88250000D01*
X143440000Y-87600000D02*
X143440000Y-86950000D01*
X146560000Y-87600000D02*
X146560000Y-85925000D01*
X146560000Y-87600000D02*
X146560000Y-88250000D01*
%TO.C,J3*%
X150500000Y-48440000D02*
X148440000Y-48440000D01*
X148440000Y-48440000D02*
X148440000Y-50560000D01*
X154500000Y-48440000D02*
X155560000Y-48440000D01*
X155560000Y-48440000D02*
X155560000Y-49500000D01*
X150500000Y-50560000D02*
X148440000Y-50560000D01*
X150500000Y-48440000D02*
X150500000Y-50560000D01*
%TO.C,Q6*%
X126760000Y-87600000D02*
X126760000Y-85925000D01*
X123640000Y-87600000D02*
X123640000Y-86950000D01*
X123640000Y-87600000D02*
X123640000Y-88250000D01*
X126760000Y-87600000D02*
X126760000Y-88250000D01*
%TO.C,R3*%
X153952500Y-54712742D02*
X153952500Y-55187258D01*
X152907500Y-54712742D02*
X152907500Y-55187258D01*
%TO.C,J7*%
X157900000Y-98340000D02*
X159960000Y-98340000D01*
X153900000Y-100460000D02*
X152840000Y-100460000D01*
X152840000Y-100460000D02*
X152840000Y-99400000D01*
X159960000Y-100460000D02*
X159960000Y-98340000D01*
X157900000Y-100460000D02*
X157900000Y-98340000D01*
X157900000Y-100460000D02*
X159960000Y-100460000D01*
%TO.C,J1*%
X96500000Y-100460000D02*
X96500000Y-98340000D01*
X91440000Y-100460000D02*
X91440000Y-99400000D01*
X96500000Y-98340000D02*
X98560000Y-98340000D01*
X98560000Y-100460000D02*
X98560000Y-98340000D01*
X96500000Y-100460000D02*
X98560000Y-100460000D01*
X92500000Y-100460000D02*
X91440000Y-100460000D01*
%TO.C,R2*%
X156752500Y-59587258D02*
X156752500Y-59112742D01*
X155707500Y-59587258D02*
X155707500Y-59112742D01*
%TO.C,R9*%
X101972936Y-84635000D02*
X102427064Y-84635000D01*
X101972936Y-83165000D02*
X102427064Y-83165000D01*
%TO.C,C2*%
X146220000Y-60738748D02*
X146220000Y-62161252D01*
X148040000Y-60738748D02*
X148040000Y-62161252D01*
%TO.C,R20*%
X147135000Y-83072936D02*
X147135000Y-83527064D01*
X145665000Y-83072936D02*
X145665000Y-83527064D01*
%TO.C,R15*%
X162572936Y-89465000D02*
X163027064Y-89465000D01*
X162572936Y-90935000D02*
X163027064Y-90935000D01*
%TO.C,R12*%
X115165000Y-82872936D02*
X115165000Y-83327064D01*
X116635000Y-82872936D02*
X116635000Y-83327064D01*
%TO.C,R8*%
X106635000Y-82872936D02*
X106635000Y-83327064D01*
X105165000Y-82872936D02*
X105165000Y-83327064D01*
%TO.C,D1*%
X98650000Y-90950000D02*
X92950000Y-90950000D01*
X98650000Y-95250000D02*
X98650000Y-90950000D01*
X98650000Y-95250000D02*
X92950000Y-95250000D01*
%TO.C,J4*%
X158640000Y-48440000D02*
X158640000Y-50560000D01*
X160700000Y-50560000D02*
X158640000Y-50560000D01*
X160700000Y-48440000D02*
X160700000Y-50560000D01*
X164700000Y-48440000D02*
X165760000Y-48440000D01*
X165760000Y-48440000D02*
X165760000Y-49500000D01*
X160700000Y-48440000D02*
X158640000Y-48440000D01*
%TO.C,C4*%
X162030000Y-60901252D02*
X162030000Y-59478748D01*
X159310000Y-60901252D02*
X159310000Y-59478748D01*
%TO.C,D2*%
X108650000Y-90950000D02*
X102950000Y-90950000D01*
X108650000Y-95250000D02*
X108650000Y-90950000D01*
X108650000Y-95250000D02*
X102950000Y-95250000D01*
%TO.C,Q5*%
X164640000Y-94000000D02*
X164640000Y-93350000D01*
X167760000Y-94000000D02*
X167760000Y-92325000D01*
X164640000Y-94000000D02*
X164640000Y-94650000D01*
X167760000Y-94000000D02*
X167760000Y-94650000D01*
%TO.C,D3*%
X118650000Y-95250000D02*
X112950000Y-95250000D01*
X118650000Y-90950000D02*
X112950000Y-90950000D01*
X118650000Y-95250000D02*
X118650000Y-90950000D01*
%TO.C,R19*%
X133072936Y-84635000D02*
X133527064Y-84635000D01*
X133072936Y-83165000D02*
X133527064Y-83165000D01*
%TO.C,C3*%
X149840000Y-60509420D02*
X149840000Y-60790580D01*
X148820000Y-60509420D02*
X148820000Y-60790580D01*
%TO.C,J6*%
X102500000Y-100460000D02*
X101440000Y-100460000D01*
X106500000Y-100460000D02*
X108560000Y-100460000D01*
X101440000Y-100460000D02*
X101440000Y-99400000D01*
X108560000Y-100460000D02*
X108560000Y-98340000D01*
X106500000Y-100460000D02*
X106500000Y-98340000D01*
X106500000Y-98340000D02*
X108560000Y-98340000D01*
%TO.C,J9*%
X167900000Y-100460000D02*
X169960000Y-100460000D01*
X169960000Y-100460000D02*
X169960000Y-98340000D01*
X167900000Y-98340000D02*
X169960000Y-98340000D01*
X167900000Y-100460000D02*
X167900000Y-98340000D01*
X162840000Y-100460000D02*
X162840000Y-99400000D01*
X163900000Y-100460000D02*
X162840000Y-100460000D01*
%TO.C,R21*%
X142572936Y-83265000D02*
X143027064Y-83265000D01*
X142572936Y-84735000D02*
X143027064Y-84735000D01*
%TO.C,J13*%
X146500000Y-98330000D02*
X148560000Y-98330000D01*
X146500000Y-100450000D02*
X148560000Y-100450000D01*
X148560000Y-100450000D02*
X148560000Y-98330000D01*
X146500000Y-100450000D02*
X146500000Y-98330000D01*
X141440000Y-100450000D02*
X141440000Y-99390000D01*
X142500000Y-100450000D02*
X141440000Y-100450000D01*
%TO.C,R16*%
X125365000Y-82872936D02*
X125365000Y-83327064D01*
X126835000Y-82872936D02*
X126835000Y-83327064D01*
%TO.C,R18*%
X137535000Y-82872936D02*
X137535000Y-83327064D01*
X136065000Y-82872936D02*
X136065000Y-83327064D01*
%TO.C,J11*%
X136500000Y-100460000D02*
X138560000Y-100460000D01*
X136500000Y-98340000D02*
X138560000Y-98340000D01*
X138560000Y-100460000D02*
X138560000Y-98340000D01*
X132500000Y-100460000D02*
X131440000Y-100460000D01*
X131440000Y-100460000D02*
X131440000Y-99400000D01*
X136500000Y-100460000D02*
X136500000Y-98340000D01*
%TO.C,R10*%
X155965000Y-88972936D02*
X155965000Y-89427064D01*
X157435000Y-88972936D02*
X157435000Y-89427064D01*
%TO.C,Q4*%
X116560000Y-87600000D02*
X116560000Y-85925000D01*
X113440000Y-87600000D02*
X113440000Y-86950000D01*
X116560000Y-87600000D02*
X116560000Y-88250000D01*
X113440000Y-87600000D02*
X113440000Y-88250000D01*
%TO.C,J5*%
X86120000Y-65250000D02*
X86120000Y-63920000D01*
X88780000Y-66520000D02*
X88780000Y-86900000D01*
X86120000Y-66520000D02*
X86120000Y-86900000D01*
X86120000Y-86900000D02*
X88780000Y-86900000D01*
X86120000Y-66520000D02*
X88780000Y-66520000D01*
X86120000Y-63920000D02*
X87450000Y-63920000D01*
%TO.C,R11*%
X153072936Y-90835000D02*
X153527064Y-90835000D01*
X153072936Y-89365000D02*
X153527064Y-89365000D01*
%TO.C,Q3*%
X158360000Y-94000000D02*
X158360000Y-92325000D01*
X158360000Y-94000000D02*
X158360000Y-94650000D01*
X155240000Y-94000000D02*
X155240000Y-94650000D01*
X155240000Y-94000000D02*
X155240000Y-93350000D01*
%TO.C,D5*%
X138650000Y-95250000D02*
X132950000Y-95250000D01*
X138650000Y-90950000D02*
X132950000Y-90950000D01*
X138650000Y-95250000D02*
X138650000Y-90950000D01*
%TO.C,R17*%
X122272936Y-84635000D02*
X122727064Y-84635000D01*
X122272936Y-83165000D02*
X122727064Y-83165000D01*
%TO.C,R7*%
X92172936Y-83165000D02*
X92627064Y-83165000D01*
X92172936Y-84635000D02*
X92627064Y-84635000D01*
%TO.C,SW1*%
X120500000Y-66900000D02*
X118700000Y-66900000D01*
X122300000Y-66900000D02*
X122300000Y-58500000D01*
X122300000Y-58500000D02*
X118700000Y-58500000D01*
X120500000Y-66900000D02*
X122300000Y-66900000D01*
X118700000Y-58500000D02*
X118700000Y-66900000D01*
%TO.C,C1*%
X145240000Y-60738748D02*
X145240000Y-62161252D01*
X143420000Y-60738748D02*
X143420000Y-62161252D01*
%TO.C,R14*%
X165465000Y-89072936D02*
X165465000Y-89527064D01*
X166935000Y-89072936D02*
X166935000Y-89527064D01*
%TO.C,U1*%
X153380000Y-59950000D02*
X152080000Y-59950000D01*
X151830000Y-58150000D02*
X153380000Y-58150000D01*
%TO.C,C6*%
X165618748Y-67090000D02*
X167041252Y-67090000D01*
X165618748Y-64370000D02*
X167041252Y-64370000D01*
%TO.C,R5*%
X156302936Y-56960000D02*
X157757064Y-56960000D01*
X156302936Y-55140000D02*
X157757064Y-55140000D01*
%TO.C,Q1*%
X96660000Y-87500000D02*
X96660000Y-85825000D01*
X93540000Y-87500000D02*
X93540000Y-86850000D01*
X96660000Y-87500000D02*
X96660000Y-88150000D01*
X93540000Y-87500000D02*
X93540000Y-88150000D01*
%TO.C,D6*%
X148650000Y-95250000D02*
X148650000Y-90950000D01*
X148650000Y-90950000D02*
X142950000Y-90950000D01*
X148650000Y-95250000D02*
X142950000Y-95250000D01*
%TO.C,J8*%
X116500000Y-100460000D02*
X116500000Y-98340000D01*
X112500000Y-100460000D02*
X111440000Y-100460000D01*
X111440000Y-100460000D02*
X111440000Y-99400000D01*
X116500000Y-100460000D02*
X118560000Y-100460000D01*
X116500000Y-98340000D02*
X118560000Y-98340000D01*
X118560000Y-100460000D02*
X118560000Y-98340000D01*
%TO.C,R6*%
X96735000Y-82872936D02*
X96735000Y-83327064D01*
X95265000Y-82872936D02*
X95265000Y-83327064D01*
%TO.C,LIHLP4040DZER2R2M1*%
X150407500Y-71882500D02*
X150407500Y-74287500D01*
X160767500Y-74287500D02*
X160767500Y-71882500D01*
X150407500Y-66332500D02*
X150407500Y-63927500D01*
X160767500Y-63927500D02*
X160767500Y-66332500D01*
X150407500Y-63927500D02*
X160767500Y-63927500D01*
X150407500Y-74287500D02*
X160767500Y-74287500D01*
%TO.C,C7*%
X165618748Y-68890000D02*
X167041252Y-68890000D01*
X165618748Y-71610000D02*
X167041252Y-71610000D01*
%TO.C,J2*%
X140472500Y-48427500D02*
X138412500Y-48427500D01*
X138412500Y-48427500D02*
X138412500Y-50547500D01*
X144472500Y-48427500D02*
X145532500Y-48427500D01*
X140472500Y-50547500D02*
X138412500Y-50547500D01*
X140472500Y-48427500D02*
X140472500Y-50547500D01*
X145532500Y-48427500D02*
X145532500Y-49487500D01*
%TO.C,J12*%
X130482500Y-48437500D02*
X128422500Y-48437500D01*
X135542500Y-48437500D02*
X135542500Y-49497500D01*
X130482500Y-50557500D02*
X128422500Y-50557500D01*
X128422500Y-48437500D02*
X128422500Y-50557500D01*
X130482500Y-48437500D02*
X130482500Y-50557500D01*
X134482500Y-48437500D02*
X135542500Y-48437500D01*
%TO.C,Q7*%
X133440000Y-87600000D02*
X133440000Y-86950000D01*
X136560000Y-87600000D02*
X136560000Y-85925000D01*
X136560000Y-87600000D02*
X136560000Y-88250000D01*
X133440000Y-87600000D02*
X133440000Y-88250000D01*
%TO.C,R4*%
X155192742Y-62572500D02*
X155667258Y-62572500D01*
X155192742Y-61527500D02*
X155667258Y-61527500D01*
%TD*%
%LPC*%
D13*
%TO.C,Q2*%
X105950000Y-86562500D03*
X104050000Y-86562500D03*
X105000000Y-88437500D03*
%TD*%
D14*
%TO.C,R1*%
X151055000Y-55750000D03*
X149405000Y-55750000D03*
%TD*%
D15*
%TO.C,H9*%
X84900000Y-49000000D03*
%TD*%
D16*
%TO.C,R13*%
X111387500Y-83900000D03*
X113212500Y-83900000D03*
%TD*%
D17*
%TO.C,H5*%
X110100000Y-57900000D03*
%TD*%
D18*
%TO.C,C5*%
X165460000Y-58715000D03*
X165460000Y-61665000D03*
%TD*%
D19*
%TO.C,D4*%
X127250000Y-93100000D03*
X122950000Y-93100000D03*
%TD*%
D20*
%TO.C,J10*%
X122500000Y-99400000D03*
D21*
X127500000Y-99400000D03*
%TD*%
D13*
%TO.C,Q8*%
X145950000Y-86662500D03*
X144050000Y-86662500D03*
X145000000Y-88537500D03*
%TD*%
D21*
%TO.C,J3*%
X149500000Y-49500000D03*
D20*
X154500000Y-49500000D03*
%TD*%
D13*
%TO.C,Q6*%
X126150000Y-86662500D03*
X124250000Y-86662500D03*
X125200000Y-88537500D03*
%TD*%
D22*
%TO.C,R3*%
X153430000Y-55775000D03*
X153430000Y-54125000D03*
%TD*%
D20*
%TO.C,J7*%
X153900000Y-99400000D03*
D21*
X158900000Y-99400000D03*
%TD*%
D20*
%TO.C,J1*%
X92500000Y-99400000D03*
D21*
X97500000Y-99400000D03*
%TD*%
D23*
%TO.C,R2*%
X156230000Y-58525000D03*
X156230000Y-60175000D03*
%TD*%
D16*
%TO.C,R9*%
X101287500Y-83900000D03*
X103112500Y-83900000D03*
%TD*%
D24*
%TO.C,C2*%
X147130000Y-62925000D03*
X147130000Y-59975000D03*
%TD*%
D25*
%TO.C,R20*%
X146400000Y-82387500D03*
X146400000Y-84212500D03*
%TD*%
D16*
%TO.C,R15*%
X161887500Y-90200000D03*
X163712500Y-90200000D03*
%TD*%
D25*
%TO.C,R12*%
X115900000Y-82187500D03*
X115900000Y-84012500D03*
%TD*%
%TO.C,R8*%
X105900000Y-82187500D03*
X105900000Y-84012500D03*
%TD*%
D19*
%TO.C,D1*%
X97250000Y-93100000D03*
X92950000Y-93100000D03*
%TD*%
D17*
%TO.C,H6*%
X104400000Y-57900000D03*
%TD*%
D15*
%TO.C,H10*%
X175900000Y-100000000D03*
%TD*%
D21*
%TO.C,J4*%
X159700000Y-49500000D03*
D20*
X164700000Y-49500000D03*
%TD*%
D18*
%TO.C,C4*%
X160670000Y-58715000D03*
X160670000Y-61665000D03*
%TD*%
D19*
%TO.C,D2*%
X107250000Y-93100000D03*
X102950000Y-93100000D03*
%TD*%
D13*
%TO.C,Q5*%
X167150000Y-93062500D03*
X165250000Y-93062500D03*
X166200000Y-94937500D03*
%TD*%
D19*
%TO.C,D3*%
X117250000Y-93100000D03*
X112950000Y-93100000D03*
%TD*%
D16*
%TO.C,R19*%
X132387500Y-83900000D03*
X134212500Y-83900000D03*
%TD*%
D17*
%TO.C,H2*%
X98600000Y-65200000D03*
%TD*%
D26*
%TO.C,C3*%
X149330000Y-61425000D03*
X149330000Y-59875000D03*
%TD*%
D20*
%TO.C,J6*%
X102500000Y-99400000D03*
D21*
X107500000Y-99400000D03*
%TD*%
D20*
%TO.C,J9*%
X163900000Y-99400000D03*
D21*
X168900000Y-99400000D03*
%TD*%
D16*
%TO.C,R21*%
X141887500Y-84000000D03*
X143712500Y-84000000D03*
%TD*%
D20*
%TO.C,J13*%
X142500000Y-99390000D03*
D21*
X147500000Y-99390000D03*
%TD*%
D25*
%TO.C,R16*%
X126100000Y-82187500D03*
X126100000Y-84012500D03*
%TD*%
%TO.C,R18*%
X136800000Y-82187500D03*
X136800000Y-84012500D03*
%TD*%
D20*
%TO.C,J11*%
X132500000Y-99400000D03*
D21*
X137500000Y-99400000D03*
%TD*%
D17*
%TO.C,H3*%
X110000000Y-65200000D03*
%TD*%
D25*
%TO.C,R10*%
X156700000Y-88287500D03*
X156700000Y-90112500D03*
%TD*%
D13*
%TO.C,Q4*%
X115950000Y-86662500D03*
X114050000Y-86662500D03*
X115000000Y-88537500D03*
%TD*%
D27*
%TO.C,J5*%
X87450000Y-65250000D03*
D28*
X87450000Y-67790000D03*
X87450000Y-70330000D03*
X87450000Y-72870000D03*
X87450000Y-75410000D03*
X87450000Y-77950000D03*
X87450000Y-80490000D03*
X87450000Y-83030000D03*
X87450000Y-85570000D03*
%TD*%
D16*
%TO.C,R11*%
X152387500Y-90100000D03*
X154212500Y-90100000D03*
%TD*%
D13*
%TO.C,Q3*%
X157750000Y-93062500D03*
X155850000Y-93062500D03*
X156800000Y-94937500D03*
%TD*%
D19*
%TO.C,D5*%
X137250000Y-93100000D03*
X132950000Y-93100000D03*
%TD*%
D15*
%TO.C,H8*%
X84900000Y-100000000D03*
%TD*%
D16*
%TO.C,R17*%
X121587500Y-83900000D03*
X123412500Y-83900000D03*
%TD*%
D17*
%TO.C,H1*%
X104400000Y-65200000D03*
%TD*%
D16*
%TO.C,R7*%
X91487500Y-83900000D03*
X93312500Y-83900000D03*
%TD*%
D21*
%TO.C,SW1*%
X120500000Y-65440000D03*
X120500000Y-62900000D03*
X120500000Y-60360000D03*
%TD*%
D15*
%TO.C,H7*%
X175900000Y-49000000D03*
%TD*%
D24*
%TO.C,C1*%
X144330000Y-62925000D03*
X144330000Y-59975000D03*
%TD*%
D25*
%TO.C,R14*%
X166200000Y-88387500D03*
X166200000Y-90212500D03*
%TD*%
D29*
%TO.C,U1*%
X153480000Y-58550000D03*
X153480000Y-59050000D03*
X153480000Y-59550000D03*
X151980000Y-59550000D03*
X151980000Y-59050000D03*
X151980000Y-58550000D03*
%TD*%
D30*
%TO.C,C6*%
X167805000Y-65730000D03*
X164855000Y-65730000D03*
%TD*%
D31*
%TO.C,R5*%
X158492500Y-56050000D03*
X155567500Y-56050000D03*
%TD*%
D17*
%TO.C,H4*%
X98500000Y-57900000D03*
%TD*%
D13*
%TO.C,Q1*%
X96050000Y-86562500D03*
X94150000Y-86562500D03*
X95100000Y-88437500D03*
%TD*%
D19*
%TO.C,D6*%
X147250000Y-93100000D03*
X142950000Y-93100000D03*
%TD*%
D20*
%TO.C,J8*%
X112500000Y-99400000D03*
D21*
X117500000Y-99400000D03*
%TD*%
D25*
%TO.C,R6*%
X96000000Y-82187500D03*
X96000000Y-84012500D03*
%TD*%
D32*
%TO.C,LIHLP4040DZER2R2M1*%
X160095000Y-69107500D03*
X151080000Y-69107500D03*
%TD*%
D30*
%TO.C,C7*%
X167805000Y-70250000D03*
X164855000Y-70250000D03*
%TD*%
D21*
%TO.C,J2*%
X139472500Y-49487500D03*
D20*
X144472500Y-49487500D03*
%TD*%
D21*
%TO.C,J12*%
X129482500Y-49497500D03*
D20*
X134482500Y-49497500D03*
%TD*%
D13*
%TO.C,Q7*%
X135950000Y-86662500D03*
X134050000Y-86662500D03*
X135000000Y-88537500D03*
%TD*%
D14*
%TO.C,R4*%
X156255000Y-62050000D03*
X154605000Y-62050000D03*
%TD*%
D33*
X151880000Y-54360000D03*
X121912500Y-86700000D03*
X101600000Y-86500000D03*
X153220000Y-61940000D03*
X152830000Y-60850000D03*
X91900000Y-86500000D03*
X111712500Y-86700000D03*
X142000000Y-86500000D03*
X132712500Y-86600000D03*
X147130000Y-65450000D03*
X152712500Y-92800000D03*
X162212500Y-92900000D03*
X162930000Y-57150000D03*
X169330000Y-67850000D03*
X166230000Y-73850000D03*
X170230000Y-73850000D03*
X171230000Y-73850000D03*
X168230000Y-73850000D03*
X169230000Y-73850000D03*
X173230000Y-73850000D03*
X172230000Y-73850000D03*
X167230000Y-73850000D03*
X165230000Y-73850000D03*
X164230000Y-73850000D03*
X154828999Y-59075263D03*
X154100000Y-57210000D03*
X94100000Y-81400000D03*
X104100000Y-81400000D03*
X113900000Y-81200000D03*
X124300000Y-81100000D03*
X131900000Y-81000000D03*
X155200000Y-86600000D03*
X164100000Y-87000000D03*
X143400000Y-80500000D03*
M02*
