M48
; DRILL file {KiCad (6.0.5)} date Wed Oct 19 12:43:17 2022
; FORMAT={-:-/ absolute / inch / decimal}
; #@! TF.CreationDate,2022-10-19T12:43:17-05:00
; #@! TF.GenerationSoftware,Kicad,Pcbnew,(6.0.5)
; #@! TF.FileFunction,Plated,1,4,PTH
FMAT,2
INCH
; #@! TA.AperFunction,Plated,PTH,ViaDrill
T1C0.0157
; #@! TA.AperFunction,Plated,PTH,ComponentDrill
T2C0.0394
; #@! TA.AperFunction,Plated,PTH,ComponentDrill
T3C0.0433
; #@! TA.AperFunction,Plated,PTH,ComponentDrill
T4C0.0866
; #@! TA.AperFunction,Plated,PTH,ComponentDrill
T5C0.1260
%
G90
G05
T1
X3.6181Y-3.4055
X3.7047Y-3.2047
X4.0Y-3.4055
X4.0984Y-3.2047
X4.3981Y-3.4134
X4.4843Y-3.1969
X4.7997Y-3.4134
X4.8937Y-3.1929
X5.1929Y-3.189
X5.2249Y-3.4094
X5.5906Y-3.4055
X5.6457Y-3.1693
X5.7925Y-2.5768
X5.9795Y-2.1402
X6.0123Y-3.6535
X6.0169Y-2.3957
X6.0323Y-2.4386
X6.0669Y-2.2524
X6.0956Y-2.3258
X6.1102Y-3.4094
X6.3863Y-3.6575
X6.4146Y-2.25
X6.4606Y-3.4252
X6.4657Y-2.9075
X6.5051Y-2.9075
X6.5445Y-2.9075
X6.5839Y-2.9075
X6.6232Y-2.9075
X6.6626Y-2.9075
X6.6665Y-2.6713
X6.702Y-2.9075
X6.7413Y-2.9075
X6.7807Y-2.9075
X6.8201Y-2.9075
T2
X3.4429Y-2.5689
X3.4429Y-2.6689
X3.4429Y-2.7689
X3.4429Y-2.8689
X3.4429Y-2.9689
X3.4429Y-3.0689
X3.4429Y-3.1689
X3.4429Y-3.2689
X3.4429Y-3.3689
X4.7441Y-2.3764
X4.7441Y-2.4764
X4.7441Y-2.5764
T3
X3.6417Y-3.9134
X3.8386Y-3.9134
X4.0354Y-3.9134
X4.2323Y-3.9134
X4.4291Y-3.9134
X4.626Y-3.9134
X4.8228Y-3.9134
X5.0197Y-3.9134
X5.0977Y-1.9487
X5.2165Y-3.9134
X5.2946Y-1.9487
X5.4134Y-3.9134
X5.491Y-1.9483
X5.6102Y-3.913
X5.6879Y-1.9483
X5.8071Y-3.913
X5.8858Y-1.9488
X6.0591Y-3.9134
X6.0827Y-1.9488
X6.2559Y-3.9134
X6.2874Y-1.9488
X6.4528Y-3.9134
X6.4843Y-1.9488
X6.6496Y-3.9134
T4
X3.878Y-2.2795
X3.8819Y-2.5669
X4.1102Y-2.2795
X4.1102Y-2.5669
X4.3307Y-2.5669
X4.3346Y-2.2795
T5
X3.3425Y-1.9291
X3.3425Y-3.937
X6.9252Y-1.9291
X6.9252Y-3.937
T0
M30
