%TF.GenerationSoftware,KiCad,Pcbnew,(6.0.5)*%
%TF.CreationDate,2022-10-19T12:43:17-05:00*%
%TF.ProjectId,powerPCB,706f7765-7250-4434-922e-6b696361645f,rev?*%
%TF.SameCoordinates,Original*%
%TF.FileFunction,Soldermask,Top*%
%TF.FilePolarity,Negative*%
%FSLAX46Y46*%
G04 Gerber Fmt 4.6, Leading zero omitted, Abs format (unit mm)*
G04 Created by KiCad (PCBNEW (6.0.5)) date 2022-10-19 12:43:17*
%MOMM*%
%LPD*%
G01*
G04 APERTURE LIST*
G04 Aperture macros list*
%AMRoundRect*
0 Rectangle with rounded corners*
0 $1 Rounding radius*
0 $2 $3 $4 $5 $6 $7 $8 $9 X,Y pos of 4 corners*
0 Add a 4 corners polygon primitive as box body*
4,1,4,$2,$3,$4,$5,$6,$7,$8,$9,$2,$3,0*
0 Add four circle primitives for the rounded corners*
1,1,$1+$1,$2,$3*
1,1,$1+$1,$4,$5*
1,1,$1+$1,$6,$7*
1,1,$1+$1,$8,$9*
0 Add four rect primitives between the rounded corners*
20,1,$1+$1,$2,$3,$4,$5,0*
20,1,$1+$1,$4,$5,$6,$7,0*
20,1,$1+$1,$6,$7,$8,$9,0*
20,1,$1+$1,$8,$9,$2,$3,0*%
G04 Aperture macros list end*
%ADD10RoundRect,0.150000X-0.150000X0.587500X-0.150000X-0.587500X0.150000X-0.587500X0.150000X0.587500X0*%
%ADD11RoundRect,0.200000X-0.200000X-0.275000X0.200000X-0.275000X0.200000X0.275000X-0.200000X0.275000X0*%
%ADD12C,5.600000*%
%ADD13RoundRect,0.250000X-0.262500X-0.450000X0.262500X-0.450000X0.262500X0.450000X-0.262500X0.450000X0*%
%ADD14C,3.800000*%
%ADD15RoundRect,0.250000X1.100000X-0.325000X1.100000X0.325000X-1.100000X0.325000X-1.100000X-0.325000X0*%
%ADD16R,2.500000X2.300000*%
%ADD17R,1.800000X1.800000*%
%ADD18O,1.800000X1.800000*%
%ADD19RoundRect,0.200000X-0.275000X0.200000X-0.275000X-0.200000X0.275000X-0.200000X0.275000X0.200000X0*%
%ADD20RoundRect,0.200000X0.275000X-0.200000X0.275000X0.200000X-0.275000X0.200000X-0.275000X-0.200000X0*%
%ADD21RoundRect,0.250000X-0.650000X0.325000X-0.650000X-0.325000X0.650000X-0.325000X0.650000X0.325000X0*%
%ADD22RoundRect,0.250000X-0.450000X0.262500X-0.450000X-0.262500X0.450000X-0.262500X0.450000X0.262500X0*%
%ADD23RoundRect,0.225000X-0.250000X0.225000X-0.250000X-0.225000X0.250000X-0.225000X0.250000X0.225000X0*%
%ADD24R,1.700000X1.700000*%
%ADD25O,1.700000X1.700000*%
%ADD26R,0.700000X0.340000*%
%ADD27RoundRect,0.250000X-0.325000X-1.100000X0.325000X-1.100000X0.325000X1.100000X-0.325000X1.100000X0*%
%ADD28RoundRect,0.250000X-0.312500X-0.625000X0.312500X-0.625000X0.312500X0.625000X-0.312500X0.625000X0*%
%ADD29R,3.175000X4.950000*%
%ADD30C,0.800000*%
G04 APERTURE END LIST*
D10*
%TO.C,Q2*%
X105950000Y-86562500D03*
X104050000Y-86562500D03*
X105000000Y-88437500D03*
%TD*%
D11*
%TO.C,R1*%
X151055000Y-55750000D03*
X149405000Y-55750000D03*
%TD*%
D12*
%TO.C,H9*%
X84900000Y-49000000D03*
%TD*%
D13*
%TO.C,R13*%
X111387500Y-83900000D03*
X113212500Y-83900000D03*
%TD*%
D14*
%TO.C,H5*%
X110100000Y-57900000D03*
%TD*%
D15*
%TO.C,C5*%
X165460000Y-58715000D03*
X165460000Y-61665000D03*
%TD*%
D16*
%TO.C,D4*%
X127250000Y-93100000D03*
X122950000Y-93100000D03*
%TD*%
D17*
%TO.C,J10*%
X122500000Y-99400000D03*
D18*
X127500000Y-99400000D03*
%TD*%
D10*
%TO.C,Q8*%
X145950000Y-86662500D03*
X144050000Y-86662500D03*
X145000000Y-88537500D03*
%TD*%
D18*
%TO.C,J3*%
X149500000Y-49500000D03*
D17*
X154500000Y-49500000D03*
%TD*%
D10*
%TO.C,Q6*%
X126150000Y-86662500D03*
X124250000Y-86662500D03*
X125200000Y-88537500D03*
%TD*%
D19*
%TO.C,R3*%
X153430000Y-55775000D03*
X153430000Y-54125000D03*
%TD*%
D17*
%TO.C,J7*%
X153900000Y-99400000D03*
D18*
X158900000Y-99400000D03*
%TD*%
D17*
%TO.C,J1*%
X92500000Y-99400000D03*
D18*
X97500000Y-99400000D03*
%TD*%
D20*
%TO.C,R2*%
X156230000Y-58525000D03*
X156230000Y-60175000D03*
%TD*%
D13*
%TO.C,R9*%
X101287500Y-83900000D03*
X103112500Y-83900000D03*
%TD*%
D21*
%TO.C,C2*%
X147130000Y-62925000D03*
X147130000Y-59975000D03*
%TD*%
D22*
%TO.C,R20*%
X146400000Y-82387500D03*
X146400000Y-84212500D03*
%TD*%
D13*
%TO.C,R15*%
X161887500Y-90200000D03*
X163712500Y-90200000D03*
%TD*%
D22*
%TO.C,R12*%
X115900000Y-82187500D03*
X115900000Y-84012500D03*
%TD*%
%TO.C,R8*%
X105900000Y-82187500D03*
X105900000Y-84012500D03*
%TD*%
D16*
%TO.C,D1*%
X97250000Y-93100000D03*
X92950000Y-93100000D03*
%TD*%
D14*
%TO.C,H6*%
X104400000Y-57900000D03*
%TD*%
D12*
%TO.C,H10*%
X175900000Y-100000000D03*
%TD*%
D18*
%TO.C,J4*%
X159700000Y-49500000D03*
D17*
X164700000Y-49500000D03*
%TD*%
D15*
%TO.C,C4*%
X160670000Y-58715000D03*
X160670000Y-61665000D03*
%TD*%
D16*
%TO.C,D2*%
X107250000Y-93100000D03*
X102950000Y-93100000D03*
%TD*%
D10*
%TO.C,Q5*%
X167150000Y-93062500D03*
X165250000Y-93062500D03*
X166200000Y-94937500D03*
%TD*%
D16*
%TO.C,D3*%
X117250000Y-93100000D03*
X112950000Y-93100000D03*
%TD*%
D13*
%TO.C,R19*%
X132387500Y-83900000D03*
X134212500Y-83900000D03*
%TD*%
D14*
%TO.C,H2*%
X98600000Y-65200000D03*
%TD*%
D23*
%TO.C,C3*%
X149330000Y-61425000D03*
X149330000Y-59875000D03*
%TD*%
D17*
%TO.C,J6*%
X102500000Y-99400000D03*
D18*
X107500000Y-99400000D03*
%TD*%
D17*
%TO.C,J9*%
X163900000Y-99400000D03*
D18*
X168900000Y-99400000D03*
%TD*%
D13*
%TO.C,R21*%
X141887500Y-84000000D03*
X143712500Y-84000000D03*
%TD*%
D17*
%TO.C,J13*%
X142500000Y-99390000D03*
D18*
X147500000Y-99390000D03*
%TD*%
D22*
%TO.C,R16*%
X126100000Y-82187500D03*
X126100000Y-84012500D03*
%TD*%
%TO.C,R18*%
X136800000Y-82187500D03*
X136800000Y-84012500D03*
%TD*%
D17*
%TO.C,J11*%
X132500000Y-99400000D03*
D18*
X137500000Y-99400000D03*
%TD*%
D14*
%TO.C,H3*%
X110000000Y-65200000D03*
%TD*%
D22*
%TO.C,R10*%
X156700000Y-88287500D03*
X156700000Y-90112500D03*
%TD*%
D10*
%TO.C,Q4*%
X115950000Y-86662500D03*
X114050000Y-86662500D03*
X115000000Y-88537500D03*
%TD*%
D24*
%TO.C,J5*%
X87450000Y-65250000D03*
D25*
X87450000Y-67790000D03*
X87450000Y-70330000D03*
X87450000Y-72870000D03*
X87450000Y-75410000D03*
X87450000Y-77950000D03*
X87450000Y-80490000D03*
X87450000Y-83030000D03*
X87450000Y-85570000D03*
%TD*%
D13*
%TO.C,R11*%
X152387500Y-90100000D03*
X154212500Y-90100000D03*
%TD*%
D10*
%TO.C,Q3*%
X157750000Y-93062500D03*
X155850000Y-93062500D03*
X156800000Y-94937500D03*
%TD*%
D16*
%TO.C,D5*%
X137250000Y-93100000D03*
X132950000Y-93100000D03*
%TD*%
D12*
%TO.C,H8*%
X84900000Y-100000000D03*
%TD*%
D13*
%TO.C,R17*%
X121587500Y-83900000D03*
X123412500Y-83900000D03*
%TD*%
D14*
%TO.C,H1*%
X104400000Y-65200000D03*
%TD*%
D13*
%TO.C,R7*%
X91487500Y-83900000D03*
X93312500Y-83900000D03*
%TD*%
D18*
%TO.C,SW1*%
X120500000Y-65440000D03*
X120500000Y-62900000D03*
X120500000Y-60360000D03*
%TD*%
D12*
%TO.C,H7*%
X175900000Y-49000000D03*
%TD*%
D21*
%TO.C,C1*%
X144330000Y-62925000D03*
X144330000Y-59975000D03*
%TD*%
D22*
%TO.C,R14*%
X166200000Y-88387500D03*
X166200000Y-90212500D03*
%TD*%
D26*
%TO.C,U1*%
X153480000Y-58550000D03*
X153480000Y-59050000D03*
X153480000Y-59550000D03*
X151980000Y-59550000D03*
X151980000Y-59050000D03*
X151980000Y-58550000D03*
%TD*%
D27*
%TO.C,C6*%
X167805000Y-65730000D03*
X164855000Y-65730000D03*
%TD*%
D28*
%TO.C,R5*%
X158492500Y-56050000D03*
X155567500Y-56050000D03*
%TD*%
D14*
%TO.C,H4*%
X98500000Y-57900000D03*
%TD*%
D10*
%TO.C,Q1*%
X96050000Y-86562500D03*
X94150000Y-86562500D03*
X95100000Y-88437500D03*
%TD*%
D16*
%TO.C,D6*%
X147250000Y-93100000D03*
X142950000Y-93100000D03*
%TD*%
D17*
%TO.C,J8*%
X112500000Y-99400000D03*
D18*
X117500000Y-99400000D03*
%TD*%
D22*
%TO.C,R6*%
X96000000Y-82187500D03*
X96000000Y-84012500D03*
%TD*%
D29*
%TO.C,LIHLP4040DZER2R2M1*%
X160095000Y-69107500D03*
X151080000Y-69107500D03*
%TD*%
D27*
%TO.C,C7*%
X167805000Y-70250000D03*
X164855000Y-70250000D03*
%TD*%
D18*
%TO.C,J2*%
X139472500Y-49487500D03*
D17*
X144472500Y-49487500D03*
%TD*%
D18*
%TO.C,J12*%
X129482500Y-49497500D03*
D17*
X134482500Y-49497500D03*
%TD*%
D10*
%TO.C,Q7*%
X135950000Y-86662500D03*
X134050000Y-86662500D03*
X135000000Y-88537500D03*
%TD*%
D11*
%TO.C,R4*%
X156255000Y-62050000D03*
X154605000Y-62050000D03*
%TD*%
D30*
X151880000Y-54360000D03*
X121912500Y-86700000D03*
X101600000Y-86500000D03*
X153220000Y-61940000D03*
X152830000Y-60850000D03*
X91900000Y-86500000D03*
X111712500Y-86700000D03*
X142000000Y-86500000D03*
X132712500Y-86600000D03*
X147130000Y-65450000D03*
X152712500Y-92800000D03*
X162212500Y-92900000D03*
X162930000Y-57150000D03*
X169330000Y-67850000D03*
X166230000Y-73850000D03*
X170230000Y-73850000D03*
X171230000Y-73850000D03*
X168230000Y-73850000D03*
X169230000Y-73850000D03*
X173230000Y-73850000D03*
X172230000Y-73850000D03*
X167230000Y-73850000D03*
X165230000Y-73850000D03*
X164230000Y-73850000D03*
X154828999Y-59075263D03*
X154100000Y-57210000D03*
X94100000Y-81400000D03*
X104100000Y-81400000D03*
X113900000Y-81200000D03*
X124300000Y-81100000D03*
X131900000Y-81000000D03*
X155200000Y-86600000D03*
X164100000Y-87000000D03*
X143400000Y-80500000D03*
M02*
