%TF.GenerationSoftware,KiCad,Pcbnew,(6.0.5)*%
%TF.CreationDate,2022-10-19T12:43:17-05:00*%
%TF.ProjectId,powerPCB,706f7765-7250-4434-922e-6b696361645f,rev?*%
%TF.SameCoordinates,Original*%
%TF.FileFunction,Copper,L2,Inr*%
%TF.FilePolarity,Positive*%
%FSLAX46Y46*%
G04 Gerber Fmt 4.6, Leading zero omitted, Abs format (unit mm)*
G04 Created by KiCad (PCBNEW (6.0.5)) date 2022-10-19 12:43:17*
%MOMM*%
%LPD*%
G01*
G04 APERTURE LIST*
%TA.AperFunction,ComponentPad*%
%ADD10C,5.600000*%
%TD*%
%TA.AperFunction,ComponentPad*%
%ADD11C,3.800000*%
%TD*%
%TA.AperFunction,ComponentPad*%
%ADD12R,1.800000X1.800000*%
%TD*%
%TA.AperFunction,ComponentPad*%
%ADD13O,1.800000X1.800000*%
%TD*%
%TA.AperFunction,ComponentPad*%
%ADD14R,1.700000X1.700000*%
%TD*%
%TA.AperFunction,ComponentPad*%
%ADD15O,1.700000X1.700000*%
%TD*%
%TA.AperFunction,ViaPad*%
%ADD16C,0.800000*%
%TD*%
G04 APERTURE END LIST*
D10*
%TO.N,unconnected-(H9-Pad1)*%
%TO.C,H9*%
X84900000Y-49000000D03*
%TD*%
D11*
%TO.N,GND*%
%TO.C,H5*%
X110100000Y-57900000D03*
%TD*%
D12*
%TO.N,Net-(Q6-Pad3)*%
%TO.C,J10*%
X122500000Y-99400000D03*
D13*
%TO.N,+12V*%
X127500000Y-99400000D03*
%TD*%
%TO.N,GND*%
%TO.C,J3*%
X149500000Y-49500000D03*
D12*
%TO.N,+5V*%
X154500000Y-49500000D03*
%TD*%
%TO.N,Net-(J7-Pad1)*%
%TO.C,J7*%
X153900000Y-99400000D03*
D13*
%TO.N,+12V*%
X158900000Y-99400000D03*
%TD*%
D12*
%TO.N,Net-(D1-Pad2)*%
%TO.C,J1*%
X92500000Y-99400000D03*
D13*
%TO.N,+12V*%
X97500000Y-99400000D03*
%TD*%
D11*
%TO.N,GND*%
%TO.C,H6*%
X104400000Y-57900000D03*
%TD*%
D10*
%TO.N,unconnected-(H10-Pad1)*%
%TO.C,H10*%
X175900000Y-100000000D03*
%TD*%
D13*
%TO.N,GND*%
%TO.C,J4*%
X159700000Y-49500000D03*
D12*
%TO.N,+5V*%
X164700000Y-49500000D03*
%TD*%
D11*
%TO.N,/12IN*%
%TO.C,H2*%
X98600000Y-65200000D03*
%TD*%
D12*
%TO.N,Net-(D2-Pad2)*%
%TO.C,J6*%
X102500000Y-99400000D03*
D13*
%TO.N,+12V*%
X107500000Y-99400000D03*
%TD*%
D12*
%TO.N,Net-(J9-Pad1)*%
%TO.C,J9*%
X163900000Y-99400000D03*
D13*
%TO.N,+12V*%
X168900000Y-99400000D03*
%TD*%
D12*
%TO.N,Net-(D6-Pad2)*%
%TO.C,J13*%
X142500000Y-99390000D03*
D13*
%TO.N,+12V*%
X147500000Y-99390000D03*
%TD*%
D12*
%TO.N,Net-(D5-Pad2)*%
%TO.C,J11*%
X132500000Y-99400000D03*
D13*
%TO.N,+12V*%
X137500000Y-99400000D03*
%TD*%
D11*
%TO.N,/12IN*%
%TO.C,H3*%
X110000000Y-65200000D03*
%TD*%
D14*
%TO.N,GND*%
%TO.C,J5*%
X87450000Y-65250000D03*
D15*
%TO.N,GPIO19*%
X87450000Y-67790000D03*
%TO.N,GPIO13*%
X87450000Y-70330000D03*
%TO.N,GPIO6*%
X87450000Y-72870000D03*
%TO.N,GPIO5*%
X87450000Y-75410000D03*
%TO.N,GPIO22*%
X87450000Y-77950000D03*
%TO.N,GPIO27*%
X87450000Y-80490000D03*
%TO.N,GPIO17*%
X87450000Y-83030000D03*
%TO.N,GPIO4*%
X87450000Y-85570000D03*
%TD*%
D10*
%TO.N,unconnected-(H8-Pad1)*%
%TO.C,H8*%
X84900000Y-100000000D03*
%TD*%
D11*
%TO.N,/12IN*%
%TO.C,H1*%
X104400000Y-65200000D03*
%TD*%
D13*
%TO.N,unconnected-(SW1-Pad1)*%
%TO.C,SW1*%
X120500000Y-65440000D03*
%TO.N,/12IN*%
X120500000Y-62900000D03*
%TO.N,+12V*%
X120500000Y-60360000D03*
%TD*%
D10*
%TO.N,unconnected-(H7-Pad1)*%
%TO.C,H7*%
X175900000Y-49000000D03*
%TD*%
D11*
%TO.N,GND*%
%TO.C,H4*%
X98500000Y-57900000D03*
%TD*%
D12*
%TO.N,Net-(D3-Pad2)*%
%TO.C,J8*%
X112500000Y-99400000D03*
D13*
%TO.N,+12V*%
X117500000Y-99400000D03*
%TD*%
%TO.N,GND*%
%TO.C,J2*%
X139472500Y-49487500D03*
D12*
%TO.N,+5V*%
X144472500Y-49487500D03*
%TD*%
D13*
%TO.N,GND*%
%TO.C,J12*%
X129482500Y-49497500D03*
D12*
%TO.N,+5V*%
X134482500Y-49497500D03*
%TD*%
D16*
%TO.N,GND*%
X151880000Y-54360000D03*
X121912500Y-86700000D03*
X101600000Y-86500000D03*
X153220000Y-61940000D03*
X152830000Y-60850000D03*
X91900000Y-86500000D03*
X111712500Y-86700000D03*
X142000000Y-86500000D03*
X132712500Y-86600000D03*
X147130000Y-65450000D03*
X152712500Y-92800000D03*
X162212500Y-92900000D03*
X162930000Y-57150000D03*
X169330000Y-67850000D03*
%TO.N,+5V*%
X166230000Y-73850000D03*
X170230000Y-73850000D03*
X171230000Y-73850000D03*
X168230000Y-73850000D03*
X169230000Y-73850000D03*
X173230000Y-73850000D03*
X172230000Y-73850000D03*
X167230000Y-73850000D03*
X165230000Y-73850000D03*
X164230000Y-73850000D03*
%TO.N,/EN*%
X154828999Y-59075263D03*
X154100000Y-57210000D03*
%TO.N,GPIO4*%
X94100000Y-81400000D03*
%TO.N,GPIO17*%
X104100000Y-81400000D03*
%TO.N,GPIO27*%
X113900000Y-81200000D03*
%TO.N,GPIO22*%
X124300000Y-81100000D03*
%TO.N,GPIO5*%
X131900000Y-81000000D03*
%TO.N,GPIO6*%
X155200000Y-86600000D03*
%TO.N,GPIO13*%
X164100000Y-87000000D03*
%TO.N,GPIO19*%
X143400000Y-80500000D03*
%TD*%
%TA.AperFunction,Conductor*%
%TO.N,GND*%
G36*
X177370018Y-45010000D02*
G01*
X177384851Y-45012310D01*
X177384855Y-45012310D01*
X177393724Y-45013691D01*
X177410923Y-45011442D01*
X177434863Y-45010609D01*
X177692710Y-45026206D01*
X177707814Y-45028040D01*
X177779786Y-45041229D01*
X177988760Y-45079525D01*
X178003526Y-45083164D01*
X178276231Y-45168142D01*
X178290445Y-45173534D01*
X178508223Y-45271547D01*
X178550906Y-45290757D01*
X178564379Y-45297828D01*
X178808813Y-45445595D01*
X178821334Y-45454238D01*
X179046171Y-45630385D01*
X179057560Y-45640475D01*
X179259525Y-45842440D01*
X179269615Y-45853829D01*
X179445762Y-46078666D01*
X179454405Y-46091187D01*
X179602172Y-46335621D01*
X179609242Y-46349092D01*
X179726466Y-46609555D01*
X179731858Y-46623769D01*
X179762183Y-46721087D01*
X179816836Y-46896473D01*
X179820475Y-46911240D01*
X179858771Y-47120214D01*
X179871960Y-47192186D01*
X179873794Y-47207290D01*
X179888953Y-47457904D01*
X179887692Y-47484716D01*
X179887690Y-47484852D01*
X179886309Y-47493724D01*
X179887473Y-47502626D01*
X179887473Y-47502628D01*
X179890436Y-47525283D01*
X179891500Y-47541621D01*
X179891500Y-101450633D01*
X179890000Y-101470018D01*
X179887690Y-101484851D01*
X179887690Y-101484855D01*
X179886309Y-101493724D01*
X179888558Y-101510919D01*
X179889391Y-101534863D01*
X179873794Y-101792710D01*
X179871960Y-101807814D01*
X179832778Y-102021630D01*
X179820477Y-102088754D01*
X179816836Y-102103527D01*
X179731859Y-102376227D01*
X179726466Y-102390445D01*
X179661023Y-102535855D01*
X179609243Y-102650906D01*
X179602172Y-102664379D01*
X179454405Y-102908813D01*
X179445762Y-102921334D01*
X179269615Y-103146171D01*
X179259525Y-103157560D01*
X179057560Y-103359525D01*
X179046171Y-103369615D01*
X178821334Y-103545762D01*
X178808813Y-103554405D01*
X178564379Y-103702172D01*
X178550908Y-103709242D01*
X178290445Y-103826466D01*
X178276231Y-103831858D01*
X178003527Y-103916836D01*
X177988760Y-103920475D01*
X177779786Y-103958771D01*
X177707814Y-103971960D01*
X177692710Y-103973794D01*
X177442096Y-103988953D01*
X177415284Y-103987692D01*
X177415148Y-103987690D01*
X177406276Y-103986309D01*
X177397374Y-103987473D01*
X177397372Y-103987473D01*
X177382707Y-103989391D01*
X177374714Y-103990436D01*
X177358379Y-103991500D01*
X83449367Y-103991500D01*
X83429982Y-103990000D01*
X83415149Y-103987690D01*
X83415145Y-103987690D01*
X83406276Y-103986309D01*
X83389077Y-103988558D01*
X83365137Y-103989391D01*
X83107290Y-103973794D01*
X83092186Y-103971960D01*
X83020214Y-103958771D01*
X82811240Y-103920475D01*
X82796473Y-103916836D01*
X82523769Y-103831858D01*
X82509555Y-103826466D01*
X82249092Y-103709242D01*
X82235621Y-103702172D01*
X81991187Y-103554405D01*
X81978666Y-103545762D01*
X81753829Y-103369615D01*
X81742440Y-103359525D01*
X81540475Y-103157560D01*
X81530385Y-103146171D01*
X81354238Y-102921334D01*
X81345595Y-102908813D01*
X81197828Y-102664379D01*
X81190757Y-102650906D01*
X81138977Y-102535855D01*
X81073534Y-102390445D01*
X81068141Y-102376227D01*
X80983164Y-102103527D01*
X80979523Y-102088754D01*
X80967223Y-102021630D01*
X80928040Y-101807814D01*
X80926206Y-101792710D01*
X80911269Y-101545768D01*
X80912520Y-101522216D01*
X80912334Y-101522199D01*
X80912769Y-101517350D01*
X80913576Y-101512552D01*
X80913729Y-101500000D01*
X80909773Y-101472376D01*
X80908500Y-101454514D01*
X80908500Y-99988434D01*
X81586661Y-99988434D01*
X81604792Y-100346340D01*
X81605329Y-100349695D01*
X81605330Y-100349701D01*
X81635283Y-100536705D01*
X81661470Y-100700195D01*
X81756033Y-101045859D01*
X81887374Y-101379288D01*
X81918151Y-101437909D01*
X81963782Y-101524823D01*
X82053957Y-101696582D01*
X82055858Y-101699411D01*
X82055864Y-101699421D01*
X82123664Y-101800317D01*
X82253834Y-101994029D01*
X82484665Y-102268150D01*
X82743751Y-102515738D01*
X83028061Y-102733897D01*
X83060056Y-102753350D01*
X83331355Y-102918303D01*
X83331360Y-102918306D01*
X83334270Y-102920075D01*
X83337358Y-102921521D01*
X83337357Y-102921521D01*
X83655710Y-103070649D01*
X83655720Y-103070653D01*
X83658794Y-103072093D01*
X83662012Y-103073195D01*
X83662015Y-103073196D01*
X83994615Y-103187071D01*
X83994623Y-103187073D01*
X83997838Y-103188174D01*
X84347435Y-103266959D01*
X84399728Y-103272917D01*
X84700114Y-103307142D01*
X84700122Y-103307142D01*
X84703497Y-103307527D01*
X84706901Y-103307545D01*
X84706904Y-103307545D01*
X84901227Y-103308562D01*
X85061857Y-103309403D01*
X85065243Y-103309053D01*
X85065245Y-103309053D01*
X85414932Y-103272917D01*
X85414941Y-103272916D01*
X85418324Y-103272566D01*
X85421657Y-103271852D01*
X85421660Y-103271851D01*
X85594186Y-103234864D01*
X85768727Y-103197446D01*
X86108968Y-103084922D01*
X86435066Y-102936311D01*
X86590091Y-102844264D01*
X86740262Y-102755099D01*
X86740267Y-102755096D01*
X86743207Y-102753350D01*
X87029786Y-102538180D01*
X87291451Y-102293319D01*
X87525140Y-102021630D01*
X87677244Y-101800317D01*
X87726190Y-101729101D01*
X87726195Y-101729094D01*
X87728120Y-101726292D01*
X87729732Y-101723298D01*
X87729737Y-101723290D01*
X87874458Y-101454514D01*
X87898017Y-101410760D01*
X88032842Y-101078724D01*
X88043142Y-101042568D01*
X88111742Y-100801745D01*
X88131020Y-100734070D01*
X88142204Y-100668642D01*
X88190829Y-100384175D01*
X88190829Y-100384173D01*
X88191401Y-100380828D01*
X88193401Y-100348134D01*
X91091500Y-100348134D01*
X91098255Y-100410316D01*
X91149385Y-100546705D01*
X91236739Y-100663261D01*
X91353295Y-100750615D01*
X91489684Y-100801745D01*
X91551866Y-100808500D01*
X93448134Y-100808500D01*
X93510316Y-100801745D01*
X93646705Y-100750615D01*
X93763261Y-100663261D01*
X93850615Y-100546705D01*
X93901745Y-100410316D01*
X93908500Y-100348134D01*
X93908500Y-99365469D01*
X96087095Y-99365469D01*
X96087392Y-99370622D01*
X96087392Y-99370625D01*
X96093067Y-99469041D01*
X96100427Y-99596697D01*
X96101564Y-99601743D01*
X96101565Y-99601749D01*
X96133741Y-99744523D01*
X96151346Y-99822642D01*
X96153288Y-99827424D01*
X96153289Y-99827428D01*
X96236540Y-100032450D01*
X96238484Y-100037237D01*
X96359501Y-100234719D01*
X96511147Y-100409784D01*
X96689349Y-100557730D01*
X96889322Y-100674584D01*
X97105694Y-100757209D01*
X97110760Y-100758240D01*
X97110761Y-100758240D01*
X97163846Y-100769040D01*
X97332656Y-100803385D01*
X97462089Y-100808131D01*
X97558949Y-100811683D01*
X97558953Y-100811683D01*
X97564113Y-100811872D01*
X97569233Y-100811216D01*
X97569235Y-100811216D01*
X97643166Y-100801745D01*
X97793847Y-100782442D01*
X97798795Y-100780957D01*
X97798802Y-100780956D01*
X98010747Y-100717369D01*
X98015690Y-100715886D01*
X98020324Y-100713616D01*
X98219049Y-100616262D01*
X98219052Y-100616260D01*
X98223684Y-100613991D01*
X98412243Y-100479494D01*
X98544062Y-100348134D01*
X101091500Y-100348134D01*
X101098255Y-100410316D01*
X101149385Y-100546705D01*
X101236739Y-100663261D01*
X101353295Y-100750615D01*
X101489684Y-100801745D01*
X101551866Y-100808500D01*
X103448134Y-100808500D01*
X103510316Y-100801745D01*
X103646705Y-100750615D01*
X103763261Y-100663261D01*
X103850615Y-100546705D01*
X103901745Y-100410316D01*
X103908500Y-100348134D01*
X103908500Y-99365469D01*
X106087095Y-99365469D01*
X106087392Y-99370622D01*
X106087392Y-99370625D01*
X106093067Y-99469041D01*
X106100427Y-99596697D01*
X106101564Y-99601743D01*
X106101565Y-99601749D01*
X106133741Y-99744523D01*
X106151346Y-99822642D01*
X106153288Y-99827424D01*
X106153289Y-99827428D01*
X106236540Y-100032450D01*
X106238484Y-100037237D01*
X106359501Y-100234719D01*
X106511147Y-100409784D01*
X106689349Y-100557730D01*
X106889322Y-100674584D01*
X107105694Y-100757209D01*
X107110760Y-100758240D01*
X107110761Y-100758240D01*
X107163846Y-100769040D01*
X107332656Y-100803385D01*
X107462089Y-100808131D01*
X107558949Y-100811683D01*
X107558953Y-100811683D01*
X107564113Y-100811872D01*
X107569233Y-100811216D01*
X107569235Y-100811216D01*
X107643166Y-100801745D01*
X107793847Y-100782442D01*
X107798795Y-100780957D01*
X107798802Y-100780956D01*
X108010747Y-100717369D01*
X108015690Y-100715886D01*
X108020324Y-100713616D01*
X108219049Y-100616262D01*
X108219052Y-100616260D01*
X108223684Y-100613991D01*
X108412243Y-100479494D01*
X108544062Y-100348134D01*
X111091500Y-100348134D01*
X111098255Y-100410316D01*
X111149385Y-100546705D01*
X111236739Y-100663261D01*
X111353295Y-100750615D01*
X111489684Y-100801745D01*
X111551866Y-100808500D01*
X113448134Y-100808500D01*
X113510316Y-100801745D01*
X113646705Y-100750615D01*
X113763261Y-100663261D01*
X113850615Y-100546705D01*
X113901745Y-100410316D01*
X113908500Y-100348134D01*
X113908500Y-99365469D01*
X116087095Y-99365469D01*
X116087392Y-99370622D01*
X116087392Y-99370625D01*
X116093067Y-99469041D01*
X116100427Y-99596697D01*
X116101564Y-99601743D01*
X116101565Y-99601749D01*
X116133741Y-99744523D01*
X116151346Y-99822642D01*
X116153288Y-99827424D01*
X116153289Y-99827428D01*
X116236540Y-100032450D01*
X116238484Y-100037237D01*
X116359501Y-100234719D01*
X116511147Y-100409784D01*
X116689349Y-100557730D01*
X116889322Y-100674584D01*
X117105694Y-100757209D01*
X117110760Y-100758240D01*
X117110761Y-100758240D01*
X117163846Y-100769040D01*
X117332656Y-100803385D01*
X117462089Y-100808131D01*
X117558949Y-100811683D01*
X117558953Y-100811683D01*
X117564113Y-100811872D01*
X117569233Y-100811216D01*
X117569235Y-100811216D01*
X117643166Y-100801745D01*
X117793847Y-100782442D01*
X117798795Y-100780957D01*
X117798802Y-100780956D01*
X118010747Y-100717369D01*
X118015690Y-100715886D01*
X118020324Y-100713616D01*
X118219049Y-100616262D01*
X118219052Y-100616260D01*
X118223684Y-100613991D01*
X118412243Y-100479494D01*
X118544062Y-100348134D01*
X121091500Y-100348134D01*
X121098255Y-100410316D01*
X121149385Y-100546705D01*
X121236739Y-100663261D01*
X121353295Y-100750615D01*
X121489684Y-100801745D01*
X121551866Y-100808500D01*
X123448134Y-100808500D01*
X123510316Y-100801745D01*
X123646705Y-100750615D01*
X123763261Y-100663261D01*
X123850615Y-100546705D01*
X123901745Y-100410316D01*
X123908500Y-100348134D01*
X123908500Y-99365469D01*
X126087095Y-99365469D01*
X126087392Y-99370622D01*
X126087392Y-99370625D01*
X126093067Y-99469041D01*
X126100427Y-99596697D01*
X126101564Y-99601743D01*
X126101565Y-99601749D01*
X126133741Y-99744523D01*
X126151346Y-99822642D01*
X126153288Y-99827424D01*
X126153289Y-99827428D01*
X126236540Y-100032450D01*
X126238484Y-100037237D01*
X126359501Y-100234719D01*
X126511147Y-100409784D01*
X126689349Y-100557730D01*
X126889322Y-100674584D01*
X127105694Y-100757209D01*
X127110760Y-100758240D01*
X127110761Y-100758240D01*
X127163846Y-100769040D01*
X127332656Y-100803385D01*
X127462089Y-100808131D01*
X127558949Y-100811683D01*
X127558953Y-100811683D01*
X127564113Y-100811872D01*
X127569233Y-100811216D01*
X127569235Y-100811216D01*
X127643166Y-100801745D01*
X127793847Y-100782442D01*
X127798795Y-100780957D01*
X127798802Y-100780956D01*
X128010747Y-100717369D01*
X128015690Y-100715886D01*
X128020324Y-100713616D01*
X128219049Y-100616262D01*
X128219052Y-100616260D01*
X128223684Y-100613991D01*
X128412243Y-100479494D01*
X128544062Y-100348134D01*
X131091500Y-100348134D01*
X131098255Y-100410316D01*
X131149385Y-100546705D01*
X131236739Y-100663261D01*
X131353295Y-100750615D01*
X131489684Y-100801745D01*
X131551866Y-100808500D01*
X133448134Y-100808500D01*
X133510316Y-100801745D01*
X133646705Y-100750615D01*
X133763261Y-100663261D01*
X133850615Y-100546705D01*
X133901745Y-100410316D01*
X133908500Y-100348134D01*
X133908500Y-99365469D01*
X136087095Y-99365469D01*
X136087392Y-99370622D01*
X136087392Y-99370625D01*
X136093067Y-99469041D01*
X136100427Y-99596697D01*
X136101564Y-99601743D01*
X136101565Y-99601749D01*
X136133741Y-99744523D01*
X136151346Y-99822642D01*
X136153288Y-99827424D01*
X136153289Y-99827428D01*
X136236540Y-100032450D01*
X136238484Y-100037237D01*
X136359501Y-100234719D01*
X136511147Y-100409784D01*
X136689349Y-100557730D01*
X136889322Y-100674584D01*
X137105694Y-100757209D01*
X137110760Y-100758240D01*
X137110761Y-100758240D01*
X137163846Y-100769040D01*
X137332656Y-100803385D01*
X137462089Y-100808131D01*
X137558949Y-100811683D01*
X137558953Y-100811683D01*
X137564113Y-100811872D01*
X137569233Y-100811216D01*
X137569235Y-100811216D01*
X137643166Y-100801745D01*
X137793847Y-100782442D01*
X137798795Y-100780957D01*
X137798802Y-100780956D01*
X138010747Y-100717369D01*
X138015690Y-100715886D01*
X138020324Y-100713616D01*
X138219049Y-100616262D01*
X138219052Y-100616260D01*
X138223684Y-100613991D01*
X138412243Y-100479494D01*
X138554097Y-100338134D01*
X141091500Y-100338134D01*
X141098255Y-100400316D01*
X141149385Y-100536705D01*
X141236739Y-100653261D01*
X141353295Y-100740615D01*
X141489684Y-100791745D01*
X141551866Y-100798500D01*
X143448134Y-100798500D01*
X143510316Y-100791745D01*
X143646705Y-100740615D01*
X143763261Y-100653261D01*
X143850615Y-100536705D01*
X143901745Y-100400316D01*
X143908500Y-100338134D01*
X143908500Y-99355469D01*
X146087095Y-99355469D01*
X146087392Y-99360622D01*
X146087392Y-99360625D01*
X146100129Y-99581529D01*
X146100427Y-99586697D01*
X146101564Y-99591743D01*
X146101565Y-99591749D01*
X146125661Y-99698671D01*
X146151346Y-99812642D01*
X146153288Y-99817424D01*
X146153289Y-99817428D01*
X146226691Y-99998194D01*
X146238484Y-100027237D01*
X146359501Y-100224719D01*
X146511147Y-100399784D01*
X146689349Y-100547730D01*
X146889322Y-100664584D01*
X146894147Y-100666426D01*
X146894148Y-100666427D01*
X146968665Y-100694883D01*
X147105694Y-100747209D01*
X147110760Y-100748240D01*
X147110761Y-100748240D01*
X147159913Y-100758240D01*
X147332656Y-100793385D01*
X147462089Y-100798131D01*
X147558949Y-100801683D01*
X147558953Y-100801683D01*
X147564113Y-100801872D01*
X147569233Y-100801216D01*
X147569235Y-100801216D01*
X147643166Y-100791745D01*
X147793847Y-100772442D01*
X147798795Y-100770957D01*
X147798802Y-100770956D01*
X148010747Y-100707369D01*
X148015690Y-100705886D01*
X148034178Y-100696829D01*
X148219049Y-100606262D01*
X148219052Y-100606260D01*
X148223684Y-100603991D01*
X148412243Y-100469494D01*
X148534027Y-100348134D01*
X152491500Y-100348134D01*
X152498255Y-100410316D01*
X152549385Y-100546705D01*
X152636739Y-100663261D01*
X152753295Y-100750615D01*
X152889684Y-100801745D01*
X152951866Y-100808500D01*
X154848134Y-100808500D01*
X154910316Y-100801745D01*
X155046705Y-100750615D01*
X155163261Y-100663261D01*
X155250615Y-100546705D01*
X155301745Y-100410316D01*
X155308500Y-100348134D01*
X155308500Y-99365469D01*
X157487095Y-99365469D01*
X157487392Y-99370622D01*
X157487392Y-99370625D01*
X157493067Y-99469041D01*
X157500427Y-99596697D01*
X157501564Y-99601743D01*
X157501565Y-99601749D01*
X157533741Y-99744523D01*
X157551346Y-99822642D01*
X157553288Y-99827424D01*
X157553289Y-99827428D01*
X157636540Y-100032450D01*
X157638484Y-100037237D01*
X157759501Y-100234719D01*
X157911147Y-100409784D01*
X158089349Y-100557730D01*
X158289322Y-100674584D01*
X158505694Y-100757209D01*
X158510760Y-100758240D01*
X158510761Y-100758240D01*
X158563846Y-100769040D01*
X158732656Y-100803385D01*
X158862089Y-100808131D01*
X158958949Y-100811683D01*
X158958953Y-100811683D01*
X158964113Y-100811872D01*
X158969233Y-100811216D01*
X158969235Y-100811216D01*
X159043166Y-100801745D01*
X159193847Y-100782442D01*
X159198795Y-100780957D01*
X159198802Y-100780956D01*
X159410747Y-100717369D01*
X159415690Y-100715886D01*
X159420324Y-100713616D01*
X159619049Y-100616262D01*
X159619052Y-100616260D01*
X159623684Y-100613991D01*
X159812243Y-100479494D01*
X159944062Y-100348134D01*
X162491500Y-100348134D01*
X162498255Y-100410316D01*
X162549385Y-100546705D01*
X162636739Y-100663261D01*
X162753295Y-100750615D01*
X162889684Y-100801745D01*
X162951866Y-100808500D01*
X164848134Y-100808500D01*
X164910316Y-100801745D01*
X165046705Y-100750615D01*
X165163261Y-100663261D01*
X165250615Y-100546705D01*
X165301745Y-100410316D01*
X165308500Y-100348134D01*
X165308500Y-99365469D01*
X167487095Y-99365469D01*
X167487392Y-99370622D01*
X167487392Y-99370625D01*
X167493067Y-99469041D01*
X167500427Y-99596697D01*
X167501564Y-99601743D01*
X167501565Y-99601749D01*
X167533741Y-99744523D01*
X167551346Y-99822642D01*
X167553288Y-99827424D01*
X167553289Y-99827428D01*
X167636540Y-100032450D01*
X167638484Y-100037237D01*
X167759501Y-100234719D01*
X167911147Y-100409784D01*
X168089349Y-100557730D01*
X168289322Y-100674584D01*
X168505694Y-100757209D01*
X168510760Y-100758240D01*
X168510761Y-100758240D01*
X168563846Y-100769040D01*
X168732656Y-100803385D01*
X168862089Y-100808131D01*
X168958949Y-100811683D01*
X168958953Y-100811683D01*
X168964113Y-100811872D01*
X168969233Y-100811216D01*
X168969235Y-100811216D01*
X169043166Y-100801745D01*
X169193847Y-100782442D01*
X169198795Y-100780957D01*
X169198802Y-100780956D01*
X169410747Y-100717369D01*
X169415690Y-100715886D01*
X169420324Y-100713616D01*
X169619049Y-100616262D01*
X169619052Y-100616260D01*
X169623684Y-100613991D01*
X169812243Y-100479494D01*
X169976303Y-100316005D01*
X169980868Y-100309653D01*
X170039094Y-100228622D01*
X170111458Y-100127917D01*
X170116401Y-100117917D01*
X170180395Y-99988434D01*
X172586661Y-99988434D01*
X172604792Y-100346340D01*
X172605329Y-100349695D01*
X172605330Y-100349701D01*
X172635283Y-100536705D01*
X172661470Y-100700195D01*
X172756033Y-101045859D01*
X172887374Y-101379288D01*
X172918151Y-101437909D01*
X172963782Y-101524823D01*
X173053957Y-101696582D01*
X173055858Y-101699411D01*
X173055864Y-101699421D01*
X173123664Y-101800317D01*
X173253834Y-101994029D01*
X173484665Y-102268150D01*
X173743751Y-102515738D01*
X174028061Y-102733897D01*
X174060056Y-102753350D01*
X174331355Y-102918303D01*
X174331360Y-102918306D01*
X174334270Y-102920075D01*
X174337358Y-102921521D01*
X174337357Y-102921521D01*
X174655710Y-103070649D01*
X174655720Y-103070653D01*
X174658794Y-103072093D01*
X174662012Y-103073195D01*
X174662015Y-103073196D01*
X174994615Y-103187071D01*
X174994623Y-103187073D01*
X174997838Y-103188174D01*
X175347435Y-103266959D01*
X175399728Y-103272917D01*
X175700114Y-103307142D01*
X175700122Y-103307142D01*
X175703497Y-103307527D01*
X175706901Y-103307545D01*
X175706904Y-103307545D01*
X175901227Y-103308562D01*
X176061857Y-103309403D01*
X176065243Y-103309053D01*
X176065245Y-103309053D01*
X176414932Y-103272917D01*
X176414941Y-103272916D01*
X176418324Y-103272566D01*
X176421657Y-103271852D01*
X176421660Y-103271851D01*
X176594186Y-103234864D01*
X176768727Y-103197446D01*
X177108968Y-103084922D01*
X177435066Y-102936311D01*
X177590091Y-102844264D01*
X177740262Y-102755099D01*
X177740267Y-102755096D01*
X177743207Y-102753350D01*
X178029786Y-102538180D01*
X178291451Y-102293319D01*
X178525140Y-102021630D01*
X178677244Y-101800317D01*
X178726190Y-101729101D01*
X178726195Y-101729094D01*
X178728120Y-101726292D01*
X178729732Y-101723298D01*
X178729737Y-101723290D01*
X178874458Y-101454514D01*
X178898017Y-101410760D01*
X179032842Y-101078724D01*
X179043142Y-101042568D01*
X179111742Y-100801745D01*
X179131020Y-100734070D01*
X179142204Y-100668642D01*
X179190829Y-100384175D01*
X179190829Y-100384173D01*
X179191401Y-100380828D01*
X179193511Y-100346340D01*
X179212708Y-100032450D01*
X179213278Y-100023131D01*
X179213359Y-100000000D01*
X179193979Y-99642159D01*
X179136066Y-99288505D01*
X179040297Y-98943173D01*
X179037243Y-98935497D01*
X178909052Y-98613369D01*
X178907793Y-98610205D01*
X178853057Y-98506827D01*
X178741702Y-98296513D01*
X178741698Y-98296506D01*
X178740103Y-98293494D01*
X178539190Y-97996746D01*
X178534232Y-97990899D01*
X178443506Y-97883919D01*
X178307403Y-97723432D01*
X178047454Y-97476750D01*
X177762384Y-97259585D01*
X177759472Y-97257828D01*
X177759467Y-97257825D01*
X177458443Y-97076236D01*
X177458437Y-97076233D01*
X177455528Y-97074478D01*
X177130475Y-96923593D01*
X176960751Y-96866145D01*
X176794255Y-96809789D01*
X176794250Y-96809788D01*
X176791028Y-96808697D01*
X176592681Y-96764724D01*
X176444493Y-96731871D01*
X176444487Y-96731870D01*
X176441158Y-96731132D01*
X176437769Y-96730758D01*
X176437764Y-96730757D01*
X176088338Y-96692180D01*
X176088333Y-96692180D01*
X176084957Y-96691807D01*
X176081558Y-96691801D01*
X176081557Y-96691801D01*
X175912080Y-96691505D01*
X175726592Y-96691182D01*
X175613413Y-96703277D01*
X175373639Y-96728901D01*
X175373631Y-96728902D01*
X175370256Y-96729263D01*
X175020117Y-96805606D01*
X174680271Y-96919317D01*
X174677178Y-96920739D01*
X174677177Y-96920740D01*
X174670974Y-96923593D01*
X174354694Y-97069066D01*
X174047193Y-97253101D01*
X174044467Y-97255163D01*
X174044465Y-97255164D01*
X174038620Y-97259585D01*
X173761367Y-97469270D01*
X173500559Y-97715043D01*
X173267819Y-97987546D01*
X173265900Y-97990358D01*
X173265897Y-97990363D01*
X173193082Y-98097106D01*
X173065871Y-98283591D01*
X172897077Y-98599714D01*
X172763411Y-98932218D01*
X172762491Y-98935492D01*
X172762489Y-98935497D01*
X172695360Y-99174318D01*
X172666437Y-99277213D01*
X172665875Y-99280570D01*
X172665875Y-99280571D01*
X172612129Y-99601749D01*
X172607290Y-99630663D01*
X172586661Y-99988434D01*
X170180395Y-99988434D01*
X170211784Y-99924922D01*
X170211785Y-99924920D01*
X170214078Y-99920280D01*
X170281408Y-99698671D01*
X170311640Y-99469041D01*
X170313327Y-99400000D01*
X170304438Y-99291878D01*
X170294773Y-99174318D01*
X170294772Y-99174312D01*
X170294349Y-99169167D01*
X170237925Y-98944533D01*
X170233577Y-98934533D01*
X170147630Y-98736868D01*
X170147628Y-98736865D01*
X170145570Y-98732131D01*
X170019764Y-98537665D01*
X170014618Y-98532009D01*
X169892260Y-98397540D01*
X169863887Y-98366358D01*
X169859836Y-98363159D01*
X169859832Y-98363155D01*
X169686177Y-98226011D01*
X169686172Y-98226008D01*
X169682123Y-98222810D01*
X169677607Y-98220317D01*
X169677604Y-98220315D01*
X169483879Y-98113373D01*
X169483875Y-98113371D01*
X169479355Y-98110876D01*
X169474486Y-98109152D01*
X169474482Y-98109150D01*
X169265903Y-98035288D01*
X169265899Y-98035287D01*
X169261028Y-98033562D01*
X169255935Y-98032655D01*
X169255932Y-98032654D01*
X169038095Y-97993851D01*
X169038089Y-97993850D01*
X169033006Y-97992945D01*
X168960096Y-97992054D01*
X168806581Y-97990179D01*
X168806579Y-97990179D01*
X168801411Y-97990116D01*
X168572464Y-98025150D01*
X168352314Y-98097106D01*
X168347726Y-98099494D01*
X168347722Y-98099496D01*
X168170671Y-98191663D01*
X168146872Y-98204052D01*
X168142739Y-98207155D01*
X168142736Y-98207157D01*
X167969995Y-98336855D01*
X167961655Y-98343117D01*
X167801639Y-98510564D01*
X167798725Y-98514836D01*
X167798724Y-98514837D01*
X167783152Y-98537665D01*
X167671119Y-98701899D01*
X167573602Y-98911981D01*
X167511707Y-99135169D01*
X167487095Y-99365469D01*
X165308500Y-99365469D01*
X165308500Y-98451866D01*
X165301745Y-98389684D01*
X165250615Y-98253295D01*
X165163261Y-98136739D01*
X165046705Y-98049385D01*
X164910316Y-97998255D01*
X164848134Y-97991500D01*
X162951866Y-97991500D01*
X162889684Y-97998255D01*
X162753295Y-98049385D01*
X162636739Y-98136739D01*
X162549385Y-98253295D01*
X162498255Y-98389684D01*
X162491500Y-98451866D01*
X162491500Y-100348134D01*
X159944062Y-100348134D01*
X159976303Y-100316005D01*
X159980868Y-100309653D01*
X160039094Y-100228622D01*
X160111458Y-100127917D01*
X160116401Y-100117917D01*
X160211784Y-99924922D01*
X160211785Y-99924920D01*
X160214078Y-99920280D01*
X160281408Y-99698671D01*
X160311640Y-99469041D01*
X160313327Y-99400000D01*
X160304438Y-99291878D01*
X160294773Y-99174318D01*
X160294772Y-99174312D01*
X160294349Y-99169167D01*
X160237925Y-98944533D01*
X160233577Y-98934533D01*
X160147630Y-98736868D01*
X160147628Y-98736865D01*
X160145570Y-98732131D01*
X160019764Y-98537665D01*
X160014618Y-98532009D01*
X159892260Y-98397540D01*
X159863887Y-98366358D01*
X159859836Y-98363159D01*
X159859832Y-98363155D01*
X159686177Y-98226011D01*
X159686172Y-98226008D01*
X159682123Y-98222810D01*
X159677607Y-98220317D01*
X159677604Y-98220315D01*
X159483879Y-98113373D01*
X159483875Y-98113371D01*
X159479355Y-98110876D01*
X159474486Y-98109152D01*
X159474482Y-98109150D01*
X159265903Y-98035288D01*
X159265899Y-98035287D01*
X159261028Y-98033562D01*
X159255935Y-98032655D01*
X159255932Y-98032654D01*
X159038095Y-97993851D01*
X159038089Y-97993850D01*
X159033006Y-97992945D01*
X158960096Y-97992054D01*
X158806581Y-97990179D01*
X158806579Y-97990179D01*
X158801411Y-97990116D01*
X158572464Y-98025150D01*
X158352314Y-98097106D01*
X158347726Y-98099494D01*
X158347722Y-98099496D01*
X158170671Y-98191663D01*
X158146872Y-98204052D01*
X158142739Y-98207155D01*
X158142736Y-98207157D01*
X157969995Y-98336855D01*
X157961655Y-98343117D01*
X157801639Y-98510564D01*
X157798725Y-98514836D01*
X157798724Y-98514837D01*
X157783152Y-98537665D01*
X157671119Y-98701899D01*
X157573602Y-98911981D01*
X157511707Y-99135169D01*
X157487095Y-99365469D01*
X155308500Y-99365469D01*
X155308500Y-98451866D01*
X155301745Y-98389684D01*
X155250615Y-98253295D01*
X155163261Y-98136739D01*
X155046705Y-98049385D01*
X154910316Y-97998255D01*
X154848134Y-97991500D01*
X152951866Y-97991500D01*
X152889684Y-97998255D01*
X152753295Y-98049385D01*
X152636739Y-98136739D01*
X152549385Y-98253295D01*
X152498255Y-98389684D01*
X152491500Y-98451866D01*
X152491500Y-100348134D01*
X148534027Y-100348134D01*
X148576303Y-100306005D01*
X148711458Y-100117917D01*
X148751333Y-100037237D01*
X148811784Y-99914922D01*
X148811785Y-99914920D01*
X148814078Y-99910280D01*
X148881408Y-99688671D01*
X148911640Y-99459041D01*
X148911722Y-99455691D01*
X148913245Y-99393365D01*
X148913245Y-99393361D01*
X148913327Y-99390000D01*
X148895595Y-99174318D01*
X148894773Y-99164318D01*
X148894772Y-99164312D01*
X148894349Y-99159167D01*
X148866137Y-99046850D01*
X148839184Y-98939544D01*
X148839183Y-98939540D01*
X148837925Y-98934533D01*
X148835544Y-98929057D01*
X148747630Y-98726868D01*
X148747628Y-98726865D01*
X148745570Y-98722131D01*
X148619764Y-98527665D01*
X148608092Y-98514837D01*
X148538602Y-98438469D01*
X148463887Y-98356358D01*
X148459836Y-98353159D01*
X148459832Y-98353155D01*
X148286177Y-98216011D01*
X148286172Y-98216008D01*
X148282123Y-98212810D01*
X148277607Y-98210317D01*
X148277604Y-98210315D01*
X148083879Y-98103373D01*
X148083875Y-98103371D01*
X148079355Y-98100876D01*
X148074486Y-98099152D01*
X148074482Y-98099150D01*
X147865903Y-98025288D01*
X147865899Y-98025287D01*
X147861028Y-98023562D01*
X147855935Y-98022655D01*
X147855932Y-98022654D01*
X147638095Y-97983851D01*
X147638089Y-97983850D01*
X147633006Y-97982945D01*
X147560096Y-97982054D01*
X147406581Y-97980179D01*
X147406579Y-97980179D01*
X147401411Y-97980116D01*
X147172464Y-98015150D01*
X146952314Y-98087106D01*
X146947726Y-98089494D01*
X146947722Y-98089496D01*
X146751461Y-98191663D01*
X146746872Y-98194052D01*
X146742739Y-98197155D01*
X146742736Y-98197157D01*
X146565790Y-98330012D01*
X146561655Y-98333117D01*
X146558083Y-98336855D01*
X146444911Y-98455283D01*
X146401639Y-98500564D01*
X146398725Y-98504836D01*
X146398724Y-98504837D01*
X146383152Y-98527665D01*
X146271119Y-98691899D01*
X146173602Y-98901981D01*
X146111707Y-99125169D01*
X146087095Y-99355469D01*
X143908500Y-99355469D01*
X143908500Y-98441866D01*
X143901745Y-98379684D01*
X143850615Y-98243295D01*
X143763261Y-98126739D01*
X143646705Y-98039385D01*
X143510316Y-97988255D01*
X143448134Y-97981500D01*
X141551866Y-97981500D01*
X141489684Y-97988255D01*
X141353295Y-98039385D01*
X141236739Y-98126739D01*
X141149385Y-98243295D01*
X141098255Y-98379684D01*
X141091500Y-98441866D01*
X141091500Y-100338134D01*
X138554097Y-100338134D01*
X138576303Y-100316005D01*
X138580868Y-100309653D01*
X138639094Y-100228622D01*
X138711458Y-100127917D01*
X138716401Y-100117917D01*
X138811784Y-99924922D01*
X138811785Y-99924920D01*
X138814078Y-99920280D01*
X138881408Y-99698671D01*
X138911640Y-99469041D01*
X138913327Y-99400000D01*
X138904438Y-99291878D01*
X138894773Y-99174318D01*
X138894772Y-99174312D01*
X138894349Y-99169167D01*
X138837925Y-98944533D01*
X138833577Y-98934533D01*
X138747630Y-98736868D01*
X138747628Y-98736865D01*
X138745570Y-98732131D01*
X138619764Y-98537665D01*
X138614618Y-98532009D01*
X138492260Y-98397540D01*
X138463887Y-98366358D01*
X138459836Y-98363159D01*
X138459832Y-98363155D01*
X138286177Y-98226011D01*
X138286172Y-98226008D01*
X138282123Y-98222810D01*
X138277607Y-98220317D01*
X138277604Y-98220315D01*
X138083879Y-98113373D01*
X138083875Y-98113371D01*
X138079355Y-98110876D01*
X138074486Y-98109152D01*
X138074482Y-98109150D01*
X137865903Y-98035288D01*
X137865899Y-98035287D01*
X137861028Y-98033562D01*
X137855935Y-98032655D01*
X137855932Y-98032654D01*
X137638095Y-97993851D01*
X137638089Y-97993850D01*
X137633006Y-97992945D01*
X137560096Y-97992054D01*
X137406581Y-97990179D01*
X137406579Y-97990179D01*
X137401411Y-97990116D01*
X137172464Y-98025150D01*
X136952314Y-98097106D01*
X136947726Y-98099494D01*
X136947722Y-98099496D01*
X136770671Y-98191663D01*
X136746872Y-98204052D01*
X136742739Y-98207155D01*
X136742736Y-98207157D01*
X136569995Y-98336855D01*
X136561655Y-98343117D01*
X136401639Y-98510564D01*
X136398725Y-98514836D01*
X136398724Y-98514837D01*
X136383152Y-98537665D01*
X136271119Y-98701899D01*
X136173602Y-98911981D01*
X136111707Y-99135169D01*
X136087095Y-99365469D01*
X133908500Y-99365469D01*
X133908500Y-98451866D01*
X133901745Y-98389684D01*
X133850615Y-98253295D01*
X133763261Y-98136739D01*
X133646705Y-98049385D01*
X133510316Y-97998255D01*
X133448134Y-97991500D01*
X131551866Y-97991500D01*
X131489684Y-97998255D01*
X131353295Y-98049385D01*
X131236739Y-98136739D01*
X131149385Y-98253295D01*
X131098255Y-98389684D01*
X131091500Y-98451866D01*
X131091500Y-100348134D01*
X128544062Y-100348134D01*
X128576303Y-100316005D01*
X128580868Y-100309653D01*
X128639094Y-100228622D01*
X128711458Y-100127917D01*
X128716401Y-100117917D01*
X128811784Y-99924922D01*
X128811785Y-99924920D01*
X128814078Y-99920280D01*
X128881408Y-99698671D01*
X128911640Y-99469041D01*
X128913327Y-99400000D01*
X128904438Y-99291878D01*
X128894773Y-99174318D01*
X128894772Y-99174312D01*
X128894349Y-99169167D01*
X128837925Y-98944533D01*
X128833577Y-98934533D01*
X128747630Y-98736868D01*
X128747628Y-98736865D01*
X128745570Y-98732131D01*
X128619764Y-98537665D01*
X128614618Y-98532009D01*
X128492260Y-98397540D01*
X128463887Y-98366358D01*
X128459836Y-98363159D01*
X128459832Y-98363155D01*
X128286177Y-98226011D01*
X128286172Y-98226008D01*
X128282123Y-98222810D01*
X128277607Y-98220317D01*
X128277604Y-98220315D01*
X128083879Y-98113373D01*
X128083875Y-98113371D01*
X128079355Y-98110876D01*
X128074486Y-98109152D01*
X128074482Y-98109150D01*
X127865903Y-98035288D01*
X127865899Y-98035287D01*
X127861028Y-98033562D01*
X127855935Y-98032655D01*
X127855932Y-98032654D01*
X127638095Y-97993851D01*
X127638089Y-97993850D01*
X127633006Y-97992945D01*
X127560096Y-97992054D01*
X127406581Y-97990179D01*
X127406579Y-97990179D01*
X127401411Y-97990116D01*
X127172464Y-98025150D01*
X126952314Y-98097106D01*
X126947726Y-98099494D01*
X126947722Y-98099496D01*
X126770671Y-98191663D01*
X126746872Y-98204052D01*
X126742739Y-98207155D01*
X126742736Y-98207157D01*
X126569995Y-98336855D01*
X126561655Y-98343117D01*
X126401639Y-98510564D01*
X126398725Y-98514836D01*
X126398724Y-98514837D01*
X126383152Y-98537665D01*
X126271119Y-98701899D01*
X126173602Y-98911981D01*
X126111707Y-99135169D01*
X126087095Y-99365469D01*
X123908500Y-99365469D01*
X123908500Y-98451866D01*
X123901745Y-98389684D01*
X123850615Y-98253295D01*
X123763261Y-98136739D01*
X123646705Y-98049385D01*
X123510316Y-97998255D01*
X123448134Y-97991500D01*
X121551866Y-97991500D01*
X121489684Y-97998255D01*
X121353295Y-98049385D01*
X121236739Y-98136739D01*
X121149385Y-98253295D01*
X121098255Y-98389684D01*
X121091500Y-98451866D01*
X121091500Y-100348134D01*
X118544062Y-100348134D01*
X118576303Y-100316005D01*
X118580868Y-100309653D01*
X118639094Y-100228622D01*
X118711458Y-100127917D01*
X118716401Y-100117917D01*
X118811784Y-99924922D01*
X118811785Y-99924920D01*
X118814078Y-99920280D01*
X118881408Y-99698671D01*
X118911640Y-99469041D01*
X118913327Y-99400000D01*
X118904438Y-99291878D01*
X118894773Y-99174318D01*
X118894772Y-99174312D01*
X118894349Y-99169167D01*
X118837925Y-98944533D01*
X118833577Y-98934533D01*
X118747630Y-98736868D01*
X118747628Y-98736865D01*
X118745570Y-98732131D01*
X118619764Y-98537665D01*
X118614618Y-98532009D01*
X118492260Y-98397540D01*
X118463887Y-98366358D01*
X118459836Y-98363159D01*
X118459832Y-98363155D01*
X118286177Y-98226011D01*
X118286172Y-98226008D01*
X118282123Y-98222810D01*
X118277607Y-98220317D01*
X118277604Y-98220315D01*
X118083879Y-98113373D01*
X118083875Y-98113371D01*
X118079355Y-98110876D01*
X118074486Y-98109152D01*
X118074482Y-98109150D01*
X117865903Y-98035288D01*
X117865899Y-98035287D01*
X117861028Y-98033562D01*
X117855935Y-98032655D01*
X117855932Y-98032654D01*
X117638095Y-97993851D01*
X117638089Y-97993850D01*
X117633006Y-97992945D01*
X117560096Y-97992054D01*
X117406581Y-97990179D01*
X117406579Y-97990179D01*
X117401411Y-97990116D01*
X117172464Y-98025150D01*
X116952314Y-98097106D01*
X116947726Y-98099494D01*
X116947722Y-98099496D01*
X116770671Y-98191663D01*
X116746872Y-98204052D01*
X116742739Y-98207155D01*
X116742736Y-98207157D01*
X116569995Y-98336855D01*
X116561655Y-98343117D01*
X116401639Y-98510564D01*
X116398725Y-98514836D01*
X116398724Y-98514837D01*
X116383152Y-98537665D01*
X116271119Y-98701899D01*
X116173602Y-98911981D01*
X116111707Y-99135169D01*
X116087095Y-99365469D01*
X113908500Y-99365469D01*
X113908500Y-98451866D01*
X113901745Y-98389684D01*
X113850615Y-98253295D01*
X113763261Y-98136739D01*
X113646705Y-98049385D01*
X113510316Y-97998255D01*
X113448134Y-97991500D01*
X111551866Y-97991500D01*
X111489684Y-97998255D01*
X111353295Y-98049385D01*
X111236739Y-98136739D01*
X111149385Y-98253295D01*
X111098255Y-98389684D01*
X111091500Y-98451866D01*
X111091500Y-100348134D01*
X108544062Y-100348134D01*
X108576303Y-100316005D01*
X108580868Y-100309653D01*
X108639094Y-100228622D01*
X108711458Y-100127917D01*
X108716401Y-100117917D01*
X108811784Y-99924922D01*
X108811785Y-99924920D01*
X108814078Y-99920280D01*
X108881408Y-99698671D01*
X108911640Y-99469041D01*
X108913327Y-99400000D01*
X108904438Y-99291878D01*
X108894773Y-99174318D01*
X108894772Y-99174312D01*
X108894349Y-99169167D01*
X108837925Y-98944533D01*
X108833577Y-98934533D01*
X108747630Y-98736868D01*
X108747628Y-98736865D01*
X108745570Y-98732131D01*
X108619764Y-98537665D01*
X108614618Y-98532009D01*
X108492260Y-98397540D01*
X108463887Y-98366358D01*
X108459836Y-98363159D01*
X108459832Y-98363155D01*
X108286177Y-98226011D01*
X108286172Y-98226008D01*
X108282123Y-98222810D01*
X108277607Y-98220317D01*
X108277604Y-98220315D01*
X108083879Y-98113373D01*
X108083875Y-98113371D01*
X108079355Y-98110876D01*
X108074486Y-98109152D01*
X108074482Y-98109150D01*
X107865903Y-98035288D01*
X107865899Y-98035287D01*
X107861028Y-98033562D01*
X107855935Y-98032655D01*
X107855932Y-98032654D01*
X107638095Y-97993851D01*
X107638089Y-97993850D01*
X107633006Y-97992945D01*
X107560096Y-97992054D01*
X107406581Y-97990179D01*
X107406579Y-97990179D01*
X107401411Y-97990116D01*
X107172464Y-98025150D01*
X106952314Y-98097106D01*
X106947726Y-98099494D01*
X106947722Y-98099496D01*
X106770671Y-98191663D01*
X106746872Y-98204052D01*
X106742739Y-98207155D01*
X106742736Y-98207157D01*
X106569995Y-98336855D01*
X106561655Y-98343117D01*
X106401639Y-98510564D01*
X106398725Y-98514836D01*
X106398724Y-98514837D01*
X106383152Y-98537665D01*
X106271119Y-98701899D01*
X106173602Y-98911981D01*
X106111707Y-99135169D01*
X106087095Y-99365469D01*
X103908500Y-99365469D01*
X103908500Y-98451866D01*
X103901745Y-98389684D01*
X103850615Y-98253295D01*
X103763261Y-98136739D01*
X103646705Y-98049385D01*
X103510316Y-97998255D01*
X103448134Y-97991500D01*
X101551866Y-97991500D01*
X101489684Y-97998255D01*
X101353295Y-98049385D01*
X101236739Y-98136739D01*
X101149385Y-98253295D01*
X101098255Y-98389684D01*
X101091500Y-98451866D01*
X101091500Y-100348134D01*
X98544062Y-100348134D01*
X98576303Y-100316005D01*
X98580868Y-100309653D01*
X98639094Y-100228622D01*
X98711458Y-100127917D01*
X98716401Y-100117917D01*
X98811784Y-99924922D01*
X98811785Y-99924920D01*
X98814078Y-99920280D01*
X98881408Y-99698671D01*
X98911640Y-99469041D01*
X98913327Y-99400000D01*
X98904438Y-99291878D01*
X98894773Y-99174318D01*
X98894772Y-99174312D01*
X98894349Y-99169167D01*
X98837925Y-98944533D01*
X98833577Y-98934533D01*
X98747630Y-98736868D01*
X98747628Y-98736865D01*
X98745570Y-98732131D01*
X98619764Y-98537665D01*
X98614618Y-98532009D01*
X98492260Y-98397540D01*
X98463887Y-98366358D01*
X98459836Y-98363159D01*
X98459832Y-98363155D01*
X98286177Y-98226011D01*
X98286172Y-98226008D01*
X98282123Y-98222810D01*
X98277607Y-98220317D01*
X98277604Y-98220315D01*
X98083879Y-98113373D01*
X98083875Y-98113371D01*
X98079355Y-98110876D01*
X98074486Y-98109152D01*
X98074482Y-98109150D01*
X97865903Y-98035288D01*
X97865899Y-98035287D01*
X97861028Y-98033562D01*
X97855935Y-98032655D01*
X97855932Y-98032654D01*
X97638095Y-97993851D01*
X97638089Y-97993850D01*
X97633006Y-97992945D01*
X97560096Y-97992054D01*
X97406581Y-97990179D01*
X97406579Y-97990179D01*
X97401411Y-97990116D01*
X97172464Y-98025150D01*
X96952314Y-98097106D01*
X96947726Y-98099494D01*
X96947722Y-98099496D01*
X96770671Y-98191663D01*
X96746872Y-98204052D01*
X96742739Y-98207155D01*
X96742736Y-98207157D01*
X96569995Y-98336855D01*
X96561655Y-98343117D01*
X96401639Y-98510564D01*
X96398725Y-98514836D01*
X96398724Y-98514837D01*
X96383152Y-98537665D01*
X96271119Y-98701899D01*
X96173602Y-98911981D01*
X96111707Y-99135169D01*
X96087095Y-99365469D01*
X93908500Y-99365469D01*
X93908500Y-98451866D01*
X93901745Y-98389684D01*
X93850615Y-98253295D01*
X93763261Y-98136739D01*
X93646705Y-98049385D01*
X93510316Y-97998255D01*
X93448134Y-97991500D01*
X91551866Y-97991500D01*
X91489684Y-97998255D01*
X91353295Y-98049385D01*
X91236739Y-98136739D01*
X91149385Y-98253295D01*
X91098255Y-98389684D01*
X91091500Y-98451866D01*
X91091500Y-100348134D01*
X88193401Y-100348134D01*
X88193511Y-100346340D01*
X88212708Y-100032450D01*
X88213278Y-100023131D01*
X88213359Y-100000000D01*
X88193979Y-99642159D01*
X88136066Y-99288505D01*
X88040297Y-98943173D01*
X88037243Y-98935497D01*
X87909052Y-98613369D01*
X87907793Y-98610205D01*
X87853057Y-98506827D01*
X87741702Y-98296513D01*
X87741698Y-98296506D01*
X87740103Y-98293494D01*
X87539190Y-97996746D01*
X87534232Y-97990899D01*
X87443506Y-97883919D01*
X87307403Y-97723432D01*
X87047454Y-97476750D01*
X86762384Y-97259585D01*
X86759472Y-97257828D01*
X86759467Y-97257825D01*
X86458443Y-97076236D01*
X86458437Y-97076233D01*
X86455528Y-97074478D01*
X86130475Y-96923593D01*
X85960751Y-96866145D01*
X85794255Y-96809789D01*
X85794250Y-96809788D01*
X85791028Y-96808697D01*
X85592681Y-96764724D01*
X85444493Y-96731871D01*
X85444487Y-96731870D01*
X85441158Y-96731132D01*
X85437769Y-96730758D01*
X85437764Y-96730757D01*
X85088338Y-96692180D01*
X85088333Y-96692180D01*
X85084957Y-96691807D01*
X85081558Y-96691801D01*
X85081557Y-96691801D01*
X84912080Y-96691505D01*
X84726592Y-96691182D01*
X84613413Y-96703277D01*
X84373639Y-96728901D01*
X84373631Y-96728902D01*
X84370256Y-96729263D01*
X84020117Y-96805606D01*
X83680271Y-96919317D01*
X83677178Y-96920739D01*
X83677177Y-96920740D01*
X83670974Y-96923593D01*
X83354694Y-97069066D01*
X83047193Y-97253101D01*
X83044467Y-97255163D01*
X83044465Y-97255164D01*
X83038620Y-97259585D01*
X82761367Y-97469270D01*
X82500559Y-97715043D01*
X82267819Y-97987546D01*
X82265900Y-97990358D01*
X82265897Y-97990363D01*
X82193082Y-98097106D01*
X82065871Y-98283591D01*
X81897077Y-98599714D01*
X81763411Y-98932218D01*
X81762491Y-98935492D01*
X81762489Y-98935497D01*
X81695360Y-99174318D01*
X81666437Y-99277213D01*
X81665875Y-99280570D01*
X81665875Y-99280571D01*
X81612129Y-99601749D01*
X81607290Y-99630663D01*
X81586661Y-99988434D01*
X80908500Y-99988434D01*
X80908500Y-85536695D01*
X86087251Y-85536695D01*
X86087548Y-85541848D01*
X86087548Y-85541851D01*
X86093011Y-85636590D01*
X86100110Y-85759715D01*
X86101247Y-85764761D01*
X86101248Y-85764767D01*
X86110585Y-85806197D01*
X86149222Y-85977639D01*
X86233266Y-86184616D01*
X86256617Y-86222721D01*
X86319934Y-86326045D01*
X86349987Y-86375088D01*
X86496250Y-86543938D01*
X86668126Y-86686632D01*
X86861000Y-86799338D01*
X87069692Y-86879030D01*
X87074760Y-86880061D01*
X87074763Y-86880062D01*
X87182017Y-86901883D01*
X87288597Y-86923567D01*
X87293772Y-86923757D01*
X87293774Y-86923757D01*
X87506673Y-86931564D01*
X87506677Y-86931564D01*
X87511837Y-86931753D01*
X87516957Y-86931097D01*
X87516959Y-86931097D01*
X87728288Y-86904025D01*
X87728289Y-86904025D01*
X87733416Y-86903368D01*
X87738366Y-86901883D01*
X87942429Y-86840661D01*
X87942434Y-86840659D01*
X87947384Y-86839174D01*
X88147994Y-86740896D01*
X88329860Y-86611173D01*
X88341072Y-86600000D01*
X154286496Y-86600000D01*
X154287186Y-86606565D01*
X154301305Y-86740896D01*
X154306458Y-86789928D01*
X154365473Y-86971556D01*
X154460960Y-87136944D01*
X154465378Y-87141851D01*
X154465379Y-87141852D01*
X154508667Y-87189928D01*
X154588747Y-87278866D01*
X154743248Y-87391118D01*
X154749276Y-87393802D01*
X154749278Y-87393803D01*
X154911681Y-87466109D01*
X154917712Y-87468794D01*
X155011113Y-87488647D01*
X155098056Y-87507128D01*
X155098061Y-87507128D01*
X155104513Y-87508500D01*
X155295487Y-87508500D01*
X155301939Y-87507128D01*
X155301944Y-87507128D01*
X155388887Y-87488647D01*
X155482288Y-87468794D01*
X155488319Y-87466109D01*
X155650722Y-87393803D01*
X155650724Y-87393802D01*
X155656752Y-87391118D01*
X155811253Y-87278866D01*
X155891333Y-87189928D01*
X155934621Y-87141852D01*
X155934622Y-87141851D01*
X155939040Y-87136944D01*
X156018105Y-87000000D01*
X163186496Y-87000000D01*
X163206458Y-87189928D01*
X163265473Y-87371556D01*
X163360960Y-87536944D01*
X163488747Y-87678866D01*
X163643248Y-87791118D01*
X163649276Y-87793802D01*
X163649278Y-87793803D01*
X163811681Y-87866109D01*
X163817712Y-87868794D01*
X163911113Y-87888647D01*
X163998056Y-87907128D01*
X163998061Y-87907128D01*
X164004513Y-87908500D01*
X164195487Y-87908500D01*
X164201939Y-87907128D01*
X164201944Y-87907128D01*
X164288887Y-87888647D01*
X164382288Y-87868794D01*
X164388319Y-87866109D01*
X164550722Y-87793803D01*
X164550724Y-87793802D01*
X164556752Y-87791118D01*
X164711253Y-87678866D01*
X164839040Y-87536944D01*
X164934527Y-87371556D01*
X164993542Y-87189928D01*
X165013504Y-87000000D01*
X164993542Y-86810072D01*
X164934527Y-86628444D01*
X164926287Y-86614171D01*
X164842341Y-86468774D01*
X164839040Y-86463056D01*
X164797243Y-86416635D01*
X164715675Y-86326045D01*
X164715674Y-86326044D01*
X164711253Y-86321134D01*
X164556752Y-86208882D01*
X164550724Y-86206198D01*
X164550722Y-86206197D01*
X164388319Y-86133891D01*
X164388318Y-86133891D01*
X164382288Y-86131206D01*
X164288888Y-86111353D01*
X164201944Y-86092872D01*
X164201939Y-86092872D01*
X164195487Y-86091500D01*
X164004513Y-86091500D01*
X163998061Y-86092872D01*
X163998056Y-86092872D01*
X163911112Y-86111353D01*
X163817712Y-86131206D01*
X163811682Y-86133891D01*
X163811681Y-86133891D01*
X163649278Y-86206197D01*
X163649276Y-86206198D01*
X163643248Y-86208882D01*
X163488747Y-86321134D01*
X163484326Y-86326044D01*
X163484325Y-86326045D01*
X163402758Y-86416635D01*
X163360960Y-86463056D01*
X163357659Y-86468774D01*
X163273714Y-86614171D01*
X163265473Y-86628444D01*
X163206458Y-86810072D01*
X163186496Y-87000000D01*
X156018105Y-87000000D01*
X156034527Y-86971556D01*
X156093542Y-86789928D01*
X156098696Y-86740896D01*
X156112814Y-86606565D01*
X156113504Y-86600000D01*
X156093542Y-86410072D01*
X156034527Y-86228444D01*
X156011766Y-86189020D01*
X155979937Y-86133891D01*
X155939040Y-86063056D01*
X155811253Y-85921134D01*
X155656752Y-85808882D01*
X155650724Y-85806198D01*
X155650722Y-85806197D01*
X155488319Y-85733891D01*
X155488318Y-85733891D01*
X155482288Y-85731206D01*
X155388888Y-85711353D01*
X155301944Y-85692872D01*
X155301939Y-85692872D01*
X155295487Y-85691500D01*
X155104513Y-85691500D01*
X155098061Y-85692872D01*
X155098056Y-85692872D01*
X155011112Y-85711353D01*
X154917712Y-85731206D01*
X154911682Y-85733891D01*
X154911681Y-85733891D01*
X154749278Y-85806197D01*
X154749276Y-85806198D01*
X154743248Y-85808882D01*
X154588747Y-85921134D01*
X154460960Y-86063056D01*
X154420063Y-86133891D01*
X154388235Y-86189020D01*
X154365473Y-86228444D01*
X154306458Y-86410072D01*
X154286496Y-86600000D01*
X88341072Y-86600000D01*
X88488096Y-86453489D01*
X88547594Y-86370689D01*
X88615435Y-86276277D01*
X88618453Y-86272077D01*
X88636912Y-86234729D01*
X88715136Y-86076453D01*
X88715137Y-86076451D01*
X88717430Y-86071811D01*
X88782370Y-85858069D01*
X88811529Y-85636590D01*
X88813156Y-85570000D01*
X88794852Y-85347361D01*
X88740431Y-85130702D01*
X88651354Y-84925840D01*
X88530014Y-84738277D01*
X88379670Y-84573051D01*
X88375619Y-84569852D01*
X88375615Y-84569848D01*
X88208414Y-84437800D01*
X88208410Y-84437798D01*
X88204359Y-84434598D01*
X88163053Y-84411796D01*
X88113084Y-84361364D01*
X88098312Y-84291921D01*
X88123428Y-84225516D01*
X88150780Y-84198909D01*
X88194603Y-84167650D01*
X88329860Y-84071173D01*
X88488096Y-83913489D01*
X88547594Y-83830689D01*
X88615435Y-83736277D01*
X88618453Y-83732077D01*
X88717430Y-83531811D01*
X88782370Y-83318069D01*
X88811529Y-83096590D01*
X88813156Y-83030000D01*
X88794852Y-82807361D01*
X88740431Y-82590702D01*
X88651354Y-82385840D01*
X88611906Y-82324862D01*
X88532822Y-82202617D01*
X88532820Y-82202614D01*
X88530014Y-82198277D01*
X88379670Y-82033051D01*
X88375619Y-82029852D01*
X88375615Y-82029848D01*
X88208414Y-81897800D01*
X88208410Y-81897798D01*
X88204359Y-81894598D01*
X88163053Y-81871796D01*
X88113084Y-81821364D01*
X88098312Y-81751921D01*
X88123428Y-81685516D01*
X88150780Y-81658909D01*
X88194603Y-81627650D01*
X88329860Y-81531173D01*
X88461492Y-81400000D01*
X93186496Y-81400000D01*
X93187186Y-81406565D01*
X93205129Y-81577279D01*
X93206458Y-81589928D01*
X93265473Y-81771556D01*
X93268776Y-81777278D01*
X93268777Y-81777279D01*
X93274526Y-81787237D01*
X93360960Y-81936944D01*
X93365378Y-81941851D01*
X93365379Y-81941852D01*
X93479678Y-82068794D01*
X93488747Y-82078866D01*
X93527646Y-82107128D01*
X93623006Y-82176411D01*
X93643248Y-82191118D01*
X93649276Y-82193802D01*
X93649278Y-82193803D01*
X93659327Y-82198277D01*
X93817712Y-82268794D01*
X93911113Y-82288647D01*
X93998056Y-82307128D01*
X93998061Y-82307128D01*
X94004513Y-82308500D01*
X94195487Y-82308500D01*
X94201939Y-82307128D01*
X94201944Y-82307128D01*
X94288887Y-82288647D01*
X94382288Y-82268794D01*
X94540673Y-82198277D01*
X94550722Y-82193803D01*
X94550724Y-82193802D01*
X94556752Y-82191118D01*
X94576995Y-82176411D01*
X94672354Y-82107128D01*
X94711253Y-82078866D01*
X94720322Y-82068794D01*
X94834621Y-81941852D01*
X94834622Y-81941851D01*
X94839040Y-81936944D01*
X94925474Y-81787237D01*
X94931223Y-81777279D01*
X94931224Y-81777278D01*
X94934527Y-81771556D01*
X94993542Y-81589928D01*
X94994872Y-81577279D01*
X95012814Y-81406565D01*
X95013504Y-81400000D01*
X103186496Y-81400000D01*
X103187186Y-81406565D01*
X103205129Y-81577279D01*
X103206458Y-81589928D01*
X103265473Y-81771556D01*
X103268776Y-81777278D01*
X103268777Y-81777279D01*
X103274526Y-81787237D01*
X103360960Y-81936944D01*
X103365378Y-81941851D01*
X103365379Y-81941852D01*
X103479678Y-82068794D01*
X103488747Y-82078866D01*
X103527646Y-82107128D01*
X103623006Y-82176411D01*
X103643248Y-82191118D01*
X103649276Y-82193802D01*
X103649278Y-82193803D01*
X103659327Y-82198277D01*
X103817712Y-82268794D01*
X103911113Y-82288647D01*
X103998056Y-82307128D01*
X103998061Y-82307128D01*
X104004513Y-82308500D01*
X104195487Y-82308500D01*
X104201939Y-82307128D01*
X104201944Y-82307128D01*
X104288887Y-82288647D01*
X104382288Y-82268794D01*
X104540673Y-82198277D01*
X104550722Y-82193803D01*
X104550724Y-82193802D01*
X104556752Y-82191118D01*
X104576995Y-82176411D01*
X104672354Y-82107128D01*
X104711253Y-82078866D01*
X104720322Y-82068794D01*
X104834621Y-81941852D01*
X104834622Y-81941851D01*
X104839040Y-81936944D01*
X104925474Y-81787237D01*
X104931223Y-81777279D01*
X104931224Y-81777278D01*
X104934527Y-81771556D01*
X104993542Y-81589928D01*
X104994872Y-81577279D01*
X105012814Y-81406565D01*
X105013504Y-81400000D01*
X105010368Y-81370166D01*
X104994232Y-81216635D01*
X104994232Y-81216633D01*
X104993542Y-81210072D01*
X104990269Y-81200000D01*
X112986496Y-81200000D01*
X112987186Y-81206565D01*
X113005129Y-81377279D01*
X113006458Y-81389928D01*
X113065473Y-81571556D01*
X113160960Y-81736944D01*
X113165378Y-81741851D01*
X113165379Y-81741852D01*
X113279678Y-81868794D01*
X113288747Y-81878866D01*
X113443248Y-81991118D01*
X113449276Y-81993802D01*
X113449278Y-81993803D01*
X113546009Y-82036870D01*
X113617712Y-82068794D01*
X113683365Y-82082749D01*
X113798056Y-82107128D01*
X113798061Y-82107128D01*
X113804513Y-82108500D01*
X113995487Y-82108500D01*
X114001939Y-82107128D01*
X114001944Y-82107128D01*
X114116635Y-82082749D01*
X114182288Y-82068794D01*
X114253991Y-82036870D01*
X114350722Y-81993803D01*
X114350724Y-81993802D01*
X114356752Y-81991118D01*
X114511253Y-81878866D01*
X114520322Y-81868794D01*
X114634621Y-81741852D01*
X114634622Y-81741851D01*
X114639040Y-81736944D01*
X114734527Y-81571556D01*
X114793542Y-81389928D01*
X114794872Y-81377279D01*
X114812814Y-81206565D01*
X114813504Y-81200000D01*
X114802994Y-81100000D01*
X123386496Y-81100000D01*
X123387186Y-81106565D01*
X123396608Y-81196206D01*
X123406458Y-81289928D01*
X123465473Y-81471556D01*
X123560960Y-81636944D01*
X123688747Y-81778866D01*
X123709306Y-81793803D01*
X123826385Y-81878866D01*
X123843248Y-81891118D01*
X123849276Y-81893802D01*
X123849278Y-81893803D01*
X123933332Y-81931226D01*
X124017712Y-81968794D01*
X124104479Y-81987237D01*
X124198056Y-82007128D01*
X124198061Y-82007128D01*
X124204513Y-82008500D01*
X124395487Y-82008500D01*
X124401939Y-82007128D01*
X124401944Y-82007128D01*
X124495521Y-81987237D01*
X124582288Y-81968794D01*
X124666668Y-81931226D01*
X124750722Y-81893803D01*
X124750724Y-81893802D01*
X124756752Y-81891118D01*
X124773616Y-81878866D01*
X124890694Y-81793803D01*
X124911253Y-81778866D01*
X125039040Y-81636944D01*
X125134527Y-81471556D01*
X125193542Y-81289928D01*
X125203393Y-81196206D01*
X125212814Y-81106565D01*
X125213504Y-81100000D01*
X125212814Y-81093435D01*
X125202994Y-81000000D01*
X130986496Y-81000000D01*
X131006458Y-81189928D01*
X131065473Y-81371556D01*
X131068776Y-81377278D01*
X131068777Y-81377279D01*
X131086803Y-81408500D01*
X131160960Y-81536944D01*
X131165378Y-81541851D01*
X131165379Y-81541852D01*
X131208667Y-81589928D01*
X131288747Y-81678866D01*
X131387843Y-81750864D01*
X131426385Y-81778866D01*
X131443248Y-81791118D01*
X131449276Y-81793802D01*
X131449278Y-81793803D01*
X131611681Y-81866109D01*
X131617712Y-81868794D01*
X131683365Y-81882749D01*
X131798056Y-81907128D01*
X131798061Y-81907128D01*
X131804513Y-81908500D01*
X131995487Y-81908500D01*
X132001939Y-81907128D01*
X132001944Y-81907128D01*
X132116635Y-81882749D01*
X132182288Y-81868794D01*
X132188319Y-81866109D01*
X132350722Y-81793803D01*
X132350724Y-81793802D01*
X132356752Y-81791118D01*
X132373616Y-81778866D01*
X132412157Y-81750864D01*
X132511253Y-81678866D01*
X132591333Y-81589928D01*
X132634621Y-81541852D01*
X132634622Y-81541851D01*
X132639040Y-81536944D01*
X132713197Y-81408500D01*
X132731223Y-81377279D01*
X132731224Y-81377278D01*
X132734527Y-81371556D01*
X132793542Y-81189928D01*
X132813504Y-81000000D01*
X132804052Y-80910072D01*
X132794232Y-80816635D01*
X132794232Y-80816633D01*
X132793542Y-80810072D01*
X132734527Y-80628444D01*
X132660370Y-80500000D01*
X142486496Y-80500000D01*
X142487186Y-80506565D01*
X142505385Y-80679715D01*
X142506458Y-80689928D01*
X142565473Y-80871556D01*
X142660960Y-81036944D01*
X142788747Y-81178866D01*
X142943248Y-81291118D01*
X142949276Y-81293802D01*
X142949278Y-81293803D01*
X143109799Y-81365271D01*
X143117712Y-81368794D01*
X143186263Y-81383365D01*
X143298056Y-81407128D01*
X143298061Y-81407128D01*
X143304513Y-81408500D01*
X143495487Y-81408500D01*
X143501939Y-81407128D01*
X143501944Y-81407128D01*
X143613737Y-81383365D01*
X143682288Y-81368794D01*
X143690201Y-81365271D01*
X143850722Y-81293803D01*
X143850724Y-81293802D01*
X143856752Y-81291118D01*
X144011253Y-81178866D01*
X144139040Y-81036944D01*
X144234527Y-80871556D01*
X144293542Y-80689928D01*
X144294616Y-80679715D01*
X144312814Y-80506565D01*
X144313504Y-80500000D01*
X144303645Y-80406197D01*
X144294232Y-80316635D01*
X144294232Y-80316633D01*
X144293542Y-80310072D01*
X144234527Y-80128444D01*
X144213990Y-80092872D01*
X144186901Y-80045954D01*
X144139040Y-79963056D01*
X144029584Y-79841492D01*
X144015675Y-79826045D01*
X144015674Y-79826044D01*
X144011253Y-79821134D01*
X143856752Y-79708882D01*
X143850724Y-79706198D01*
X143850722Y-79706197D01*
X143688319Y-79633891D01*
X143688318Y-79633891D01*
X143682288Y-79631206D01*
X143588888Y-79611353D01*
X143501944Y-79592872D01*
X143501939Y-79592872D01*
X143495487Y-79591500D01*
X143304513Y-79591500D01*
X143298061Y-79592872D01*
X143298056Y-79592872D01*
X143211112Y-79611353D01*
X143117712Y-79631206D01*
X143111682Y-79633891D01*
X143111681Y-79633891D01*
X142949278Y-79706197D01*
X142949276Y-79706198D01*
X142943248Y-79708882D01*
X142788747Y-79821134D01*
X142784326Y-79826044D01*
X142784325Y-79826045D01*
X142770417Y-79841492D01*
X142660960Y-79963056D01*
X142613099Y-80045954D01*
X142586011Y-80092872D01*
X142565473Y-80128444D01*
X142506458Y-80310072D01*
X142505768Y-80316633D01*
X142505768Y-80316635D01*
X142496355Y-80406197D01*
X142486496Y-80500000D01*
X132660370Y-80500000D01*
X132639040Y-80463056D01*
X132522740Y-80333891D01*
X132515675Y-80326045D01*
X132515674Y-80326044D01*
X132511253Y-80321134D01*
X132356752Y-80208882D01*
X132350724Y-80206198D01*
X132350722Y-80206197D01*
X132188319Y-80133891D01*
X132188318Y-80133891D01*
X132182288Y-80131206D01*
X132088888Y-80111353D01*
X132001944Y-80092872D01*
X132001939Y-80092872D01*
X131995487Y-80091500D01*
X131804513Y-80091500D01*
X131798061Y-80092872D01*
X131798056Y-80092872D01*
X131711112Y-80111353D01*
X131617712Y-80131206D01*
X131611682Y-80133891D01*
X131611681Y-80133891D01*
X131449278Y-80206197D01*
X131449276Y-80206198D01*
X131443248Y-80208882D01*
X131288747Y-80321134D01*
X131284326Y-80326044D01*
X131284325Y-80326045D01*
X131277261Y-80333891D01*
X131160960Y-80463056D01*
X131065473Y-80628444D01*
X131006458Y-80810072D01*
X131005768Y-80816633D01*
X131005768Y-80816635D01*
X130995948Y-80910072D01*
X130986496Y-81000000D01*
X125202994Y-81000000D01*
X125194232Y-80916635D01*
X125194232Y-80916633D01*
X125193542Y-80910072D01*
X125134527Y-80728444D01*
X125103410Y-80674547D01*
X125096775Y-80663056D01*
X125039040Y-80563056D01*
X124938651Y-80451562D01*
X124915675Y-80426045D01*
X124915674Y-80426044D01*
X124911253Y-80421134D01*
X124780375Y-80326045D01*
X124762094Y-80312763D01*
X124762093Y-80312762D01*
X124756752Y-80308882D01*
X124750724Y-80306198D01*
X124750722Y-80306197D01*
X124588319Y-80233891D01*
X124588318Y-80233891D01*
X124582288Y-80231206D01*
X124488888Y-80211353D01*
X124401944Y-80192872D01*
X124401939Y-80192872D01*
X124395487Y-80191500D01*
X124204513Y-80191500D01*
X124198061Y-80192872D01*
X124198056Y-80192872D01*
X124111112Y-80211353D01*
X124017712Y-80231206D01*
X124011682Y-80233891D01*
X124011681Y-80233891D01*
X123849278Y-80306197D01*
X123849276Y-80306198D01*
X123843248Y-80308882D01*
X123837907Y-80312762D01*
X123837906Y-80312763D01*
X123819625Y-80326045D01*
X123688747Y-80421134D01*
X123684326Y-80426044D01*
X123684325Y-80426045D01*
X123661350Y-80451562D01*
X123560960Y-80563056D01*
X123503225Y-80663056D01*
X123496591Y-80674547D01*
X123465473Y-80728444D01*
X123406458Y-80910072D01*
X123405768Y-80916633D01*
X123405768Y-80916635D01*
X123387186Y-81093435D01*
X123386496Y-81100000D01*
X114802994Y-81100000D01*
X114796882Y-81041852D01*
X114794232Y-81016635D01*
X114794232Y-81016633D01*
X114793542Y-81010072D01*
X114734527Y-80828444D01*
X114639040Y-80663056D01*
X114522740Y-80533891D01*
X114515675Y-80526045D01*
X114515674Y-80526044D01*
X114511253Y-80521134D01*
X114380375Y-80426045D01*
X114362094Y-80412763D01*
X114362093Y-80412762D01*
X114356752Y-80408882D01*
X114350724Y-80406198D01*
X114350722Y-80406197D01*
X114188319Y-80333891D01*
X114188318Y-80333891D01*
X114182288Y-80331206D01*
X114082861Y-80310072D01*
X114001944Y-80292872D01*
X114001939Y-80292872D01*
X113995487Y-80291500D01*
X113804513Y-80291500D01*
X113798061Y-80292872D01*
X113798056Y-80292872D01*
X113717139Y-80310072D01*
X113617712Y-80331206D01*
X113611682Y-80333891D01*
X113611681Y-80333891D01*
X113449278Y-80406197D01*
X113449276Y-80406198D01*
X113443248Y-80408882D01*
X113437907Y-80412762D01*
X113437906Y-80412763D01*
X113419625Y-80426045D01*
X113288747Y-80521134D01*
X113284326Y-80526044D01*
X113284325Y-80526045D01*
X113277261Y-80533891D01*
X113160960Y-80663056D01*
X113065473Y-80828444D01*
X113006458Y-81010072D01*
X113005768Y-81016633D01*
X113005768Y-81016635D01*
X113003118Y-81041852D01*
X112986496Y-81200000D01*
X104990269Y-81200000D01*
X104934527Y-81028444D01*
X104839040Y-80863056D01*
X104797243Y-80816635D01*
X104715675Y-80726045D01*
X104715674Y-80726044D01*
X104711253Y-80721134D01*
X104556752Y-80608882D01*
X104550724Y-80606198D01*
X104550722Y-80606197D01*
X104388319Y-80533891D01*
X104388318Y-80533891D01*
X104382288Y-80531206D01*
X104266362Y-80506565D01*
X104201944Y-80492872D01*
X104201939Y-80492872D01*
X104195487Y-80491500D01*
X104004513Y-80491500D01*
X103998061Y-80492872D01*
X103998056Y-80492872D01*
X103933638Y-80506565D01*
X103817712Y-80531206D01*
X103811682Y-80533891D01*
X103811681Y-80533891D01*
X103649278Y-80606197D01*
X103649276Y-80606198D01*
X103643248Y-80608882D01*
X103488747Y-80721134D01*
X103484326Y-80726044D01*
X103484325Y-80726045D01*
X103402758Y-80816635D01*
X103360960Y-80863056D01*
X103265473Y-81028444D01*
X103206458Y-81210072D01*
X103205768Y-81216633D01*
X103205768Y-81216635D01*
X103189632Y-81370166D01*
X103186496Y-81400000D01*
X95013504Y-81400000D01*
X95010368Y-81370166D01*
X94994232Y-81216635D01*
X94994232Y-81216633D01*
X94993542Y-81210072D01*
X94934527Y-81028444D01*
X94839040Y-80863056D01*
X94797243Y-80816635D01*
X94715675Y-80726045D01*
X94715674Y-80726044D01*
X94711253Y-80721134D01*
X94556752Y-80608882D01*
X94550724Y-80606198D01*
X94550722Y-80606197D01*
X94388319Y-80533891D01*
X94388318Y-80533891D01*
X94382288Y-80531206D01*
X94266362Y-80506565D01*
X94201944Y-80492872D01*
X94201939Y-80492872D01*
X94195487Y-80491500D01*
X94004513Y-80491500D01*
X93998061Y-80492872D01*
X93998056Y-80492872D01*
X93933638Y-80506565D01*
X93817712Y-80531206D01*
X93811682Y-80533891D01*
X93811681Y-80533891D01*
X93649278Y-80606197D01*
X93649276Y-80606198D01*
X93643248Y-80608882D01*
X93488747Y-80721134D01*
X93484326Y-80726044D01*
X93484325Y-80726045D01*
X93402758Y-80816635D01*
X93360960Y-80863056D01*
X93265473Y-81028444D01*
X93206458Y-81210072D01*
X93205768Y-81216633D01*
X93205768Y-81216635D01*
X93189632Y-81370166D01*
X93186496Y-81400000D01*
X88461492Y-81400000D01*
X88488096Y-81373489D01*
X88547594Y-81290689D01*
X88615435Y-81196277D01*
X88618453Y-81192077D01*
X88624983Y-81178866D01*
X88715136Y-80996453D01*
X88715137Y-80996451D01*
X88717430Y-80991811D01*
X88782370Y-80778069D01*
X88811529Y-80556590D01*
X88813156Y-80490000D01*
X88794852Y-80267361D01*
X88740431Y-80050702D01*
X88651354Y-79845840D01*
X88530014Y-79658277D01*
X88379670Y-79493051D01*
X88375619Y-79489852D01*
X88375615Y-79489848D01*
X88208414Y-79357800D01*
X88208410Y-79357798D01*
X88204359Y-79354598D01*
X88163053Y-79331796D01*
X88113084Y-79281364D01*
X88098312Y-79211921D01*
X88123428Y-79145516D01*
X88150780Y-79118909D01*
X88194603Y-79087650D01*
X88329860Y-78991173D01*
X88488096Y-78833489D01*
X88547594Y-78750689D01*
X88615435Y-78656277D01*
X88618453Y-78652077D01*
X88717430Y-78451811D01*
X88782370Y-78238069D01*
X88811529Y-78016590D01*
X88813156Y-77950000D01*
X88794852Y-77727361D01*
X88740431Y-77510702D01*
X88651354Y-77305840D01*
X88530014Y-77118277D01*
X88379670Y-76953051D01*
X88375619Y-76949852D01*
X88375615Y-76949848D01*
X88208414Y-76817800D01*
X88208410Y-76817798D01*
X88204359Y-76814598D01*
X88163053Y-76791796D01*
X88113084Y-76741364D01*
X88098312Y-76671921D01*
X88123428Y-76605516D01*
X88150780Y-76578909D01*
X88194603Y-76547650D01*
X88329860Y-76451173D01*
X88488096Y-76293489D01*
X88547594Y-76210689D01*
X88615435Y-76116277D01*
X88618453Y-76112077D01*
X88717430Y-75911811D01*
X88782370Y-75698069D01*
X88811529Y-75476590D01*
X88813156Y-75410000D01*
X88794852Y-75187361D01*
X88740431Y-74970702D01*
X88651354Y-74765840D01*
X88530014Y-74578277D01*
X88379670Y-74413051D01*
X88375619Y-74409852D01*
X88375615Y-74409848D01*
X88208414Y-74277800D01*
X88208410Y-74277798D01*
X88204359Y-74274598D01*
X88163053Y-74251796D01*
X88113084Y-74201364D01*
X88098312Y-74131921D01*
X88123428Y-74065516D01*
X88150780Y-74038909D01*
X88194603Y-74007650D01*
X88329860Y-73911173D01*
X88391247Y-73850000D01*
X163316496Y-73850000D01*
X163317186Y-73856565D01*
X163323241Y-73914171D01*
X163336458Y-74039928D01*
X163395473Y-74221556D01*
X163490960Y-74386944D01*
X163618747Y-74528866D01*
X163686755Y-74578277D01*
X163730000Y-74609696D01*
X163773248Y-74641118D01*
X163779276Y-74643802D01*
X163779278Y-74643803D01*
X163781248Y-74644680D01*
X163947712Y-74718794D01*
X164011728Y-74732401D01*
X164128056Y-74757128D01*
X164128061Y-74757128D01*
X164134513Y-74758500D01*
X164325487Y-74758500D01*
X164331939Y-74757128D01*
X164331944Y-74757128D01*
X164448272Y-74732401D01*
X164512288Y-74718794D01*
X164678752Y-74644680D01*
X164749118Y-74635246D01*
X164781247Y-74644680D01*
X164947712Y-74718794D01*
X165011728Y-74732401D01*
X165128056Y-74757128D01*
X165128061Y-74757128D01*
X165134513Y-74758500D01*
X165325487Y-74758500D01*
X165331939Y-74757128D01*
X165331944Y-74757128D01*
X165448272Y-74732401D01*
X165512288Y-74718794D01*
X165678752Y-74644680D01*
X165749118Y-74635246D01*
X165781247Y-74644680D01*
X165947712Y-74718794D01*
X166011728Y-74732401D01*
X166128056Y-74757128D01*
X166128061Y-74757128D01*
X166134513Y-74758500D01*
X166325487Y-74758500D01*
X166331939Y-74757128D01*
X166331944Y-74757128D01*
X166448272Y-74732401D01*
X166512288Y-74718794D01*
X166678752Y-74644680D01*
X166749118Y-74635246D01*
X166781247Y-74644680D01*
X166947712Y-74718794D01*
X167011728Y-74732401D01*
X167128056Y-74757128D01*
X167128061Y-74757128D01*
X167134513Y-74758500D01*
X167325487Y-74758500D01*
X167331939Y-74757128D01*
X167331944Y-74757128D01*
X167448272Y-74732401D01*
X167512288Y-74718794D01*
X167678752Y-74644680D01*
X167749118Y-74635246D01*
X167781247Y-74644680D01*
X167947712Y-74718794D01*
X168011728Y-74732401D01*
X168128056Y-74757128D01*
X168128061Y-74757128D01*
X168134513Y-74758500D01*
X168325487Y-74758500D01*
X168331939Y-74757128D01*
X168331944Y-74757128D01*
X168448272Y-74732401D01*
X168512288Y-74718794D01*
X168678752Y-74644680D01*
X168749118Y-74635246D01*
X168781247Y-74644680D01*
X168947712Y-74718794D01*
X169011728Y-74732401D01*
X169128056Y-74757128D01*
X169128061Y-74757128D01*
X169134513Y-74758500D01*
X169325487Y-74758500D01*
X169331939Y-74757128D01*
X169331944Y-74757128D01*
X169448272Y-74732401D01*
X169512288Y-74718794D01*
X169678752Y-74644680D01*
X169749118Y-74635246D01*
X169781247Y-74644680D01*
X169947712Y-74718794D01*
X170011728Y-74732401D01*
X170128056Y-74757128D01*
X170128061Y-74757128D01*
X170134513Y-74758500D01*
X170325487Y-74758500D01*
X170331939Y-74757128D01*
X170331944Y-74757128D01*
X170448272Y-74732401D01*
X170512288Y-74718794D01*
X170678752Y-74644680D01*
X170749118Y-74635246D01*
X170781247Y-74644680D01*
X170947712Y-74718794D01*
X171011728Y-74732401D01*
X171128056Y-74757128D01*
X171128061Y-74757128D01*
X171134513Y-74758500D01*
X171325487Y-74758500D01*
X171331939Y-74757128D01*
X171331944Y-74757128D01*
X171448272Y-74732401D01*
X171512288Y-74718794D01*
X171678752Y-74644680D01*
X171749118Y-74635246D01*
X171781247Y-74644680D01*
X171947712Y-74718794D01*
X172011728Y-74732401D01*
X172128056Y-74757128D01*
X172128061Y-74757128D01*
X172134513Y-74758500D01*
X172325487Y-74758500D01*
X172331939Y-74757128D01*
X172331944Y-74757128D01*
X172448272Y-74732401D01*
X172512288Y-74718794D01*
X172678752Y-74644680D01*
X172749118Y-74635246D01*
X172781247Y-74644680D01*
X172947712Y-74718794D01*
X173011728Y-74732401D01*
X173128056Y-74757128D01*
X173128061Y-74757128D01*
X173134513Y-74758500D01*
X173325487Y-74758500D01*
X173331939Y-74757128D01*
X173331944Y-74757128D01*
X173448272Y-74732401D01*
X173512288Y-74718794D01*
X173678752Y-74644680D01*
X173680722Y-74643803D01*
X173680724Y-74643802D01*
X173686752Y-74641118D01*
X173730001Y-74609696D01*
X173773245Y-74578277D01*
X173841253Y-74528866D01*
X173969040Y-74386944D01*
X174064527Y-74221556D01*
X174123542Y-74039928D01*
X174136760Y-73914171D01*
X174142814Y-73856565D01*
X174143504Y-73850000D01*
X174133744Y-73757137D01*
X174124232Y-73666635D01*
X174124232Y-73666633D01*
X174123542Y-73660072D01*
X174064527Y-73478444D01*
X173969040Y-73313056D01*
X173937151Y-73277639D01*
X173845675Y-73176045D01*
X173845674Y-73176044D01*
X173841253Y-73171134D01*
X173742157Y-73099136D01*
X173692094Y-73062763D01*
X173692093Y-73062762D01*
X173686752Y-73058882D01*
X173680724Y-73056198D01*
X173680722Y-73056197D01*
X173518319Y-72983891D01*
X173518318Y-72983891D01*
X173512288Y-72981206D01*
X173418888Y-72961353D01*
X173331944Y-72942872D01*
X173331939Y-72942872D01*
X173325487Y-72941500D01*
X173134513Y-72941500D01*
X173128061Y-72942872D01*
X173128056Y-72942872D01*
X173041112Y-72961353D01*
X172947712Y-72981206D01*
X172781248Y-73055320D01*
X172710882Y-73064754D01*
X172678753Y-73055320D01*
X172512288Y-72981206D01*
X172418888Y-72961353D01*
X172331944Y-72942872D01*
X172331939Y-72942872D01*
X172325487Y-72941500D01*
X172134513Y-72941500D01*
X172128061Y-72942872D01*
X172128056Y-72942872D01*
X172041112Y-72961353D01*
X171947712Y-72981206D01*
X171781248Y-73055320D01*
X171710882Y-73064754D01*
X171678753Y-73055320D01*
X171512288Y-72981206D01*
X171418888Y-72961353D01*
X171331944Y-72942872D01*
X171331939Y-72942872D01*
X171325487Y-72941500D01*
X171134513Y-72941500D01*
X171128061Y-72942872D01*
X171128056Y-72942872D01*
X171041112Y-72961353D01*
X170947712Y-72981206D01*
X170781248Y-73055320D01*
X170710882Y-73064754D01*
X170678753Y-73055320D01*
X170512288Y-72981206D01*
X170418888Y-72961353D01*
X170331944Y-72942872D01*
X170331939Y-72942872D01*
X170325487Y-72941500D01*
X170134513Y-72941500D01*
X170128061Y-72942872D01*
X170128056Y-72942872D01*
X170041112Y-72961353D01*
X169947712Y-72981206D01*
X169781248Y-73055320D01*
X169710882Y-73064754D01*
X169678753Y-73055320D01*
X169512288Y-72981206D01*
X169418888Y-72961353D01*
X169331944Y-72942872D01*
X169331939Y-72942872D01*
X169325487Y-72941500D01*
X169134513Y-72941500D01*
X169128061Y-72942872D01*
X169128056Y-72942872D01*
X169041112Y-72961353D01*
X168947712Y-72981206D01*
X168781248Y-73055320D01*
X168710882Y-73064754D01*
X168678753Y-73055320D01*
X168512288Y-72981206D01*
X168418888Y-72961353D01*
X168331944Y-72942872D01*
X168331939Y-72942872D01*
X168325487Y-72941500D01*
X168134513Y-72941500D01*
X168128061Y-72942872D01*
X168128056Y-72942872D01*
X168041112Y-72961353D01*
X167947712Y-72981206D01*
X167781248Y-73055320D01*
X167710882Y-73064754D01*
X167678753Y-73055320D01*
X167512288Y-72981206D01*
X167418888Y-72961353D01*
X167331944Y-72942872D01*
X167331939Y-72942872D01*
X167325487Y-72941500D01*
X167134513Y-72941500D01*
X167128061Y-72942872D01*
X167128056Y-72942872D01*
X167041112Y-72961353D01*
X166947712Y-72981206D01*
X166781248Y-73055320D01*
X166710882Y-73064754D01*
X166678753Y-73055320D01*
X166512288Y-72981206D01*
X166418888Y-72961353D01*
X166331944Y-72942872D01*
X166331939Y-72942872D01*
X166325487Y-72941500D01*
X166134513Y-72941500D01*
X166128061Y-72942872D01*
X166128056Y-72942872D01*
X166041112Y-72961353D01*
X165947712Y-72981206D01*
X165781248Y-73055320D01*
X165710882Y-73064754D01*
X165678753Y-73055320D01*
X165512288Y-72981206D01*
X165418888Y-72961353D01*
X165331944Y-72942872D01*
X165331939Y-72942872D01*
X165325487Y-72941500D01*
X165134513Y-72941500D01*
X165128061Y-72942872D01*
X165128056Y-72942872D01*
X165041112Y-72961353D01*
X164947712Y-72981206D01*
X164781248Y-73055320D01*
X164710882Y-73064754D01*
X164678753Y-73055320D01*
X164512288Y-72981206D01*
X164418888Y-72961353D01*
X164331944Y-72942872D01*
X164331939Y-72942872D01*
X164325487Y-72941500D01*
X164134513Y-72941500D01*
X164128061Y-72942872D01*
X164128056Y-72942872D01*
X164041112Y-72961353D01*
X163947712Y-72981206D01*
X163941682Y-72983891D01*
X163941681Y-72983891D01*
X163779278Y-73056197D01*
X163779276Y-73056198D01*
X163773248Y-73058882D01*
X163767907Y-73062762D01*
X163767906Y-73062763D01*
X163717843Y-73099136D01*
X163618747Y-73171134D01*
X163614326Y-73176044D01*
X163614325Y-73176045D01*
X163522850Y-73277639D01*
X163490960Y-73313056D01*
X163395473Y-73478444D01*
X163336458Y-73660072D01*
X163335768Y-73666633D01*
X163335768Y-73666635D01*
X163326256Y-73757137D01*
X163316496Y-73850000D01*
X88391247Y-73850000D01*
X88488096Y-73753489D01*
X88547594Y-73670689D01*
X88615435Y-73576277D01*
X88618453Y-73572077D01*
X88667558Y-73472721D01*
X88715136Y-73376453D01*
X88715137Y-73376451D01*
X88717430Y-73371811D01*
X88749900Y-73264940D01*
X88780865Y-73163023D01*
X88780865Y-73163021D01*
X88782370Y-73158069D01*
X88811529Y-72936590D01*
X88813156Y-72870000D01*
X88794852Y-72647361D01*
X88740431Y-72430702D01*
X88651354Y-72225840D01*
X88530014Y-72038277D01*
X88379670Y-71873051D01*
X88375619Y-71869852D01*
X88375615Y-71869848D01*
X88208414Y-71737800D01*
X88208410Y-71737798D01*
X88204359Y-71734598D01*
X88163053Y-71711796D01*
X88113084Y-71661364D01*
X88098312Y-71591921D01*
X88123428Y-71525516D01*
X88150780Y-71498909D01*
X88194603Y-71467650D01*
X88329860Y-71371173D01*
X88488096Y-71213489D01*
X88547594Y-71130689D01*
X88615435Y-71036277D01*
X88618453Y-71032077D01*
X88717430Y-70831811D01*
X88782370Y-70618069D01*
X88811529Y-70396590D01*
X88813156Y-70330000D01*
X88794852Y-70107361D01*
X88740431Y-69890702D01*
X88651354Y-69685840D01*
X88530014Y-69498277D01*
X88379670Y-69333051D01*
X88375619Y-69329852D01*
X88375615Y-69329848D01*
X88208414Y-69197800D01*
X88208410Y-69197798D01*
X88204359Y-69194598D01*
X88163053Y-69171796D01*
X88113084Y-69121364D01*
X88098312Y-69051921D01*
X88123428Y-68985516D01*
X88150780Y-68958909D01*
X88194603Y-68927650D01*
X88329860Y-68831173D01*
X88488096Y-68673489D01*
X88547594Y-68590689D01*
X88615435Y-68496277D01*
X88618453Y-68492077D01*
X88717430Y-68291811D01*
X88782370Y-68078069D01*
X88811529Y-67856590D01*
X88813156Y-67790000D01*
X88794852Y-67567361D01*
X88740431Y-67350702D01*
X88651354Y-67145840D01*
X88530014Y-66958277D01*
X88379670Y-66793051D01*
X88375619Y-66789852D01*
X88375615Y-66789848D01*
X88208414Y-66657800D01*
X88208410Y-66657798D01*
X88204359Y-66654598D01*
X88008789Y-66546638D01*
X88003920Y-66544914D01*
X88003916Y-66544912D01*
X87803087Y-66473795D01*
X87803083Y-66473794D01*
X87798212Y-66472069D01*
X87793119Y-66471162D01*
X87793116Y-66471161D01*
X87583373Y-66433800D01*
X87583367Y-66433799D01*
X87578284Y-66432894D01*
X87504452Y-66431992D01*
X87360081Y-66430228D01*
X87360079Y-66430228D01*
X87354911Y-66430165D01*
X87134091Y-66463955D01*
X86921756Y-66533357D01*
X86723607Y-66636507D01*
X86719474Y-66639610D01*
X86719471Y-66639612D01*
X86549100Y-66767530D01*
X86544965Y-66770635D01*
X86390629Y-66932138D01*
X86264743Y-67116680D01*
X86170688Y-67319305D01*
X86110989Y-67534570D01*
X86087251Y-67756695D01*
X86087548Y-67761848D01*
X86087548Y-67761851D01*
X86093011Y-67856590D01*
X86100110Y-67979715D01*
X86101247Y-67984761D01*
X86101248Y-67984767D01*
X86121119Y-68072939D01*
X86149222Y-68197639D01*
X86233266Y-68404616D01*
X86349987Y-68595088D01*
X86496250Y-68763938D01*
X86668126Y-68906632D01*
X86738595Y-68947811D01*
X86741445Y-68949476D01*
X86790169Y-69001114D01*
X86803240Y-69070897D01*
X86776509Y-69136669D01*
X86736055Y-69170027D01*
X86723607Y-69176507D01*
X86719474Y-69179610D01*
X86719471Y-69179612D01*
X86695247Y-69197800D01*
X86544965Y-69310635D01*
X86390629Y-69472138D01*
X86264743Y-69656680D01*
X86170688Y-69859305D01*
X86110989Y-70074570D01*
X86087251Y-70296695D01*
X86087548Y-70301848D01*
X86087548Y-70301851D01*
X86093011Y-70396590D01*
X86100110Y-70519715D01*
X86101247Y-70524761D01*
X86101248Y-70524767D01*
X86121119Y-70612939D01*
X86149222Y-70737639D01*
X86233266Y-70944616D01*
X86349987Y-71135088D01*
X86496250Y-71303938D01*
X86668126Y-71446632D01*
X86738595Y-71487811D01*
X86741445Y-71489476D01*
X86790169Y-71541114D01*
X86803240Y-71610897D01*
X86776509Y-71676669D01*
X86736055Y-71710027D01*
X86723607Y-71716507D01*
X86719474Y-71719610D01*
X86719471Y-71719612D01*
X86695247Y-71737800D01*
X86544965Y-71850635D01*
X86390629Y-72012138D01*
X86264743Y-72196680D01*
X86170688Y-72399305D01*
X86110989Y-72614570D01*
X86087251Y-72836695D01*
X86087548Y-72841848D01*
X86087548Y-72841851D01*
X86093011Y-72936590D01*
X86100110Y-73059715D01*
X86101246Y-73064754D01*
X86101248Y-73064767D01*
X86121119Y-73152939D01*
X86149222Y-73277639D01*
X86233266Y-73484616D01*
X86349987Y-73675088D01*
X86496250Y-73843938D01*
X86668126Y-73986632D01*
X86738595Y-74027811D01*
X86741445Y-74029476D01*
X86790169Y-74081114D01*
X86803240Y-74150897D01*
X86776509Y-74216669D01*
X86736055Y-74250027D01*
X86723607Y-74256507D01*
X86719474Y-74259610D01*
X86719471Y-74259612D01*
X86549100Y-74387530D01*
X86544965Y-74390635D01*
X86541393Y-74394373D01*
X86409158Y-74532749D01*
X86390629Y-74552138D01*
X86264743Y-74736680D01*
X86170688Y-74939305D01*
X86110989Y-75154570D01*
X86087251Y-75376695D01*
X86087548Y-75381848D01*
X86087548Y-75381851D01*
X86093011Y-75476590D01*
X86100110Y-75599715D01*
X86101247Y-75604761D01*
X86101248Y-75604767D01*
X86121119Y-75692939D01*
X86149222Y-75817639D01*
X86233266Y-76024616D01*
X86349987Y-76215088D01*
X86496250Y-76383938D01*
X86668126Y-76526632D01*
X86738595Y-76567811D01*
X86741445Y-76569476D01*
X86790169Y-76621114D01*
X86803240Y-76690897D01*
X86776509Y-76756669D01*
X86736055Y-76790027D01*
X86723607Y-76796507D01*
X86719474Y-76799610D01*
X86719471Y-76799612D01*
X86695247Y-76817800D01*
X86544965Y-76930635D01*
X86390629Y-77092138D01*
X86264743Y-77276680D01*
X86170688Y-77479305D01*
X86110989Y-77694570D01*
X86087251Y-77916695D01*
X86087548Y-77921848D01*
X86087548Y-77921851D01*
X86093011Y-78016590D01*
X86100110Y-78139715D01*
X86101247Y-78144761D01*
X86101248Y-78144767D01*
X86121119Y-78232939D01*
X86149222Y-78357639D01*
X86233266Y-78564616D01*
X86349987Y-78755088D01*
X86496250Y-78923938D01*
X86668126Y-79066632D01*
X86738595Y-79107811D01*
X86741445Y-79109476D01*
X86790169Y-79161114D01*
X86803240Y-79230897D01*
X86776509Y-79296669D01*
X86736055Y-79330027D01*
X86723607Y-79336507D01*
X86719474Y-79339610D01*
X86719471Y-79339612D01*
X86695247Y-79357800D01*
X86544965Y-79470635D01*
X86390629Y-79632138D01*
X86264743Y-79816680D01*
X86249003Y-79850590D01*
X86194144Y-79968774D01*
X86170688Y-80019305D01*
X86110989Y-80234570D01*
X86087251Y-80456695D01*
X86087548Y-80461848D01*
X86087548Y-80461851D01*
X86093713Y-80568774D01*
X86100110Y-80679715D01*
X86101247Y-80684761D01*
X86101248Y-80684767D01*
X86112508Y-80734729D01*
X86149222Y-80897639D01*
X86233266Y-81104616D01*
X86349987Y-81295088D01*
X86496250Y-81463938D01*
X86668126Y-81606632D01*
X86710214Y-81631226D01*
X86741445Y-81649476D01*
X86790169Y-81701114D01*
X86803240Y-81770897D01*
X86776509Y-81836669D01*
X86736055Y-81870027D01*
X86723607Y-81876507D01*
X86719474Y-81879610D01*
X86719471Y-81879612D01*
X86549100Y-82007530D01*
X86544965Y-82010635D01*
X86390629Y-82172138D01*
X86264743Y-82356680D01*
X86170688Y-82559305D01*
X86110989Y-82774570D01*
X86087251Y-82996695D01*
X86087548Y-83001848D01*
X86087548Y-83001851D01*
X86093011Y-83096590D01*
X86100110Y-83219715D01*
X86101247Y-83224761D01*
X86101248Y-83224767D01*
X86121119Y-83312939D01*
X86149222Y-83437639D01*
X86233266Y-83644616D01*
X86349987Y-83835088D01*
X86496250Y-84003938D01*
X86668126Y-84146632D01*
X86738595Y-84187811D01*
X86741445Y-84189476D01*
X86790169Y-84241114D01*
X86803240Y-84310897D01*
X86776509Y-84376669D01*
X86736055Y-84410027D01*
X86723607Y-84416507D01*
X86719474Y-84419610D01*
X86719471Y-84419612D01*
X86695247Y-84437800D01*
X86544965Y-84550635D01*
X86390629Y-84712138D01*
X86264743Y-84896680D01*
X86170688Y-85099305D01*
X86110989Y-85314570D01*
X86087251Y-85536695D01*
X80908500Y-85536695D01*
X80908500Y-65200000D01*
X96186738Y-65200000D01*
X96205767Y-65502462D01*
X96262555Y-65800154D01*
X96356206Y-66088381D01*
X96357893Y-66091967D01*
X96357895Y-66091971D01*
X96395608Y-66172116D01*
X96485242Y-66362598D01*
X96647630Y-66618480D01*
X96840808Y-66851992D01*
X97061729Y-67059450D01*
X97306910Y-67237584D01*
X97310379Y-67239491D01*
X97310382Y-67239493D01*
X97455559Y-67319305D01*
X97572483Y-67383585D01*
X97576152Y-67385038D01*
X97576157Y-67385040D01*
X97850591Y-67493696D01*
X97854261Y-67495149D01*
X98147800Y-67570516D01*
X98448470Y-67608500D01*
X98751530Y-67608500D01*
X99052200Y-67570516D01*
X99345739Y-67495149D01*
X99349409Y-67493696D01*
X99623843Y-67385040D01*
X99623848Y-67385038D01*
X99627517Y-67383585D01*
X99744441Y-67319305D01*
X99889618Y-67239493D01*
X99889621Y-67239491D01*
X99893090Y-67237584D01*
X100138271Y-67059450D01*
X100359192Y-66851992D01*
X100552370Y-66618480D01*
X100714758Y-66362598D01*
X100804392Y-66172116D01*
X100842105Y-66091971D01*
X100842107Y-66091967D01*
X100843794Y-66088381D01*
X100937445Y-65800154D01*
X100994233Y-65502462D01*
X101013262Y-65200000D01*
X101986738Y-65200000D01*
X102005767Y-65502462D01*
X102062555Y-65800154D01*
X102156206Y-66088381D01*
X102157893Y-66091967D01*
X102157895Y-66091971D01*
X102195608Y-66172116D01*
X102285242Y-66362598D01*
X102447630Y-66618480D01*
X102640808Y-66851992D01*
X102861729Y-67059450D01*
X103106910Y-67237584D01*
X103110379Y-67239491D01*
X103110382Y-67239493D01*
X103255559Y-67319305D01*
X103372483Y-67383585D01*
X103376152Y-67385038D01*
X103376157Y-67385040D01*
X103650591Y-67493696D01*
X103654261Y-67495149D01*
X103947800Y-67570516D01*
X104248470Y-67608500D01*
X104551530Y-67608500D01*
X104852200Y-67570516D01*
X105145739Y-67495149D01*
X105149409Y-67493696D01*
X105423843Y-67385040D01*
X105423848Y-67385038D01*
X105427517Y-67383585D01*
X105544441Y-67319305D01*
X105689618Y-67239493D01*
X105689621Y-67239491D01*
X105693090Y-67237584D01*
X105938271Y-67059450D01*
X106159192Y-66851992D01*
X106352370Y-66618480D01*
X106514758Y-66362598D01*
X106604392Y-66172116D01*
X106642105Y-66091971D01*
X106642107Y-66091967D01*
X106643794Y-66088381D01*
X106737445Y-65800154D01*
X106794233Y-65502462D01*
X106813262Y-65200000D01*
X107586738Y-65200000D01*
X107605767Y-65502462D01*
X107662555Y-65800154D01*
X107756206Y-66088381D01*
X107757893Y-66091967D01*
X107757895Y-66091971D01*
X107795608Y-66172116D01*
X107885242Y-66362598D01*
X108047630Y-66618480D01*
X108240808Y-66851992D01*
X108461729Y-67059450D01*
X108706910Y-67237584D01*
X108710379Y-67239491D01*
X108710382Y-67239493D01*
X108855559Y-67319305D01*
X108972483Y-67383585D01*
X108976152Y-67385038D01*
X108976157Y-67385040D01*
X109250591Y-67493696D01*
X109254261Y-67495149D01*
X109547800Y-67570516D01*
X109848470Y-67608500D01*
X110151530Y-67608500D01*
X110452200Y-67570516D01*
X110745739Y-67495149D01*
X110749409Y-67493696D01*
X111023843Y-67385040D01*
X111023848Y-67385038D01*
X111027517Y-67383585D01*
X111144441Y-67319305D01*
X111289618Y-67239493D01*
X111289621Y-67239491D01*
X111293090Y-67237584D01*
X111538271Y-67059450D01*
X111759192Y-66851992D01*
X111952370Y-66618480D01*
X112114758Y-66362598D01*
X112204392Y-66172116D01*
X112242105Y-66091971D01*
X112242107Y-66091967D01*
X112243794Y-66088381D01*
X112337445Y-65800154D01*
X112394233Y-65502462D01*
X112400335Y-65405469D01*
X119087095Y-65405469D01*
X119087392Y-65410622D01*
X119087392Y-65410625D01*
X119092912Y-65506360D01*
X119100427Y-65636697D01*
X119101564Y-65641743D01*
X119101565Y-65641749D01*
X119133741Y-65784523D01*
X119151346Y-65862642D01*
X119153288Y-65867424D01*
X119153289Y-65867428D01*
X119236540Y-66072450D01*
X119238484Y-66077237D01*
X119359501Y-66274719D01*
X119511147Y-66449784D01*
X119689349Y-66597730D01*
X119889322Y-66714584D01*
X120105694Y-66797209D01*
X120110760Y-66798240D01*
X120110761Y-66798240D01*
X120163846Y-66809040D01*
X120332656Y-66843385D01*
X120463324Y-66848176D01*
X120558949Y-66851683D01*
X120558953Y-66851683D01*
X120564113Y-66851872D01*
X120569233Y-66851216D01*
X120569235Y-66851216D01*
X120642270Y-66841860D01*
X120793847Y-66822442D01*
X120798795Y-66820957D01*
X120798802Y-66820956D01*
X121010747Y-66757369D01*
X121015690Y-66755886D01*
X121096236Y-66716427D01*
X121219049Y-66656262D01*
X121219052Y-66656260D01*
X121223684Y-66653991D01*
X121412243Y-66519494D01*
X121576303Y-66356005D01*
X121711458Y-66167917D01*
X121758641Y-66072450D01*
X121811784Y-65964922D01*
X121811785Y-65964920D01*
X121814078Y-65960280D01*
X121881408Y-65738671D01*
X121911640Y-65509041D01*
X121913327Y-65440000D01*
X121907032Y-65363434D01*
X121894773Y-65214318D01*
X121894772Y-65214312D01*
X121894349Y-65209167D01*
X121837925Y-64984533D01*
X121835866Y-64979797D01*
X121747630Y-64776868D01*
X121747628Y-64776865D01*
X121745570Y-64772131D01*
X121619764Y-64577665D01*
X121463887Y-64406358D01*
X121459836Y-64403159D01*
X121459832Y-64403155D01*
X121287077Y-64266722D01*
X121246014Y-64208805D01*
X121242782Y-64137882D01*
X121278407Y-64076470D01*
X121292001Y-64065261D01*
X121295872Y-64062500D01*
X121412243Y-63979494D01*
X121576303Y-63816005D01*
X121711458Y-63627917D01*
X121750952Y-63548008D01*
X121811784Y-63424922D01*
X121811785Y-63424920D01*
X121814078Y-63420280D01*
X121881408Y-63198671D01*
X121911640Y-62969041D01*
X121913173Y-62906304D01*
X121913245Y-62903365D01*
X121913245Y-62903361D01*
X121913327Y-62900000D01*
X121904407Y-62791500D01*
X121894773Y-62674318D01*
X121894772Y-62674312D01*
X121894349Y-62669167D01*
X121837925Y-62444533D01*
X121835866Y-62439797D01*
X121747630Y-62236868D01*
X121747628Y-62236865D01*
X121745570Y-62232131D01*
X121619764Y-62037665D01*
X121463887Y-61866358D01*
X121459836Y-61863159D01*
X121459832Y-61863155D01*
X121287077Y-61726722D01*
X121246014Y-61668805D01*
X121242782Y-61597882D01*
X121278407Y-61536470D01*
X121292001Y-61525261D01*
X121295872Y-61522500D01*
X121412243Y-61439494D01*
X121576303Y-61276005D01*
X121711458Y-61087917D01*
X121758641Y-60992450D01*
X121811784Y-60884922D01*
X121811785Y-60884920D01*
X121814078Y-60880280D01*
X121881408Y-60658671D01*
X121911640Y-60429041D01*
X121913327Y-60360000D01*
X121907032Y-60283434D01*
X121894773Y-60134318D01*
X121894772Y-60134312D01*
X121894349Y-60129167D01*
X121857482Y-59982391D01*
X121839184Y-59909544D01*
X121839183Y-59909540D01*
X121837925Y-59904533D01*
X121835866Y-59899797D01*
X121747630Y-59696868D01*
X121747628Y-59696865D01*
X121745570Y-59692131D01*
X121619764Y-59497665D01*
X121463887Y-59326358D01*
X121459836Y-59323159D01*
X121459832Y-59323155D01*
X121286177Y-59186011D01*
X121286172Y-59186008D01*
X121282123Y-59182810D01*
X121277607Y-59180317D01*
X121277604Y-59180315D01*
X121083879Y-59073373D01*
X121083875Y-59073371D01*
X121079355Y-59070876D01*
X121074486Y-59069152D01*
X121074482Y-59069150D01*
X120865903Y-58995288D01*
X120865899Y-58995287D01*
X120861028Y-58993562D01*
X120855935Y-58992655D01*
X120855932Y-58992654D01*
X120638095Y-58953851D01*
X120638089Y-58953850D01*
X120633006Y-58952945D01*
X120560096Y-58952054D01*
X120406581Y-58950179D01*
X120406579Y-58950179D01*
X120401411Y-58950116D01*
X120172464Y-58985150D01*
X119952314Y-59057106D01*
X119947726Y-59059494D01*
X119947722Y-59059496D01*
X119904823Y-59081828D01*
X119746872Y-59164052D01*
X119742739Y-59167155D01*
X119742736Y-59167157D01*
X119603806Y-59271469D01*
X119561655Y-59303117D01*
X119401639Y-59470564D01*
X119398725Y-59474836D01*
X119398724Y-59474837D01*
X119383152Y-59497665D01*
X119271119Y-59661899D01*
X119173602Y-59871981D01*
X119111707Y-60095169D01*
X119087095Y-60325469D01*
X119087392Y-60330622D01*
X119087392Y-60330625D01*
X119093067Y-60429041D01*
X119100427Y-60556697D01*
X119101564Y-60561743D01*
X119101565Y-60561749D01*
X119133741Y-60704523D01*
X119151346Y-60782642D01*
X119153288Y-60787424D01*
X119153289Y-60787428D01*
X119236540Y-60992450D01*
X119238484Y-60997237D01*
X119359501Y-61194719D01*
X119511147Y-61369784D01*
X119689349Y-61517730D01*
X119693819Y-61520342D01*
X119697511Y-61522500D01*
X119746232Y-61574140D01*
X119759301Y-61643924D01*
X119732566Y-61709694D01*
X119709589Y-61732045D01*
X119561655Y-61843117D01*
X119401639Y-62010564D01*
X119398725Y-62014836D01*
X119398724Y-62014837D01*
X119383152Y-62037665D01*
X119271119Y-62201899D01*
X119173602Y-62411981D01*
X119111707Y-62635169D01*
X119087095Y-62865469D01*
X119087392Y-62870622D01*
X119087392Y-62870625D01*
X119093067Y-62969041D01*
X119100427Y-63096697D01*
X119101564Y-63101743D01*
X119101565Y-63101749D01*
X119133741Y-63244523D01*
X119151346Y-63322642D01*
X119153288Y-63327424D01*
X119153289Y-63327428D01*
X119236540Y-63532450D01*
X119238484Y-63537237D01*
X119359501Y-63734719D01*
X119511147Y-63909784D01*
X119689349Y-64057730D01*
X119693819Y-64060342D01*
X119697511Y-64062500D01*
X119746232Y-64114140D01*
X119759301Y-64183924D01*
X119732566Y-64249694D01*
X119709589Y-64272045D01*
X119561655Y-64383117D01*
X119401639Y-64550564D01*
X119398725Y-64554836D01*
X119398724Y-64554837D01*
X119383152Y-64577665D01*
X119271119Y-64741899D01*
X119173602Y-64951981D01*
X119111707Y-65175169D01*
X119087095Y-65405469D01*
X112400335Y-65405469D01*
X112413262Y-65200000D01*
X112394233Y-64897538D01*
X112337445Y-64599846D01*
X112243794Y-64311619D01*
X112220827Y-64262810D01*
X112178144Y-64172105D01*
X112114758Y-64037402D01*
X111952370Y-63781520D01*
X111759192Y-63548008D01*
X111538271Y-63340550D01*
X111293090Y-63162416D01*
X111173549Y-63096697D01*
X111030986Y-63018322D01*
X111030985Y-63018321D01*
X111027517Y-63016415D01*
X111023848Y-63014962D01*
X111023843Y-63014960D01*
X110749409Y-62906304D01*
X110749408Y-62906304D01*
X110745739Y-62904851D01*
X110452200Y-62829484D01*
X110151530Y-62791500D01*
X109848470Y-62791500D01*
X109547800Y-62829484D01*
X109254261Y-62904851D01*
X109250592Y-62906304D01*
X109250591Y-62906304D01*
X108976157Y-63014960D01*
X108976152Y-63014962D01*
X108972483Y-63016415D01*
X108969015Y-63018321D01*
X108969014Y-63018322D01*
X108826452Y-63096697D01*
X108706910Y-63162416D01*
X108461729Y-63340550D01*
X108240808Y-63548008D01*
X108047630Y-63781520D01*
X107885242Y-64037402D01*
X107821856Y-64172105D01*
X107779174Y-64262810D01*
X107756206Y-64311619D01*
X107662555Y-64599846D01*
X107605767Y-64897538D01*
X107586738Y-65200000D01*
X106813262Y-65200000D01*
X106794233Y-64897538D01*
X106737445Y-64599846D01*
X106643794Y-64311619D01*
X106620827Y-64262810D01*
X106578144Y-64172105D01*
X106514758Y-64037402D01*
X106352370Y-63781520D01*
X106159192Y-63548008D01*
X105938271Y-63340550D01*
X105693090Y-63162416D01*
X105573549Y-63096697D01*
X105430986Y-63018322D01*
X105430985Y-63018321D01*
X105427517Y-63016415D01*
X105423848Y-63014962D01*
X105423843Y-63014960D01*
X105149409Y-62906304D01*
X105149408Y-62906304D01*
X105145739Y-62904851D01*
X104852200Y-62829484D01*
X104551530Y-62791500D01*
X104248470Y-62791500D01*
X103947800Y-62829484D01*
X103654261Y-62904851D01*
X103650592Y-62906304D01*
X103650591Y-62906304D01*
X103376157Y-63014960D01*
X103376152Y-63014962D01*
X103372483Y-63016415D01*
X103369015Y-63018321D01*
X103369014Y-63018322D01*
X103226452Y-63096697D01*
X103106910Y-63162416D01*
X102861729Y-63340550D01*
X102640808Y-63548008D01*
X102447630Y-63781520D01*
X102285242Y-64037402D01*
X102221856Y-64172105D01*
X102179174Y-64262810D01*
X102156206Y-64311619D01*
X102062555Y-64599846D01*
X102005767Y-64897538D01*
X101986738Y-65200000D01*
X101013262Y-65200000D01*
X100994233Y-64897538D01*
X100937445Y-64599846D01*
X100843794Y-64311619D01*
X100820827Y-64262810D01*
X100778144Y-64172105D01*
X100714758Y-64037402D01*
X100552370Y-63781520D01*
X100359192Y-63548008D01*
X100138271Y-63340550D01*
X99893090Y-63162416D01*
X99773549Y-63096697D01*
X99630986Y-63018322D01*
X99630985Y-63018321D01*
X99627517Y-63016415D01*
X99623848Y-63014962D01*
X99623843Y-63014960D01*
X99349409Y-62906304D01*
X99349408Y-62906304D01*
X99345739Y-62904851D01*
X99052200Y-62829484D01*
X98751530Y-62791500D01*
X98448470Y-62791500D01*
X98147800Y-62829484D01*
X97854261Y-62904851D01*
X97850592Y-62906304D01*
X97850591Y-62906304D01*
X97576157Y-63014960D01*
X97576152Y-63014962D01*
X97572483Y-63016415D01*
X97569015Y-63018321D01*
X97569014Y-63018322D01*
X97426452Y-63096697D01*
X97306910Y-63162416D01*
X97061729Y-63340550D01*
X96840808Y-63548008D01*
X96647630Y-63781520D01*
X96485242Y-64037402D01*
X96421856Y-64172105D01*
X96379174Y-64262810D01*
X96356206Y-64311619D01*
X96262555Y-64599846D01*
X96205767Y-64897538D01*
X96186738Y-65200000D01*
X80908500Y-65200000D01*
X80908500Y-57210000D01*
X153186496Y-57210000D01*
X153206458Y-57399928D01*
X153265473Y-57581556D01*
X153360960Y-57746944D01*
X153488747Y-57888866D01*
X153643248Y-58001118D01*
X153649276Y-58003802D01*
X153649278Y-58003803D01*
X153726192Y-58038047D01*
X153817712Y-58078794D01*
X153911112Y-58098647D01*
X153998056Y-58117128D01*
X153998061Y-58117128D01*
X154004513Y-58118500D01*
X154195487Y-58118500D01*
X154201942Y-58117128D01*
X154202151Y-58117106D01*
X154271989Y-58129879D01*
X154323835Y-58178382D01*
X154341228Y-58247216D01*
X154318645Y-58314525D01*
X154289381Y-58344351D01*
X154217746Y-58396397D01*
X154089959Y-58538319D01*
X153994472Y-58703707D01*
X153935457Y-58885335D01*
X153934767Y-58891896D01*
X153934767Y-58891898D01*
X153928351Y-58952945D01*
X153915495Y-59075263D01*
X153916185Y-59081828D01*
X153926799Y-59182810D01*
X153935457Y-59265191D01*
X153994472Y-59446819D01*
X154089959Y-59612207D01*
X154217746Y-59754129D01*
X154372247Y-59866381D01*
X154378275Y-59869065D01*
X154378277Y-59869066D01*
X154457938Y-59904533D01*
X154546711Y-59944057D01*
X154640111Y-59963910D01*
X154727055Y-59982391D01*
X154727060Y-59982391D01*
X154733512Y-59983763D01*
X154924486Y-59983763D01*
X154930938Y-59982391D01*
X154930943Y-59982391D01*
X155017887Y-59963910D01*
X155111287Y-59944057D01*
X155200060Y-59904533D01*
X155279721Y-59869066D01*
X155279723Y-59869065D01*
X155285751Y-59866381D01*
X155440252Y-59754129D01*
X155568039Y-59612207D01*
X155663526Y-59446819D01*
X155722541Y-59265191D01*
X155731200Y-59182810D01*
X155741813Y-59081828D01*
X155742503Y-59075263D01*
X155729647Y-58952945D01*
X155723231Y-58891898D01*
X155723231Y-58891896D01*
X155722541Y-58885335D01*
X155663526Y-58703707D01*
X155568039Y-58538319D01*
X155440252Y-58396397D01*
X155285751Y-58284145D01*
X155279723Y-58281461D01*
X155279721Y-58281460D01*
X155117318Y-58209154D01*
X155117317Y-58209154D01*
X155111287Y-58206469D01*
X155017886Y-58186616D01*
X154930943Y-58168135D01*
X154930938Y-58168135D01*
X154924486Y-58166763D01*
X154733512Y-58166763D01*
X154727057Y-58168135D01*
X154726848Y-58168157D01*
X154657010Y-58155384D01*
X154605164Y-58106881D01*
X154587771Y-58038047D01*
X154610354Y-57970738D01*
X154639619Y-57940911D01*
X154705909Y-57892749D01*
X154705911Y-57892747D01*
X154711253Y-57888866D01*
X154839040Y-57746944D01*
X154934527Y-57581556D01*
X154993542Y-57399928D01*
X155013504Y-57210000D01*
X154993542Y-57020072D01*
X154934527Y-56838444D01*
X154839040Y-56673056D01*
X154711253Y-56531134D01*
X154556752Y-56418882D01*
X154550724Y-56416198D01*
X154550722Y-56416197D01*
X154388319Y-56343891D01*
X154388318Y-56343891D01*
X154382288Y-56341206D01*
X154288888Y-56321353D01*
X154201944Y-56302872D01*
X154201939Y-56302872D01*
X154195487Y-56301500D01*
X154004513Y-56301500D01*
X153998061Y-56302872D01*
X153998056Y-56302872D01*
X153911113Y-56321353D01*
X153817712Y-56341206D01*
X153811682Y-56343891D01*
X153811681Y-56343891D01*
X153649278Y-56416197D01*
X153649276Y-56416198D01*
X153643248Y-56418882D01*
X153488747Y-56531134D01*
X153360960Y-56673056D01*
X153265473Y-56838444D01*
X153206458Y-57020072D01*
X153186496Y-57210000D01*
X80908500Y-57210000D01*
X80908500Y-48988434D01*
X81586661Y-48988434D01*
X81604792Y-49346340D01*
X81605329Y-49349695D01*
X81605330Y-49349701D01*
X81610316Y-49380828D01*
X81661470Y-49700195D01*
X81756033Y-50045859D01*
X81887374Y-50379288D01*
X81915162Y-50432217D01*
X82031544Y-50653891D01*
X82053957Y-50696582D01*
X82055858Y-50699411D01*
X82055864Y-50699421D01*
X82239569Y-50972800D01*
X82253834Y-50994029D01*
X82484665Y-51268150D01*
X82743751Y-51515738D01*
X83028061Y-51733897D01*
X83060056Y-51753350D01*
X83331355Y-51918303D01*
X83331360Y-51918306D01*
X83334270Y-51920075D01*
X83337358Y-51921521D01*
X83337357Y-51921521D01*
X83655710Y-52070649D01*
X83655720Y-52070653D01*
X83658794Y-52072093D01*
X83662012Y-52073195D01*
X83662015Y-52073196D01*
X83994615Y-52187071D01*
X83994623Y-52187073D01*
X83997838Y-52188174D01*
X84347435Y-52266959D01*
X84399728Y-52272917D01*
X84700114Y-52307142D01*
X84700122Y-52307142D01*
X84703497Y-52307527D01*
X84706901Y-52307545D01*
X84706904Y-52307545D01*
X84901227Y-52308562D01*
X85061857Y-52309403D01*
X85065243Y-52309053D01*
X85065245Y-52309053D01*
X85414932Y-52272917D01*
X85414941Y-52272916D01*
X85418324Y-52272566D01*
X85421657Y-52271852D01*
X85421660Y-52271851D01*
X85594186Y-52234864D01*
X85768727Y-52197446D01*
X86108968Y-52084922D01*
X86435066Y-51936311D01*
X86529052Y-51880506D01*
X86740262Y-51755099D01*
X86740267Y-51755096D01*
X86743207Y-51753350D01*
X87029786Y-51538180D01*
X87291451Y-51293319D01*
X87525140Y-51021630D01*
X87642675Y-50850615D01*
X87726190Y-50729101D01*
X87726195Y-50729094D01*
X87728120Y-50726292D01*
X87729732Y-50723298D01*
X87729737Y-50723290D01*
X87879239Y-50445634D01*
X133074000Y-50445634D01*
X133080755Y-50507816D01*
X133131885Y-50644205D01*
X133219239Y-50760761D01*
X133335795Y-50848115D01*
X133472184Y-50899245D01*
X133534366Y-50906000D01*
X135430634Y-50906000D01*
X135492816Y-50899245D01*
X135629205Y-50848115D01*
X135745761Y-50760761D01*
X135833115Y-50644205D01*
X135884245Y-50507816D01*
X135891000Y-50445634D01*
X135891000Y-50435634D01*
X143064000Y-50435634D01*
X143070755Y-50497816D01*
X143121885Y-50634205D01*
X143209239Y-50750761D01*
X143325795Y-50838115D01*
X143462184Y-50889245D01*
X143524366Y-50896000D01*
X145420634Y-50896000D01*
X145482816Y-50889245D01*
X145619205Y-50838115D01*
X145735761Y-50750761D01*
X145823115Y-50634205D01*
X145874245Y-50497816D01*
X145879642Y-50448134D01*
X153091500Y-50448134D01*
X153098255Y-50510316D01*
X153149385Y-50646705D01*
X153236739Y-50763261D01*
X153353295Y-50850615D01*
X153489684Y-50901745D01*
X153551866Y-50908500D01*
X155448134Y-50908500D01*
X155510316Y-50901745D01*
X155646705Y-50850615D01*
X155763261Y-50763261D01*
X155850615Y-50646705D01*
X155901745Y-50510316D01*
X155908500Y-50448134D01*
X163291500Y-50448134D01*
X163298255Y-50510316D01*
X163349385Y-50646705D01*
X163436739Y-50763261D01*
X163553295Y-50850615D01*
X163689684Y-50901745D01*
X163751866Y-50908500D01*
X165648134Y-50908500D01*
X165710316Y-50901745D01*
X165846705Y-50850615D01*
X165963261Y-50763261D01*
X166050615Y-50646705D01*
X166101745Y-50510316D01*
X166108500Y-50448134D01*
X166108500Y-48988434D01*
X172586661Y-48988434D01*
X172604792Y-49346340D01*
X172605329Y-49349695D01*
X172605330Y-49349701D01*
X172610316Y-49380828D01*
X172661470Y-49700195D01*
X172756033Y-50045859D01*
X172887374Y-50379288D01*
X172915162Y-50432217D01*
X173031544Y-50653891D01*
X173053957Y-50696582D01*
X173055858Y-50699411D01*
X173055864Y-50699421D01*
X173239569Y-50972800D01*
X173253834Y-50994029D01*
X173484665Y-51268150D01*
X173743751Y-51515738D01*
X174028061Y-51733897D01*
X174060056Y-51753350D01*
X174331355Y-51918303D01*
X174331360Y-51918306D01*
X174334270Y-51920075D01*
X174337358Y-51921521D01*
X174337357Y-51921521D01*
X174655710Y-52070649D01*
X174655720Y-52070653D01*
X174658794Y-52072093D01*
X174662012Y-52073195D01*
X174662015Y-52073196D01*
X174994615Y-52187071D01*
X174994623Y-52187073D01*
X174997838Y-52188174D01*
X175347435Y-52266959D01*
X175399728Y-52272917D01*
X175700114Y-52307142D01*
X175700122Y-52307142D01*
X175703497Y-52307527D01*
X175706901Y-52307545D01*
X175706904Y-52307545D01*
X175901227Y-52308562D01*
X176061857Y-52309403D01*
X176065243Y-52309053D01*
X176065245Y-52309053D01*
X176414932Y-52272917D01*
X176414941Y-52272916D01*
X176418324Y-52272566D01*
X176421657Y-52271852D01*
X176421660Y-52271851D01*
X176594186Y-52234864D01*
X176768727Y-52197446D01*
X177108968Y-52084922D01*
X177435066Y-51936311D01*
X177529052Y-51880506D01*
X177740262Y-51755099D01*
X177740267Y-51755096D01*
X177743207Y-51753350D01*
X178029786Y-51538180D01*
X178291451Y-51293319D01*
X178525140Y-51021630D01*
X178642675Y-50850615D01*
X178726190Y-50729101D01*
X178726195Y-50729094D01*
X178728120Y-50726292D01*
X178729732Y-50723298D01*
X178729737Y-50723290D01*
X178881079Y-50442217D01*
X178898017Y-50410760D01*
X179032842Y-50078724D01*
X179043142Y-50042568D01*
X179063527Y-49971006D01*
X179131020Y-49734070D01*
X179191401Y-49380828D01*
X179193511Y-49346340D01*
X179213168Y-49024928D01*
X179213278Y-49023131D01*
X179213359Y-49000000D01*
X179193979Y-48642159D01*
X179136066Y-48288505D01*
X179040297Y-47943173D01*
X179037243Y-47935497D01*
X178909052Y-47613369D01*
X178907793Y-47610205D01*
X178850834Y-47502628D01*
X178741702Y-47296513D01*
X178741698Y-47296506D01*
X178740103Y-47293494D01*
X178539190Y-46996746D01*
X178460320Y-46903745D01*
X178384804Y-46814700D01*
X178307403Y-46723432D01*
X178047454Y-46476750D01*
X177762384Y-46259585D01*
X177759472Y-46257828D01*
X177759467Y-46257825D01*
X177458443Y-46076236D01*
X177458437Y-46076233D01*
X177455528Y-46074478D01*
X177130475Y-45923593D01*
X176890718Y-45842440D01*
X176794255Y-45809789D01*
X176794250Y-45809788D01*
X176791028Y-45808697D01*
X176592681Y-45764724D01*
X176444493Y-45731871D01*
X176444487Y-45731870D01*
X176441158Y-45731132D01*
X176437769Y-45730758D01*
X176437764Y-45730757D01*
X176088338Y-45692180D01*
X176088333Y-45692180D01*
X176084957Y-45691807D01*
X176081558Y-45691801D01*
X176081557Y-45691801D01*
X175912080Y-45691505D01*
X175726592Y-45691182D01*
X175613413Y-45703277D01*
X175373639Y-45728901D01*
X175373631Y-45728902D01*
X175370256Y-45729263D01*
X175020117Y-45805606D01*
X174680271Y-45919317D01*
X174677178Y-45920739D01*
X174677177Y-45920740D01*
X174670974Y-45923593D01*
X174354694Y-46069066D01*
X174351760Y-46070822D01*
X174351758Y-46070823D01*
X174209879Y-46155736D01*
X174047193Y-46253101D01*
X174044467Y-46255163D01*
X174044465Y-46255164D01*
X173920268Y-46349094D01*
X173761367Y-46469270D01*
X173758882Y-46471612D01*
X173758877Y-46471616D01*
X173661626Y-46563261D01*
X173500559Y-46715043D01*
X173267819Y-46987546D01*
X173265900Y-46990358D01*
X173265897Y-46990363D01*
X173172624Y-47127097D01*
X173065871Y-47283591D01*
X172897077Y-47599714D01*
X172763411Y-47932218D01*
X172762491Y-47935492D01*
X172762489Y-47935497D01*
X172675796Y-48243919D01*
X172666437Y-48277213D01*
X172665875Y-48280570D01*
X172665875Y-48280571D01*
X172620323Y-48552783D01*
X172607290Y-48630663D01*
X172586661Y-48988434D01*
X166108500Y-48988434D01*
X166108500Y-48551866D01*
X166101745Y-48489684D01*
X166050615Y-48353295D01*
X165963261Y-48236739D01*
X165846705Y-48149385D01*
X165710316Y-48098255D01*
X165648134Y-48091500D01*
X163751866Y-48091500D01*
X163689684Y-48098255D01*
X163553295Y-48149385D01*
X163436739Y-48236739D01*
X163349385Y-48353295D01*
X163298255Y-48489684D01*
X163291500Y-48551866D01*
X163291500Y-50448134D01*
X155908500Y-50448134D01*
X155908500Y-48551866D01*
X155901745Y-48489684D01*
X155850615Y-48353295D01*
X155763261Y-48236739D01*
X155646705Y-48149385D01*
X155510316Y-48098255D01*
X155448134Y-48091500D01*
X153551866Y-48091500D01*
X153489684Y-48098255D01*
X153353295Y-48149385D01*
X153236739Y-48236739D01*
X153149385Y-48353295D01*
X153098255Y-48489684D01*
X153091500Y-48551866D01*
X153091500Y-50448134D01*
X145879642Y-50448134D01*
X145881000Y-50435634D01*
X145881000Y-48539366D01*
X145874245Y-48477184D01*
X145823115Y-48340795D01*
X145735761Y-48224239D01*
X145619205Y-48136885D01*
X145482816Y-48085755D01*
X145420634Y-48079000D01*
X143524366Y-48079000D01*
X143462184Y-48085755D01*
X143325795Y-48136885D01*
X143209239Y-48224239D01*
X143121885Y-48340795D01*
X143070755Y-48477184D01*
X143064000Y-48539366D01*
X143064000Y-50435634D01*
X135891000Y-50435634D01*
X135891000Y-48549366D01*
X135884245Y-48487184D01*
X135833115Y-48350795D01*
X135745761Y-48234239D01*
X135629205Y-48146885D01*
X135492816Y-48095755D01*
X135430634Y-48089000D01*
X133534366Y-48089000D01*
X133472184Y-48095755D01*
X133335795Y-48146885D01*
X133219239Y-48234239D01*
X133131885Y-48350795D01*
X133080755Y-48487184D01*
X133074000Y-48549366D01*
X133074000Y-50445634D01*
X87879239Y-50445634D01*
X87881079Y-50442217D01*
X87898017Y-50410760D01*
X88032842Y-50078724D01*
X88043142Y-50042568D01*
X88063527Y-49971006D01*
X88131020Y-49734070D01*
X88191401Y-49380828D01*
X88193511Y-49346340D01*
X88213168Y-49024928D01*
X88213278Y-49023131D01*
X88213359Y-49000000D01*
X88193979Y-48642159D01*
X88136066Y-48288505D01*
X88040297Y-47943173D01*
X88037243Y-47935497D01*
X87909052Y-47613369D01*
X87907793Y-47610205D01*
X87850834Y-47502628D01*
X87741702Y-47296513D01*
X87741698Y-47296506D01*
X87740103Y-47293494D01*
X87539190Y-46996746D01*
X87460320Y-46903745D01*
X87384804Y-46814700D01*
X87307403Y-46723432D01*
X87047454Y-46476750D01*
X86762384Y-46259585D01*
X86759472Y-46257828D01*
X86759467Y-46257825D01*
X86458443Y-46076236D01*
X86458437Y-46076233D01*
X86455528Y-46074478D01*
X86130475Y-45923593D01*
X85890718Y-45842440D01*
X85794255Y-45809789D01*
X85794250Y-45809788D01*
X85791028Y-45808697D01*
X85592681Y-45764724D01*
X85444493Y-45731871D01*
X85444487Y-45731870D01*
X85441158Y-45731132D01*
X85437769Y-45730758D01*
X85437764Y-45730757D01*
X85088338Y-45692180D01*
X85088333Y-45692180D01*
X85084957Y-45691807D01*
X85081558Y-45691801D01*
X85081557Y-45691801D01*
X84912080Y-45691505D01*
X84726592Y-45691182D01*
X84613413Y-45703277D01*
X84373639Y-45728901D01*
X84373631Y-45728902D01*
X84370256Y-45729263D01*
X84020117Y-45805606D01*
X83680271Y-45919317D01*
X83677178Y-45920739D01*
X83677177Y-45920740D01*
X83670974Y-45923593D01*
X83354694Y-46069066D01*
X83351760Y-46070822D01*
X83351758Y-46070823D01*
X83209879Y-46155736D01*
X83047193Y-46253101D01*
X83044467Y-46255163D01*
X83044465Y-46255164D01*
X82920268Y-46349094D01*
X82761367Y-46469270D01*
X82758882Y-46471612D01*
X82758877Y-46471616D01*
X82661626Y-46563261D01*
X82500559Y-46715043D01*
X82267819Y-46987546D01*
X82265900Y-46990358D01*
X82265897Y-46990363D01*
X82172624Y-47127097D01*
X82065871Y-47283591D01*
X81897077Y-47599714D01*
X81763411Y-47932218D01*
X81762491Y-47935492D01*
X81762489Y-47935497D01*
X81675796Y-48243919D01*
X81666437Y-48277213D01*
X81665875Y-48280570D01*
X81665875Y-48280571D01*
X81620323Y-48552783D01*
X81607290Y-48630663D01*
X81586661Y-48988434D01*
X80908500Y-48988434D01*
X80908500Y-47553250D01*
X80910246Y-47532345D01*
X80912770Y-47517344D01*
X80912770Y-47517341D01*
X80913576Y-47512552D01*
X80913729Y-47500000D01*
X80913040Y-47495186D01*
X80913039Y-47495177D01*
X80911869Y-47487006D01*
X80910827Y-47461540D01*
X80926206Y-47207290D01*
X80928040Y-47192186D01*
X80941229Y-47120214D01*
X80979525Y-46911240D01*
X80983164Y-46896473D01*
X81037817Y-46721087D01*
X81068142Y-46623769D01*
X81073534Y-46609555D01*
X81190758Y-46349092D01*
X81197828Y-46335621D01*
X81345595Y-46091187D01*
X81354238Y-46078666D01*
X81530385Y-45853829D01*
X81540475Y-45842440D01*
X81742440Y-45640475D01*
X81753829Y-45630385D01*
X81978666Y-45454238D01*
X81991187Y-45445595D01*
X82235621Y-45297828D01*
X82249094Y-45290757D01*
X82291777Y-45271547D01*
X82509555Y-45173534D01*
X82523769Y-45168142D01*
X82796474Y-45083164D01*
X82811240Y-45079525D01*
X83020214Y-45041229D01*
X83092186Y-45028040D01*
X83107290Y-45026206D01*
X83357904Y-45011047D01*
X83384716Y-45012308D01*
X83384852Y-45012310D01*
X83393724Y-45013691D01*
X83402626Y-45012527D01*
X83402628Y-45012527D01*
X83417677Y-45010559D01*
X83425286Y-45009564D01*
X83441621Y-45008500D01*
X177350633Y-45008500D01*
X177370018Y-45010000D01*
G37*
%TD.AperFunction*%
%TD*%
M02*
