%TF.GenerationSoftware,KiCad,Pcbnew,(6.0.5)*%
%TF.CreationDate,2022-09-22T23:13:11-05:00*%
%TF.ProjectId,powerPCB,706f7765-7250-4434-922e-6b696361645f,rev?*%
%TF.SameCoordinates,Original*%
%TF.FileFunction,Legend,Bot*%
%TF.FilePolarity,Positive*%
%FSLAX46Y46*%
G04 Gerber Fmt 4.6, Leading zero omitted, Abs format (unit mm)*
G04 Created by KiCad (PCBNEW (6.0.5)) date 2022-09-22 23:13:11*
%MOMM*%
%LPD*%
G01*
G04 APERTURE LIST*
%ADD10C,0.150000*%
%ADD11C,3.800000*%
%ADD12R,1.800000X1.800000*%
%ADD13O,1.800000X1.800000*%
%ADD14C,0.800000*%
G04 APERTURE END LIST*
D10*
X104019047Y-96852380D02*
X104019047Y-97566666D01*
X104066666Y-97709523D01*
X104161904Y-97804761D01*
X104304761Y-97852380D01*
X104400000Y-97852380D01*
X103066666Y-97852380D02*
X103542857Y-97852380D01*
X103542857Y-96852380D01*
X102161904Y-97757142D02*
X102209523Y-97804761D01*
X102352380Y-97852380D01*
X102447619Y-97852380D01*
X102590476Y-97804761D01*
X102685714Y-97709523D01*
X102733333Y-97614285D01*
X102780952Y-97423809D01*
X102780952Y-97280952D01*
X102733333Y-97090476D01*
X102685714Y-96995238D01*
X102590476Y-96900000D01*
X102447619Y-96852380D01*
X102352380Y-96852380D01*
X102209523Y-96900000D01*
X102161904Y-96947619D01*
X101447619Y-96852380D02*
X101447619Y-97566666D01*
X101495238Y-97709523D01*
X101590476Y-97804761D01*
X101733333Y-97852380D01*
X101828571Y-97852380D01*
X100495238Y-97852380D02*
X100971428Y-97852380D01*
X100971428Y-96852380D01*
X99590476Y-97757142D02*
X99638095Y-97804761D01*
X99780952Y-97852380D01*
X99876190Y-97852380D01*
X100019047Y-97804761D01*
X100114285Y-97709523D01*
X100161904Y-97614285D01*
X100209523Y-97423809D01*
X100209523Y-97280952D01*
X100161904Y-97090476D01*
X100114285Y-96995238D01*
X100019047Y-96900000D01*
X99876190Y-96852380D01*
X99780952Y-96852380D01*
X99638095Y-96900000D01*
X99590476Y-96947619D01*
X98876190Y-96852380D02*
X98876190Y-97566666D01*
X98923809Y-97709523D01*
X99019047Y-97804761D01*
X99161904Y-97852380D01*
X99257142Y-97852380D01*
X97923809Y-97852380D02*
X98400000Y-97852380D01*
X98400000Y-96852380D01*
X97019047Y-97757142D02*
X97066666Y-97804761D01*
X97209523Y-97852380D01*
X97304761Y-97852380D01*
X97447619Y-97804761D01*
X97542857Y-97709523D01*
X97590476Y-97614285D01*
X97638095Y-97423809D01*
X97638095Y-97280952D01*
X97590476Y-97090476D01*
X97542857Y-96995238D01*
X97447619Y-96900000D01*
X97304761Y-96852380D01*
X97209523Y-96852380D01*
X97066666Y-96900000D01*
X97019047Y-96947619D01*
X96304761Y-96852380D02*
X96304761Y-97566666D01*
X96352380Y-97709523D01*
X96447619Y-97804761D01*
X96590476Y-97852380D01*
X96685714Y-97852380D01*
X95352380Y-97852380D02*
X95828571Y-97852380D01*
X95828571Y-96852380D01*
X94447619Y-97757142D02*
X94495238Y-97804761D01*
X94638095Y-97852380D01*
X94733333Y-97852380D01*
X94876190Y-97804761D01*
X94971428Y-97709523D01*
X95019047Y-97614285D01*
X95066666Y-97423809D01*
X95066666Y-97280952D01*
X95019047Y-97090476D01*
X94971428Y-96995238D01*
X94876190Y-96900000D01*
X94733333Y-96852380D01*
X94638095Y-96852380D01*
X94495238Y-96900000D01*
X94447619Y-96947619D01*
%LPC*%
D11*
%TO.C,H5*%
X96100000Y-73400000D03*
%TD*%
D12*
%TO.C,J10*%
X131570000Y-62000000D03*
D13*
X126570000Y-62000000D03*
%TD*%
D12*
%TO.C,J3*%
X142030000Y-95900000D03*
D13*
X147030000Y-95900000D03*
%TD*%
D12*
%TO.C,J7*%
X152200000Y-61980000D03*
D13*
X147200000Y-61980000D03*
%TD*%
D12*
%TO.C,J6*%
X121270000Y-62000000D03*
D13*
X116270000Y-62000000D03*
%TD*%
D12*
%TO.C,J9*%
X141900000Y-62000000D03*
D13*
X136900000Y-62000000D03*
%TD*%
D11*
%TO.C,H6*%
X96100000Y-79100000D03*
%TD*%
D12*
%TO.C,J4*%
X131730000Y-95900000D03*
D13*
X136730000Y-95900000D03*
%TD*%
D12*
%TO.C,J8*%
X100670000Y-62000000D03*
D13*
X95670000Y-62000000D03*
%TD*%
D11*
%TO.C,H2*%
X103400000Y-84900000D03*
%TD*%
D12*
%TO.C,J1*%
X120930000Y-95900000D03*
D13*
X125930000Y-95900000D03*
%TD*%
D11*
%TO.C,H3*%
X103400000Y-73500000D03*
%TD*%
D12*
%TO.C,J5*%
X110970000Y-62000000D03*
D13*
X105970000Y-62000000D03*
%TD*%
D11*
%TO.C,H1*%
X103400000Y-79100000D03*
%TD*%
D13*
%TO.C,SW1*%
X125400000Y-81640000D03*
X125400000Y-79100000D03*
X125400000Y-76560000D03*
%TD*%
D11*
%TO.C,H4*%
X96100000Y-85000000D03*
%TD*%
D12*
%TO.C,J2*%
X152130000Y-95900000D03*
D13*
X157130000Y-95900000D03*
%TD*%
D14*
X138450000Y-71610000D03*
X139790000Y-79190000D03*
X139400000Y-78100000D03*
X133700000Y-82700000D03*
X149500000Y-74400000D03*
X155900000Y-85100000D03*
X141398999Y-76325263D03*
X140610000Y-74400000D03*
M02*
