M48
; DRILL file {KiCad (6.0.5)} date Thu Sep 22 23:13:11 2022
; FORMAT={-:-/ absolute / inch / decimal}
; #@! TF.CreationDate,2022-09-22T23:13:11-05:00
; #@! TF.GenerationSoftware,Kicad,Pcbnew,(6.0.5)
; #@! TF.FileFunction,Plated,1,2,PTH
FMAT,2
INCH
; #@! TA.AperFunction,Plated,PTH,ViaDrill
T1C0.0157
; #@! TA.AperFunction,Plated,PTH,ComponentDrill
T2C0.0394
; #@! TA.AperFunction,Plated,PTH,ComponentDrill
T3C0.0433
; #@! TA.AperFunction,Plated,PTH,ComponentDrill
T4C0.0866
%
G90
G05
T1
X5.2638Y-3.2559
X5.4508Y-2.8193
X5.4882Y-3.0748
X5.5035Y-3.1177
X5.5358Y-2.9291
X5.5669Y-3.0049
X5.8858Y-2.9291
X6.1378Y-3.3504
T2
X4.937Y-3.0142
X4.937Y-3.1142
X4.937Y-3.2142
T3
X3.7665Y-2.4409
X3.9634Y-2.4409
X4.172Y-2.4409
X4.3689Y-2.4409
X4.5776Y-2.4409
X4.761Y-3.7756
X4.7744Y-2.4409
X4.9579Y-3.7756
X4.9831Y-2.4409
X5.1799Y-2.4409
X5.1862Y-3.7756
X5.3831Y-3.7756
X5.3898Y-2.4409
X5.5866Y-2.4409
X5.5917Y-3.7756
X5.7886Y-3.7756
X5.7953Y-2.4402
X5.9894Y-3.7756
X5.9921Y-2.4402
X6.1862Y-3.7756
T4
X3.7835Y-2.8898
X3.7835Y-3.1142
X3.7835Y-3.3465
X4.0709Y-2.8937
X4.0709Y-3.1142
X4.0709Y-3.3425
T0
M30
