%TF.GenerationSoftware,KiCad,Pcbnew,(6.0.5)*%
%TF.CreationDate,2022-09-22T23:13:11-05:00*%
%TF.ProjectId,powerPCB,706f7765-7250-4434-922e-6b696361645f,rev?*%
%TF.SameCoordinates,Original*%
%TF.FileFunction,Copper,L2,Bot*%
%TF.FilePolarity,Positive*%
%FSLAX46Y46*%
G04 Gerber Fmt 4.6, Leading zero omitted, Abs format (unit mm)*
G04 Created by KiCad (PCBNEW (6.0.5)) date 2022-09-22 23:13:11*
%MOMM*%
%LPD*%
G01*
G04 APERTURE LIST*
%TA.AperFunction,ComponentPad*%
%ADD10C,3.800000*%
%TD*%
%TA.AperFunction,ComponentPad*%
%ADD11R,1.800000X1.800000*%
%TD*%
%TA.AperFunction,ComponentPad*%
%ADD12O,1.800000X1.800000*%
%TD*%
%TA.AperFunction,ViaPad*%
%ADD13C,0.800000*%
%TD*%
%TA.AperFunction,Conductor*%
%ADD14C,0.250000*%
%TD*%
G04 APERTURE END LIST*
D10*
%TO.P,H5,1,1*%
%TO.N,GND*%
X96100000Y-73400000D03*
%TD*%
D11*
%TO.P,J10,1,Pin_1*%
%TO.N,+12V*%
X131570000Y-62000000D03*
D12*
%TO.P,J10,2,Pin_2*%
%TO.N,GND*%
X126570000Y-62000000D03*
%TD*%
D11*
%TO.P,J3,1,Pin_1*%
%TO.N,+5V*%
X142030000Y-95900000D03*
D12*
%TO.P,J3,2,Pin_2*%
%TO.N,GND*%
X147030000Y-95900000D03*
%TD*%
D11*
%TO.P,J7,1,Pin_1*%
%TO.N,+12V*%
X152200000Y-61980000D03*
D12*
%TO.P,J7,2,Pin_2*%
%TO.N,GND*%
X147200000Y-61980000D03*
%TD*%
D11*
%TO.P,J6,1,Pin_1*%
%TO.N,+12V*%
X121270000Y-62000000D03*
D12*
%TO.P,J6,2,Pin_2*%
%TO.N,GND*%
X116270000Y-62000000D03*
%TD*%
D11*
%TO.P,J9,1,Pin_1*%
%TO.N,+12V*%
X141900000Y-62000000D03*
D12*
%TO.P,J9,2,Pin_2*%
%TO.N,GND*%
X136900000Y-62000000D03*
%TD*%
D10*
%TO.P,H6,1,1*%
%TO.N,GND*%
X96100000Y-79100000D03*
%TD*%
D11*
%TO.P,J4,1,Pin_1*%
%TO.N,+5V*%
X131730000Y-95900000D03*
D12*
%TO.P,J4,2,Pin_2*%
%TO.N,GND*%
X136730000Y-95900000D03*
%TD*%
D11*
%TO.P,J8,1,Pin_1*%
%TO.N,+12V*%
X100670000Y-62000000D03*
D12*
%TO.P,J8,2,Pin_2*%
%TO.N,GND*%
X95670000Y-62000000D03*
%TD*%
D10*
%TO.P,H2,1,1*%
%TO.N,/12IN*%
X103400000Y-84900000D03*
%TD*%
D11*
%TO.P,J1,1,Pin_1*%
%TO.N,+5V*%
X120930000Y-95900000D03*
D12*
%TO.P,J1,2,Pin_2*%
%TO.N,GND*%
X125930000Y-95900000D03*
%TD*%
D10*
%TO.P,H3,1,1*%
%TO.N,/12IN*%
X103400000Y-73500000D03*
%TD*%
D11*
%TO.P,J5,1,Pin_1*%
%TO.N,+12V*%
X110970000Y-62000000D03*
D12*
%TO.P,J5,2,Pin_2*%
%TO.N,GND*%
X105970000Y-62000000D03*
%TD*%
D10*
%TO.P,H1,1,1*%
%TO.N,/12IN*%
X103400000Y-79100000D03*
%TD*%
D12*
%TO.P,SW1,1,A*%
%TO.N,unconnected-(SW1-Pad1)*%
X125400000Y-81640000D03*
%TO.P,SW1,2,B*%
%TO.N,/12IN*%
X125400000Y-79100000D03*
%TO.P,SW1,3,C*%
%TO.N,+12V*%
X125400000Y-76560000D03*
%TD*%
D10*
%TO.P,H4,1,1*%
%TO.N,GND*%
X96100000Y-85000000D03*
%TD*%
D11*
%TO.P,J2,1,Pin_1*%
%TO.N,+5V*%
X152130000Y-95900000D03*
D12*
%TO.P,J2,2,Pin_2*%
%TO.N,GND*%
X157130000Y-95900000D03*
%TD*%
D13*
%TO.N,GND*%
X138450000Y-71610000D03*
X139790000Y-79190000D03*
X139400000Y-78100000D03*
X133700000Y-82700000D03*
X149500000Y-74400000D03*
X155900000Y-85100000D03*
%TO.N,/EN*%
X141398999Y-76325263D03*
X140610000Y-74400000D03*
%TD*%
D14*
%TO.N,/EN*%
X141398999Y-75746905D02*
X141398999Y-76325263D01*
X141004499Y-74794499D02*
X140610000Y-74400000D01*
X141398996Y-75746905D02*
G75*
G03*
X141004498Y-74794500I-1346896J5D01*
G01*
%TD*%
%TA.AperFunction,Conductor*%
%TO.N,GND*%
G36*
X158870018Y-59510000D02*
G01*
X158884851Y-59512310D01*
X158884855Y-59512310D01*
X158893724Y-59513691D01*
X158910923Y-59511442D01*
X158934863Y-59510609D01*
X159192710Y-59526206D01*
X159207814Y-59528040D01*
X159279786Y-59541229D01*
X159488760Y-59579525D01*
X159503526Y-59583164D01*
X159776231Y-59668142D01*
X159790445Y-59673534D01*
X160008223Y-59771547D01*
X160050906Y-59790757D01*
X160064379Y-59797828D01*
X160308813Y-59945595D01*
X160321334Y-59954238D01*
X160546171Y-60130385D01*
X160557560Y-60140475D01*
X160759525Y-60342440D01*
X160769615Y-60353829D01*
X160945762Y-60578666D01*
X160954405Y-60591187D01*
X161102172Y-60835621D01*
X161109242Y-60849092D01*
X161226466Y-61109555D01*
X161231859Y-61123773D01*
X161316836Y-61396473D01*
X161320477Y-61411246D01*
X161371960Y-61692186D01*
X161373794Y-61707290D01*
X161388953Y-61957904D01*
X161387692Y-61984716D01*
X161387690Y-61984852D01*
X161386309Y-61993724D01*
X161387473Y-62002626D01*
X161387473Y-62002628D01*
X161390436Y-62025283D01*
X161391500Y-62041621D01*
X161391500Y-95950633D01*
X161390000Y-95970018D01*
X161387690Y-95984851D01*
X161387690Y-95984855D01*
X161386309Y-95993724D01*
X161388558Y-96010919D01*
X161389391Y-96034863D01*
X161373794Y-96292710D01*
X161371960Y-96307814D01*
X161320477Y-96588754D01*
X161316836Y-96603526D01*
X161239555Y-96851531D01*
X161231859Y-96876227D01*
X161226466Y-96890445D01*
X161159924Y-97038297D01*
X161109243Y-97150906D01*
X161102172Y-97164379D01*
X160954405Y-97408813D01*
X160945762Y-97421334D01*
X160769615Y-97646171D01*
X160759525Y-97657560D01*
X160557560Y-97859525D01*
X160546171Y-97869615D01*
X160321334Y-98045762D01*
X160308813Y-98054405D01*
X160064379Y-98202172D01*
X160050908Y-98209242D01*
X159790445Y-98326466D01*
X159776231Y-98331858D01*
X159503527Y-98416836D01*
X159488760Y-98420475D01*
X159279786Y-98458771D01*
X159207814Y-98471960D01*
X159192710Y-98473794D01*
X158942096Y-98488953D01*
X158915284Y-98487692D01*
X158915148Y-98487690D01*
X158906276Y-98486309D01*
X158897374Y-98487473D01*
X158897372Y-98487473D01*
X158882707Y-98489391D01*
X158874714Y-98490436D01*
X158858379Y-98491500D01*
X94949367Y-98491500D01*
X94929982Y-98490000D01*
X94915149Y-98487690D01*
X94915145Y-98487690D01*
X94906276Y-98486309D01*
X94889077Y-98488558D01*
X94865137Y-98489391D01*
X94607290Y-98473794D01*
X94592186Y-98471960D01*
X94520214Y-98458771D01*
X94311240Y-98420475D01*
X94296473Y-98416836D01*
X94023769Y-98331858D01*
X94009555Y-98326466D01*
X93749092Y-98209242D01*
X93735621Y-98202172D01*
X93491187Y-98054405D01*
X93478666Y-98045762D01*
X93253829Y-97869615D01*
X93242440Y-97859525D01*
X93040475Y-97657560D01*
X93030385Y-97646171D01*
X92854238Y-97421334D01*
X92845595Y-97408813D01*
X92697828Y-97164379D01*
X92690757Y-97150906D01*
X92640076Y-97038297D01*
X92573534Y-96890445D01*
X92568141Y-96876227D01*
X92560446Y-96851531D01*
X92559387Y-96848134D01*
X119521500Y-96848134D01*
X119528255Y-96910316D01*
X119579385Y-97046705D01*
X119666739Y-97163261D01*
X119783295Y-97250615D01*
X119919684Y-97301745D01*
X119981866Y-97308500D01*
X121878134Y-97308500D01*
X121940316Y-97301745D01*
X122076705Y-97250615D01*
X122193261Y-97163261D01*
X122280615Y-97046705D01*
X122331745Y-96910316D01*
X122338500Y-96848134D01*
X130321500Y-96848134D01*
X130328255Y-96910316D01*
X130379385Y-97046705D01*
X130466739Y-97163261D01*
X130583295Y-97250615D01*
X130719684Y-97301745D01*
X130781866Y-97308500D01*
X132678134Y-97308500D01*
X132740316Y-97301745D01*
X132876705Y-97250615D01*
X132993261Y-97163261D01*
X133080615Y-97046705D01*
X133131745Y-96910316D01*
X133138500Y-96848134D01*
X140621500Y-96848134D01*
X140628255Y-96910316D01*
X140679385Y-97046705D01*
X140766739Y-97163261D01*
X140883295Y-97250615D01*
X141019684Y-97301745D01*
X141081866Y-97308500D01*
X142978134Y-97308500D01*
X143040316Y-97301745D01*
X143176705Y-97250615D01*
X143293261Y-97163261D01*
X143380615Y-97046705D01*
X143431745Y-96910316D01*
X143438500Y-96848134D01*
X150721500Y-96848134D01*
X150728255Y-96910316D01*
X150779385Y-97046705D01*
X150866739Y-97163261D01*
X150983295Y-97250615D01*
X151119684Y-97301745D01*
X151181866Y-97308500D01*
X153078134Y-97308500D01*
X153140316Y-97301745D01*
X153276705Y-97250615D01*
X153393261Y-97163261D01*
X153480615Y-97046705D01*
X153531745Y-96910316D01*
X153538500Y-96848134D01*
X153538500Y-94951866D01*
X153531745Y-94889684D01*
X153480615Y-94753295D01*
X153393261Y-94636739D01*
X153276705Y-94549385D01*
X153140316Y-94498255D01*
X153078134Y-94491500D01*
X151181866Y-94491500D01*
X151119684Y-94498255D01*
X150983295Y-94549385D01*
X150866739Y-94636739D01*
X150779385Y-94753295D01*
X150728255Y-94889684D01*
X150721500Y-94951866D01*
X150721500Y-96848134D01*
X143438500Y-96848134D01*
X143438500Y-94951866D01*
X143431745Y-94889684D01*
X143380615Y-94753295D01*
X143293261Y-94636739D01*
X143176705Y-94549385D01*
X143040316Y-94498255D01*
X142978134Y-94491500D01*
X141081866Y-94491500D01*
X141019684Y-94498255D01*
X140883295Y-94549385D01*
X140766739Y-94636739D01*
X140679385Y-94753295D01*
X140628255Y-94889684D01*
X140621500Y-94951866D01*
X140621500Y-96848134D01*
X133138500Y-96848134D01*
X133138500Y-94951866D01*
X133131745Y-94889684D01*
X133080615Y-94753295D01*
X132993261Y-94636739D01*
X132876705Y-94549385D01*
X132740316Y-94498255D01*
X132678134Y-94491500D01*
X130781866Y-94491500D01*
X130719684Y-94498255D01*
X130583295Y-94549385D01*
X130466739Y-94636739D01*
X130379385Y-94753295D01*
X130328255Y-94889684D01*
X130321500Y-94951866D01*
X130321500Y-96848134D01*
X122338500Y-96848134D01*
X122338500Y-94951866D01*
X122331745Y-94889684D01*
X122280615Y-94753295D01*
X122193261Y-94636739D01*
X122076705Y-94549385D01*
X121940316Y-94498255D01*
X121878134Y-94491500D01*
X119981866Y-94491500D01*
X119919684Y-94498255D01*
X119783295Y-94549385D01*
X119666739Y-94636739D01*
X119579385Y-94753295D01*
X119528255Y-94889684D01*
X119521500Y-94951866D01*
X119521500Y-96848134D01*
X92559387Y-96848134D01*
X92483164Y-96603526D01*
X92479523Y-96588754D01*
X92428040Y-96307814D01*
X92426206Y-96292710D01*
X92411269Y-96045768D01*
X92412520Y-96022216D01*
X92412334Y-96022199D01*
X92412769Y-96017350D01*
X92413576Y-96012552D01*
X92413729Y-96000000D01*
X92409773Y-95972376D01*
X92408500Y-95954514D01*
X92408500Y-84900000D01*
X100986738Y-84900000D01*
X101005767Y-85202462D01*
X101062555Y-85500154D01*
X101156206Y-85788381D01*
X101285242Y-86062598D01*
X101447630Y-86318480D01*
X101640808Y-86551992D01*
X101861729Y-86759450D01*
X102106910Y-86937584D01*
X102372483Y-87083585D01*
X102376152Y-87085038D01*
X102376157Y-87085040D01*
X102650591Y-87193696D01*
X102654261Y-87195149D01*
X102947800Y-87270516D01*
X103248470Y-87308500D01*
X103551530Y-87308500D01*
X103852200Y-87270516D01*
X104145739Y-87195149D01*
X104149409Y-87193696D01*
X104423843Y-87085040D01*
X104423848Y-87085038D01*
X104427517Y-87083585D01*
X104693090Y-86937584D01*
X104938271Y-86759450D01*
X105159192Y-86551992D01*
X105352370Y-86318480D01*
X105514758Y-86062598D01*
X105643794Y-85788381D01*
X105737445Y-85500154D01*
X105794233Y-85202462D01*
X105813262Y-84900000D01*
X105794233Y-84597538D01*
X105737445Y-84299846D01*
X105643794Y-84011619D01*
X105514758Y-83737402D01*
X105352370Y-83481520D01*
X105159192Y-83248008D01*
X104950328Y-83051872D01*
X104941158Y-83043261D01*
X104941157Y-83043261D01*
X104938271Y-83040550D01*
X104913348Y-83022442D01*
X104823782Y-82957369D01*
X104693090Y-82862416D01*
X104677766Y-82853991D01*
X104430986Y-82718322D01*
X104430985Y-82718321D01*
X104427517Y-82716415D01*
X104423848Y-82714962D01*
X104423843Y-82714960D01*
X104149409Y-82606304D01*
X104149408Y-82606304D01*
X104145739Y-82604851D01*
X103852200Y-82529484D01*
X103551530Y-82491500D01*
X103248470Y-82491500D01*
X102947800Y-82529484D01*
X102654261Y-82604851D01*
X102650592Y-82606304D01*
X102650591Y-82606304D01*
X102376157Y-82714960D01*
X102376152Y-82714962D01*
X102372483Y-82716415D01*
X102369015Y-82718321D01*
X102369014Y-82718322D01*
X102122235Y-82853991D01*
X102106910Y-82862416D01*
X101976218Y-82957369D01*
X101886653Y-83022442D01*
X101861729Y-83040550D01*
X101858843Y-83043261D01*
X101858842Y-83043261D01*
X101849672Y-83051872D01*
X101640808Y-83248008D01*
X101447630Y-83481520D01*
X101285242Y-83737402D01*
X101156206Y-84011619D01*
X101062555Y-84299846D01*
X101005767Y-84597538D01*
X100986738Y-84900000D01*
X92408500Y-84900000D01*
X92408500Y-81605469D01*
X123987095Y-81605469D01*
X123987392Y-81610622D01*
X123987392Y-81610625D01*
X123993067Y-81709041D01*
X124000427Y-81836697D01*
X124001564Y-81841743D01*
X124001565Y-81841749D01*
X124033741Y-81984523D01*
X124051346Y-82062642D01*
X124053288Y-82067424D01*
X124053289Y-82067428D01*
X124136540Y-82272450D01*
X124138484Y-82277237D01*
X124259501Y-82474719D01*
X124411147Y-82649784D01*
X124589349Y-82797730D01*
X124789322Y-82914584D01*
X125005694Y-82997209D01*
X125010760Y-82998240D01*
X125010761Y-82998240D01*
X125063846Y-83009040D01*
X125232656Y-83043385D01*
X125363324Y-83048176D01*
X125458949Y-83051683D01*
X125458953Y-83051683D01*
X125464113Y-83051872D01*
X125469233Y-83051216D01*
X125469235Y-83051216D01*
X125570666Y-83038222D01*
X125693847Y-83022442D01*
X125698795Y-83020957D01*
X125698802Y-83020956D01*
X125910747Y-82957369D01*
X125915690Y-82955886D01*
X125996236Y-82916427D01*
X126119049Y-82856262D01*
X126119052Y-82856260D01*
X126123684Y-82853991D01*
X126312243Y-82719494D01*
X126476303Y-82556005D01*
X126494653Y-82530469D01*
X126522297Y-82491997D01*
X126611458Y-82367917D01*
X126658641Y-82272450D01*
X126711784Y-82164922D01*
X126711785Y-82164920D01*
X126714078Y-82160280D01*
X126781408Y-81938671D01*
X126811640Y-81709041D01*
X126813327Y-81640000D01*
X126799312Y-81469531D01*
X126794773Y-81414318D01*
X126794772Y-81414312D01*
X126794349Y-81409167D01*
X126737925Y-81184533D01*
X126735866Y-81179797D01*
X126647630Y-80976868D01*
X126647628Y-80976865D01*
X126645570Y-80972131D01*
X126519764Y-80777665D01*
X126496404Y-80751992D01*
X126470134Y-80723122D01*
X126363887Y-80606358D01*
X126359836Y-80603159D01*
X126359832Y-80603155D01*
X126187077Y-80466722D01*
X126146014Y-80408805D01*
X126142782Y-80337882D01*
X126178407Y-80276470D01*
X126192001Y-80265261D01*
X126312243Y-80179494D01*
X126476303Y-80016005D01*
X126611458Y-79827917D01*
X126658641Y-79732450D01*
X126711784Y-79624922D01*
X126711785Y-79624920D01*
X126714078Y-79620280D01*
X126781408Y-79398671D01*
X126811640Y-79169041D01*
X126811722Y-79165691D01*
X126813245Y-79103365D01*
X126813245Y-79103361D01*
X126813327Y-79100000D01*
X126807032Y-79023434D01*
X126794773Y-78874318D01*
X126794772Y-78874312D01*
X126794349Y-78869167D01*
X126737925Y-78644533D01*
X126735866Y-78639797D01*
X126647630Y-78436868D01*
X126647628Y-78436865D01*
X126645570Y-78432131D01*
X126519764Y-78237665D01*
X126492798Y-78208029D01*
X126470134Y-78183122D01*
X126363887Y-78066358D01*
X126359836Y-78063159D01*
X126359832Y-78063155D01*
X126187077Y-77926722D01*
X126146014Y-77868805D01*
X126142782Y-77797882D01*
X126178407Y-77736470D01*
X126192001Y-77725261D01*
X126195872Y-77722500D01*
X126312243Y-77639494D01*
X126476303Y-77476005D01*
X126611458Y-77287917D01*
X126633529Y-77243261D01*
X126711784Y-77084922D01*
X126711785Y-77084920D01*
X126714078Y-77080280D01*
X126781408Y-76858671D01*
X126811640Y-76629041D01*
X126813327Y-76560000D01*
X126807032Y-76483434D01*
X126794773Y-76334318D01*
X126794772Y-76334312D01*
X126794349Y-76329167D01*
X126766137Y-76216850D01*
X126739184Y-76109544D01*
X126739183Y-76109540D01*
X126737925Y-76104533D01*
X126735866Y-76099797D01*
X126647630Y-75896868D01*
X126647628Y-75896865D01*
X126645570Y-75892131D01*
X126519764Y-75697665D01*
X126515517Y-75692997D01*
X126452046Y-75623244D01*
X126363887Y-75526358D01*
X126359836Y-75523159D01*
X126359832Y-75523155D01*
X126186177Y-75386011D01*
X126186172Y-75386008D01*
X126182123Y-75382810D01*
X126177607Y-75380317D01*
X126177604Y-75380315D01*
X125983879Y-75273373D01*
X125983875Y-75273371D01*
X125979355Y-75270876D01*
X125974486Y-75269152D01*
X125974482Y-75269150D01*
X125765903Y-75195288D01*
X125765899Y-75195287D01*
X125761028Y-75193562D01*
X125755935Y-75192655D01*
X125755932Y-75192654D01*
X125538095Y-75153851D01*
X125538089Y-75153850D01*
X125533006Y-75152945D01*
X125454989Y-75151992D01*
X125306581Y-75150179D01*
X125306579Y-75150179D01*
X125301411Y-75150116D01*
X125072464Y-75185150D01*
X124852314Y-75257106D01*
X124847726Y-75259494D01*
X124847722Y-75259496D01*
X124715163Y-75328502D01*
X124646872Y-75364052D01*
X124642739Y-75367155D01*
X124642736Y-75367157D01*
X124484755Y-75485773D01*
X124461655Y-75503117D01*
X124301639Y-75670564D01*
X124298725Y-75674836D01*
X124298724Y-75674837D01*
X124283152Y-75697665D01*
X124171119Y-75861899D01*
X124073602Y-76071981D01*
X124011707Y-76295169D01*
X123987095Y-76525469D01*
X123987392Y-76530622D01*
X123987392Y-76530625D01*
X123998829Y-76728987D01*
X124000427Y-76756697D01*
X124001564Y-76761743D01*
X124001565Y-76761749D01*
X124025311Y-76867115D01*
X124051346Y-76982642D01*
X124053288Y-76987424D01*
X124053289Y-76987428D01*
X124104076Y-77112500D01*
X124138484Y-77197237D01*
X124259501Y-77394719D01*
X124411147Y-77569784D01*
X124589349Y-77717730D01*
X124593819Y-77720342D01*
X124597511Y-77722500D01*
X124646232Y-77774140D01*
X124659301Y-77843924D01*
X124632566Y-77909694D01*
X124609589Y-77932045D01*
X124461655Y-78043117D01*
X124301639Y-78210564D01*
X124298725Y-78214836D01*
X124298724Y-78214837D01*
X124283152Y-78237665D01*
X124171119Y-78401899D01*
X124073602Y-78611981D01*
X124011707Y-78835169D01*
X123987095Y-79065469D01*
X123987392Y-79070622D01*
X123987392Y-79070625D01*
X123993067Y-79169041D01*
X124000427Y-79296697D01*
X124001564Y-79301743D01*
X124001565Y-79301749D01*
X124025141Y-79406360D01*
X124051346Y-79522642D01*
X124053288Y-79527424D01*
X124053289Y-79527428D01*
X124121842Y-79696253D01*
X124138484Y-79737237D01*
X124259501Y-79934719D01*
X124411147Y-80109784D01*
X124589349Y-80257730D01*
X124593819Y-80260342D01*
X124597511Y-80262500D01*
X124646232Y-80314140D01*
X124659301Y-80383924D01*
X124632566Y-80449694D01*
X124609589Y-80472045D01*
X124461655Y-80583117D01*
X124301639Y-80750564D01*
X124298725Y-80754836D01*
X124298724Y-80754837D01*
X124283152Y-80777665D01*
X124171119Y-80941899D01*
X124073602Y-81151981D01*
X124011707Y-81375169D01*
X123987095Y-81605469D01*
X92408500Y-81605469D01*
X92408500Y-79100000D01*
X100986738Y-79100000D01*
X101005767Y-79402462D01*
X101062555Y-79700154D01*
X101156206Y-79988381D01*
X101285242Y-80262598D01*
X101447630Y-80518480D01*
X101640808Y-80751992D01*
X101643695Y-80754703D01*
X101838486Y-80937623D01*
X101861729Y-80959450D01*
X102106910Y-81137584D01*
X102110379Y-81139491D01*
X102110382Y-81139493D01*
X102192309Y-81184533D01*
X102372483Y-81283585D01*
X102376152Y-81285038D01*
X102376157Y-81285040D01*
X102603797Y-81375169D01*
X102654261Y-81395149D01*
X102947800Y-81470516D01*
X103248470Y-81508500D01*
X103551530Y-81508500D01*
X103852200Y-81470516D01*
X104145739Y-81395149D01*
X104196203Y-81375169D01*
X104423843Y-81285040D01*
X104423848Y-81285038D01*
X104427517Y-81283585D01*
X104607691Y-81184533D01*
X104689618Y-81139493D01*
X104689621Y-81139491D01*
X104693090Y-81137584D01*
X104938271Y-80959450D01*
X104961515Y-80937623D01*
X105156305Y-80754703D01*
X105159192Y-80751992D01*
X105352370Y-80518480D01*
X105514758Y-80262598D01*
X105643794Y-79988381D01*
X105737445Y-79700154D01*
X105794233Y-79402462D01*
X105813262Y-79100000D01*
X105794233Y-78797538D01*
X105737445Y-78499846D01*
X105643794Y-78211619D01*
X105514758Y-77937402D01*
X105352370Y-77681520D01*
X105314589Y-77635850D01*
X105293930Y-77610879D01*
X105159192Y-77448008D01*
X104938271Y-77240550D01*
X104928930Y-77233763D01*
X104771062Y-77119066D01*
X104693090Y-77062416D01*
X104594131Y-77008012D01*
X104430986Y-76918322D01*
X104430985Y-76918321D01*
X104427517Y-76916415D01*
X104423848Y-76914962D01*
X104423843Y-76914960D01*
X104149409Y-76806304D01*
X104149408Y-76806304D01*
X104145739Y-76804851D01*
X103852200Y-76729484D01*
X103551530Y-76691500D01*
X103248470Y-76691500D01*
X102947800Y-76729484D01*
X102654261Y-76804851D01*
X102650592Y-76806304D01*
X102650591Y-76806304D01*
X102376157Y-76914960D01*
X102376152Y-76914962D01*
X102372483Y-76916415D01*
X102369015Y-76918321D01*
X102369014Y-76918322D01*
X102205870Y-77008012D01*
X102106910Y-77062416D01*
X102028938Y-77119066D01*
X101871071Y-77233763D01*
X101861729Y-77240550D01*
X101640808Y-77448008D01*
X101506070Y-77610879D01*
X101485412Y-77635850D01*
X101447630Y-77681520D01*
X101285242Y-77937402D01*
X101156206Y-78211619D01*
X101062555Y-78499846D01*
X101005767Y-78797538D01*
X100986738Y-79100000D01*
X92408500Y-79100000D01*
X92408500Y-73500000D01*
X100986738Y-73500000D01*
X101005767Y-73802462D01*
X101062555Y-74100154D01*
X101156206Y-74388381D01*
X101157893Y-74391967D01*
X101157895Y-74391971D01*
X101170676Y-74419131D01*
X101285242Y-74662598D01*
X101447630Y-74918480D01*
X101450149Y-74921525D01*
X101450152Y-74921529D01*
X101466965Y-74941852D01*
X101640808Y-75151992D01*
X101861729Y-75359450D01*
X102106910Y-75537584D01*
X102110379Y-75539491D01*
X102110382Y-75539493D01*
X102363381Y-75678581D01*
X102372483Y-75683585D01*
X102376152Y-75685038D01*
X102376157Y-75685040D01*
X102624614Y-75783411D01*
X102654261Y-75795149D01*
X102947800Y-75870516D01*
X103248470Y-75908500D01*
X103551530Y-75908500D01*
X103852200Y-75870516D01*
X104145739Y-75795149D01*
X104175386Y-75783411D01*
X104423843Y-75685040D01*
X104423848Y-75685038D01*
X104427517Y-75683585D01*
X104436619Y-75678581D01*
X104689618Y-75539493D01*
X104689621Y-75539491D01*
X104693090Y-75537584D01*
X104938271Y-75359450D01*
X105159192Y-75151992D01*
X105333035Y-74941852D01*
X105349848Y-74921529D01*
X105349851Y-74921525D01*
X105352370Y-74918480D01*
X105514758Y-74662598D01*
X105629324Y-74419131D01*
X105638327Y-74400000D01*
X139696496Y-74400000D01*
X139716458Y-74589928D01*
X139775473Y-74771556D01*
X139870960Y-74936944D01*
X139998747Y-75078866D01*
X140012035Y-75088520D01*
X140147246Y-75186757D01*
X140153248Y-75191118D01*
X140159276Y-75193802D01*
X140159278Y-75193803D01*
X140301460Y-75257106D01*
X140327712Y-75268794D01*
X140421112Y-75288647D01*
X140508056Y-75307128D01*
X140508061Y-75307128D01*
X140514513Y-75308500D01*
X140547265Y-75308500D01*
X140615386Y-75328502D01*
X140658386Y-75375103D01*
X140705343Y-75462953D01*
X140714792Y-75485763D01*
X140748188Y-75595855D01*
X140753005Y-75620076D01*
X140753317Y-75623244D01*
X140740088Y-75692997D01*
X140721560Y-75719903D01*
X140664382Y-75783406D01*
X140664379Y-75783410D01*
X140659959Y-75788319D01*
X140656658Y-75794037D01*
X140656656Y-75794040D01*
X140602528Y-75887793D01*
X140564472Y-75953707D01*
X140505457Y-76135335D01*
X140485495Y-76325263D01*
X140505457Y-76515191D01*
X140564472Y-76696819D01*
X140659959Y-76862207D01*
X140787746Y-77004129D01*
X140942247Y-77116381D01*
X140948275Y-77119065D01*
X140948277Y-77119066D01*
X141110680Y-77191372D01*
X141116711Y-77194057D01*
X141210112Y-77213910D01*
X141297055Y-77232391D01*
X141297060Y-77232391D01*
X141303512Y-77233763D01*
X141494486Y-77233763D01*
X141500938Y-77232391D01*
X141500943Y-77232391D01*
X141587886Y-77213910D01*
X141681287Y-77194057D01*
X141687318Y-77191372D01*
X141849721Y-77119066D01*
X141849723Y-77119065D01*
X141855751Y-77116381D01*
X142010252Y-77004129D01*
X142138039Y-76862207D01*
X142233526Y-76696819D01*
X142292541Y-76515191D01*
X142312503Y-76325263D01*
X142292541Y-76135335D01*
X142233526Y-75953707D01*
X142138039Y-75788319D01*
X142060963Y-75702717D01*
X142030245Y-75638710D01*
X142028797Y-75625471D01*
X142028494Y-75620076D01*
X142023145Y-75524823D01*
X141985886Y-75305531D01*
X141924309Y-75091789D01*
X141839187Y-74886286D01*
X141731591Y-74691606D01*
X141602875Y-74510197D01*
X141600520Y-74507562D01*
X141600513Y-74507553D01*
X141553158Y-74454562D01*
X141521799Y-74383774D01*
X141504232Y-74216635D01*
X141504232Y-74216633D01*
X141503542Y-74210072D01*
X141444527Y-74028444D01*
X141349040Y-73863056D01*
X141221253Y-73721134D01*
X141066752Y-73608882D01*
X141060724Y-73606198D01*
X141060722Y-73606197D01*
X140898319Y-73533891D01*
X140898318Y-73533891D01*
X140892288Y-73531206D01*
X140798887Y-73511353D01*
X140711944Y-73492872D01*
X140711939Y-73492872D01*
X140705487Y-73491500D01*
X140514513Y-73491500D01*
X140508061Y-73492872D01*
X140508056Y-73492872D01*
X140421113Y-73511353D01*
X140327712Y-73531206D01*
X140321682Y-73533891D01*
X140321681Y-73533891D01*
X140159278Y-73606197D01*
X140159276Y-73606198D01*
X140153248Y-73608882D01*
X139998747Y-73721134D01*
X139870960Y-73863056D01*
X139775473Y-74028444D01*
X139716458Y-74210072D01*
X139696496Y-74400000D01*
X105638327Y-74400000D01*
X105642105Y-74391971D01*
X105642107Y-74391967D01*
X105643794Y-74388381D01*
X105737445Y-74100154D01*
X105794233Y-73802462D01*
X105813262Y-73500000D01*
X105794233Y-73197538D01*
X105737445Y-72899846D01*
X105643794Y-72611619D01*
X105514758Y-72337402D01*
X105352370Y-72081520D01*
X105159192Y-71848008D01*
X104938271Y-71640550D01*
X104693090Y-71462416D01*
X104427517Y-71316415D01*
X104423848Y-71314962D01*
X104423843Y-71314960D01*
X104149409Y-71206304D01*
X104149408Y-71206304D01*
X104145739Y-71204851D01*
X103852200Y-71129484D01*
X103551530Y-71091500D01*
X103248470Y-71091500D01*
X102947800Y-71129484D01*
X102654261Y-71204851D01*
X102650592Y-71206304D01*
X102650591Y-71206304D01*
X102376157Y-71314960D01*
X102376152Y-71314962D01*
X102372483Y-71316415D01*
X102106910Y-71462416D01*
X101861729Y-71640550D01*
X101640808Y-71848008D01*
X101447630Y-72081520D01*
X101285242Y-72337402D01*
X101156206Y-72611619D01*
X101062555Y-72899846D01*
X101005767Y-73197538D01*
X100986738Y-73500000D01*
X92408500Y-73500000D01*
X92408500Y-62948134D01*
X99261500Y-62948134D01*
X99268255Y-63010316D01*
X99319385Y-63146705D01*
X99406739Y-63263261D01*
X99523295Y-63350615D01*
X99659684Y-63401745D01*
X99721866Y-63408500D01*
X101618134Y-63408500D01*
X101680316Y-63401745D01*
X101816705Y-63350615D01*
X101933261Y-63263261D01*
X102020615Y-63146705D01*
X102071745Y-63010316D01*
X102078500Y-62948134D01*
X109561500Y-62948134D01*
X109568255Y-63010316D01*
X109619385Y-63146705D01*
X109706739Y-63263261D01*
X109823295Y-63350615D01*
X109959684Y-63401745D01*
X110021866Y-63408500D01*
X111918134Y-63408500D01*
X111980316Y-63401745D01*
X112116705Y-63350615D01*
X112233261Y-63263261D01*
X112320615Y-63146705D01*
X112371745Y-63010316D01*
X112378500Y-62948134D01*
X119861500Y-62948134D01*
X119868255Y-63010316D01*
X119919385Y-63146705D01*
X120006739Y-63263261D01*
X120123295Y-63350615D01*
X120259684Y-63401745D01*
X120321866Y-63408500D01*
X122218134Y-63408500D01*
X122280316Y-63401745D01*
X122416705Y-63350615D01*
X122533261Y-63263261D01*
X122620615Y-63146705D01*
X122671745Y-63010316D01*
X122678500Y-62948134D01*
X130161500Y-62948134D01*
X130168255Y-63010316D01*
X130219385Y-63146705D01*
X130306739Y-63263261D01*
X130423295Y-63350615D01*
X130559684Y-63401745D01*
X130621866Y-63408500D01*
X132518134Y-63408500D01*
X132580316Y-63401745D01*
X132716705Y-63350615D01*
X132833261Y-63263261D01*
X132920615Y-63146705D01*
X132971745Y-63010316D01*
X132978500Y-62948134D01*
X140491500Y-62948134D01*
X140498255Y-63010316D01*
X140549385Y-63146705D01*
X140636739Y-63263261D01*
X140753295Y-63350615D01*
X140889684Y-63401745D01*
X140951866Y-63408500D01*
X142848134Y-63408500D01*
X142910316Y-63401745D01*
X143046705Y-63350615D01*
X143163261Y-63263261D01*
X143250615Y-63146705D01*
X143301745Y-63010316D01*
X143308500Y-62948134D01*
X143308500Y-62928134D01*
X150791500Y-62928134D01*
X150798255Y-62990316D01*
X150849385Y-63126705D01*
X150936739Y-63243261D01*
X151053295Y-63330615D01*
X151189684Y-63381745D01*
X151251866Y-63388500D01*
X153148134Y-63388500D01*
X153210316Y-63381745D01*
X153346705Y-63330615D01*
X153463261Y-63243261D01*
X153550615Y-63126705D01*
X153601745Y-62990316D01*
X153608500Y-62928134D01*
X153608500Y-61031866D01*
X153601745Y-60969684D01*
X153550615Y-60833295D01*
X153463261Y-60716739D01*
X153346705Y-60629385D01*
X153210316Y-60578255D01*
X153148134Y-60571500D01*
X151251866Y-60571500D01*
X151189684Y-60578255D01*
X151053295Y-60629385D01*
X150936739Y-60716739D01*
X150849385Y-60833295D01*
X150798255Y-60969684D01*
X150791500Y-61031866D01*
X150791500Y-62928134D01*
X143308500Y-62928134D01*
X143308500Y-61051866D01*
X143301745Y-60989684D01*
X143250615Y-60853295D01*
X143163261Y-60736739D01*
X143046705Y-60649385D01*
X142910316Y-60598255D01*
X142848134Y-60591500D01*
X140951866Y-60591500D01*
X140889684Y-60598255D01*
X140753295Y-60649385D01*
X140636739Y-60736739D01*
X140549385Y-60853295D01*
X140498255Y-60989684D01*
X140491500Y-61051866D01*
X140491500Y-62948134D01*
X132978500Y-62948134D01*
X132978500Y-61051866D01*
X132971745Y-60989684D01*
X132920615Y-60853295D01*
X132833261Y-60736739D01*
X132716705Y-60649385D01*
X132580316Y-60598255D01*
X132518134Y-60591500D01*
X130621866Y-60591500D01*
X130559684Y-60598255D01*
X130423295Y-60649385D01*
X130306739Y-60736739D01*
X130219385Y-60853295D01*
X130168255Y-60989684D01*
X130161500Y-61051866D01*
X130161500Y-62948134D01*
X122678500Y-62948134D01*
X122678500Y-61051866D01*
X122671745Y-60989684D01*
X122620615Y-60853295D01*
X122533261Y-60736739D01*
X122416705Y-60649385D01*
X122280316Y-60598255D01*
X122218134Y-60591500D01*
X120321866Y-60591500D01*
X120259684Y-60598255D01*
X120123295Y-60649385D01*
X120006739Y-60736739D01*
X119919385Y-60853295D01*
X119868255Y-60989684D01*
X119861500Y-61051866D01*
X119861500Y-62948134D01*
X112378500Y-62948134D01*
X112378500Y-61051866D01*
X112371745Y-60989684D01*
X112320615Y-60853295D01*
X112233261Y-60736739D01*
X112116705Y-60649385D01*
X111980316Y-60598255D01*
X111918134Y-60591500D01*
X110021866Y-60591500D01*
X109959684Y-60598255D01*
X109823295Y-60649385D01*
X109706739Y-60736739D01*
X109619385Y-60853295D01*
X109568255Y-60989684D01*
X109561500Y-61051866D01*
X109561500Y-62948134D01*
X102078500Y-62948134D01*
X102078500Y-61051866D01*
X102071745Y-60989684D01*
X102020615Y-60853295D01*
X101933261Y-60736739D01*
X101816705Y-60649385D01*
X101680316Y-60598255D01*
X101618134Y-60591500D01*
X99721866Y-60591500D01*
X99659684Y-60598255D01*
X99523295Y-60649385D01*
X99406739Y-60736739D01*
X99319385Y-60853295D01*
X99268255Y-60989684D01*
X99261500Y-61051866D01*
X99261500Y-62948134D01*
X92408500Y-62948134D01*
X92408500Y-62053250D01*
X92410246Y-62032345D01*
X92412770Y-62017344D01*
X92412770Y-62017341D01*
X92413576Y-62012552D01*
X92413729Y-62000000D01*
X92413040Y-61995186D01*
X92413039Y-61995177D01*
X92411869Y-61987006D01*
X92410827Y-61961540D01*
X92426206Y-61707290D01*
X92428040Y-61692186D01*
X92479523Y-61411246D01*
X92483164Y-61396473D01*
X92568141Y-61123773D01*
X92573534Y-61109555D01*
X92690758Y-60849092D01*
X92697828Y-60835621D01*
X92845595Y-60591187D01*
X92854238Y-60578666D01*
X93030385Y-60353829D01*
X93040475Y-60342440D01*
X93242440Y-60140475D01*
X93253829Y-60130385D01*
X93478666Y-59954238D01*
X93491187Y-59945595D01*
X93735621Y-59797828D01*
X93749094Y-59790757D01*
X93791777Y-59771547D01*
X94009555Y-59673534D01*
X94023769Y-59668142D01*
X94296474Y-59583164D01*
X94311240Y-59579525D01*
X94520214Y-59541229D01*
X94592186Y-59528040D01*
X94607290Y-59526206D01*
X94857904Y-59511047D01*
X94884716Y-59512308D01*
X94884852Y-59512310D01*
X94893724Y-59513691D01*
X94902626Y-59512527D01*
X94902628Y-59512527D01*
X94917677Y-59510559D01*
X94925286Y-59509564D01*
X94941621Y-59508500D01*
X158850633Y-59508500D01*
X158870018Y-59510000D01*
G37*
%TD.AperFunction*%
%TD*%
M02*
