%TF.GenerationSoftware,KiCad,Pcbnew,(6.0.5)*%
%TF.CreationDate,2022-09-22T23:13:11-05:00*%
%TF.ProjectId,powerPCB,706f7765-7250-4434-922e-6b696361645f,rev?*%
%TF.SameCoordinates,Original*%
%TF.FileFunction,Soldermask,Top*%
%TF.FilePolarity,Negative*%
%FSLAX46Y46*%
G04 Gerber Fmt 4.6, Leading zero omitted, Abs format (unit mm)*
G04 Created by KiCad (PCBNEW (6.0.5)) date 2022-09-22 23:13:11*
%MOMM*%
%LPD*%
G01*
G04 APERTURE LIST*
G04 Aperture macros list*
%AMRoundRect*
0 Rectangle with rounded corners*
0 $1 Rounding radius*
0 $2 $3 $4 $5 $6 $7 $8 $9 X,Y pos of 4 corners*
0 Add a 4 corners polygon primitive as box body*
4,1,4,$2,$3,$4,$5,$6,$7,$8,$9,$2,$3,0*
0 Add four circle primitives for the rounded corners*
1,1,$1+$1,$2,$3*
1,1,$1+$1,$4,$5*
1,1,$1+$1,$6,$7*
1,1,$1+$1,$8,$9*
0 Add four rect primitives between the rounded corners*
20,1,$1+$1,$2,$3,$4,$5,0*
20,1,$1+$1,$4,$5,$6,$7,0*
20,1,$1+$1,$6,$7,$8,$9,0*
20,1,$1+$1,$8,$9,$2,$3,0*%
G04 Aperture macros list end*
%ADD10RoundRect,0.200000X-0.200000X-0.275000X0.200000X-0.275000X0.200000X0.275000X-0.200000X0.275000X0*%
%ADD11C,3.800000*%
%ADD12RoundRect,0.250000X1.100000X-0.325000X1.100000X0.325000X-1.100000X0.325000X-1.100000X-0.325000X0*%
%ADD13R,1.800000X1.800000*%
%ADD14O,1.800000X1.800000*%
%ADD15RoundRect,0.200000X-0.275000X0.200000X-0.275000X-0.200000X0.275000X-0.200000X0.275000X0.200000X0*%
%ADD16RoundRect,0.200000X0.275000X-0.200000X0.275000X0.200000X-0.275000X0.200000X-0.275000X-0.200000X0*%
%ADD17RoundRect,0.250000X-0.650000X0.325000X-0.650000X-0.325000X0.650000X-0.325000X0.650000X0.325000X0*%
%ADD18RoundRect,0.225000X-0.250000X0.225000X-0.250000X-0.225000X0.250000X-0.225000X0.250000X0.225000X0*%
%ADD19R,3.750000X9.500000*%
%ADD20R,0.700000X0.340000*%
%ADD21RoundRect,0.250000X-0.325000X-1.100000X0.325000X-1.100000X0.325000X1.100000X-0.325000X1.100000X0*%
%ADD22RoundRect,0.250000X-0.312500X-0.625000X0.312500X-0.625000X0.312500X0.625000X-0.312500X0.625000X0*%
%ADD23C,0.800000*%
G04 APERTURE END LIST*
D10*
%TO.C,R1*%
X135975000Y-73000000D03*
X137625000Y-73000000D03*
%TD*%
D11*
%TO.C,H5*%
X96100000Y-73400000D03*
%TD*%
D12*
%TO.C,C5*%
X152030000Y-78915000D03*
X152030000Y-75965000D03*
%TD*%
D13*
%TO.C,J10*%
X131570000Y-62000000D03*
D14*
X126570000Y-62000000D03*
%TD*%
D13*
%TO.C,J3*%
X142030000Y-95900000D03*
D14*
X147030000Y-95900000D03*
%TD*%
D15*
%TO.C,R3*%
X140000000Y-71375000D03*
X140000000Y-73025000D03*
%TD*%
D16*
%TO.C,R2*%
X142800000Y-77425000D03*
X142800000Y-75775000D03*
%TD*%
D13*
%TO.C,J7*%
X152200000Y-61980000D03*
D14*
X147200000Y-61980000D03*
%TD*%
D17*
%TO.C,C2*%
X133700000Y-77225000D03*
X133700000Y-80175000D03*
%TD*%
D13*
%TO.C,J6*%
X121270000Y-62000000D03*
D14*
X116270000Y-62000000D03*
%TD*%
D13*
%TO.C,J9*%
X141900000Y-62000000D03*
D14*
X136900000Y-62000000D03*
%TD*%
D11*
%TO.C,H6*%
X96100000Y-79100000D03*
%TD*%
D13*
%TO.C,J4*%
X131730000Y-95900000D03*
D14*
X136730000Y-95900000D03*
%TD*%
D13*
%TO.C,J8*%
X100670000Y-62000000D03*
D14*
X95670000Y-62000000D03*
%TD*%
D12*
%TO.C,C4*%
X147240000Y-78915000D03*
X147240000Y-75965000D03*
%TD*%
D11*
%TO.C,H2*%
X103400000Y-84900000D03*
%TD*%
D18*
%TO.C,C3*%
X136100000Y-77125000D03*
X136100000Y-78675000D03*
%TD*%
D19*
%TO.C,L1*%
X139620000Y-85800000D03*
X145980000Y-85800000D03*
%TD*%
D13*
%TO.C,J1*%
X120930000Y-95900000D03*
D14*
X125930000Y-95900000D03*
%TD*%
D11*
%TO.C,H3*%
X103400000Y-73500000D03*
%TD*%
D13*
%TO.C,J5*%
X110970000Y-62000000D03*
D14*
X105970000Y-62000000D03*
%TD*%
D11*
%TO.C,H1*%
X103400000Y-79100000D03*
%TD*%
D14*
%TO.C,SW1*%
X125400000Y-81640000D03*
X125400000Y-79100000D03*
X125400000Y-76560000D03*
%TD*%
D17*
%TO.C,C1*%
X130900000Y-77225000D03*
X130900000Y-80175000D03*
%TD*%
D20*
%TO.C,U1*%
X138550000Y-75800000D03*
X138550000Y-76300000D03*
X138550000Y-76800000D03*
X140050000Y-76800000D03*
X140050000Y-76300000D03*
X140050000Y-75800000D03*
%TD*%
D21*
%TO.C,C6*%
X151425000Y-82980000D03*
X154375000Y-82980000D03*
%TD*%
D22*
%TO.C,R5*%
X142137500Y-73300000D03*
X145062500Y-73300000D03*
%TD*%
D11*
%TO.C,H4*%
X96100000Y-85000000D03*
%TD*%
D21*
%TO.C,C7*%
X151425000Y-87500000D03*
X154375000Y-87500000D03*
%TD*%
D13*
%TO.C,J2*%
X152130000Y-95900000D03*
D14*
X157130000Y-95900000D03*
%TD*%
D10*
%TO.C,R4*%
X141175000Y-79300000D03*
X142825000Y-79300000D03*
%TD*%
D23*
X138450000Y-71610000D03*
X139790000Y-79190000D03*
X139400000Y-78100000D03*
X133700000Y-82700000D03*
X149500000Y-74400000D03*
X155900000Y-85100000D03*
X141398999Y-76325263D03*
X140610000Y-74400000D03*
M02*
