%TF.GenerationSoftware,KiCad,Pcbnew,(6.0.5)*%
%TF.CreationDate,2022-09-22T23:13:11-05:00*%
%TF.ProjectId,powerPCB,706f7765-7250-4434-922e-6b696361645f,rev?*%
%TF.SameCoordinates,Original*%
%TF.FileFunction,Copper,L1,Top*%
%TF.FilePolarity,Positive*%
%FSLAX46Y46*%
G04 Gerber Fmt 4.6, Leading zero omitted, Abs format (unit mm)*
G04 Created by KiCad (PCBNEW (6.0.5)) date 2022-09-22 23:13:11*
%MOMM*%
%LPD*%
G01*
G04 APERTURE LIST*
G04 Aperture macros list*
%AMRoundRect*
0 Rectangle with rounded corners*
0 $1 Rounding radius*
0 $2 $3 $4 $5 $6 $7 $8 $9 X,Y pos of 4 corners*
0 Add a 4 corners polygon primitive as box body*
4,1,4,$2,$3,$4,$5,$6,$7,$8,$9,$2,$3,0*
0 Add four circle primitives for the rounded corners*
1,1,$1+$1,$2,$3*
1,1,$1+$1,$4,$5*
1,1,$1+$1,$6,$7*
1,1,$1+$1,$8,$9*
0 Add four rect primitives between the rounded corners*
20,1,$1+$1,$2,$3,$4,$5,0*
20,1,$1+$1,$4,$5,$6,$7,0*
20,1,$1+$1,$6,$7,$8,$9,0*
20,1,$1+$1,$8,$9,$2,$3,0*%
G04 Aperture macros list end*
%TA.AperFunction,SMDPad,CuDef*%
%ADD10RoundRect,0.200000X-0.200000X-0.275000X0.200000X-0.275000X0.200000X0.275000X-0.200000X0.275000X0*%
%TD*%
%TA.AperFunction,ComponentPad*%
%ADD11C,3.800000*%
%TD*%
%TA.AperFunction,SMDPad,CuDef*%
%ADD12RoundRect,0.250000X1.100000X-0.325000X1.100000X0.325000X-1.100000X0.325000X-1.100000X-0.325000X0*%
%TD*%
%TA.AperFunction,ComponentPad*%
%ADD13R,1.800000X1.800000*%
%TD*%
%TA.AperFunction,ComponentPad*%
%ADD14O,1.800000X1.800000*%
%TD*%
%TA.AperFunction,SMDPad,CuDef*%
%ADD15RoundRect,0.200000X-0.275000X0.200000X-0.275000X-0.200000X0.275000X-0.200000X0.275000X0.200000X0*%
%TD*%
%TA.AperFunction,SMDPad,CuDef*%
%ADD16RoundRect,0.200000X0.275000X-0.200000X0.275000X0.200000X-0.275000X0.200000X-0.275000X-0.200000X0*%
%TD*%
%TA.AperFunction,SMDPad,CuDef*%
%ADD17RoundRect,0.250000X-0.650000X0.325000X-0.650000X-0.325000X0.650000X-0.325000X0.650000X0.325000X0*%
%TD*%
%TA.AperFunction,SMDPad,CuDef*%
%ADD18RoundRect,0.225000X-0.250000X0.225000X-0.250000X-0.225000X0.250000X-0.225000X0.250000X0.225000X0*%
%TD*%
%TA.AperFunction,SMDPad,CuDef*%
%ADD19R,3.750000X9.500000*%
%TD*%
%TA.AperFunction,SMDPad,CuDef*%
%ADD20R,0.700000X0.340000*%
%TD*%
%TA.AperFunction,SMDPad,CuDef*%
%ADD21RoundRect,0.250000X-0.325000X-1.100000X0.325000X-1.100000X0.325000X1.100000X-0.325000X1.100000X0*%
%TD*%
%TA.AperFunction,SMDPad,CuDef*%
%ADD22RoundRect,0.250000X-0.312500X-0.625000X0.312500X-0.625000X0.312500X0.625000X-0.312500X0.625000X0*%
%TD*%
%TA.AperFunction,ViaPad*%
%ADD23C,0.800000*%
%TD*%
%TA.AperFunction,Conductor*%
%ADD24C,0.500000*%
%TD*%
%TA.AperFunction,Conductor*%
%ADD25C,0.250000*%
%TD*%
%TA.AperFunction,Conductor*%
%ADD26C,1.500000*%
%TD*%
%TA.AperFunction,Conductor*%
%ADD27C,1.000000*%
%TD*%
G04 APERTURE END LIST*
D10*
%TO.P,R1,1*%
%TO.N,+12V*%
X135975000Y-73000000D03*
%TO.P,R1,2*%
%TO.N,/EN*%
X137625000Y-73000000D03*
%TD*%
D11*
%TO.P,H5,1,1*%
%TO.N,GND*%
X96100000Y-73400000D03*
%TD*%
D12*
%TO.P,C5,1*%
%TO.N,+5V*%
X152030000Y-78915000D03*
%TO.P,C5,2*%
%TO.N,GND*%
X152030000Y-75965000D03*
%TD*%
D13*
%TO.P,J10,1,Pin_1*%
%TO.N,+12V*%
X131570000Y-62000000D03*
D14*
%TO.P,J10,2,Pin_2*%
%TO.N,GND*%
X126570000Y-62000000D03*
%TD*%
D13*
%TO.P,J3,1,Pin_1*%
%TO.N,+5V*%
X142030000Y-95900000D03*
D14*
%TO.P,J3,2,Pin_2*%
%TO.N,GND*%
X147030000Y-95900000D03*
%TD*%
D15*
%TO.P,R3,1*%
%TO.N,GND*%
X140000000Y-71375000D03*
%TO.P,R3,2*%
%TO.N,/EN*%
X140000000Y-73025000D03*
%TD*%
D16*
%TO.P,R2,1*%
%TO.N,Net-(R2-Pad1)*%
X142800000Y-77425000D03*
%TO.P,R2,2*%
%TO.N,/FB*%
X142800000Y-75775000D03*
%TD*%
D13*
%TO.P,J7,1,Pin_1*%
%TO.N,+12V*%
X152200000Y-61980000D03*
D14*
%TO.P,J7,2,Pin_2*%
%TO.N,GND*%
X147200000Y-61980000D03*
%TD*%
D17*
%TO.P,C2,1*%
%TO.N,+12V*%
X133700000Y-77225000D03*
%TO.P,C2,2*%
%TO.N,GND*%
X133700000Y-80175000D03*
%TD*%
D13*
%TO.P,J6,1,Pin_1*%
%TO.N,+12V*%
X121270000Y-62000000D03*
D14*
%TO.P,J6,2,Pin_2*%
%TO.N,GND*%
X116270000Y-62000000D03*
%TD*%
D13*
%TO.P,J9,1,Pin_1*%
%TO.N,+12V*%
X141900000Y-62000000D03*
D14*
%TO.P,J9,2,Pin_2*%
%TO.N,GND*%
X136900000Y-62000000D03*
%TD*%
D11*
%TO.P,H6,1,1*%
%TO.N,GND*%
X96100000Y-79100000D03*
%TD*%
D13*
%TO.P,J4,1,Pin_1*%
%TO.N,+5V*%
X131730000Y-95900000D03*
D14*
%TO.P,J4,2,Pin_2*%
%TO.N,GND*%
X136730000Y-95900000D03*
%TD*%
D13*
%TO.P,J8,1,Pin_1*%
%TO.N,+12V*%
X100670000Y-62000000D03*
D14*
%TO.P,J8,2,Pin_2*%
%TO.N,GND*%
X95670000Y-62000000D03*
%TD*%
D12*
%TO.P,C4,1*%
%TO.N,+5V*%
X147240000Y-78915000D03*
%TO.P,C4,2*%
%TO.N,GND*%
X147240000Y-75965000D03*
%TD*%
D11*
%TO.P,H2,1,1*%
%TO.N,/12IN*%
X103400000Y-84900000D03*
%TD*%
D18*
%TO.P,C3,1*%
%TO.N,+12V*%
X136100000Y-77125000D03*
%TO.P,C3,2*%
%TO.N,GND*%
X136100000Y-78675000D03*
%TD*%
D19*
%TO.P,L1,1*%
%TO.N,/SW*%
X139620000Y-85800000D03*
%TO.P,L1,2*%
%TO.N,+5V*%
X145980000Y-85800000D03*
%TD*%
D13*
%TO.P,J1,1,Pin_1*%
%TO.N,+5V*%
X120930000Y-95900000D03*
D14*
%TO.P,J1,2,Pin_2*%
%TO.N,GND*%
X125930000Y-95900000D03*
%TD*%
D11*
%TO.P,H3,1,1*%
%TO.N,/12IN*%
X103400000Y-73500000D03*
%TD*%
D13*
%TO.P,J5,1,Pin_1*%
%TO.N,+12V*%
X110970000Y-62000000D03*
D14*
%TO.P,J5,2,Pin_2*%
%TO.N,GND*%
X105970000Y-62000000D03*
%TD*%
D11*
%TO.P,H1,1,1*%
%TO.N,/12IN*%
X103400000Y-79100000D03*
%TD*%
D14*
%TO.P,SW1,1,A*%
%TO.N,unconnected-(SW1-Pad1)*%
X125400000Y-81640000D03*
%TO.P,SW1,2,B*%
%TO.N,/12IN*%
X125400000Y-79100000D03*
%TO.P,SW1,3,C*%
%TO.N,+12V*%
X125400000Y-76560000D03*
%TD*%
D17*
%TO.P,C1,1*%
%TO.N,+12V*%
X130900000Y-77225000D03*
%TO.P,C1,2*%
%TO.N,GND*%
X130900000Y-80175000D03*
%TD*%
D20*
%TO.P,U1,1,VIN*%
%TO.N,+12V*%
X138550000Y-75800000D03*
%TO.P,U1,2,SW*%
%TO.N,/SW*%
X138550000Y-76300000D03*
%TO.P,U1,3,GND*%
%TO.N,GND*%
X138550000Y-76800000D03*
%TO.P,U1,4,AGND*%
X140050000Y-76800000D03*
%TO.P,U1,5,EN*%
%TO.N,/EN*%
X140050000Y-76300000D03*
%TO.P,U1,6,FB*%
%TO.N,/FB*%
X140050000Y-75800000D03*
%TD*%
D21*
%TO.P,C6,1*%
%TO.N,+5V*%
X151425000Y-82980000D03*
%TO.P,C6,2*%
%TO.N,GND*%
X154375000Y-82980000D03*
%TD*%
D22*
%TO.P,R5,1*%
%TO.N,/FB*%
X142137500Y-73300000D03*
%TO.P,R5,2*%
%TO.N,+5V*%
X145062500Y-73300000D03*
%TD*%
D11*
%TO.P,H4,1,1*%
%TO.N,GND*%
X96100000Y-85000000D03*
%TD*%
D21*
%TO.P,C7,1*%
%TO.N,+5V*%
X151425000Y-87500000D03*
%TO.P,C7,2*%
%TO.N,GND*%
X154375000Y-87500000D03*
%TD*%
D13*
%TO.P,J2,1,Pin_1*%
%TO.N,+5V*%
X152130000Y-95900000D03*
D14*
%TO.P,J2,2,Pin_2*%
%TO.N,GND*%
X157130000Y-95900000D03*
%TD*%
D10*
%TO.P,R4,1*%
%TO.N,GND*%
X141175000Y-79300000D03*
%TO.P,R4,2*%
%TO.N,Net-(R2-Pad1)*%
X142825000Y-79300000D03*
%TD*%
D23*
%TO.N,GND*%
X138450000Y-71610000D03*
X139790000Y-79190000D03*
X139400000Y-78100000D03*
X133700000Y-82700000D03*
X149500000Y-74400000D03*
X155900000Y-85100000D03*
%TO.N,/EN*%
X141398999Y-76325263D03*
X140610000Y-74400000D03*
%TD*%
D24*
%TO.N,GND*%
X138851170Y-71375000D02*
X140000000Y-71375000D01*
X139790000Y-79190000D02*
X139845000Y-79245000D01*
X131037500Y-80175000D02*
X130900000Y-80175000D01*
X139977781Y-79300000D02*
X141175000Y-79300000D01*
X138567500Y-71492500D02*
X138450000Y-71610000D01*
X133968750Y-80806250D02*
X134056250Y-80718750D01*
X154375000Y-83277500D02*
X154375000Y-82980000D01*
D25*
X138550000Y-77025000D02*
X138550000Y-76800000D01*
D24*
X154585364Y-83785364D02*
X155900000Y-85100000D01*
D25*
X139820190Y-77679809D02*
X139400000Y-78100000D01*
D24*
X134418750Y-80356250D02*
X134056250Y-80718750D01*
X150723820Y-75623820D02*
X149500000Y-74400000D01*
X151547500Y-75965000D02*
X152030000Y-75965000D01*
X154375000Y-87062500D02*
X154375000Y-87500000D01*
D25*
X138709099Y-77409099D02*
X139400000Y-78100000D01*
D24*
X133936871Y-80236871D02*
X134056250Y-80356250D01*
X133700000Y-82700000D02*
X133700000Y-81455069D01*
X133787500Y-80175000D02*
X133700000Y-80175000D01*
X134418750Y-80356250D02*
X136100000Y-78675000D01*
X133700000Y-82700000D02*
X131272227Y-80272227D01*
D25*
X140050000Y-77125000D02*
X140050000Y-76800000D01*
D24*
X147587500Y-75965000D02*
X147240000Y-75965000D01*
X154684359Y-86315640D02*
X155900000Y-85100000D01*
X148180719Y-75719280D02*
X149500000Y-74400000D01*
D25*
X138709099Y-77409099D02*
G75*
G02*
X138550000Y-77025000I384101J384099D01*
G01*
D24*
X134056250Y-80356250D02*
G75*
G02*
X134056250Y-80718750I-181250J-181250D01*
G01*
X139977781Y-79300007D02*
G75*
G02*
X139845000Y-79245000I19J187807D01*
G01*
X147587500Y-75965010D02*
G75*
G03*
X148180718Y-75719279I0J838910D01*
G01*
X151547500Y-75964987D02*
G75*
G02*
X150723821Y-75623819I0J1164887D01*
G01*
X133699988Y-81455069D02*
G75*
G02*
X133968750Y-80806250I917612J-31D01*
G01*
X131037500Y-80175014D02*
G75*
G02*
X131272227Y-80272227I0J-331986D01*
G01*
X154374994Y-87062500D02*
G75*
G02*
X154684359Y-86315640I1056206J0D01*
G01*
X138567509Y-71492509D02*
G75*
G02*
X138851170Y-71375000I283691J-283691D01*
G01*
X154585370Y-83785358D02*
G75*
G02*
X154375000Y-83277500I507830J507858D01*
G01*
D25*
X139820186Y-77679805D02*
G75*
G03*
X140050000Y-77125000I-554786J554805D01*
G01*
D24*
X134418749Y-80356249D02*
G75*
G02*
X134056251Y-80356249I-181249J181250D01*
G01*
X133787500Y-80174988D02*
G75*
G02*
X133936870Y-80236872I0J-211212D01*
G01*
D26*
%TO.N,+5V*%
X149300000Y-88012132D02*
X149300000Y-87587867D01*
D25*
X145368198Y-80150000D02*
X148190380Y-80150000D01*
D26*
X151607500Y-78915000D02*
X152030000Y-78915000D01*
X147251471Y-85800000D02*
X145980000Y-85800000D01*
X149300000Y-88850000D02*
X149300000Y-90950000D01*
X148325000Y-79825000D02*
X148975000Y-80475000D01*
X149300000Y-83751471D02*
X149300000Y-81259619D01*
X150741455Y-83158544D02*
X149900000Y-84000000D01*
X147476871Y-78976871D02*
X148325000Y-79825000D01*
X151172500Y-82980000D02*
X151425000Y-82980000D01*
X149300000Y-90950000D02*
X149300000Y-92400000D01*
X149300000Y-85448528D02*
X149300000Y-87587867D01*
X149812132Y-87500000D02*
X151425000Y-87500000D01*
X147327500Y-78915000D02*
X147240000Y-78915000D01*
X149300000Y-88850000D02*
X149300000Y-88012132D01*
X150886247Y-79213752D02*
X149625000Y-80475000D01*
D25*
X145062500Y-74402246D02*
X145062500Y-73300000D01*
X144600000Y-75518819D02*
X144600000Y-79381801D01*
D26*
X149450055Y-87650055D02*
G75*
G02*
X149300000Y-87587867I-62155J62155D01*
G01*
D25*
X148325033Y-79824967D02*
G75*
G02*
X148190380Y-80150000I-134633J-134633D01*
G01*
X144600004Y-75518819D02*
G75*
G02*
X144831251Y-74960534I789496J19D01*
G01*
D26*
X148699952Y-85199952D02*
G75*
G02*
X149300000Y-85448528I248548J-248548D01*
G01*
X147327500Y-78914988D02*
G75*
G02*
X147476870Y-78976872I0J-211212D01*
G01*
X148975006Y-80474994D02*
G75*
G02*
X149300000Y-81259619I-784606J-784606D01*
G01*
X150886249Y-79213754D02*
G75*
G02*
X151607500Y-78915000I721251J-721246D01*
G01*
X149299988Y-83751471D02*
G75*
G02*
X148700000Y-85200000I-2048488J-29D01*
G01*
X149300014Y-88012132D02*
G75*
G02*
X149450001Y-87650001I512086J32D01*
G01*
X149625000Y-80475000D02*
G75*
G02*
X148975000Y-80475000I-325000J325001D01*
G01*
D25*
X145368198Y-80150000D02*
G75*
G02*
X144825001Y-79924999I2J768200D01*
G01*
D26*
X147251471Y-85799988D02*
G75*
G03*
X148700000Y-85200000I29J2048488D01*
G01*
X149900048Y-84000048D02*
G75*
G02*
X149300000Y-83751471I-248548J248548D01*
G01*
X149449991Y-87649991D02*
G75*
G02*
X149812132Y-87500000I362109J-362109D01*
G01*
D25*
X144831219Y-74960502D02*
G75*
G03*
X145062500Y-74402246I-558219J558302D01*
G01*
D26*
X149300012Y-85448528D02*
G75*
G02*
X149900000Y-84000000I2048488J28D01*
G01*
D25*
X144825001Y-79924999D02*
G75*
G02*
X144600000Y-79381801I543199J543199D01*
G01*
D26*
X150741453Y-83158542D02*
G75*
G02*
X151172500Y-82980000I431047J-431058D01*
G01*
X149300009Y-81259619D02*
G75*
G02*
X149625001Y-80475001I1109591J19D01*
G01*
D27*
%TO.N,+12V*%
X135602598Y-76560000D02*
X135470000Y-76560000D01*
X133682426Y-76560000D02*
X134250000Y-76560000D01*
X133597573Y-76560000D02*
X133682426Y-76560000D01*
X131064020Y-76560000D02*
X131855979Y-76560000D01*
X130900000Y-77172500D02*
X130900000Y-77225000D01*
X131064020Y-76560000D02*
X125400000Y-76560000D01*
D25*
X134860000Y-74903424D02*
X134860000Y-75950000D01*
X137200000Y-75800000D02*
X137000000Y-75800000D01*
D24*
X136100000Y-77125000D02*
X136100000Y-76600000D01*
D27*
X130937123Y-77082876D02*
X131180000Y-76840000D01*
D25*
X137200000Y-75800000D02*
X138550000Y-75800000D01*
D27*
X131855979Y-76560000D02*
X133597573Y-76560000D01*
X136519999Y-76179999D02*
X136829289Y-75870710D01*
X135470000Y-76560000D02*
X134250000Y-76560000D01*
D25*
X135417500Y-73557500D02*
X135975000Y-73000000D01*
D27*
X133700000Y-76662426D02*
X133700000Y-77225000D01*
X136829294Y-75870715D02*
G75*
G02*
X137000000Y-75800000I170706J-170685D01*
G01*
X133597573Y-76560011D02*
G75*
G02*
X133670000Y-76590000I27J-102389D01*
G01*
X134860000Y-75950000D02*
G75*
G02*
X134250000Y-76560000I-610000J0D01*
G01*
D25*
X134860010Y-74903424D02*
G75*
G02*
X135417500Y-73557500I1903390J24D01*
G01*
X135470000Y-76560000D02*
G75*
G02*
X134860000Y-75950000I0J610000D01*
G01*
D27*
X130899986Y-77172500D02*
G75*
G02*
X130937123Y-77082876I126714J0D01*
G01*
X135602598Y-76559998D02*
G75*
G03*
X136519999Y-76179999I2J1297398D01*
G01*
X133669955Y-76590045D02*
G75*
G02*
X133682426Y-76560000I12445J12445D01*
G01*
X131064020Y-76559952D02*
G75*
G02*
X131179999Y-76839999I-20J-164048D01*
G01*
X131180006Y-76840006D02*
G75*
G02*
X131855979Y-76560000I675994J-675994D01*
G01*
X133699989Y-76662426D02*
G75*
G03*
X133670000Y-76590000I-102389J26D01*
G01*
%TO.N,/SW*%
X137400000Y-77799760D02*
X137400000Y-77108791D01*
X139620000Y-82389777D02*
X139620000Y-85800000D01*
D25*
X138215489Y-76300000D02*
X138550000Y-76300000D01*
X137644442Y-76536534D02*
X137477266Y-76703711D01*
X137400000Y-76890249D02*
X137400000Y-77108791D01*
D27*
X137965855Y-79165855D02*
X138510000Y-79710000D01*
X139620009Y-82389777D02*
G75*
G03*
X138510000Y-79710000I-3789809J-23D01*
G01*
D25*
X137644445Y-76536537D02*
G75*
G02*
X138215489Y-76300000I571055J-571063D01*
G01*
X137400033Y-76890249D02*
G75*
G02*
X137477266Y-76703711I263767J49D01*
G01*
D27*
X137965845Y-79165865D02*
G75*
G02*
X137400000Y-77799760I1366055J1366065D01*
G01*
D25*
%TO.N,/EN*%
X138055000Y-73430000D02*
X137625000Y-73000000D01*
X140530450Y-73555450D02*
X140000000Y-73025000D01*
X140610000Y-73972500D02*
X140610000Y-74400000D01*
X141355872Y-76300000D02*
X140050000Y-76300000D01*
X140610000Y-73747500D02*
X140610000Y-73972500D01*
X141386367Y-76312631D02*
X141398999Y-76325263D01*
X140497500Y-73860000D02*
X139093111Y-73860000D01*
X140609999Y-73747500D02*
G75*
G03*
X140530449Y-73555451I-271599J0D01*
G01*
X140610000Y-73747500D02*
G75*
G02*
X140497500Y-73860000I-112500J0D01*
G01*
X139093111Y-73859995D02*
G75*
G02*
X138055000Y-73430000I-11J1468095D01*
G01*
X140497500Y-73860000D02*
G75*
G02*
X140610000Y-73972500I0J-112500D01*
G01*
X141355872Y-76300012D02*
G75*
G02*
X141386367Y-76312631I28J-43088D01*
G01*
%TO.N,/FB*%
X142605545Y-75030545D02*
X142468750Y-74893750D01*
X140475000Y-75800000D02*
X140050000Y-75800000D01*
X141200520Y-75499479D02*
X141806250Y-74893750D01*
X142800000Y-75500000D02*
X142800000Y-75775000D01*
X142137500Y-74094041D02*
X142137500Y-73300000D01*
X142468762Y-74893738D02*
G75*
G02*
X142137500Y-74094041I799738J799738D01*
G01*
X142800002Y-75500000D02*
G75*
G03*
X142605545Y-75030545I-663902J0D01*
G01*
X141806250Y-74893750D02*
G75*
G02*
X142468750Y-74893750I331250J-331247D01*
G01*
X140475000Y-75800011D02*
G75*
G03*
X141200520Y-75499479I0J1026011D01*
G01*
X142137517Y-74094041D02*
G75*
G02*
X141806250Y-74893750I-1131017J41D01*
G01*
D24*
%TO.N,Net-(R2-Pad1)*%
X142812500Y-79287500D02*
X142825000Y-79300000D01*
X142800000Y-79257322D02*
X142800000Y-77425000D01*
X142812507Y-79287493D02*
G75*
G02*
X142800000Y-79257322I30193J30193D01*
G01*
%TD*%
%TA.AperFunction,Conductor*%
%TO.N,+12V*%
G36*
X129200000Y-77474000D02*
G01*
X129179998Y-77542121D01*
X129126342Y-77588614D01*
X129074000Y-77600000D01*
X121326000Y-77600000D01*
X121257879Y-77579998D01*
X121211386Y-77526342D01*
X121200000Y-77474000D01*
X121200000Y-68200000D01*
X93926000Y-68200000D01*
X93857879Y-68179998D01*
X93811386Y-68126342D01*
X93800000Y-68074000D01*
X93800000Y-61965469D01*
X94257095Y-61965469D01*
X94257392Y-61970622D01*
X94257392Y-61970625D01*
X94270129Y-62191529D01*
X94270427Y-62196697D01*
X94271564Y-62201743D01*
X94271565Y-62201749D01*
X94303741Y-62344523D01*
X94321346Y-62422642D01*
X94323288Y-62427424D01*
X94323289Y-62427428D01*
X94406540Y-62632450D01*
X94408484Y-62637237D01*
X94529501Y-62834719D01*
X94681147Y-63009784D01*
X94859349Y-63157730D01*
X95059322Y-63274584D01*
X95275694Y-63357209D01*
X95280760Y-63358240D01*
X95280761Y-63358240D01*
X95333846Y-63369040D01*
X95502656Y-63403385D01*
X95633324Y-63408176D01*
X95728949Y-63411683D01*
X95728953Y-63411683D01*
X95734113Y-63411872D01*
X95739233Y-63411216D01*
X95739235Y-63411216D01*
X95812270Y-63401860D01*
X95963847Y-63382442D01*
X95968795Y-63380957D01*
X95968802Y-63380956D01*
X96180747Y-63317369D01*
X96185690Y-63315886D01*
X96266236Y-63276427D01*
X96389049Y-63216262D01*
X96389052Y-63216260D01*
X96393684Y-63213991D01*
X96582243Y-63079494D01*
X96746303Y-62916005D01*
X96881458Y-62727917D01*
X96928641Y-62632450D01*
X96981784Y-62524922D01*
X96981785Y-62524920D01*
X96984078Y-62520280D01*
X97051408Y-62298671D01*
X97081640Y-62069041D01*
X97081722Y-62065691D01*
X97083245Y-62003365D01*
X97083245Y-62003361D01*
X97083327Y-62000000D01*
X97080488Y-61965469D01*
X104557095Y-61965469D01*
X104557392Y-61970622D01*
X104557392Y-61970625D01*
X104570129Y-62191529D01*
X104570427Y-62196697D01*
X104571564Y-62201743D01*
X104571565Y-62201749D01*
X104603741Y-62344523D01*
X104621346Y-62422642D01*
X104623288Y-62427424D01*
X104623289Y-62427428D01*
X104706540Y-62632450D01*
X104708484Y-62637237D01*
X104829501Y-62834719D01*
X104981147Y-63009784D01*
X105159349Y-63157730D01*
X105359322Y-63274584D01*
X105575694Y-63357209D01*
X105580760Y-63358240D01*
X105580761Y-63358240D01*
X105633846Y-63369040D01*
X105802656Y-63403385D01*
X105933324Y-63408176D01*
X106028949Y-63411683D01*
X106028953Y-63411683D01*
X106034113Y-63411872D01*
X106039233Y-63411216D01*
X106039235Y-63411216D01*
X106112270Y-63401860D01*
X106263847Y-63382442D01*
X106268795Y-63380957D01*
X106268802Y-63380956D01*
X106480747Y-63317369D01*
X106485690Y-63315886D01*
X106566236Y-63276427D01*
X106689049Y-63216262D01*
X106689052Y-63216260D01*
X106693684Y-63213991D01*
X106882243Y-63079494D01*
X107046303Y-62916005D01*
X107181458Y-62727917D01*
X107228641Y-62632450D01*
X107281784Y-62524922D01*
X107281785Y-62524920D01*
X107284078Y-62520280D01*
X107351408Y-62298671D01*
X107381640Y-62069041D01*
X107381722Y-62065691D01*
X107383245Y-62003365D01*
X107383245Y-62003361D01*
X107383327Y-62000000D01*
X107380488Y-61965469D01*
X114857095Y-61965469D01*
X114857392Y-61970622D01*
X114857392Y-61970625D01*
X114870129Y-62191529D01*
X114870427Y-62196697D01*
X114871564Y-62201743D01*
X114871565Y-62201749D01*
X114903741Y-62344523D01*
X114921346Y-62422642D01*
X114923288Y-62427424D01*
X114923289Y-62427428D01*
X115006540Y-62632450D01*
X115008484Y-62637237D01*
X115129501Y-62834719D01*
X115281147Y-63009784D01*
X115459349Y-63157730D01*
X115659322Y-63274584D01*
X115875694Y-63357209D01*
X115880760Y-63358240D01*
X115880761Y-63358240D01*
X115933846Y-63369040D01*
X116102656Y-63403385D01*
X116233324Y-63408176D01*
X116328949Y-63411683D01*
X116328953Y-63411683D01*
X116334113Y-63411872D01*
X116339233Y-63411216D01*
X116339235Y-63411216D01*
X116412270Y-63401860D01*
X116563847Y-63382442D01*
X116568795Y-63380957D01*
X116568802Y-63380956D01*
X116780747Y-63317369D01*
X116785690Y-63315886D01*
X116866236Y-63276427D01*
X116989049Y-63216262D01*
X116989052Y-63216260D01*
X116993684Y-63213991D01*
X117182243Y-63079494D01*
X117346303Y-62916005D01*
X117481458Y-62727917D01*
X117528641Y-62632450D01*
X117581784Y-62524922D01*
X117581785Y-62524920D01*
X117584078Y-62520280D01*
X117651408Y-62298671D01*
X117681640Y-62069041D01*
X117681722Y-62065691D01*
X117683245Y-62003365D01*
X117683245Y-62003361D01*
X117683327Y-62000000D01*
X117680488Y-61965469D01*
X125157095Y-61965469D01*
X125157392Y-61970622D01*
X125157392Y-61970625D01*
X125170129Y-62191529D01*
X125170427Y-62196697D01*
X125171564Y-62201743D01*
X125171565Y-62201749D01*
X125203741Y-62344523D01*
X125221346Y-62422642D01*
X125223288Y-62427424D01*
X125223289Y-62427428D01*
X125306540Y-62632450D01*
X125308484Y-62637237D01*
X125429501Y-62834719D01*
X125581147Y-63009784D01*
X125759349Y-63157730D01*
X125959322Y-63274584D01*
X126175694Y-63357209D01*
X126180760Y-63358240D01*
X126180761Y-63358240D01*
X126233846Y-63369040D01*
X126402656Y-63403385D01*
X126533324Y-63408176D01*
X126628949Y-63411683D01*
X126628953Y-63411683D01*
X126634113Y-63411872D01*
X126639233Y-63411216D01*
X126639235Y-63411216D01*
X126712270Y-63401860D01*
X126863847Y-63382442D01*
X126868795Y-63380957D01*
X126868802Y-63380956D01*
X127080747Y-63317369D01*
X127085690Y-63315886D01*
X127166236Y-63276427D01*
X127289049Y-63216262D01*
X127289052Y-63216260D01*
X127293684Y-63213991D01*
X127482243Y-63079494D01*
X127646303Y-62916005D01*
X127781458Y-62727917D01*
X127828641Y-62632450D01*
X127881784Y-62524922D01*
X127881785Y-62524920D01*
X127884078Y-62520280D01*
X127951408Y-62298671D01*
X127981640Y-62069041D01*
X127981722Y-62065691D01*
X127983245Y-62003365D01*
X127983245Y-62003361D01*
X127983327Y-62000000D01*
X127977032Y-61923434D01*
X127964773Y-61774318D01*
X127964772Y-61774312D01*
X127964349Y-61769167D01*
X127907925Y-61544533D01*
X127905866Y-61539797D01*
X127817630Y-61336868D01*
X127817628Y-61336865D01*
X127815570Y-61332131D01*
X127689764Y-61137665D01*
X127533887Y-60966358D01*
X127529836Y-60963159D01*
X127529832Y-60963155D01*
X127356177Y-60826011D01*
X127356172Y-60826008D01*
X127352123Y-60822810D01*
X127347607Y-60820317D01*
X127347604Y-60820315D01*
X127153879Y-60713373D01*
X127153875Y-60713371D01*
X127149355Y-60710876D01*
X127144486Y-60709152D01*
X127144482Y-60709150D01*
X126935903Y-60635288D01*
X126935899Y-60635287D01*
X126931028Y-60633562D01*
X126925935Y-60632655D01*
X126925932Y-60632654D01*
X126708095Y-60593851D01*
X126708089Y-60593850D01*
X126703006Y-60592945D01*
X126630096Y-60592054D01*
X126476581Y-60590179D01*
X126476579Y-60590179D01*
X126471411Y-60590116D01*
X126242464Y-60625150D01*
X126022314Y-60697106D01*
X126017726Y-60699494D01*
X126017722Y-60699496D01*
X125991065Y-60713373D01*
X125816872Y-60804052D01*
X125812739Y-60807155D01*
X125812736Y-60807157D01*
X125635790Y-60940012D01*
X125631655Y-60943117D01*
X125471639Y-61110564D01*
X125468725Y-61114836D01*
X125468724Y-61114837D01*
X125453152Y-61137665D01*
X125341119Y-61301899D01*
X125243602Y-61511981D01*
X125181707Y-61735169D01*
X125157095Y-61965469D01*
X117680488Y-61965469D01*
X117677032Y-61923434D01*
X117664773Y-61774318D01*
X117664772Y-61774312D01*
X117664349Y-61769167D01*
X117607925Y-61544533D01*
X117605866Y-61539797D01*
X117517630Y-61336868D01*
X117517628Y-61336865D01*
X117515570Y-61332131D01*
X117389764Y-61137665D01*
X117233887Y-60966358D01*
X117229836Y-60963159D01*
X117229832Y-60963155D01*
X117056177Y-60826011D01*
X117056172Y-60826008D01*
X117052123Y-60822810D01*
X117047607Y-60820317D01*
X117047604Y-60820315D01*
X116853879Y-60713373D01*
X116853875Y-60713371D01*
X116849355Y-60710876D01*
X116844486Y-60709152D01*
X116844482Y-60709150D01*
X116635903Y-60635288D01*
X116635899Y-60635287D01*
X116631028Y-60633562D01*
X116625935Y-60632655D01*
X116625932Y-60632654D01*
X116408095Y-60593851D01*
X116408089Y-60593850D01*
X116403006Y-60592945D01*
X116330096Y-60592054D01*
X116176581Y-60590179D01*
X116176579Y-60590179D01*
X116171411Y-60590116D01*
X115942464Y-60625150D01*
X115722314Y-60697106D01*
X115717726Y-60699494D01*
X115717722Y-60699496D01*
X115691065Y-60713373D01*
X115516872Y-60804052D01*
X115512739Y-60807155D01*
X115512736Y-60807157D01*
X115335790Y-60940012D01*
X115331655Y-60943117D01*
X115171639Y-61110564D01*
X115168725Y-61114836D01*
X115168724Y-61114837D01*
X115153152Y-61137665D01*
X115041119Y-61301899D01*
X114943602Y-61511981D01*
X114881707Y-61735169D01*
X114857095Y-61965469D01*
X107380488Y-61965469D01*
X107377032Y-61923434D01*
X107364773Y-61774318D01*
X107364772Y-61774312D01*
X107364349Y-61769167D01*
X107307925Y-61544533D01*
X107305866Y-61539797D01*
X107217630Y-61336868D01*
X107217628Y-61336865D01*
X107215570Y-61332131D01*
X107089764Y-61137665D01*
X106933887Y-60966358D01*
X106929836Y-60963159D01*
X106929832Y-60963155D01*
X106756177Y-60826011D01*
X106756172Y-60826008D01*
X106752123Y-60822810D01*
X106747607Y-60820317D01*
X106747604Y-60820315D01*
X106553879Y-60713373D01*
X106553875Y-60713371D01*
X106549355Y-60710876D01*
X106544486Y-60709152D01*
X106544482Y-60709150D01*
X106335903Y-60635288D01*
X106335899Y-60635287D01*
X106331028Y-60633562D01*
X106325935Y-60632655D01*
X106325932Y-60632654D01*
X106108095Y-60593851D01*
X106108089Y-60593850D01*
X106103006Y-60592945D01*
X106030096Y-60592054D01*
X105876581Y-60590179D01*
X105876579Y-60590179D01*
X105871411Y-60590116D01*
X105642464Y-60625150D01*
X105422314Y-60697106D01*
X105417726Y-60699494D01*
X105417722Y-60699496D01*
X105391065Y-60713373D01*
X105216872Y-60804052D01*
X105212739Y-60807155D01*
X105212736Y-60807157D01*
X105035790Y-60940012D01*
X105031655Y-60943117D01*
X104871639Y-61110564D01*
X104868725Y-61114836D01*
X104868724Y-61114837D01*
X104853152Y-61137665D01*
X104741119Y-61301899D01*
X104643602Y-61511981D01*
X104581707Y-61735169D01*
X104557095Y-61965469D01*
X97080488Y-61965469D01*
X97077032Y-61923434D01*
X97064773Y-61774318D01*
X97064772Y-61774312D01*
X97064349Y-61769167D01*
X97007925Y-61544533D01*
X97005866Y-61539797D01*
X96917630Y-61336868D01*
X96917628Y-61336865D01*
X96915570Y-61332131D01*
X96789764Y-61137665D01*
X96633887Y-60966358D01*
X96629836Y-60963159D01*
X96629832Y-60963155D01*
X96456177Y-60826011D01*
X96456172Y-60826008D01*
X96452123Y-60822810D01*
X96447607Y-60820317D01*
X96447604Y-60820315D01*
X96253879Y-60713373D01*
X96253875Y-60713371D01*
X96249355Y-60710876D01*
X96244486Y-60709152D01*
X96244482Y-60709150D01*
X96035903Y-60635288D01*
X96035899Y-60635287D01*
X96031028Y-60633562D01*
X96025935Y-60632655D01*
X96025932Y-60632654D01*
X95808095Y-60593851D01*
X95808089Y-60593850D01*
X95803006Y-60592945D01*
X95730096Y-60592054D01*
X95576581Y-60590179D01*
X95576579Y-60590179D01*
X95571411Y-60590116D01*
X95342464Y-60625150D01*
X95122314Y-60697106D01*
X95117726Y-60699494D01*
X95117722Y-60699496D01*
X95091065Y-60713373D01*
X94916872Y-60804052D01*
X94912739Y-60807155D01*
X94912736Y-60807157D01*
X94735790Y-60940012D01*
X94731655Y-60943117D01*
X94571639Y-61110564D01*
X94568725Y-61114836D01*
X94568724Y-61114837D01*
X94553152Y-61137665D01*
X94441119Y-61301899D01*
X94343602Y-61511981D01*
X94281707Y-61735169D01*
X94257095Y-61965469D01*
X93800000Y-61965469D01*
X93800000Y-60026000D01*
X93820002Y-59957879D01*
X93873658Y-59911386D01*
X93926000Y-59900000D01*
X129200000Y-59900000D01*
X129200000Y-77474000D01*
G37*
%TD.AperFunction*%
%TD*%
%TA.AperFunction,Conductor*%
%TO.N,+12V*%
G36*
X154152121Y-59920002D02*
G01*
X154198614Y-59973658D01*
X154210000Y-60026000D01*
X154210000Y-66574000D01*
X154189998Y-66642121D01*
X154136342Y-66688614D01*
X154084000Y-66700000D01*
X128200000Y-66700000D01*
X128200000Y-61965469D01*
X135487095Y-61965469D01*
X135487392Y-61970622D01*
X135487392Y-61970625D01*
X135493067Y-62069041D01*
X135500427Y-62196697D01*
X135501564Y-62201743D01*
X135501565Y-62201749D01*
X135533741Y-62344523D01*
X135551346Y-62422642D01*
X135553288Y-62427424D01*
X135553289Y-62427428D01*
X135628419Y-62612450D01*
X135638484Y-62637237D01*
X135759501Y-62834719D01*
X135911147Y-63009784D01*
X136089349Y-63157730D01*
X136289322Y-63274584D01*
X136294147Y-63276426D01*
X136294148Y-63276427D01*
X136345106Y-63295886D01*
X136505694Y-63357209D01*
X136510760Y-63358240D01*
X136510761Y-63358240D01*
X136524111Y-63360956D01*
X136732656Y-63403385D01*
X136863324Y-63408176D01*
X136958949Y-63411683D01*
X136958953Y-63411683D01*
X136964113Y-63411872D01*
X136969233Y-63411216D01*
X136969235Y-63411216D01*
X137042270Y-63401860D01*
X137193847Y-63382442D01*
X137198795Y-63380957D01*
X137198802Y-63380956D01*
X137410747Y-63317369D01*
X137415690Y-63315886D01*
X137453488Y-63297369D01*
X137619049Y-63216262D01*
X137619052Y-63216260D01*
X137623684Y-63213991D01*
X137812243Y-63079494D01*
X137976303Y-62916005D01*
X137990675Y-62896005D01*
X138052247Y-62810318D01*
X138111458Y-62727917D01*
X138119268Y-62712116D01*
X138211784Y-62524922D01*
X138211785Y-62524920D01*
X138214078Y-62520280D01*
X138281408Y-62298671D01*
X138311640Y-62069041D01*
X138313327Y-62000000D01*
X138308844Y-61945469D01*
X145787095Y-61945469D01*
X145787392Y-61950622D01*
X145787392Y-61950625D01*
X145793067Y-62049041D01*
X145800427Y-62176697D01*
X145801564Y-62181743D01*
X145801565Y-62181749D01*
X145826760Y-62293544D01*
X145851346Y-62402642D01*
X145853288Y-62407424D01*
X145853289Y-62407428D01*
X145936540Y-62612450D01*
X145938484Y-62617237D01*
X146059501Y-62814719D01*
X146211147Y-62989784D01*
X146389349Y-63137730D01*
X146589322Y-63254584D01*
X146805694Y-63337209D01*
X146810760Y-63338240D01*
X146810761Y-63338240D01*
X146863846Y-63349040D01*
X147032656Y-63383385D01*
X147163324Y-63388176D01*
X147258949Y-63391683D01*
X147258953Y-63391683D01*
X147264113Y-63391872D01*
X147269233Y-63391216D01*
X147269235Y-63391216D01*
X147342270Y-63381860D01*
X147493847Y-63362442D01*
X147498795Y-63360957D01*
X147498802Y-63360956D01*
X147710747Y-63297369D01*
X147715690Y-63295886D01*
X147759173Y-63274584D01*
X147919049Y-63196262D01*
X147919052Y-63196260D01*
X147923684Y-63193991D01*
X148112243Y-63059494D01*
X148276303Y-62896005D01*
X148411458Y-62707917D01*
X148444214Y-62641641D01*
X148511784Y-62504922D01*
X148511785Y-62504920D01*
X148514078Y-62500280D01*
X148581408Y-62278671D01*
X148611640Y-62049041D01*
X148612756Y-62003365D01*
X148613245Y-61983365D01*
X148613245Y-61983361D01*
X148613327Y-61980000D01*
X148596417Y-61774318D01*
X148594773Y-61754318D01*
X148594772Y-61754312D01*
X148594349Y-61749167D01*
X148566137Y-61636850D01*
X148539184Y-61529544D01*
X148539183Y-61529540D01*
X148537925Y-61524533D01*
X148534630Y-61516954D01*
X148447630Y-61316868D01*
X148447628Y-61316865D01*
X148445570Y-61312131D01*
X148319764Y-61117665D01*
X148163887Y-60946358D01*
X148159836Y-60943159D01*
X148159832Y-60943155D01*
X147986177Y-60806011D01*
X147986172Y-60806008D01*
X147982123Y-60802810D01*
X147977607Y-60800317D01*
X147977604Y-60800315D01*
X147783879Y-60693373D01*
X147783875Y-60693371D01*
X147779355Y-60690876D01*
X147774486Y-60689152D01*
X147774482Y-60689150D01*
X147565903Y-60615288D01*
X147565899Y-60615287D01*
X147561028Y-60613562D01*
X147555935Y-60612655D01*
X147555932Y-60612654D01*
X147338095Y-60573851D01*
X147338089Y-60573850D01*
X147333006Y-60572945D01*
X147260096Y-60572054D01*
X147106581Y-60570179D01*
X147106579Y-60570179D01*
X147101411Y-60570116D01*
X146872464Y-60605150D01*
X146652314Y-60677106D01*
X146647726Y-60679494D01*
X146647722Y-60679496D01*
X146451461Y-60781663D01*
X146446872Y-60784052D01*
X146442739Y-60787155D01*
X146442736Y-60787157D01*
X146265790Y-60920012D01*
X146261655Y-60923117D01*
X146101639Y-61090564D01*
X146098725Y-61094836D01*
X146098724Y-61094837D01*
X146025348Y-61202402D01*
X145971119Y-61281899D01*
X145873602Y-61491981D01*
X145811707Y-61715169D01*
X145787095Y-61945469D01*
X138308844Y-61945469D01*
X138307032Y-61923434D01*
X138294773Y-61774318D01*
X138294772Y-61774312D01*
X138294349Y-61769167D01*
X138237925Y-61544533D01*
X138229229Y-61524533D01*
X138147630Y-61336868D01*
X138147628Y-61336865D01*
X138145570Y-61332131D01*
X138019764Y-61137665D01*
X138001566Y-61117665D01*
X137970134Y-61083122D01*
X137863887Y-60966358D01*
X137859836Y-60963159D01*
X137859832Y-60963155D01*
X137686177Y-60826011D01*
X137686172Y-60826008D01*
X137682123Y-60822810D01*
X137677607Y-60820317D01*
X137677604Y-60820315D01*
X137483879Y-60713373D01*
X137483875Y-60713371D01*
X137479355Y-60710876D01*
X137474486Y-60709152D01*
X137474482Y-60709150D01*
X137265903Y-60635288D01*
X137265899Y-60635287D01*
X137261028Y-60633562D01*
X137255935Y-60632655D01*
X137255932Y-60632654D01*
X137038095Y-60593851D01*
X137038089Y-60593850D01*
X137033006Y-60592945D01*
X136960096Y-60592054D01*
X136806581Y-60590179D01*
X136806579Y-60590179D01*
X136801411Y-60590116D01*
X136572464Y-60625150D01*
X136352314Y-60697106D01*
X136347726Y-60699494D01*
X136347722Y-60699496D01*
X136151461Y-60801663D01*
X136146872Y-60804052D01*
X136142739Y-60807155D01*
X136142736Y-60807157D01*
X135965790Y-60940012D01*
X135961655Y-60943117D01*
X135942506Y-60963155D01*
X135824323Y-61086827D01*
X135801639Y-61110564D01*
X135798725Y-61114836D01*
X135798724Y-61114837D01*
X135783152Y-61137665D01*
X135671119Y-61301899D01*
X135573602Y-61511981D01*
X135511707Y-61735169D01*
X135487095Y-61965469D01*
X128200000Y-61965469D01*
X128200000Y-59900000D01*
X154084000Y-59900000D01*
X154152121Y-59920002D01*
G37*
%TD.AperFunction*%
%TD*%
%TA.AperFunction,Conductor*%
%TO.N,+5V*%
G36*
X160342121Y-91520002D02*
G01*
X160388614Y-91573658D01*
X160400000Y-91626000D01*
X160400000Y-97774000D01*
X160379998Y-97842121D01*
X160326342Y-97888614D01*
X160274000Y-97900000D01*
X118226000Y-97900000D01*
X118157879Y-97879998D01*
X118111386Y-97826342D01*
X118100000Y-97774000D01*
X118100000Y-95865469D01*
X124517095Y-95865469D01*
X124517392Y-95870622D01*
X124517392Y-95870625D01*
X124523067Y-95969041D01*
X124530427Y-96096697D01*
X124531564Y-96101743D01*
X124531565Y-96101749D01*
X124563741Y-96244523D01*
X124581346Y-96322642D01*
X124583288Y-96327424D01*
X124583289Y-96327428D01*
X124666540Y-96532450D01*
X124668484Y-96537237D01*
X124789501Y-96734719D01*
X124941147Y-96909784D01*
X125119349Y-97057730D01*
X125319322Y-97174584D01*
X125535694Y-97257209D01*
X125540760Y-97258240D01*
X125540761Y-97258240D01*
X125593846Y-97269040D01*
X125762656Y-97303385D01*
X125893324Y-97308176D01*
X125988949Y-97311683D01*
X125988953Y-97311683D01*
X125994113Y-97311872D01*
X125999233Y-97311216D01*
X125999235Y-97311216D01*
X126072270Y-97301860D01*
X126223847Y-97282442D01*
X126228795Y-97280957D01*
X126228802Y-97280956D01*
X126440747Y-97217369D01*
X126445690Y-97215886D01*
X126526236Y-97176427D01*
X126649049Y-97116262D01*
X126649052Y-97116260D01*
X126653684Y-97113991D01*
X126842243Y-96979494D01*
X127006303Y-96816005D01*
X127141458Y-96627917D01*
X127157107Y-96596255D01*
X127241784Y-96424922D01*
X127241785Y-96424920D01*
X127244078Y-96420280D01*
X127311408Y-96198671D01*
X127341640Y-95969041D01*
X127343327Y-95900000D01*
X127340488Y-95865469D01*
X135317095Y-95865469D01*
X135317392Y-95870622D01*
X135317392Y-95870625D01*
X135323067Y-95969041D01*
X135330427Y-96096697D01*
X135331564Y-96101743D01*
X135331565Y-96101749D01*
X135363741Y-96244523D01*
X135381346Y-96322642D01*
X135383288Y-96327424D01*
X135383289Y-96327428D01*
X135466540Y-96532450D01*
X135468484Y-96537237D01*
X135589501Y-96734719D01*
X135741147Y-96909784D01*
X135919349Y-97057730D01*
X136119322Y-97174584D01*
X136335694Y-97257209D01*
X136340760Y-97258240D01*
X136340761Y-97258240D01*
X136393846Y-97269040D01*
X136562656Y-97303385D01*
X136693324Y-97308176D01*
X136788949Y-97311683D01*
X136788953Y-97311683D01*
X136794113Y-97311872D01*
X136799233Y-97311216D01*
X136799235Y-97311216D01*
X136872270Y-97301860D01*
X137023847Y-97282442D01*
X137028795Y-97280957D01*
X137028802Y-97280956D01*
X137240747Y-97217369D01*
X137245690Y-97215886D01*
X137326236Y-97176427D01*
X137449049Y-97116262D01*
X137449052Y-97116260D01*
X137453684Y-97113991D01*
X137642243Y-96979494D01*
X137806303Y-96816005D01*
X137941458Y-96627917D01*
X137957107Y-96596255D01*
X138041784Y-96424922D01*
X138041785Y-96424920D01*
X138044078Y-96420280D01*
X138111408Y-96198671D01*
X138141640Y-95969041D01*
X138143327Y-95900000D01*
X138140488Y-95865469D01*
X145617095Y-95865469D01*
X145617392Y-95870622D01*
X145617392Y-95870625D01*
X145623067Y-95969041D01*
X145630427Y-96096697D01*
X145631564Y-96101743D01*
X145631565Y-96101749D01*
X145663741Y-96244523D01*
X145681346Y-96322642D01*
X145683288Y-96327424D01*
X145683289Y-96327428D01*
X145766540Y-96532450D01*
X145768484Y-96537237D01*
X145889501Y-96734719D01*
X146041147Y-96909784D01*
X146219349Y-97057730D01*
X146419322Y-97174584D01*
X146635694Y-97257209D01*
X146640760Y-97258240D01*
X146640761Y-97258240D01*
X146693846Y-97269040D01*
X146862656Y-97303385D01*
X146993324Y-97308176D01*
X147088949Y-97311683D01*
X147088953Y-97311683D01*
X147094113Y-97311872D01*
X147099233Y-97311216D01*
X147099235Y-97311216D01*
X147172270Y-97301860D01*
X147323847Y-97282442D01*
X147328795Y-97280957D01*
X147328802Y-97280956D01*
X147540747Y-97217369D01*
X147545690Y-97215886D01*
X147626236Y-97176427D01*
X147749049Y-97116262D01*
X147749052Y-97116260D01*
X147753684Y-97113991D01*
X147942243Y-96979494D01*
X148106303Y-96816005D01*
X148241458Y-96627917D01*
X148257107Y-96596255D01*
X148341784Y-96424922D01*
X148341785Y-96424920D01*
X148344078Y-96420280D01*
X148411408Y-96198671D01*
X148441640Y-95969041D01*
X148443327Y-95900000D01*
X148440488Y-95865469D01*
X155717095Y-95865469D01*
X155717392Y-95870622D01*
X155717392Y-95870625D01*
X155723067Y-95969041D01*
X155730427Y-96096697D01*
X155731564Y-96101743D01*
X155731565Y-96101749D01*
X155763741Y-96244523D01*
X155781346Y-96322642D01*
X155783288Y-96327424D01*
X155783289Y-96327428D01*
X155866540Y-96532450D01*
X155868484Y-96537237D01*
X155989501Y-96734719D01*
X156141147Y-96909784D01*
X156319349Y-97057730D01*
X156519322Y-97174584D01*
X156735694Y-97257209D01*
X156740760Y-97258240D01*
X156740761Y-97258240D01*
X156793846Y-97269040D01*
X156962656Y-97303385D01*
X157093324Y-97308176D01*
X157188949Y-97311683D01*
X157188953Y-97311683D01*
X157194113Y-97311872D01*
X157199233Y-97311216D01*
X157199235Y-97311216D01*
X157272270Y-97301860D01*
X157423847Y-97282442D01*
X157428795Y-97280957D01*
X157428802Y-97280956D01*
X157640747Y-97217369D01*
X157645690Y-97215886D01*
X157726236Y-97176427D01*
X157849049Y-97116262D01*
X157849052Y-97116260D01*
X157853684Y-97113991D01*
X158042243Y-96979494D01*
X158206303Y-96816005D01*
X158341458Y-96627917D01*
X158357107Y-96596255D01*
X158441784Y-96424922D01*
X158441785Y-96424920D01*
X158444078Y-96420280D01*
X158511408Y-96198671D01*
X158541640Y-95969041D01*
X158543327Y-95900000D01*
X158528360Y-95717951D01*
X158524773Y-95674318D01*
X158524772Y-95674312D01*
X158524349Y-95669167D01*
X158467925Y-95444533D01*
X158465866Y-95439797D01*
X158377630Y-95236868D01*
X158377628Y-95236865D01*
X158375570Y-95232131D01*
X158249764Y-95037665D01*
X158093887Y-94866358D01*
X158089836Y-94863159D01*
X158089832Y-94863155D01*
X157916177Y-94726011D01*
X157916172Y-94726008D01*
X157912123Y-94722810D01*
X157907607Y-94720317D01*
X157907604Y-94720315D01*
X157713879Y-94613373D01*
X157713875Y-94613371D01*
X157709355Y-94610876D01*
X157704486Y-94609152D01*
X157704482Y-94609150D01*
X157495903Y-94535288D01*
X157495899Y-94535287D01*
X157491028Y-94533562D01*
X157485935Y-94532655D01*
X157485932Y-94532654D01*
X157268095Y-94493851D01*
X157268089Y-94493850D01*
X157263006Y-94492945D01*
X157190096Y-94492054D01*
X157036581Y-94490179D01*
X157036579Y-94490179D01*
X157031411Y-94490116D01*
X156802464Y-94525150D01*
X156582314Y-94597106D01*
X156577726Y-94599494D01*
X156577722Y-94599496D01*
X156551065Y-94613373D01*
X156376872Y-94704052D01*
X156372739Y-94707155D01*
X156372736Y-94707157D01*
X156347625Y-94726011D01*
X156191655Y-94843117D01*
X156031639Y-95010564D01*
X156028725Y-95014836D01*
X156028724Y-95014837D01*
X156013152Y-95037665D01*
X155901119Y-95201899D01*
X155803602Y-95411981D01*
X155741707Y-95635169D01*
X155717095Y-95865469D01*
X148440488Y-95865469D01*
X148428360Y-95717951D01*
X148424773Y-95674318D01*
X148424772Y-95674312D01*
X148424349Y-95669167D01*
X148367925Y-95444533D01*
X148365866Y-95439797D01*
X148277630Y-95236868D01*
X148277628Y-95236865D01*
X148275570Y-95232131D01*
X148149764Y-95037665D01*
X147993887Y-94866358D01*
X147989836Y-94863159D01*
X147989832Y-94863155D01*
X147816177Y-94726011D01*
X147816172Y-94726008D01*
X147812123Y-94722810D01*
X147807607Y-94720317D01*
X147807604Y-94720315D01*
X147613879Y-94613373D01*
X147613875Y-94613371D01*
X147609355Y-94610876D01*
X147604486Y-94609152D01*
X147604482Y-94609150D01*
X147395903Y-94535288D01*
X147395899Y-94535287D01*
X147391028Y-94533562D01*
X147385935Y-94532655D01*
X147385932Y-94532654D01*
X147168095Y-94493851D01*
X147168089Y-94493850D01*
X147163006Y-94492945D01*
X147090096Y-94492054D01*
X146936581Y-94490179D01*
X146936579Y-94490179D01*
X146931411Y-94490116D01*
X146702464Y-94525150D01*
X146482314Y-94597106D01*
X146477726Y-94599494D01*
X146477722Y-94599496D01*
X146451065Y-94613373D01*
X146276872Y-94704052D01*
X146272739Y-94707155D01*
X146272736Y-94707157D01*
X146247625Y-94726011D01*
X146091655Y-94843117D01*
X145931639Y-95010564D01*
X145928725Y-95014836D01*
X145928724Y-95014837D01*
X145913152Y-95037665D01*
X145801119Y-95201899D01*
X145703602Y-95411981D01*
X145641707Y-95635169D01*
X145617095Y-95865469D01*
X138140488Y-95865469D01*
X138128360Y-95717951D01*
X138124773Y-95674318D01*
X138124772Y-95674312D01*
X138124349Y-95669167D01*
X138067925Y-95444533D01*
X138065866Y-95439797D01*
X137977630Y-95236868D01*
X137977628Y-95236865D01*
X137975570Y-95232131D01*
X137849764Y-95037665D01*
X137693887Y-94866358D01*
X137689836Y-94863159D01*
X137689832Y-94863155D01*
X137516177Y-94726011D01*
X137516172Y-94726008D01*
X137512123Y-94722810D01*
X137507607Y-94720317D01*
X137507604Y-94720315D01*
X137313879Y-94613373D01*
X137313875Y-94613371D01*
X137309355Y-94610876D01*
X137304486Y-94609152D01*
X137304482Y-94609150D01*
X137095903Y-94535288D01*
X137095899Y-94535287D01*
X137091028Y-94533562D01*
X137085935Y-94532655D01*
X137085932Y-94532654D01*
X136868095Y-94493851D01*
X136868089Y-94493850D01*
X136863006Y-94492945D01*
X136790096Y-94492054D01*
X136636581Y-94490179D01*
X136636579Y-94490179D01*
X136631411Y-94490116D01*
X136402464Y-94525150D01*
X136182314Y-94597106D01*
X136177726Y-94599494D01*
X136177722Y-94599496D01*
X136151065Y-94613373D01*
X135976872Y-94704052D01*
X135972739Y-94707155D01*
X135972736Y-94707157D01*
X135947625Y-94726011D01*
X135791655Y-94843117D01*
X135631639Y-95010564D01*
X135628725Y-95014836D01*
X135628724Y-95014837D01*
X135613152Y-95037665D01*
X135501119Y-95201899D01*
X135403602Y-95411981D01*
X135341707Y-95635169D01*
X135317095Y-95865469D01*
X127340488Y-95865469D01*
X127328360Y-95717951D01*
X127324773Y-95674318D01*
X127324772Y-95674312D01*
X127324349Y-95669167D01*
X127267925Y-95444533D01*
X127265866Y-95439797D01*
X127177630Y-95236868D01*
X127177628Y-95236865D01*
X127175570Y-95232131D01*
X127049764Y-95037665D01*
X126893887Y-94866358D01*
X126889836Y-94863159D01*
X126889832Y-94863155D01*
X126716177Y-94726011D01*
X126716172Y-94726008D01*
X126712123Y-94722810D01*
X126707607Y-94720317D01*
X126707604Y-94720315D01*
X126513879Y-94613373D01*
X126513875Y-94613371D01*
X126509355Y-94610876D01*
X126504486Y-94609152D01*
X126504482Y-94609150D01*
X126295903Y-94535288D01*
X126295899Y-94535287D01*
X126291028Y-94533562D01*
X126285935Y-94532655D01*
X126285932Y-94532654D01*
X126068095Y-94493851D01*
X126068089Y-94493850D01*
X126063006Y-94492945D01*
X125990096Y-94492054D01*
X125836581Y-94490179D01*
X125836579Y-94490179D01*
X125831411Y-94490116D01*
X125602464Y-94525150D01*
X125382314Y-94597106D01*
X125377726Y-94599494D01*
X125377722Y-94599496D01*
X125351065Y-94613373D01*
X125176872Y-94704052D01*
X125172739Y-94707155D01*
X125172736Y-94707157D01*
X125147625Y-94726011D01*
X124991655Y-94843117D01*
X124831639Y-95010564D01*
X124828725Y-95014836D01*
X124828724Y-95014837D01*
X124813152Y-95037665D01*
X124701119Y-95201899D01*
X124603602Y-95411981D01*
X124541707Y-95635169D01*
X124517095Y-95865469D01*
X118100000Y-95865469D01*
X118100000Y-91626000D01*
X118120002Y-91557879D01*
X118173658Y-91511386D01*
X118226000Y-91500000D01*
X160274000Y-91500000D01*
X160342121Y-91520002D01*
G37*
%TD.AperFunction*%
%TD*%
%TA.AperFunction,Conductor*%
%TO.N,/12IN*%
G36*
X119942121Y-70920002D02*
G01*
X119988614Y-70973658D01*
X120000000Y-71026000D01*
X120000000Y-77900000D01*
X120804031Y-77900000D01*
X120872152Y-77920002D01*
X120886543Y-77930775D01*
X120973450Y-78006081D01*
X120973453Y-78006083D01*
X120980261Y-78011982D01*
X121113210Y-78072698D01*
X121136964Y-78079673D01*
X121177008Y-78091431D01*
X121177012Y-78091432D01*
X121181331Y-78092700D01*
X121185780Y-78093340D01*
X121185786Y-78093341D01*
X121321553Y-78112861D01*
X121321558Y-78112861D01*
X121326000Y-78113500D01*
X127574000Y-78113500D01*
X127642121Y-78133502D01*
X127688614Y-78187158D01*
X127700000Y-78239500D01*
X127700000Y-87774000D01*
X127679998Y-87842121D01*
X127626342Y-87888614D01*
X127574000Y-87900000D01*
X100326000Y-87900000D01*
X100257879Y-87879998D01*
X100211386Y-87826342D01*
X100200000Y-87774000D01*
X100200000Y-81605469D01*
X123987095Y-81605469D01*
X123987392Y-81610622D01*
X123987392Y-81610625D01*
X123993067Y-81709041D01*
X124000427Y-81836697D01*
X124001564Y-81841743D01*
X124001565Y-81841749D01*
X124033741Y-81984523D01*
X124051346Y-82062642D01*
X124053288Y-82067424D01*
X124053289Y-82067428D01*
X124136540Y-82272450D01*
X124138484Y-82277237D01*
X124259501Y-82474719D01*
X124411147Y-82649784D01*
X124589349Y-82797730D01*
X124789322Y-82914584D01*
X125005694Y-82997209D01*
X125010760Y-82998240D01*
X125010761Y-82998240D01*
X125063846Y-83009040D01*
X125232656Y-83043385D01*
X125363324Y-83048176D01*
X125458949Y-83051683D01*
X125458953Y-83051683D01*
X125464113Y-83051872D01*
X125469233Y-83051216D01*
X125469235Y-83051216D01*
X125542270Y-83041860D01*
X125693847Y-83022442D01*
X125698795Y-83020957D01*
X125698802Y-83020956D01*
X125910747Y-82957369D01*
X125915690Y-82955886D01*
X125996236Y-82916427D01*
X126119049Y-82856262D01*
X126119052Y-82856260D01*
X126123684Y-82853991D01*
X126312243Y-82719494D01*
X126476303Y-82556005D01*
X126611458Y-82367917D01*
X126658641Y-82272450D01*
X126711784Y-82164922D01*
X126711785Y-82164920D01*
X126714078Y-82160280D01*
X126781408Y-81938671D01*
X126811640Y-81709041D01*
X126813327Y-81640000D01*
X126807032Y-81563434D01*
X126794773Y-81414318D01*
X126794772Y-81414312D01*
X126794349Y-81409167D01*
X126737925Y-81184533D01*
X126735866Y-81179797D01*
X126647630Y-80976868D01*
X126647628Y-80976865D01*
X126645570Y-80972131D01*
X126519764Y-80777665D01*
X126363887Y-80606358D01*
X126359836Y-80603159D01*
X126359832Y-80603155D01*
X126186177Y-80466011D01*
X126186172Y-80466008D01*
X126182123Y-80462810D01*
X126177607Y-80460317D01*
X126177604Y-80460315D01*
X125983879Y-80353373D01*
X125983875Y-80353371D01*
X125979355Y-80350876D01*
X125974486Y-80349152D01*
X125974482Y-80349150D01*
X125765903Y-80275288D01*
X125765899Y-80275287D01*
X125761028Y-80273562D01*
X125755935Y-80272655D01*
X125755932Y-80272654D01*
X125538095Y-80233851D01*
X125538089Y-80233850D01*
X125533006Y-80232945D01*
X125460096Y-80232054D01*
X125306581Y-80230179D01*
X125306579Y-80230179D01*
X125301411Y-80230116D01*
X125072464Y-80265150D01*
X124852314Y-80337106D01*
X124847726Y-80339494D01*
X124847722Y-80339496D01*
X124821065Y-80353373D01*
X124646872Y-80444052D01*
X124642739Y-80447155D01*
X124642736Y-80447157D01*
X124617625Y-80466011D01*
X124461655Y-80583117D01*
X124301639Y-80750564D01*
X124298725Y-80754836D01*
X124298724Y-80754837D01*
X124283152Y-80777665D01*
X124171119Y-80941899D01*
X124073602Y-81151981D01*
X124011707Y-81375169D01*
X123987095Y-81605469D01*
X100200000Y-81605469D01*
X100200000Y-71026000D01*
X100220002Y-70957879D01*
X100273658Y-70911386D01*
X100326000Y-70900000D01*
X119874000Y-70900000D01*
X119942121Y-70920002D01*
G37*
%TD.AperFunction*%
%TD*%
M02*
